<?xml version="1.0" encoding="UTF-8"?>
<!DOCTYPE svg PUBLIC "-//W3C//DTD SVG 1.1//EN" "http://www.w3.org/Graphics/SVG/1.1/DTD/svg11.dtd">
<!-- Creator: CorelDRAW -->
<svg xmlns="http://www.w3.org/2000/svg" xml:space="preserve" width="125.755mm" height="83.3882mm" version="1.1" style="shape-rendering:geometricPrecision; text-rendering:geometricPrecision; image-rendering:optimizeQuality; fill-rule:evenodd; clip-rule:evenodd"
viewBox="0 0 12576 8339"
 xmlns:xlink="http://www.w3.org/1999/xlink">
 <defs>
  <style type="text/css">
   <![CDATA[
    .fil4 {fill:black}
    .fil2 {fill:#00997F}
    .fil1 {fill:#4CB8A5}
    .fil6 {fill:#7A7AAD}
    .fil3 {fill:#7FD87F}
    .fil0 {fill:#B2FAFF}
    .fil5 {fill:#CCCCFF}
   ]]>
  </style>
 </defs>
 <g id="Layer_x0020_1">
  <metadata id="CorelCorpID_0Corel-Layer"/>
  <g id="envi0024.ai">
   <polygon class="fil0" points="1963,4742 2764,4559 2494,4267 1963,2642 2228,1788 3266,991 4252,483 5979,378 7790,1257 8133,2431 7361,3868 8933,3922 9969,2962 10925,3012 11671,3706 11537,4559 11217,5039 11885,5093 11989,5812 10523,6210 11963,6502 9279,6477 10183,5812 9304,6132 6406,6078 7523,5888 8214,5253 6934,5489 3693,5410 "/>
   <polygon class="fil1" points="1151,5405 1732,4826 2296,4902 2603,5309 2603,5814 2875,5682 3381,5542 3713,5857 3810,6223 4138,6010 4547,5893 5050,6086 5380,6436 5730,6165 6528,6205 6777,6690 7186,6436 7478,6749 7747,6652 7902,6787 8059,6690 8273,6866 8661,6670 8953,6886 9456,6866 9982,7059 10447,6982 11168,7099 11534,7059 12098,7252 12426,7450 1420,7216 1384,6982 973,6866 856,6495 1034,6126 897,5857 "/>
   <polygon class="fil2" points="1458,7219 1537,6822 2149,6795 2522,6236 2682,6637 3292,6769 3800,6581 4064,6927 4755,6741 5502,7059 6248,7008 6751,7036 7470,7168 8506,7115 11938,7381 4968,7249 "/>
   <polygon class="fil3" points="0,7485 1044,7328 12497,7485 12088,7968 11349,7968 10384,8146 8981,8065 6073,8339 3335,8049 1278,8240 "/>
   <polygon class="fil4" points="1087,8019 3348,7381 6060,7673 8595,7620 10770,7661 12576,7595 12042,7752 9571,7727 10074,7965 7470,7808 3401,7673 "/>
   <polygon class="fil5" points="10625,5144 10434,5179 10424,5405 10099,5631 10396,5652 10406,5964 10396,6139 10178,6172 10290,6027 9916,6236 10396,6251 10338,7257 10234,7668 10371,7541 10450,7630 10521,7336 10721,7346 10958,7686 10838,7153 10749,6236 11029,6195 10894,6078 10757,6114 10696,5677 10861,5613 10742,5494 10658,5502 10678,7031 10511,5344 "/>
   <polygon class="fil5" points="11438,6114 11430,6269 11247,6386 11438,6406 11450,6612 11158,6774 11430,6787 11410,7437 11293,7640 11410,7610 11466,7465 11605,7465 11684,7640 11816,7630 11699,7399 11626,6774 11824,6774 11613,6627 11582,6436 11768,6416 11567,6289 11547,6106 "/>
   <polygon class="fil6" points="10467,5357 10475,7249 10691,7252 10599,7008 "/>
   <polygon class="fil6" points="11458,6195 11471,7366 11582,7394 11580,7376 11580,7369 11580,7366 11580,7361 11580,7348 11580,7336 11575,7308 11575,7303 11575,7292 11575,7290 11575,7285 11570,7277 11570,7262 11570,7242 11567,7224 11567,7203 11562,7181 11562,7155 11562,7148 11562,7135 11557,7132 11557,7125 11557,7120 11557,7115 11557,7104 11557,7089 11554,7064 11554,7059 11554,7051 11554,7049 11554,7043 11554,7038 11549,7028 11549,7015 11549,6990 11549,6977 11547,6970 11547,6965 11547,6952 11547,6939 11542,6911 11542,6906 11542,6899 11542,6886 11537,6855 11537,6843 11537,6840 11537,6835 11537,6830 11537,6817 11534,6810 11534,6807 11491,6236 11527,6144 "/>
   <polygon class="fil5" points="8552,4084 8603,3650 8938,3630 8938,3825 8778,3868 "/>
   <polygon class="fil5" points="8651,3693 8588,3985 8098,4336 8616,4392 8527,6990 8207,7668 8514,7407 8623,7620 8712,7145 9098,7094 9296,7706 9401,7602 9586,7678 9296,6990 9098,5319 9624,5260 9157,4976 9266,5171 9111,5171 8994,4356 9324,4305 8926,3924 9002,6802 8809,6787 "/>
   <polygon class="fil6" points="8837,3746 8745,3838 8758,6995 8600,7595 8545,7419 8252,7648 8600,7036 8623,4249 8331,4267 8588,4069 8623,3693 "/>
   <polygon class="fil6" points="9213,7071 9345,7727 9383,7419 9571,7711 9304,7071 8981,4559 9091,6901 "/>
   <polygon class="fil5" points="5819,1735 6673,2273 5956,2413 6424,6627 6965,7737 6538,7445 6322,7678 5860,6472 5641,1575 "/>
   <polygon class="fil5" points="5255,1090 5123,1618 4224,2238 5197,2311 4889,6728 4575,7620 5042,7193 5179,7582 5357,6787 6088,6650 5530,6375 5471,2390 5471,1440 5702,1186 "/>
   <polygon class="fil6" points="5047,1788 5047,1989 6576,2230 5872,2362 6431,6515 6777,7648 6444,7206 6365,7620 5768,2217 4542,2174 "/>
   <polygon class="fil6" points="5568,1270 5301,1295 5113,6690 4610,7541 5047,7153 5166,7513 5357,6515 5392,1405 "/>
   <polygon class="fil5" points="8532,4854 7765,5309 8989,5326 8402,5169 "/>
   <polygon class="fil4" points="4963,3238 3858,3825 7186,3767 6081,3269 6581,3668 4488,3713 "/>
   <polygon class="fil4" points="5222,3180 4994,6480 4534,7656 5123,6868 5151,7602 5293,6652 6081,6640 6353,7757 6370,6939 6810,7757 6327,6541 5735,1963 6068,6380 5293,6393 "/>
   <polygon class="fil4" points="5093,1775 4331,2233 6640,2217 5911,1816 6180,2106 4892,2146 "/>
   <polygon class="fil4" points="5235,2017 5781,3221 5268,1638 "/>
   <polygon class="fil4" points="5812,4130 5192,5032 5204,5288 "/>
   <polygon class="fil4" points="5451,5118 5939,5880 5923,5634 "/>
   <polygon class="fil4" points="5651,1618 5288,2758 5276,3279 "/>
   <polygon class="fil4" points="8466,4948 7777,5314 9850,5276 9162,4963 9474,5215 8169,5243 "/>
   <polygon class="fil4" points="8623,4910 8484,6970 8199,7704 8565,7211 8583,7666 8669,7076 9162,7069 9332,7765 9340,7257 9616,7765 9317,7008 8948,4150 9154,6906 8669,6914 "/>
   <polygon class="fil4" points="8545,4034 8072,4323 9512,4313 9053,4059 9223,4239 8420,4267 "/>
   <polygon class="fil4" points="8636,4188 8974,4938 8661,3934 "/>
   <polygon class="fil4" points="8989,5502 8608,6066 8616,6226 "/>
   <polygon class="fil4" points="8768,6119 9075,6594 9065,6439 "/>
   <polygon class="fil4" points="8895,3934 8661,4618 8661,4976 "/>
   <polygon class="fil4" points="11389,6640 11133,6774 11897,6761 11643,6645 11760,6736 11280,6749 "/>
   <polygon class="fil4" points="11445,6627 11397,7381 11288,7648 11425,7470 11430,7635 11463,7419 11643,7414 11704,7673 11707,7485 11808,7673 11699,7394 11562,6347 11638,7356 11463,7361 "/>
   <polygon class="fil4" points="11417,6307 11242,6411 11770,6406 11605,6314 11666,6380 11372,6391 "/>
   <polygon class="fil4" points="11450,6360 11575,6637 11450,6264 "/>
   <polygon class="fil4" points="10358,6005 9936,6231 11196,6205 10780,6017 10970,6170 10178,6185 "/>
   <polygon class="fil4" points="10455,5984 10366,7236 10196,7681 10417,7381 10424,7656 10483,7297 10780,7292 10881,7719 10886,7407 11059,7719 10871,7257 10650,5522 10775,7198 10483,7203 "/>
   <polygon class="fil4" points="10404,5451 10117,5626 10991,5624 10716,5469 10818,5578 10330,5593 "/>
   <polygon class="fil4" points="10460,5542 10665,6002 10480,5438 "/>
   <polygon class="fil4" points="10676,6342 10442,6685 10455,6807 "/>
   <polygon class="fil4" points="10490,6678 10676,6965 10671,6873 "/>
   <polygon class="fil4" points="10617,5392 10470,5860 10475,6022 "/>
   <polygon class="fil4" points="6647,2253 6594,2431 6502,2471 6568,2525 6502,2603 6556,2685 6447,2791 6607,2888 6810,2804 6690,2725 6782,2647 6660,2563 6769,2471 6703,2431 "/>
   <polygon class="fil4" points="7198,3820 7165,3909 7074,3965 7150,4016 7087,4084 7150,4117 7074,4186 7186,4262 7272,4176 7219,4143 7272,4064 7272,3952 7219,3922 "/>
   <polygon class="fil4" points="3884,3889 3871,3988 3749,4077 3843,4110 3749,4186 3810,4219 3729,4318 3851,4376 4003,4310 3940,4242 4016,4176 3940,4117 4003,4041 3940,4008 "/>
   <polygon class="fil4" points="4326,2286 4285,2413 4183,2446 4252,2520 4138,2568 4216,2621 4117,2680 4305,2776 4437,2687 4359,2634 4450,2568 4351,2532 4427,2446 4338,2421 "/>
   <polygon class="fil4" points="8049,4376 8024,4417 7953,4455 7991,4483 7965,4521 7991,4564 7960,4600 8024,4638 8090,4600 8108,4544 8059,4506 8098,4468 8059,4448 "/>
   <polygon class="fil4" points="9469,4359 9441,4427 9340,4475 9413,4521 9370,4559 9408,4592 9350,4638 9456,4681 9545,4638 9500,4608 9553,4552 9507,4531 9558,4463 9507,4442 "/>
   <polygon class="fil4" points="7798,5359 7747,5433 7790,5474 7732,5522 7798,5580 7877,5509 7844,5464 7894,5423 7818,5413 "/>
   <polygon class="fil4" points="9820,5326 9751,5433 9792,5474 9733,5537 9807,5603 9896,5542 9858,5502 9909,5433 9850,5413 "/>
   <polygon class="fil4" points="10117,5652 10104,5695 10061,5720 10074,5751 10053,5784 10109,5806 10157,5781 10137,5761 10173,5720 10142,5707 "/>
   <polygon class="fil4" points="10978,5652 10958,5707 10925,5723 10942,5789 11011,5806 11039,5730 11003,5720 "/>
   <polygon class="fil4" points="9954,6276 9931,6332 9898,6347 9921,6431 9992,6431 10005,6353 9967,6340 "/>
   <polygon class="fil4" points="11171,6236 11146,6281 11102,6299 11133,6332 11102,6363 11196,6375 11184,6335 11224,6307 11184,6281 "/>
   <polygon class="fil4" points="11247,6424 11242,6439 11212,6457 11229,6469 11217,6490 11247,6507 11280,6490 11260,6477 11273,6459 11255,6452 "/>
   <polygon class="fil4" points="11768,6424 11760,6439 11735,6457 11755,6469 11742,6490 11775,6507 11808,6490 11788,6472 11803,6447 11775,6444 "/>
   <polygon class="fil4" points="11138,6795 11128,6815 11095,6830 11128,6848 11100,6873 11138,6911 11184,6878 11151,6873 11176,6830 11156,6830 "/>
   <polygon class="fil4" points="11887,6787 11880,6807 11852,6822 11867,6835 11854,6855 11897,6873 11925,6853 11900,6843 11920,6810 11905,6810 "/>
   <polygon class="fil4" points="5220,1631 5263,1237 5715,1176 5730,1702 5606,1328 5344,1328 5326,1737 "/>
   <polygon class="fil4" points="8961,4000 8933,3680 8661,3680 8621,3955 8682,4028 8707,3774 8895,3774 "/>
   <polygon class="fil4" points="10447,5370 10455,5197 10658,5151 10665,5377 10617,5240 10503,5230 10480,5456 "/>
   <polygon class="fil4" points="11438,6274 11433,6139 11562,6114 11567,6264 11537,6170 11471,6160 11471,6287 "/>
   <polygon class="fil4" points="5288,3343 5326,4272 5839,5062 5408,4041 5372,3104 "/>
   <polygon class="fil4" points="5372,5423 5344,6515 5949,6157 5812,4539 5822,6015 5481,6294 "/>
   <polygon class="fil4" points="8745,4826 8699,4956 8682,5720 9012,6114 8773,5517 "/>
   <polygon class="fil4" points="8725,6327 8717,7003 9070,6810 8961,5159 8989,6711 8811,6828 "/>
   <polygon class="fil4" points="10533,5969 10503,6040 10503,6485 10688,6723 10536,6411 "/>
   <polygon class="fil4" points="10516,6911 10516,7242 10721,7148 10671,6335 10665,7056 10566,7153 "/>
   <polygon class="fil4" points="11514,6589 11471,6670 11476,6932 11587,7069 11504,6868 "/>
   <polygon class="fil4" points="11478,7127 11476,7386 11608,7333 11580,6815 11567,7290 11514,7323 "/>
   <polygon class="fil4" points="9428,4747 9878,5144 10378,5476 10955,5827 10366,5560 9794,5169 "/>
   <polygon class="fil4" points="6660,2982 7361,3584 9233,4630 8082,4092 7211,3622 "/>
   <polygon class="fil4" points="6612,2908 4079,0 4079,211 4417,711 "/>
   <polygon class="fil4" points="2149,770 4008,2654 3810,2568 2913,1778 2111,991 "/>
   <polygon class="fil4" points="7247,4379 7922,4895 9657,5618 7849,5022 "/>
   <polygon class="fil4" points="2301,3713 3729,4442 4938,5006 4600,4956 3780,4572 2357,3993 "/>
   <polygon class="fil4" points="5664,5204 6822,5507 8120,5728 6840,5634 "/>
  </g>
 </g>
</svg>
