<?xml version="1.0" encoding="UTF-8" standalone="no"?>
<!-- Creator: CorelDRAW -->

<svg
   xml:space="preserve"
   width="241.65765mm"
   height="115.91074mm"
   version="1.1"
   style="clip-rule:evenodd;fill-rule:evenodd;image-rendering:optimizeQuality;shape-rendering:geometricPrecision;text-rendering:geometricPrecision"
   viewBox="0 0 24165.611 11590.874"
   id="svg848"
   sodipodi:docname="meeting.svg"
   inkscape:version="1.1.2 (b8e25be8, 2022-02-05)"
   xmlns:inkscape="http://www.inkscape.org/namespaces/inkscape"
   xmlns:sodipodi="http://sodipodi.sourceforge.net/DTD/sodipodi-0.dtd"
   xmlns="http://www.w3.org/2000/svg"
   xmlns:svg="http://www.w3.org/2000/svg"><sodipodi:namedview
   id="namedview850"
   pagecolor="#ffffff"
   bordercolor="#666666"
   borderopacity="1.0"
   inkscape:pageshadow="2"
   inkscape:pageopacity="0.0"
   inkscape:pagecheckerboard="0"
   inkscape:document-units="mm"
   showgrid="false"
   inkscape:zoom="1.8634659"
   inkscape:cx="627.86231"
   inkscape:cy="219.21517"
   inkscape:window-width="1749"
   inkscape:window-height="1035"
   inkscape:window-x="0"
   inkscape:window-y="23"
   inkscape:window-maximized="0"
   inkscape:current-layer="Layer_x0020_1" />
 <defs
   id="defs559">
  <style
   type="text/css"
   id="style557">
   <![CDATA[
    .fil2 {fill:#33312E;fill-rule:nonzero}
    .fil10 {fill:#5F5A55;fill-rule:nonzero}
    .fil8 {fill:#C7BB94;fill-rule:nonzero}
    .fil15 {fill:#B6A79A;fill-rule:nonzero}
    .fil5 {fill:#AE9F88;fill-rule:nonzero}
    .fil21 {fill:#A19074;fill-rule:nonzero}
    .fil3 {fill:#D4BB9C;fill-rule:nonzero}
    .fil9 {fill:#AB8D9F;fill-rule:nonzero}
    .fil4 {fill:#F3D59F;fill-rule:nonzero}
    .fil17 {fill:#FFD483;fill-rule:nonzero}
    .fil18 {fill:#FFBDAB;fill-rule:nonzero}
    .fil19 {fill:#CA0100;fill-rule:nonzero}
    .fil20 {fill:#EE0E22;fill-rule:nonzero}
    .fil13 {fill:#AFB6B1;fill-rule:nonzero}
    .fil12 {fill:#C3CFCD;fill-rule:nonzero}
    .fil1 {fill:#79888D;fill-rule:nonzero}
    .fil14 {fill:#9AB4C0;fill-rule:nonzero}
    .fil6 {fill:#204869;fill-rule:nonzero}
    .fil16 {fill:#019DCA;fill-rule:nonzero}
    .fil11 {fill:#00CCCC;fill-rule:nonzero}
    .fil0 {fill:black;fill-rule:nonzero}
    .fil7 {fill:white;fill-rule:nonzero}
   ]]>
  </style>
 </defs>
 <g
   id="Layer_x0020_1"
   inkscape:label="Layer 1"
   inkscape:groupmode="layer"
   transform="translate(4499.9112,-0.06312179)">
  <metadata
   id="CorelCorpID_0Corel-Layer" />
  <g
   id="vc013284.ai">
   <g
   id="g844">
    <polygon
   class="fil0"
   points="5242,2211 4038,3071 3974,2957 5174,2129 "
   id="polygon562" />
    <path
   class="fil0"
   d="m 4498,1455 c 0,0 -195,326 -583,659 -387,334 -789,441 -789,441 l 105,114 c 0,0 468,-177 864,-574 396,-396 490,-553 490,-553 z"
   id="path564" />
    <path
   class="fil0"
   d="m 5064,1008 c 0,0 330,274 902,379 573,106 691,82 691,82 l 37,118 c 0,0 -279,2 -759,-87 -479,-90 -840,-337 -840,-337 z"
   id="path566" />
    <polygon
   class="fil1"
   points="4258,1129 5158,691 5992,2421 5258,2851 "
   id="polygon568" />
    <polygon
   class="fil0"
   points="4560,1410 5010,1176 5060,1294 4643,1507 "
   id="polygon570" />
    <polygon
   class="fil0"
   points="4765,1776 5221,1549 5265,1660 4837,1872 "
   id="polygon572" />
    <polygon
   class="fil2"
   points="4274,243 4218,734 3957,716 4174,1061 5031,651 4878,255 4747,460 "
   id="polygon574" />
    <polygon
   class="fil0"
   points="3693,2339 4169,2884 4263,2809 3807,2280 "
   id="polygon576" />
    <polygon
   class="fil0"
   points="3940,2147 4416,2693 4510,2618 4054,2089 "
   id="polygon578" />
    <polygon
   class="fil0"
   points="4212,1856 4516,2206 4611,2131 4326,1798 "
   id="polygon580" />
    <polygon
   class="fil3"
   points="2686,5247 2231,4937 3073,3371 3523,2816 3964,3204 "
   id="polygon582" />
    <path
   class="fil4"
   d="m 2256,4952 c -6,-35 264,-634 556,-1094 292,-460 590,-847 590,-847 l -483,-331 -556,1018 -412,1054 z"
   id="path584" />
    <path
   class="fil5"
   d="m 1476,4638 c 0,0 32,-618 163,-1028 130,-410 343,-809 343,-809 l 682,362 -389,733 -312,849 z"
   id="path586" />
    <path
   class="fil6"
   d="m 2733,4006 c 0,0 -186,-65 -129,-238 58,-173 305,-68 305,-68 z"
   id="path588" />
    <path
   class="fil7"
   d="m 2235,4021 c 0,0 -195,-68 -143,-237 51,-170 257,-85 257,-85 z"
   id="path590" />
    <path
   class="fil7"
   d="m 2016,4566 c 0,0 -256,-37 -206,-235 49,-199 320,-87 320,-87 z"
   id="path592" />
    <path
   class="fil0"
   d="m 2174,5301 c 0,0 235,-694 636,-1357 401,-664 619,-888 619,-888 l -77,-76 c 0,0 -489,617 -824,1248 -335,632 -456,1019 -456,1019 z"
   id="path594" />
    <path
   class="fil0"
   d="m 1987,4799 c 0,0 134,-518 483,-1204 348,-686 524,-892 524,-892 l -106,-36 c 0,0 -325,495 -572,1005 -247,509 -431,1058 -431,1058 z"
   id="path596" />
    <path
   class="fil0"
   d="m 2454,3504 c 0,0 -132,-66 -94,-181 39,-116 225,-35 225,-35 z"
   id="path598" />
    <path
   class="fil0"
   d="m 2359,4714 c 0,0 -229,-124 -140,-361 87,-238 373,-133 373,-133 l -38,116 c 0,0 -184,-90 -242,45 -57,134 86,232 86,232 z"
   id="path600" />
    <polygon
   class="fil0"
   points="3000,4797 2768,4653 2685,4810 2916,4963 2864,5056 2558,4840 2714,4500 3068,4718 "
   id="polygon602" />
    <polygon
   class="fil0"
   points="3296,4290 3063,4146 2981,4303 3211,4456 3159,4549 2853,4334 3010,3993 3364,4211 "
   id="polygon604" />
    <polygon
   class="fil0"
   points="3633,3697 3472,3600 3371,3752 3548,3864 3496,3956 3243,3783 3434,3461 3700,3618 "
   id="polygon606" />
    <polygon
   class="fil8"
   points="4959,790 5868,2478 6192,2347 5419,554 "
   id="polygon608" />
    <polygon
   class="fil1"
   points="4990,0 4872,261 5008,653 5431,467 5294,118 "
   id="polygon610" />
    <polygon
   class="fil0"
   points="4934,803 5806,2533 5912,2459 5033,740 "
   id="polygon612" />
    <path
   class="fil0"
   d="m 1966,2794 c 0,0 -231,448 -374,908 -143,460 -130,927 -130,927 h 112 c 0,0 -25,-423 112,-871 136,-448 398,-921 398,-921 z"
   id="path614" />
    <path
   class="fil0"
   d="m 2142,4099 c 0,0 -228,-124 -140,-361 88,-237 373,-133 373,-133 l -38,116 c 0,0 -184,-90 -241,45 -58,134 85,232 85,232 z"
   id="path616" />
    <path
   class="fil0"
   d="m 1912,4654 c 0,0 -265,-139 -177,-377 88,-237 411,-117 411,-117 l -38,115 c 0,0 -222,-104 -279,31 -58,134 123,247 123,247 z"
   id="path618" />
    <polygon
   class="fil9"
   points="1894,6388 1854,6778 2683,6949 2587,6400 "
   id="polygon620" />
    <path
   class="fil0"
   d="m 0,6942 c 0,0 823,-236 1653,-225 829,12 1770,457 1770,457 l -25,144 c 0,0 -998,-501 -1790,-479 C 817,6860 4,7053 4,7053 Z"
   id="path622" />
    <polygon
   class="fil0"
   points="1042,6339 1255,7076 1376,7032 1157,6296 "
   id="polygon624" />
    <polygon
   class="fil0"
   points="1704,5996 1662,7053 1782,7080 1839,5980 "
   id="polygon626" />
    <polygon
   class="fil0"
   points="2485,6230 2666,7264 2800,7237 2621,6232 "
   id="polygon628" />
    <path
   class="fil0"
   d="m 2302,5687 c 0,0 -300,319 -878,610 -578,291 -1337,464 -1337,464 0,0 -17,114 8,112 25,-2 968,-228 1472,-502 505,-273 809,-541 809,-541 z"
   id="path630" />
    <polygon
   class="fil9"
   points="1188,6551 1261,6783 1604,6783 1589,6485 "
   id="polygon632" />
    <polygon
   class="fil10"
   points="6651,2079 6477,1076 6987,952 7062,2004 "
   id="polygon634" />
    <polygon
   class="fil0"
   points="7161,798 7173,2042 7286,2017 7267,791 "
   id="polygon636" />
    <polygon
   class="fil11"
   points="12413,4618 6963,1855 3989,3336 2918,9925 10895,9670 12015,5937 "
   id="polygon638" />
    <path
   class="fil8"
   d="m 8033,2378 c 0,0 -548,1941 -399,4280 150,2340 673,3086 673,3086 h 2638 l 1568,-5226 z"
   id="path640" />
    <path
   class="fil12"
   d="m 12624,6297 c 0,0 -13,460 -274,1256 -261,797 -597,1232 -597,1232 l 958,399 236,-2875 z"
   id="path642" />
    <path
   class="fil0"
   d="m 1202,4862 c 0,0 388,135 638,270 250,134 613,430 613,430 l 1311,-2125 -693,-628 -113,59 661,595 -1201,1928 c 0,0 -150,-110 -464,-313 -314,-203 -731,-321 -731,-321 z"
   id="path644" />
    <polygon
   class="fil2"
   points="13680,3748 12810,3179 13439,2457 14089,2364 14090,3065 "
   id="polygon646" />
    <path
   class="fil13"
   d="m 13034,4867 676,-1165 38,-712 c -144,-71 -335,380 -335,380 l -827,1198 z"
   id="path648" />
    <path
   class="fil12"
   d="m 12586,4580 842,-1217 c 0,0 426,-367 186,-400 l -792,202 -1032,1204 z"
   id="path650" />
    <polygon
   class="fil0"
   points="12401,4792 13814,2682 13910,2752 12513,4837 "
   id="polygon652" />
    <polygon
   class="fil0"
   points="13385,4026 13623,3598 13520,3532 13276,3945 "
   id="polygon654" />
    <polygon
   class="fil0"
   points="12422,4336 12737,3910 12609,3828 12298,4250 "
   id="polygon656" />
    <polygon
   class="fil8"
   points="10682,9625 12624,11367 12935,10783 11180,9115 "
   id="polygon658" />
    <polygon
   class="fil7"
   points="11647,7934 13470,8804 13233,9376 11535,8108 "
   id="polygon660" />
    <polygon
   class="fil5"
   points="10932,9376 12648,11380 11889,11591 10449,9750 "
   id="polygon662" />
    <polygon
   class="fil0"
   points="10881,9439 12586,11417 12674,11305 10969,9351 "
   id="polygon664" />
    <path
   class="fil0"
   d="m 13619,6085 c 0,0 -474,575 -530,1295 -57,721 160,1310 160,1310 l -139,-10 c 0,0 -268,-914 -76,-1649 193,-736 403,-892 403,-892 z"
   id="path666" />
    <path
   class="fil0"
   d="m 11261,8867 c 0,0 909,-230 1263,-1257 355,-1026 330,-1332 330,-1332 l 118,-37 c 0,0 -6,623 -417,1593 -410,971 -1356,1195 -1356,1195 z"
   id="path668" />
    <path
   class="fil0"
   d="m 11768,4366 c 0,0 532,134 892,323 361,190 632,471 632,471 l 148,-23 c 0,0 -315,-306 -726,-549 -411,-242 -919,-318 -919,-318 z"
   id="path670" />
    <path
   class="fil13"
   d="m 14690,5015 c 0,0 317,-81 385,112 69,193 -274,311 -274,311 l -161,-193 z"
   id="path672" />
    <path
   class="fil0"
   d="m 14415,4909 c 0,0 345,-75 380,80 35,155 -70,230 -70,230 0,0 195,40 180,210 -15,170 -365,240 -365,240 l -310,-415 z"
   id="path674" />
    <path
   class="fil14"
   d="m 14080,4903 c 0,0 429,-94 473,99 43,193 -87,286 -87,286 0,0 242,50 224,262 -19,211 -455,298 -455,298 l -385,-516 z"
   id="path676" />
    <path
   class="fil14"
   d="m 12300,5084 1413,-181 c 0,0 354,-19 367,155 12,174 -156,280 -156,280 l -1848,350 z"
   id="path678" />
    <path
   class="fil15"
   d="m 12095,5688 1842,-362 c 0,0 367,81 305,336 -62,255 -349,355 -349,355 l -2016,548 z"
   id="path680" />
    <path
   class="fil0"
   d="m 13750,4897 c 0,0 305,6 324,174 18,168 -150,255 -150,255 0,0 287,56 318,267 31,212 -343,424 -343,424 l 343,-106 c 0,0 143,-112 124,-336 -19,-224 -224,-287 -224,-287 0,0 106,-111 87,-255 -18,-143 -230,-174 -230,-174 z"
   id="path682" />
    <path
   class="fil0"
   d="m 14677,5052 c 0,0 323,-56 349,93 25,150 -243,243 -243,243 l 31,106 c 0,0 355,-125 348,-361 -6,-236 -479,-211 -479,-211 z"
   id="path684" />
    <polygon
   class="fil0"
   points="15075,5033 15592,4965 15604,5108 15075,5201 "
   id="polygon686" />
    <polygon
   class="fil0"
   points="12076,5763 14117,5351 14086,5226 12076,5632 "
   id="polygon688" />
    <polygon
   class="fil0"
   points="13265,5096 13781,5033 13806,5164 13302,5239 "
   id="polygon690" />
    <polygon
   class="fil0"
   points="12444,5215 12960,5133 12991,5295 12481,5376 "
   id="polygon692" />
    <polygon
   class="fil0"
   points="12132,6060 13936,5649 13962,5774 12132,6222 "
   id="polygon694" />
    <polygon
   class="fil0"
   points="11579,8009 13380,8850 13239,9267 11560,8071 11516,8177 13303,9498 13547,8781 11626,7878 "
   id="polygon696" />
    <polygon
   class="fil0"
   points="12443,7995 13059,8194 13078,8051 12524,7877 "
   id="polygon698" />
    <polygon
   class="fil0"
   points="12581,7511 13016,7609 13034,7466 12681,7380 "
   id="polygon700" />
    <polygon
   class="fil0"
   points="12773,6968 13122,7062 13146,6937 12806,6840 "
   id="polygon702" />
    <polygon
   class="fil0"
   points="12867,6496 13308,6539 13327,6409 12929,6384 "
   id="polygon704" />
    <polygon
   class="fil0"
   points="12674,8754 13171,9059 13227,8928 12742,8655 "
   id="polygon706" />
    <path
   class="fil0"
   d="m 8293,1717 c 0,0 -81,119 -168,318 -87,199 -106,354 -106,354 l 100,19 c 0,0 62,-205 112,-342 50,-137 174,-305 174,-305 z"
   id="path708" />
    <polygon
   class="fil0"
   points="7908,2899 8013,2918 7914,3379 7802,3366 "
   id="polygon710" />
    <path
   class="fil0"
   d="m 7650,3939 c 0,0 -18,168 -33,386 -15,216 3,339 3,339 l 100,-17 c 0,0 7,-183 7,-329 1,-146 43,-376 43,-376 z"
   id="path712" />
    <polygon
   class="fil0"
   points="7662,7443 7774,7426 7830,7921 7714,7947 "
   id="polygon714" />
    <path
   class="fil0"
   d="m 7897,8696 c 0,0 39,176 98,398 59,222 117,339 117,339 l 95,-50 c 0,0 -55,-187 -104,-333 -49,-146 -85,-392 -85,-392 z"
   id="path716" />
    <path
   class="fil0"
   d="m 8287,9849 c 0,0 93,262 205,473 112,212 274,442 274,442 l 106,-68 c 0,0 -187,-281 -274,-455 -87,-174 -205,-454 -205,-454 z"
   id="path718" />
    <path
   class="fil7"
   d="m 9836,1966 50,342 -267,25 43,430 h -392 c 0,0 -380,273 -554,840 -174,566 -62,964 -62,964 l -131,174 -211,25 18,579 741,286 -62,877 c 0,0 -131,473 118,498 249,24 367,-430 367,-430 l 616,-1238 579,19 c 0,0 268,193 373,479 106,286 94,597 94,597 l 130,442 488,-62 -164,-330 180,-1257 -62,-933 118,-118 -149,-498 -19,-790 -983,-69 -25,-168 268,-37 -100,-448 -211,25 -62,-373 c 0,0 -131,43 -200,93 -68,50 -124,118 -124,118 0,0 -118,-68 -212,-81 -93,-12 -193,19 -193,19 z"
   id="path720" />
    <path
   class="fil0"
   d="m 9332,2893 c -267,261 -671,815 -541,1630 l 280,124 336,-360 z"
   id="path722" />
    <polygon
   class="fil16"
   points="9320,2868 11535,2968 11672,5245 9283,5195 "
   id="polygon724" />
    <polygon
   class="fil0"
   points="10347,2993 10372,5207 10471,5232 10434,3017 "
   id="polygon726" />
    <polygon
   class="fil17"
   points="10185,2824 10073,2787 10061,2513 10316,2495 10428,3017 10222,3024 "
   id="polygon728" />
    <polygon
   class="fil17"
   points="9694,4423 9395,4486 9457,4784 9743,4647 "
   id="polygon730" />
    <path
   class="fil0"
   d="m 10876,3104 c 0,0 -150,598 -436,859 -286,261 -660,324 -660,324 l 75,510 c 0,0 660,-38 1133,-224 472,-187 709,-473 709,-473 l -336,-1008 z"
   id="path732" />
    <path
   class="fil0"
   d="m 10166,3030 -12,-162 -106,6 -81,-799 c 0,0 156,-47 283,146 59,-199 224,-202 224,-202 l 146,980 h -111 l -106,-837 c 0,0 -94,96 -144,221 -99,-156 -192,-184 -192,-184 l 68,570 h 100 l 24,270 z"
   id="path734" />
    <polygon
   class="fil0"
   points="9210,5317 9134,6518 9408,6496 9998,5298 "
   id="polygon736" />
    <path
   class="fil0"
   d="m 10838,5307 c 0,0 218,199 318,448 99,249 118,646 118,646 l 261,-11 100,-1058 z"
   id="path738" />
    <path
   class="fil0"
   d="m 9121,6613 233,3 c 0,0 -81,311 -199,269 -118,-42 -34,-272 -34,-272 z"
   id="path740" />
    <polygon
   class="fil16"
   points="11299,6477 11467,6483 11616,6713 11349,6738 "
   id="polygon742" />
    <path
   class="fil0"
   d="m 8535,4917 c 0,0 110,-225 316,-158 206,67 201,266 201,266 l -105,1 c 0,0 -2,-150 -126,-174 -125,-23 -174,102 -174,102 z"
   id="path744" />
    <polygon
   class="fil0"
   points="8448,4881 9152,5024 9012,5442 8444,5242 "
   id="polygon746" />
    <polygon
   class="fil17"
   points="8835,4604 8965,4691 8928,4828 8722,4766 "
   id="polygon748" />
    <polygon
   class="fil7"
   points="9830,5413 9333,6405 9227,6406 9309,5405 "
   id="polygon750" />
    <path
   class="fil7"
   d="m 10944,3204 c 0,0 -69,423 -367,740 -299,318 -684,436 -684,436 l 56,299 c 0,0 503,0 939,-175 435,-174 678,-429 678,-429 l -280,-865 z"
   id="path752" />
    <polygon
   class="fil0"
   points="9973,4311 10266,4691 10390,4679 10073,4274 "
   id="polygon754" />
    <polygon
   class="fil0"
   points="10216,4193 10459,4660 10571,4641 10309,4156 "
   id="polygon756" />
    <path
   class="fil0"
   d="m 10359,4423 c 0,0 143,-74 324,-37 180,37 255,156 255,156 l 112,-56 c 0,0 -174,-156 -355,-193 -180,-37 -373,37 -373,37 z"
   id="path758" />
    <path
   class="fil0"
   d="m 10390,4069 c 0,0 268,12 448,124 181,112 261,274 261,274 l 106,-37 c 0,0 -137,-231 -336,-336 -199,-106 -392,-119 -392,-119 z"
   id="path760" />
    <path
   class="fil0"
   d="m 11044,4274 c 0,0 192,-69 317,-162 124,-93 212,-168 212,-168 l -63,-87 c 0,0 -143,149 -230,205 -87,56 -305,143 -305,143 z"
   id="path762" />
    <path
   class="fil0"
   d="m 10664,3789 c 0,0 224,50 311,149 87,100 155,237 155,237 l 106,-32 c 0,0 -99,-192 -224,-298 -124,-106 -292,-143 -292,-143 z"
   id="path764" />
    <path
   class="fil0"
   d="m 11019,3161 c 0,0 -7,248 -25,354 -19,106 -106,293 -106,293 l 100,43 c 0,0 87,-230 105,-404 19,-175 6,-305 6,-305 z"
   id="path766" />
    <polygon
   class="fil0"
   points="11361,3347 11037,3907 11093,3988 11429,3447 "
   id="polygon768" />
    <path
   class="fil0"
   d="m 10191,3381 c 39,0 71,-32 71,-71 0,-39 -32,-71 -71,-71 -39,0 -71,32 -71,71 0,39 32,71 71,71 z"
   id="path770" />
    <path
   class="fil7"
   d="m 10198,3649 c 39,0 71,-32 71,-71 0,-39 -32,-71 -71,-71 -39,0 -71,32 -71,71 0,39 32,71 71,71 z"
   id="path772" />
    <path
   class="fil0"
   d="m 10206,3918 c 39,0 70,-32 70,-71 0,-39 -31,-71 -70,-71 -40,0 -71,32 -71,71 0,39 31,71 71,71 z"
   id="path774" />
    <polygon
   class="fil0"
   points="10667,2302 10688,2412 9855,2541 9849,2454 9749,2461 9762,2647 10801,2507 10760,2283 "
   id="polygon776" />
    <path
   class="fil7"
   d="m 4840,4113 31,143 -1257,243 c 0,0 -808,331 -684,1313 88,690 834,933 1020,946 l 63,361 -137,98 156,1581 c 0,0 -137,516 149,578 286,63 411,-566 411,-566 l 560,-1524 815,-144 c 0,0 298,249 435,480 137,230 255,690 255,690 0,0 348,679 616,479 268,-199 -81,-665 -81,-665 l -99,-1462 -81,12 -13,-715 1058,-436 19,-143 h 385 l -56,-560 -379,112 -635,-112 -441,-983 -1167,187 -60,-187 209,-100 -187,-522 -208,93 c 0,0 -174,-155 -448,-68 -274,87 -342,317 -342,317 l 25,130 -234,131 100,367 z"
   id="path778" />
    <polygon
   class="fil0"
   points="4038,7341 5046,7148 4423,8754 4162,8754 "
   id="polygon780" />
    <polygon
   class="fil18"
   points="7870,5095 8244,4983 8293,5282 7883,5282 "
   id="polygon782" />
    <polygon
   class="fil0"
   points="6738,5892 6875,4013 7298,4946 7920,5045 7958,5394 "
   id="polygon784" />
    <polygon
   class="fil19"
   points="5655,7068 4162,7317 3926,5829 3938,4610 5419,4324 "
   id="polygon786" />
    <polygon
   class="fil20"
   points="5954,5269 5655,5531 5805,6974 6875,6725 6875,3988 5519,4237 5556,4660 5867,4797 5606,5108 "
   id="polygon788" />
    <path
   class="fil20"
   d="m 4150,8878 c 0,0 -50,311 87,323 137,13 199,-323 199,-323 z"
   id="path790" />
    <path
   class="fil0"
   d="m 6107,7055 c 0,0 304,227 468,589 164,362 212,583 212,583 l 302,-48 -112,-1339 z"
   id="path792" />
    <path
   class="fil19"
   d="m 6825,8324 c 0,0 269,417 386,321 118,-96 -64,-358 -64,-358 z"
   id="path794" />
    <path
   class="fil0"
   d="m 3963,4566 -386,125 c -410,236 -647,746 -410,1319 236,572 1070,566 1070,566 l 50,-311 -324,-522 z"
   id="path796" />
    <polygon
   class="fil18"
   points="4324,6526 4737,6633 4706,6334 4386,6314 "
   id="polygon798" />
    <path
   class="fil7"
   d="m 3316,5114 840,1145 -50,193 c 0,0 -752,-69 -871,-591 -118,-523 81,-747 81,-747 z"
   id="path800" />
    <path
   class="fil0"
   d="m 3148,5643 c 0,0 230,112 330,324 100,211 43,360 43,360 l 131,63 c 0,0 12,-262 -112,-523 -124,-261 -405,-336 -405,-336 z"
   id="path802" />
    <polygon
   class="fil0"
   points="3422,5214 3291,5655 3372,5730 3496,5301 "
   id="polygon804" />
    <polygon
   class="fil0"
   points="3565,5394 3484,5873 3559,6047 3646,5525 "
   id="polygon806" />
    <path
   class="fil0"
   d="m 3857,5817 c 0,0 -130,106 -149,292 -19,187 12,299 12,299 l 113,62 c 0,0 -44,-224 -19,-354 25,-131 112,-212 112,-212 z"
   id="path808" />
    <polygon
   class="fil0"
   points="4025,6041 3839,6446 3926,6489 4106,6128 "
   id="polygon810" />
    <polygon
   class="fil7"
   points="4162,7447 4256,8611 4349,8611 4834,7323 "
   id="polygon812" />
    <path
   class="fil0"
   d="m 5651,4966 c 59,0 108,-49 108,-108 0,-60 -49,-109 -108,-109 -60,0 -108,49 -108,109 0,59 48,108 108,108 z"
   id="path814" />
    <path
   class="fil0"
   d="m 5693,5418 c 59,0 108,-48 108,-108 0,-60 -49,-108 -108,-108 -60,0 -108,48 -108,108 0,60 48,108 108,108 z"
   id="path816" />
    <polygon
   class="fil0"
   points="5469,4828 5077,4884 5102,5021 5475,4959 "
   id="polygon818" />
    <polygon
   class="fil0"
   points="5489,5177 5097,5233 5121,5370 5495,5308 "
   id="polygon820" />
    <polygon
   class="fil0"
   points="5545,5607 5153,5663 5178,5800 5552,5738 "
   id="polygon822" />
    <polygon
   class="fil0"
   points="5307,4343 5556,7080 5674,7074 5425,4330 "
   id="polygon824" />
    <path
   class="fil20"
   d="m 4943,3746 -15,-119 c 0,0 105,-174 248,-199 144,-25 246,100 246,100 z"
   id="path826" />
    <polygon
   class="fil18"
   points="5562,4032 5469,3733 5152,3814 5238,4386 5575,4305 5431,4100 "
   id="polygon828" />
    <path
   class="fil0"
   d="m 5039,4461 -161,-803 c 0,0 0,-224 230,-298 230,-75 361,93 361,93 l 168,603 -137,44 99,218 -112,18 -130,-292 156,-56 -137,-479 c 0,0 -125,-75 -231,-38 -106,38 -162,181 -162,181 l 162,765 z"
   id="path830" />
    <polygon
   class="fil0"
   points="6946,8303 7089,8493 7179,8453 7064,8300 "
   id="polygon832" />
    <polygon
   class="fil0"
   points="5743,3658 4704,4006 4666,3888 5599,3577 5556,3465 5662,3428 "
   id="polygon834" />
    <polygon
   class="fil16"
   points="8623,5015 8523,5177 8915,5295 8915,5071 "
   id="polygon836" />
    <polygon
   class="fil21"
   points="9277,9944 9668,11218 10291,11019 9737,9913 "
   id="polygon838" />
    <path
   class="fil0"
   d="m 11398,9906 c 0,0 454,-460 784,-647 330,-186 604,-217 604,-217 l 137,118 c 0,0 -423,25 -803,286 -380,261 -616,560 -616,560 z"
   id="path840" />
    <polygon
   class="fil0"
   points="7572,6080 7584,6802 7721,6802 7696,6067 "
   id="polygon842" />
   </g>
  </g>
 <rect
   style="fill:#ffbe30;stroke:#000000;stroke-width:8.02011"
   id="rect874"
   width="8.1167755"
   height="36.5135"
   x="-19661.689"
   y="-11341.387"
   transform="scale(-1)" /><rect
   style="fill:#ffbe30;stroke:#000000;stroke-width:9.43668"
   id="rect876"
   width="2.8231511"
   height="45.418243"
   x="-4495.1929"
   y="3768.1907" /></g>
</svg>
