<?xml version="1.0" encoding="UTF-8" standalone="no"?>
<!-- Creator: CorelDRAW -->

<svg
   xml:space="preserve"
   width="241.65765mm"
   height="115.91074mm"
   version="1.1"
   style="clip-rule:evenodd;fill-rule:evenodd;image-rendering:optimizeQuality;shape-rendering:geometricPrecision;text-rendering:geometricPrecision"
   viewBox="0 0 24165.611 11590.874"
   id="svg848"
   sodipodi:docname="meeting.svg"
   inkscape:version="1.1.2 (b8e25be8, 2022-02-05)"
   xmlns:inkscape="http://www.inkscape.org/namespaces/inkscape"
   xmlns:sodipodi="http://sodipodi.sourceforge.net/DTD/sodipodi-0.dtd"
   xmlns="http://www.w3.org/2000/svg"
   xmlns:svg="http://www.w3.org/2000/svg"><sodipodi:namedview
   id="namedview850"
   pagecolor="#ffffff"
   bordercolor="#666666"
   borderopacity="1.0"
   inkscape:pageshadow="2"
   inkscape:pageopacity="0.0"
   inkscape:pagecheckerboard="0"
   inkscape:document-units="mm"
   showgrid="false"
   inkscape:zoom="0.93173295"
   inkscape:cx="499.07004"
   inkscape:cy="186.21215"
   inkscape:window-width="1749"
   inkscape:window-height="1035"
   inkscape:window-x="0"
   inkscape:window-y="23"
   inkscape:window-maximized="0"
   inkscape:current-layer="Layer_x0020_1" />
 <defs
   id="defs559">
  <style
   type="text/css"
   id="style557">
   <![CDATA[
    .fil2 {fill:#33312E;fill-rule:nonzero}
    .fil10 {fill:#5F5A55;fill-rule:nonzero}
    .fil8 {fill:#C7BB94;fill-rule:nonzero}
    .fil15 {fill:#B6A79A;fill-rule:nonzero}
    .fil5 {fill:#AE9F88;fill-rule:nonzero}
    .fil21 {fill:#A19074;fill-rule:nonzero}
    .fil3 {fill:#D4BB9C;fill-rule:nonzero}
    .fil9 {fill:#AB8D9F;fill-rule:nonzero}
    .fil4 {fill:#F3D59F;fill-rule:nonzero}
    .fil17 {fill:#FFD483;fill-rule:nonzero}
    .fil18 {fill:#FFBDAB;fill-rule:nonzero}
    .fil19 {fill:#CA0100;fill-rule:nonzero}
    .fil20 {fill:#EE0E22;fill-rule:nonzero}
    .fil13 {fill:#AFB6B1;fill-rule:nonzero}
    .fil12 {fill:#C3CFCD;fill-rule:nonzero}
    .fil1 {fill:#79888D;fill-rule:nonzero}
    .fil14 {fill:#9AB4C0;fill-rule:nonzero}
    .fil6 {fill:#204869;fill-rule:nonzero}
    .fil16 {fill:#019DCA;fill-rule:nonzero}
    .fil11 {fill:#00CCCC;fill-rule:nonzero}
    .fil0 {fill:black;fill-rule:nonzero}
    .fil7 {fill:white;fill-rule:nonzero}
   ]]>
  </style>
 </defs>
 <g
   id="Layer_x0020_1"
   inkscape:label="Layer 1"
   inkscape:groupmode="layer"
   transform="translate(4499.9112,-0.06312179)">
  <metadata
   id="CorelCorpID_0Corel-Layer" />
  <g
   id="vc013284.ai">
   <g
   id="g844">
    <polygon
   class="fil0"
   points="5242,2211 4038,3071 3974,2957 5174,2129 "
   id="polygon562" />
    <path
   class="fil0"
   d="m 4498,1455 c 0,0 -195,326 -583,659 -387,334 -789,441 -789,441 l 105,114 c 0,0 468,-177 864,-574 396,-396 490,-553 490,-553 z"
   id="path564" />
    <path
   class="fil0"
   d="m 5064,1008 c 0,0 330,274 902,379 573,106 691,82 691,82 l 37,118 c 0,0 -279,2 -759,-87 -479,-90 -840,-337 -840,-337 z"
   id="path566" />
    <polygon
   class="fil1"
   points="4258,1129 5158,691 5992,2421 5258,2851 "
   id="polygon568" />
    <polygon
   class="fil0"
   points="4560,1410 5010,1176 5060,1294 4643,1507 "
   id="polygon570" />
    <polygon
   class="fil0"
   points="4765,1776 5221,1549 5265,1660 4837,1872 "
   id="polygon572" />
    <polygon
   class="fil2"
   points="4274,243 4218,734 3957,716 4174,1061 5031,651 4878,255 4747,460 "
   id="polygon574" />
    <polygon
   class="fil0"
   points="3693,2339 4169,2884 4263,2809 3807,2280 "
   id="polygon576" />
    <polygon
   class="fil0"
   points="3940,2147 4416,2693 4510,2618 4054,2089 "
   id="polygon578" />
    <polygon
   class="fil0"
   points="4212,1856 4516,2206 4611,2131 4326,1798 "
   id="polygon580" />
    <polygon
   class="fil3"
   points="2686,5247 2231,4937 3073,3371 3523,2816 3964,3204 "
   id="polygon582" />
    <path
   class="fil4"
   d="m 2256,4952 c -6,-35 264,-634 556,-1094 292,-460 590,-847 590,-847 l -483,-331 -556,1018 -412,1054 z"
   id="path584" />
    <path
   class="fil5"
   d="m 1476,4638 c 0,0 32,-618 163,-1028 130,-410 343,-809 343,-809 l 682,362 -389,733 -312,849 z"
   id="path586" />
    <path
   class="fil6"
   d="m 2733,4006 c 0,0 -186,-65 -129,-238 58,-173 305,-68 305,-68 z"
   id="path588" />
    <path
   class="fil7"
   d="m 2235,4021 c 0,0 -195,-68 -143,-237 51,-170 257,-85 257,-85 z"
   id="path590" />
    <path
   class="fil7"
   d="m 2016,4566 c 0,0 -256,-37 -206,-235 49,-199 320,-87 320,-87 z"
   id="path592" />
    <path
   class="fil0"
   d="m 2174,5301 c 0,0 235,-694 636,-1357 401,-664 619,-888 619,-888 l -77,-76 c 0,0 -489,617 -824,1248 -335,632 -456,1019 -456,1019 z"
   id="path594" />
    <path
   class="fil0"
   d="m 1987,4799 c 0,0 134,-518 483,-1204 348,-686 524,-892 524,-892 l -106,-36 c 0,0 -325,495 -572,1005 -247,509 -431,1058 -431,1058 z"
   id="path596" />
    <path
   class="fil0"
   d="m 2454,3504 c 0,0 -132,-66 -94,-181 39,-116 225,-35 225,-35 z"
   id="path598" />
    <path
   class="fil0"
   d="m 2359,4714 c 0,0 -229,-124 -140,-361 87,-238 373,-133 373,-133 l -38,116 c 0,0 -184,-90 -242,45 -57,134 86,232 86,232 z"
   id="path600" />
    <polygon
   class="fil0"
   points="3000,4797 2768,4653 2685,4810 2916,4963 2864,5056 2558,4840 2714,4500 3068,4718 "
   id="polygon602" />
    <polygon
   class="fil0"
   points="3296,4290 3063,4146 2981,4303 3211,4456 3159,4549 2853,4334 3010,3993 3364,4211 "
   id="polygon604" />
    <polygon
   class="fil0"
   points="3633,3697 3472,3600 3371,3752 3548,3864 3496,3956 3243,3783 3434,3461 3700,3618 "
   id="polygon606" />
    <polygon
   class="fil8"
   points="4959,790 5868,2478 6192,2347 5419,554 "
   id="polygon608" />
    <polygon
   class="fil1"
   points="4990,0 4872,261 5008,653 5431,467 5294,118 "
   id="polygon610" />
    <polygon
   class="fil0"
   points="4934,803 5806,2533 5912,2459 5033,740 "
   id="polygon612" />
    <path
   class="fil0"
   d="m 1966,2794 c 0,0 -231,448 -374,908 -143,460 -130,927 -130,927 h 112 c 0,0 -25,-423 112,-871 136,-448 398,-921 398,-921 z"
   id="path614" />
    <path
   class="fil0"
   d="m 2142,4099 c 0,0 -228,-124 -140,-361 88,-237 373,-133 373,-133 l -38,116 c 0,0 -184,-90 -241,45 -58,134 85,232 85,232 z"
   id="path616" />
    <path
   class="fil0"
   d="m 1912,4654 c 0,0 -265,-139 -177,-377 88,-237 411,-117 411,-117 l -38,115 c 0,0 -222,-104 -279,31 -58,134 123,247 123,247 z"
   id="path618" />
    <polygon
   class="fil9"
   points="1894,6388 1854,6778 2683,6949 2587,6400 "
   id="polygon620" />
    <path
   class="fil0"
   d="m 0,6942 c 0,0 823,-236 1653,-225 829,12 1770,457 1770,457 l -25,144 c 0,0 -998,-501 -1790,-479 C 817,6860 4,7053 4,7053 Z"
   id="path622" />
    <polygon
   class="fil0"
   points="1042,6339 1255,7076 1376,7032 1157,6296 "
   id="polygon624" />
    <polygon
   class="fil0"
   points="1704,5996 1662,7053 1782,7080 1839,5980 "
   id="polygon626" />
    <polygon
   class="fil0"
   points="2485,6230 2666,7264 2800,7237 2621,6232 "
   id="polygon628" />
    <path
   class="fil0"
   d="m 2302,5687 c 0,0 -300,319 -878,610 -578,291 -1337,464 -1337,464 0,0 -17,114 8,112 25,-2 968,-228 1472,-502 505,-273 809,-541 809,-541 z"
   id="path630" />
    <polygon
   class="fil9"
   points="1188,6551 1261,6783 1604,6783 1589,6485 "
   id="polygon632" />
    <polygon
   class="fil10"
   points="6651,2079 6477,1076 6987,952 7062,2004 "
   id="polygon634" />
    <polygon
   class="fil0"
   points="7161,798 7173,2042 7286,2017 7267,791 "
   id="polygon636" />
    <polygon
   class="fil11"
   points="12413,4618 6963,1855 3989,3336 2918,9925 10895,9670 12015,5937 "
   id="polygon638" />
    <path
   class="fil8"
   d="m 8033,2378 c 0,0 -548,1941 -399,4280 150,2340 673,3086 673,3086 h 2638 l 1568,-5226 z"
   id="path640" />
    <path
   class="fil12"
   d="m 12624,6297 c 0,0 -13,460 -274,1256 -261,797 -597,1232 -597,1232 l 958,399 236,-2875 z"
   id="path642" />
    <path
   class="fil0"
   d="m 1202,4862 c 0,0 388,135 638,270 250,134 613,430 613,430 l 1311,-2125 -693,-628 -113,59 661,595 -1201,1928 c 0,0 -150,-110 -464,-313 -314,-203 -731,-321 -731,-321 z"
   id="path644" />
    <polygon
   class="fil2"
   points="13680,3748 12810,3179 13439,2457 14089,2364 14090,3065 "
   id="polygon646" />
    <path
   class="fil13"
   d="m 13034,4867 676,-1165 38,-712 c -144,-71 -335,380 -335,380 l -827,1198 z"
   id="path648" />
    <path
   class="fil12"
   d="m 12586,4580 842,-1217 c 0,0 426,-367 186,-400 l -792,202 -1032,1204 z"
   id="path650" />
    <polygon
   class="fil0"
   points="12401,4792 13814,2682 13910,2752 12513,4837 "
   id="polygon652" />
    <polygon
   class="fil0"
   points="13385,4026 13623,3598 13520,3532 13276,3945 "
   id="polygon654" />
    <polygon
   class="fil0"
   points="12422,4336 12737,3910 12609,3828 12298,4250 "
   id="polygon656" />
    <polygon
   class="fil8"
   points="10682,9625 12624,11367 12935,10783 11180,9115 "
   id="polygon658" />
    <polygon
   class="fil7"
   points="11647,7934 13470,8804 13233,9376 11535,8108 "
   id="polygon660" />
    <polygon
   class="fil5"
   points="10932,9376 12648,11380 11889,11591 10449,9750 "
   id="polygon662" />
    <polygon
   class="fil0"
   points="10881,9439 12586,11417 12674,11305 10969,9351 "
   id="polygon664" />
    <path
   class="fil0"
   d="m 13619,6085 c 0,0 -474,575 -530,1295 -57,721 160,1310 160,1310 l -139,-10 c 0,0 -268,-914 -76,-1649 193,-736 403,-892 403,-892 z"
   id="path666" />
    <path
   class="fil0"
   d="m 11261,8867 c 0,0 909,-230 1263,-1257 355,-1026 330,-1332 330,-1332 l 118,-37 c 0,0 -6,623 -417,1593 -410,971 -1356,1195 -1356,1195 z"
   id="path668" />
    <path
   class="fil0"
   d="m 11768,4366 c 0,0 532,134 892,323 361,190 632,471 632,471 l 148,-23 c 0,0 -315,-306 -726,-549 -411,-242 -919,-318 -919,-318 z"
   id="path670" />
    <path
   class="fil13"
   d="m 14690,5015 c 0,0 317,-81 385,112 69,193 -274,311 -274,311 l -161,-193 z"
   id="path672" />
    <path
   class="fil0"
   d="m 14415,4909 c 0,0 345,-75 380,80 35,155 -70,230 -70,230 0,0 195,40 180,210 -15,170 -365,240 -365,240 l -310,-415 z"
   id="path674" />
    <path
   class="fil14"
   d="m 14080,4903 c 0,0 429,-94 473,99 43,193 -87,286 -87,286 0,0 242,50 224,262 -19,211 -455,298 -455,298 l -385,-516 z"
   id="path676" />
    <path
   class="fil14"
   d="m 12300,5084 1413,-181 c 0,0 354,-19 367,155 12,174 -156,280 -156,280 l -1848,350 z"
   id="path678" />
    <path
   class="fil15"
   d="m 12095,5688 1842,-362 c 0,0 367,81 305,336 -62,255 -349,355 -349,355 l -2016,548 z"
   id="path680" />
    <path
   class="fil0"
   d="m 13750,4897 c 0,0 305,6 324,174 18,168 -150,255 -150,255 0,0 287,56 318,267 31,212 -343,424 -343,424 l 343,-106 c 0,0 143,-112 124,-336 -19,-224 -224,-287 -224,-287 0,0 106,-111 87,-255 -18,-143 -230,-174 -230,-174 z"
   id="path682" />
    <path
   class="fil0"
   d="m 14677,5052 c 0,0 323,-56 349,93 25,150 -243,243 -243,243 l 31,106 c 0,0 355,-125 348,-361 -6,-236 -479,-211 -479,-211 z"
   id="path684" />
    <polygon
   class="fil0"
   points="15075,5033 15592,4965 15604,5108 15075,5201 "
   id="polygon686" />
    <polygon
   class="fil0"
   points="12076,5763 14117,5351 14086,5226 12076,5632 "
   id="polygon688" />
    <polygon
   class="fil0"
   points="13265,5096 13781,5033 13806,5164 13302,5239 "
   id="polygon690" />
    <polygon
   class="fil0"
   points="12444,5215 12960,5133 12991,5295 12481,5376 "
   id="polygon692" />
    <polygon
   class="fil0"
   points="12132,6060 13936,5649 13962,5774 12132,6222 "
   id="polygon694" />
    <polygon
   class="fil0"
   points="11579,8009 13380,8850 13239,9267 11560,8071 11516,8177 13303,9498 13547,8781 11626,7878 "
   id="polygon696" />
    <polygon
   class="fil0"
   points="12443,7995 13059,8194 13078,8051 12524,7877 "
   id="polygon698" />
    <polygon
   class="fil0"
   points="12581,7511 13016,7609 13034,7466 12681,7380 "
   id="polygon700" />
    <polygon
   class="fil0"
   points="12773,6968 13122,7062 13146,6937 12806,6840 "
   id="polygon702" />
    <polygon
   class="fil0"
   points="12867,6496 13308,6539 13327,6409 12929,6384 "
   id="polygon704" />
    <polygon
   class="fil0"
   points="12674,8754 13171,9059 13227,8928 12742,8655 "
   id="polygon706" />
    <path
   class="fil0"
   d="m 8293,1717 c 0,0 -81,119 -168,318 -87,199 -106,354 -106,354 l 100,19 c 0,0 62,-205 112,-342 50,-137 174,-305 174,-305 z"
   id="path708" />
    <polygon
   class="fil0"
   points="7908,2899 8013,2918 7914,3379 7802,3366 "
   id="polygon710" />
    <path
   class="fil0"
   d="m 7650,3939 c 0,0 -18,168 -33,386 -15,216 3,339 3,339 l 100,-17 c 0,0 7,-183 7,-329 1,-146 43,-376 43,-376 z"
   id="path712" />
    <polygon
   class="fil0"
   points="7662,7443 7774,7426 7830,7921 7714,7947 "
   id="polygon714" />
    <path
   class="fil0"
   d="m 7897,8696 c 0,0 39,176 98,398 59,222 117,339 117,339 l 95,-50 c 0,0 -55,-187 -104,-333 -49,-146 -85,-392 -85,-392 z"
   id="path716" />
    <path
   class="fil0"
   d="m 8287,9849 c 0,0 93,262 205,473 112,212 274,442 274,442 l 106,-68 c 0,0 -187,-281 -274,-455 -87,-174 -205,-454 -205,-454 z"
   id="path718" />
    <path
   class="fil7"
   d="m 9836,1966 50,342 -267,25 43,430 h -392 c 0,0 -380,273 -554,840 -174,566 -62,964 -62,964 l -131,174 -211,25 18,579 741,286 -62,877 c 0,0 -131,473 118,498 249,24 367,-430 367,-430 l 616,-1238 579,19 c 0,0 268,193 373,479 106,286 94,597 94,597 l 130,442 488,-62 -164,-330 180,-1257 -62,-933 118,-118 -149,-498 -19,-790 -983,-69 -25,-168 268,-37 -100,-448 -211,25 -62,-373 c 0,0 -131,43 -200,93 -68,50 -124,118 -124,118 0,0 -118,-68 -212,-81 -93,-12 -193,19 -193,19 z"
   id="path720" />
    <path
   class="fil0"
   d="m 9332,2893 c -267,261 -671,815 -541,1630 l 280,124 336,-360 z"
   id="path722" />
    <polygon
   class="fil16"
   points="9320,2868 11535,2968 11672,5245 9283,5195 "
   id="polygon724" />
    <polygon
   class="fil0"
   points="10347,2993 10372,5207 10471,5232 10434,3017 "
   id="polygon726" />
    <polygon
   class="fil17"
   points="10185,2824 10073,2787 10061,2513 10316,2495 10428,3017 10222,3024 "
   id="polygon728" />
    <polygon
   class="fil17"
   points="9694,4423 9395,4486 9457,4784 9743,4647 "
   id="polygon730" />
    <path
   class="fil0"
   d="m 10876,3104 c 0,0 -150,598 -436,859 -286,261 -660,324 -660,324 l 75,510 c 0,0 660,-38 1133,-224 472,-187 709,-473 709,-473 l -336,-1008 z"
   id="path732" />
    <path
   class="fil0"
   d="m 10166,3030 -12,-162 -106,6 -81,-799 c 0,0 156,-47 283,146 59,-199 224,-202 224,-202 l 146,980 h -111 l -106,-837 c 0,0 -94,96 -144,221 -99,-156 -192,-184 -192,-184 l 68,570 h 100 l 24,270 z"
   id="path734" />
    <polygon
   class="fil0"
   points="9210,5317 9134,6518 9408,6496 9998,5298 "
   id="polygon736" />
    <path
   class="fil0"
   d="m 10838,5307 c 0,0 218,199 318,448 99,249 118,646 118,646 l 261,-11 100,-1058 z"
   id="path738" />
    <path
   class="fil0"
   d="m 9121,6613 233,3 c 0,0 -81,311 -199,269 -118,-42 -34,-272 -34,-272 z"
   id="path740" />
    <polygon
   class="fil16"
   points="11299,6477 11467,6483 11616,6713 11349,6738 "
   id="polygon742" />
    <path
   class="fil0"
   d="m 8535,4917 c 0,0 110,-225 316,-158 206,67 201,266 201,266 l -105,1 c 0,0 -2,-150 -126,-174 -125,-23 -174,102 -174,102 z"
   id="path744" />
    <polygon
   class="fil0"
   points="8448,4881 9152,5024 9012,5442 8444,5242 "
   id="polygon746" />
    <polygon
   class="fil17"
   points="8835,4604 8965,4691 8928,4828 8722,4766 "
   id="polygon748" />
    <polygon
   class="fil7"
   points="9830,5413 9333,6405 9227,6406 9309,5405 "
   id="polygon750" />
    <path
   class="fil7"
   d="m 10944,3204 c 0,0 -69,423 -367,740 -299,318 -684,436 -684,436 l 56,299 c 0,0 503,0 939,-175 435,-174 678,-429 678,-429 l -280,-865 z"
   id="path752" />
    <polygon
   class="fil0"
   points="9973,4311 10266,4691 10390,4679 10073,4274 "
   id="polygon754" />
    <polygon
   class="fil0"
   points="10216,4193 10459,4660 10571,4641 10309,4156 "
   id="polygon756" />
    <path
   class="fil0"
   d="m 10359,4423 c 0,0 143,-74 324,-37 180,37 255,156 255,156 l 112,-56 c 0,0 -174,-156 -355,-193 -180,-37 -373,37 -373,37 z"
   id="path758" />
    <path
   class="fil0"
   d="m 10390,4069 c 0,0 268,12 448,124 181,112 261,274 261,274 l 106,-37 c 0,0 -137,-231 -336,-336 -199,-106 -392,-119 -392,-119 z"
   id="path760" />
    <path
   class="fil0"
   d="m 11044,4274 c 0,0 192,-69 317,-162 124,-93 212,-168 212,-168 l -63,-87 c 0,0 -143,149 -230,205 -87,56 -305,143 -305,143 z"
   id="path762" />
    <path
   class="fil0"
   d="m 10664,3789 c 0,0 224,50 311,149 87,100 155,237 155,237 l 106,-32 c 0,0 -99,-192 -224,-298 -124,-106 -292,-143 -292,-143 z"
   id="path764" />
    <path
   class="fil0"
   d="m 11019,3161 c 0,0 -7,248 -25,354 -19,106 -106,293 -106,293 l 100,43 c 0,0 87,-230 105,-404 19,-175 6,-305 6,-305 z"
   id="path766" />
    <polygon
   class="fil0"
   points="11361,3347 11037,3907 11093,3988 11429,3447 "
   id="polygon768" />
    <path
   class="fil0"
   d="m 10191,3381 c 39,0 71,-32 71,-71 0,-39 -32,-71 -71,-71 -39,0 -71,32 -71,71 0,39 32,71 71,71 z"
   id="path770" />
    <path
   class="fil7"
   d="m 10198,3649 c 39,0 71,-32 71,-71 0,-39 -32,-71 -71,-71 -39,0 -71,32 -71,71 0,39 32,71 71,71 z"
   id="path772" />
    <path
   class="fil0"
   d="m 10206,3918 c 39,0 70,-32 70,-71 0,-39 -31,-71 -70,-71 -40,0 -71,32 -71,71 0,39 31,71 71,71 z"
   id="path774" />
    <polygon
   class="fil0"
   points="10667,2302 10688,2412 9855,2541 9849,2454 9749,2461 9762,2647 10801,2507 10760,2283 "
   id="polygon776" />
    <path
   class="fil7"
   d="m 4840,4113 31,143 -1257,243 c 0,0 -808,331 -684,1313 88,690 834,933 1020,946 l 63,361 -137,98 156,1581 c 0,0 -137,516 149,578 286,63 411,-566 411,-566 l 560,-1524 815,-144 c 0,0 298,249 435,480 137,230 255,690 255,690 0,0 348,679 616,479 268,-199 -81,-665 -81,-665 l -99,-1462 -81,12 -13,-715 1058,-436 19,-143 h 385 l -56,-560 -379,112 -635,-112 -441,-983 -1167,187 -60,-187 209,-100 -187,-522 -208,93 c 0,0 -174,-155 -448,-68 -274,87 -342,317 -342,317 l 25,130 -234,131 100,367 z"
   id="path778" />
    <polygon
   class="fil0"
   points="4038,7341 5046,7148 4423,8754 4162,8754 "
   id="polygon780" />
    <polygon
   class="fil18"
   points="7870,5095 8244,4983 8293,5282 7883,5282 "
   id="polygon782" />
    <polygon
   class="fil0"
   points="6738,5892 6875,4013 7298,4946 7920,5045 7958,5394 "
   id="polygon784" />
    <polygon
   class="fil19"
   points="5655,7068 4162,7317 3926,5829 3938,4610 5419,4324 "
   id="polygon786" />
    <polygon
   class="fil20"
   points="5954,5269 5655,5531 5805,6974 6875,6725 6875,3988 5519,4237 5556,4660 5867,4797 5606,5108 "
   id="polygon788" />
    <path
   class="fil20"
   d="m 4150,8878 c 0,0 -50,311 87,323 137,13 199,-323 199,-323 z"
   id="path790" />
    <path
   class="fil0"
   d="m 6107,7055 c 0,0 304,227 468,589 164,362 212,583 212,583 l 302,-48 -112,-1339 z"
   id="path792" />
    <path
   class="fil19"
   d="m 6825,8324 c 0,0 269,417 386,321 118,-96 -64,-358 -64,-358 z"
   id="path794" />
    <path
   class="fil0"
   d="m 3963,4566 -386,125 c -410,236 -647,746 -410,1319 236,572 1070,566 1070,566 l 50,-311 -324,-522 z"
   id="path796" />
    <polygon
   class="fil18"
   points="4324,6526 4737,6633 4706,6334 4386,6314 "
   id="polygon798" />
    <path
   class="fil7"
   d="m 3316,5114 840,1145 -50,193 c 0,0 -752,-69 -871,-591 -118,-523 81,-747 81,-747 z"
   id="path800" />
    <path
   class="fil0"
   d="m 3148,5643 c 0,0 230,112 330,324 100,211 43,360 43,360 l 131,63 c 0,0 12,-262 -112,-523 -124,-261 -405,-336 -405,-336 z"
   id="path802" />
    <polygon
   class="fil0"
   points="3422,5214 3291,5655 3372,5730 3496,5301 "
   id="polygon804" />
    <polygon
   class="fil0"
   points="3565,5394 3484,5873 3559,6047 3646,5525 "
   id="polygon806" />
    <path
   class="fil0"
   d="m 3857,5817 c 0,0 -130,106 -149,292 -19,187 12,299 12,299 l 113,62 c 0,0 -44,-224 -19,-354 25,-131 112,-212 112,-212 z"
   id="path808" />
    <polygon
   class="fil0"
   points="4025,6041 3839,6446 3926,6489 4106,6128 "
   id="polygon810" />
    <polygon
   class="fil7"
   points="4162,7447 4256,8611 4349,8611 4834,7323 "
   id="polygon812" />
    <path
   class="fil0"
   d="m 5651,4966 c 59,0 108,-49 108,-108 0,-60 -49,-109 -108,-109 -60,0 -108,49 -108,109 0,59 48,108 108,108 z"
   id="path814" />
    <path
   class="fil0"
   d="m 5693,5418 c 59,0 108,-48 108,-108 0,-60 -49,-108 -108,-108 -60,0 -108,48 -108,108 0,60 48,108 108,108 z"
   id="path816" />
    <polygon
   class="fil0"
   points="5469,4828 5077,4884 5102,5021 5475,4959 "
   id="polygon818" />
    <polygon
   class="fil0"
   points="5489,5177 5097,5233 5121,5370 5495,5308 "
   id="polygon820" />
    <polygon
   class="fil0"
   points="5545,5607 5153,5663 5178,5800 5552,5738 "
   id="polygon822" />
    <polygon
   class="fil0"
   points="5307,4343 5556,7080 5674,7074 5425,4330 "
   id="polygon824" />
    <path
   class="fil20"
   d="m 4943,3746 -15,-119 c 0,0 105,-174 248,-199 144,-25 246,100 246,100 z"
   id="path826" />
    <polygon
   class="fil18"
   points="5562,4032 5469,3733 5152,3814 5238,4386 5575,4305 5431,4100 "
   id="polygon828" />
    <path
   class="fil0"
   d="m 5039,4461 -161,-803 c 0,0 0,-224 230,-298 230,-75 361,93 361,93 l 168,603 -137,44 99,218 -112,18 -130,-292 156,-56 -137,-479 c 0,0 -125,-75 -231,-38 -106,38 -162,181 -162,181 l 162,765 z"
   id="path830" />
    <polygon
   class="fil0"
   points="6946,8303 7089,8493 7179,8453 7064,8300 "
   id="polygon832" />
    <polygon
   class="fil0"
   points="5743,3658 4704,4006 4666,3888 5599,3577 5556,3465 5662,3428 "
   id="polygon834" />
    <polygon
   class="fil16"
   points="8623,5015 8523,5177 8915,5295 8915,5071 "
   id="polygon836" />
    <polygon
   class="fil21"
   points="9277,9944 9668,11218 10291,11019 9737,9913 "
   id="polygon838" />
    <path
   class="fil0"
   d="m 11398,9906 c 0,0 454,-460 784,-647 330,-186 604,-217 604,-217 l 137,118 c 0,0 -423,25 -803,286 -380,261 -616,560 -616,560 z"
   id="path840" />
    <polygon
   class="fil0"
   points="7572,6080 7584,6802 7721,6802 7696,6067 "
   id="polygon842" />
   </g>
  </g>
 <rect
   style="fill:#ffbe30;stroke:#000000;stroke-width:8.02011"
   id="rect874"
   width="8.1167755"
   height="36.5135"
   x="-19661.689"
   y="-11341.387"
   transform="scale(-1)" /><rect
   style="fill:#ffbe30;stroke:#000000;stroke-width:9.43668"
   id="rect876"
   width="2.8231511"
   height="45.418243"
   x="-4495.1929"
   y="3768.1907" /><path
   style="fill:#ffbe30;fill-opacity:1;stroke:#000000;stroke-width:0.536634"
   d="m 465.81647,310.30887 c -0.14905,-0.66408 -0.60635,-3.23021 -1.01623,-5.70249 -0.71003,-4.28275 -0.69772,-4.50749 0.26077,-4.75814 1.24278,-0.32499 1.24305,-1.46244 0.003,-11.67554 l -0.9124,-7.51288 -1.45701,0.10102 c -1.04889,0.0727 -1.4575,-0.15273 -1.45877,-0.80495 -0.002,-0.78705 -1.07274,-12.49952 -1.83745,-20.09066 -0.25483,-2.52963 -0.24459,-2.54901 1.34712,-2.54901 h 1.6039 l -0.28548,-4.69555 c -0.15702,-2.58256 -0.43267,-8.97079 -0.61257,-14.19607 l -0.32708,-9.50051 -1.56981,0.31396 -1.56981,0.31396 0.15071,-6.86687 0.15072,-6.86686 7.49172,-3.07275 c 4.12045,-1.69001 7.90963,-3.33373 8.4204,-3.65271 0.59035,-0.36868 0.98906,-1.41637 1.09443,-2.87585 l 0.16575,-2.29588 6.39733,-0.15198 6.39732,-0.15199 12.11657,4.65091 c 6.66411,2.558 12.15933,4.68154 12.2116,4.71899 0.26146,0.18725 -2.56989,34.73666 -3.01711,36.81632 -0.71653,3.33195 -0.68841,7.78492 0.065,10.29973 1.47485,4.92264 6.83466,6.3307 11.26729,2.96 2.57941,-1.96144 5.37326,-6.21928 6.76392,-10.30824 0.50191,-1.47575 6.30454,-13.5261 12.89474,-26.77856 l 11.9822,-24.09539 6.80615,0.34714 c 3.74339,0.19092 8.58041,0.34811 10.74894,0.34931 l 3.94278,0.002 3.75388,3.62228 c 4.37128,4.21804 8.43263,10.03891 10.08926,14.46033 1.63868,4.37347 3.08152,11.83445 3.50805,18.14022 0.26069,3.85394 0.97723,7.4837 2.54245,12.87922 1.19871,4.13208 2.3594,7.72021 2.57931,7.97362 0.33396,0.38483 18.1432,-1.58315 18.63715,-2.05946 0.0891,-0.0859 -1.22336,-2.93907 -2.91646,-6.34043 l -3.07838,-6.18429 3.39192,-23.78137 3.39192,-23.78138 -1.16878,-17.42253 -1.16879,-17.42253 1.83316,-1.83315 c 1.40815,-1.40815 2.1045,-1.74703 3.00356,-1.46168 1.66582,0.52871 1.07981,1.57441 -1.05934,1.8903 -1.49809,0.22122 -1.90501,0.57605 -2.31829,2.02155 -0.27571,0.96428 -0.40479,1.82206 -0.28686,1.90618 0.11793,0.0841 3.63175,1.16189 7.80847,2.39506 4.17674,1.23316 10.17327,3.23837 13.32565,4.456 5.56333,2.14888 5.72146,2.25553 5.38666,3.6329 -0.1897,0.78046 -0.91676,2.29347 -1.61568,3.36223 -0.73418,1.12269 -1.07083,2.14314 -0.79728,2.4167 0.75239,0.75238 -2.25977,10.39508 -3.2476,10.39642 -0.57476,8.1e-4 -1.91874,3.00684 -4.4991,10.06302 -2.02373,5.53404 -4.0094,10.33 -4.4126,10.65769 -0.46341,0.37661 -0.73309,1.7148 -0.73309,3.63758 0,1.95587 -1.23643,7.97665 -3.46337,16.86488 -1.90486,7.6027 -3.42632,14.31494 -3.38104,14.91609 0.0453,0.60116 -4.12943,15.14163 -9.27715,32.31217 l -9.35948,31.21915 h -67.20779 -67.20779 z"
   id="path95885"
   transform="matrix(26.458165,0,0,26.458165,-4499.9112,-2.7666842e-4)" /><path
   style="fill:#ffbe30;fill-opacity:1;stroke:#000000;stroke-width:0.536634"
   d="m 464.99641,184.77473 c -3.09761,-0.58386 -5.6887,-1.11825 -5.758,-1.18754 -0.0693,-0.0693 0.0231,-1.72293 0.20541,-3.67475 0.28808,-3.08506 0.48769,-3.588 1.52756,-3.84899 1.16859,-0.2933 1.20293,-0.52615 1.48974,-10.10152 0.16147,-5.39072 0.58647,-11.3378 0.94446,-13.21574 0.52593,-2.75892 0.51779,-3.49669 -0.0424,-3.8429 -0.55635,-0.34384 -0.39689,-2.372 0.80744,-10.26974 0.82538,-5.4127 1.60541,-10.11667 1.73339,-10.45325 0.12797,-0.33659 0.98213,-0.57807 1.89812,-0.53664 l 1.66543,0.0753 1.76803,-8.04952 c 0.97241,-4.42723 1.77695,-8.45681 1.78785,-8.95462 0.0139,-0.63418 -0.50225,-0.95545 -1.72424,-1.07327 -2.11725,-0.20414 -2.13171,0.1191 0.48147,-10.766692 1.40616,-5.857703 2.11052,-7.915359 2.70953,-7.915359 1.01539,0 39.33728,18.287451 39.33728,18.772001 0,0.19544 -1.28497,1.96785 -2.85549,3.9387 -11.31726,14.20203 -17.36175,36.55484 -14.82223,54.81332 l 0.56786,4.08276 -2.31192,3.16871 c -2.23933,3.06921 -2.40459,3.17902 -5.26341,3.49717 -5.33437,0.59365 -5.5261,0.68065 -5.19109,2.35572 0.29595,1.47975 0.24567,1.51063 -4.76407,2.92573 -5.88405,1.66206 -6.68027,1.67671 -14.19073,0.26108 z"
   id="path95924"
   transform="matrix(26.458165,0,0,26.458165,-4499.9112,-2.7666842e-4)" /><path
   style="fill:#ffbe30;fill-opacity:1;stroke:#000000;stroke-width:0.536634"
   d="m 249.1397,182.85213 c -1.72572,-1.1247 -3.08163,-2.40479 -3.08564,-2.91311 -0.0105,-1.32416 5.26438,-16.2269 8.60436,-24.3095 5.77501,-13.97525 17.55726,-36.50418 25.00648,-47.81505 2.84361,-4.31775 3.05807,-4.51563 4.14341,-3.82332 0.62952,0.40156 1.48357,0.93098 1.8979,1.17648 0.55252,0.3274 0.0589,0.79931 -1.85209,1.77048 l -2.6054,1.3241 1.85823,1.67888 c 1.02202,0.92338 3.47623,3.12834 5.4538,4.89992 l 3.59557,3.22104 -4.79435,6.70669 c -2.6369,3.68869 -5.82732,8.34674 -7.08984,10.35123 -2.23937,3.55544 -2.3419,3.63772 -4.19411,3.36582 -2.6577,-0.39016 -5.63615,0.5566 -6.93143,2.20329 -1.59745,2.03082 -1.50761,6.04756 0.18012,8.05331 l 1.2778,1.51858 -2.28553,4.0231 -2.28554,4.02309 -3.82941,0.30325 c -4.5291,0.35865 -6.2071,1.36996 -8.00782,4.82619 -1.00152,1.92229 -1.20457,3.02743 -1.04946,5.71185 0.16151,2.79515 0.47195,3.67637 1.93766,5.50025 l 1.74533,2.17183 -1.76914,4.01478 c -0.97303,2.20814 -2.01062,4.01666 -2.30577,4.01896 -0.29515,0.002 -1.92196,-0.89867 -3.61513,-2.00214 z"
   id="path95963"
   transform="matrix(26.458165,0,0,26.458165,-4499.9112,-2.7666842e-4)" /><path
   style="fill:#146f5e;fill-opacity:1;stroke:#000000;stroke-width:0.536634"
   d="m 388.25503,81.964381 c -2.21362,-4.354262 -9.25985,-18.178172 -15.65829,-30.719799 l -11.63353,-22.802956 6.89588,-3.561823 6.89588,-3.561823 6.26807,14.562829 c 3.44743,8.009556 9.64072,22.374518 13.76286,31.922137 4.12215,9.547619 7.41797,17.428198 7.32406,17.512396 -0.4367,0.391528 -9.05011,4.570633 -9.41579,4.568406 -0.22791,-0.0014 -2.22553,-3.565104 -4.43914,-7.919367 z"
   id="path96002"
   transform="matrix(26.458165,0,0,26.458165,-4499.9112,-2.7666842e-4)" /><path
   style="fill:#146f5e;fill-opacity:1;stroke:#000000;stroke-width:0.536634"
   d="m 528.71909,196.27535 -7.37872,-0.16575 -0.01,-4.41209 c -0.0145,-6.66468 1.21106,-82.74049 1.33547,-82.89643 0.0596,-0.0746 6.81954,0.15457 15.02218,0.50937 16.06923,0.69506 16.38667,0.76542 16.38667,3.63202 0,1.88214 0.96095,2.28867 4.34787,1.83938 l 2.60114,-0.34505 0.14778,18.88674 0.14778,18.88674 -2.82621,1.87558 c -3.75536,2.49222 -10.11248,5.35254 -14.75616,6.63937 -2.07216,0.57422 -3.87967,1.15615 -4.0167,1.29318 -0.25394,0.25394 2.42687,19.15292 2.76476,19.49081 0.17025,0.17026 10.52277,-0.95217 16.55361,-1.79475 l 2.54901,-0.35613 v 8.6591 8.65909 l -12.74507,-0.11771 c -7.00978,-0.0647 -16.06549,-0.1923 -20.12379,-0.28347 z m 4.48756,-17.87467 c 4.75245,-2.38489 5.37415,-2.85598 5.1344,-3.8906 -0.15003,-0.64744 -0.57345,-2.56569 -0.94093,-4.2628 -0.50876,-2.34959 -0.89585,-3.08565 -1.62272,-3.08565 -0.82278,0 -2.57781,0.35218 -9.53753,1.91391 -1.13546,0.25479 -1.23767,0.49881 -0.95345,2.27625 0.51114,3.19644 2.05349,9.76234 2.29322,9.76234 0.12091,0 2.65307,-1.22106 5.62701,-2.71345 z m 24.62486,-31.09452 c 1.29164,-1.29164 1.34195,-2.06078 0.23789,-3.63704 -1.56557,-2.23516 -5.0676,-1.01971 -5.0676,1.75882 0,2.71178 2.87723,3.8307 4.82971,1.87822 z m -0.30665,-9.96607 c 0.46381,-0.46381 0.84329,-1.4125 0.84329,-2.10821 0,-3.01664 -3.83041,-3.93094 -5.3175,-1.26926 -0.70753,1.26637 -0.694,1.56034 0.1296,2.81733 1.05048,1.60323 3.04444,1.86031 4.34461,0.56014 z m 0.008,-10.54545 c 1.10406,-1.57626 1.05376,-2.3454 -0.23788,-3.63703 -2.0519,-2.0519 -4.82971,-0.81061 -4.82971,2.1582 0,2.64621 3.52867,3.67595 5.06759,1.47883 z"
   id="path97482"
   transform="matrix(26.458165,0,0,26.458165,-4499.9112,-2.7666842e-4)" /><path
   style="fill:#146f5e;fill-opacity:1;stroke:#000000;stroke-width:0.536634"
   d="m 577.01619,197.34793 -11.13516,-0.15654 v -9.30475 -9.30474 l 6.30545,-1.47483 c 6.9809,-1.6328 14.6481,-4.3197 20.0223,-7.01661 3.43677,-1.72467 11.46544,-6.96387 14.76485,-9.635 l 1.64997,-1.33577 0.92487,15.96109 c 0.50869,8.7786 1.06735,17.47037 1.24147,19.31505 l 0.3166,3.35397 -11.47759,-0.12266 c -6.31268,-0.0675 -16.48842,-0.19311 -22.61276,-0.27921 z"
   id="path97521"
   transform="matrix(26.458165,0,0,26.458165,-4499.9112,-2.7666842e-4)" /><path
   style="fill:#146f5e;fill-opacity:1;stroke:#000000;stroke-width:0.536634"
   d="m 598.39862,250.09597 c -0.47135,-2.37456 -0.85681,-4.49851 -0.85658,-4.71987 5.1e-4,-0.49238 3.86069,-0.53487 5.10803,-0.0562 0.85862,0.32948 5.88619,7.62103 5.51245,7.99478 -0.098,0.098 -2.14218,0.38532 -4.54257,0.63846 l -4.36434,0.46025 z"
   id="path97560"
   transform="matrix(26.458165,0,0,26.458165,-4499.9112,-2.7666842e-4)" /><path
   style="fill:#146f5e;fill-opacity:1;stroke:#000000;stroke-width:0.536634"
   d="m 712.06617,218.87776 c 2.94305,-7.66946 0.7395,-14.80411 -5.7796,-18.71311 -0.81666,-0.48969 -0.77696,-0.76757 0.45382,-3.1766 2.00363,-3.92173 1.88619,-7.71161 -0.31673,-10.22059 l -1.66549,-1.89689 h 4.90254 c 5.50601,0 8.05685,0.78132 9.43934,2.89127 1.70645,2.60436 0.7279,9.11282 -1.66922,11.10225 -1.13816,0.94459 -0.91987,1.4475 0.79146,1.82337 2.47107,0.54274 5.85744,3.7894 6.52038,6.25138 1.18484,4.40017 -1.32082,7.74721 -8.16635,10.90857 -4.69671,2.169 -4.97115,2.2317 -4.51015,1.03035 z"
   id="path97599"
   transform="matrix(26.458165,0,0,26.458165,-4499.9112,-2.7666842e-4)" /><path
   style="fill:#146f5e;fill-opacity:1;stroke:#000000;stroke-width:0.536634"
   d="m 628.13062,211.82192 c 0,-0.87168 6.86029,-18.4639 7.4175,-19.0211 0.86671,-0.86671 53.64901,-7.48802 56.71032,-7.11407 5.76515,0.70424 9.3911,3.33923 9.3911,6.82454 0,3.52836 -1.17225,5.0554 -4.41687,5.75365 -1.55523,0.33468 -17.10421,3.4825 -34.5533,6.99514 -17.44908,3.51265 -32.36081,6.54606 -33.13717,6.74091 -0.81516,0.20459 -1.41158,0.12893 -1.41158,-0.17907 z m 24.12417,-10.05208 c 4.85655,-0.75765 8.90142,-1.44888 8.98862,-1.53608 0.0872,-0.0872 -0.11629,-1.52695 -0.45218,-3.19947 -0.43776,-2.17975 -0.85568,-3.04322 -1.47573,-3.04899 -0.8042,-0.007 -18.98424,2.75041 -19.21489,2.91488 -0.0574,0.0409 0.26704,1.54846 0.72088,3.35014 0.63838,2.53423 1.02642,3.23291 1.71419,3.08642 0.48897,-0.10414 4.86256,-0.80925 9.71911,-1.5669 z m 31.68582,-5.1348 c 4.27966,-0.62095 7.85968,-1.20574 7.95561,-1.29953 0.0959,-0.0938 0.008,-1.27934 -0.19509,-2.63456 -0.33187,-2.21306 -0.51361,-2.4635 -1.78431,-2.45874 -1.80072,0.007 -18.39949,2.04305 -18.64361,2.28717 -0.16466,0.16466 0.54381,3.29432 1.16468,5.14492 0.17071,0.50881 0.77054,0.6327 1.98312,0.4096 0.95612,-0.17592 5.23994,-0.8279 9.5196,-1.44886 z"
   id="path97638"
   transform="matrix(26.458165,0,0,26.458165,-4499.9112,-2.7666842e-4)" /><path
   style="fill:#146f5e;fill-opacity:1;stroke:#000000;stroke-width:0.536634"
   d="m 453.96337,182.79324 -4.32246,-0.73574 -8.26599,-18.48631 c -4.5463,-10.16746 -8.39685,-18.54877 -8.55678,-18.62511 -0.15993,-0.0763 -9.70871,1.38861 -21.21952,3.25547 -11.51081,1.86685 -21.37999,3.33467 -21.93151,3.26182 -0.70835,-0.0936 -1.27513,-1.01577 -1.93044,-3.14097 l -0.92767,-3.00851 3.92451,-1.94191 3.92452,-1.9419 -1.85842,-5.13398 c -1.02214,-2.82369 -2.61383,-7.29722 -3.5371,-9.94119 -0.92326,-2.64396 -1.89518,-4.80721 -2.15981,-4.80721 -0.26463,0 -2.04918,0.71099 -3.96568,1.57996 l -3.48452,1.57997 -2.78941,-1.44581 c -2.52055,-1.30644 -3.33443,-1.44425 -8.44381,-1.42971 -4.93984,0.0141 -6.02737,0.19121 -8.60588,1.40189 -1.62332,0.76218 -4.04631,2.35952 -5.38443,3.54962 -2.56147,2.27815 -5.51328,7.03057 -5.13035,8.25987 1.18248,3.79602 1.08163,3.9887 -3.45817,6.60725 -2.34994,1.35545 -4.27262,2.73982 -4.27262,3.07637 0,0.72094 3.22464,12.86545 3.56577,13.42927 0.1284,0.21222 1.84501,-0.19911 3.81467,-0.91407 1.96967,-0.71494 3.67156,-1.20956 3.78198,-1.09915 0.2733,0.27331 1.15578,4.24549 0.98184,4.41943 -0.2195,0.2195 -39.13888,7.68938 -39.27892,7.53888 -0.13252,-0.14242 5.99326,-38.44273 6.4811,-40.52189 0.23415,-0.99793 10.1896,-6.16829 56.21713,-29.196305 L 433.064,70.39966 453.08452,80.519998 c 19.46631,9.840178 20.01093,10.158181 19.67361,11.487367 -0.32996,1.300187 -1.50568,6.425031 -5.79211,25.247265 -1.04183,4.57481 -1.87551,9.16303 -1.85262,10.19605 0.0229,1.03302 -0.46092,5.01753 -1.07514,8.85447 -0.61422,3.83694 -1.28032,8.26901 -1.48021,9.84906 -0.35596,2.81366 -0.39497,2.86651 -1.89435,2.56663 -1.81147,-0.36229 -1.77142,-0.51477 -2.62592,9.99894 -0.83876,10.32002 -0.74351,16.99008 0.24804,17.37057 0.83988,0.3223 1.0127,3.43072 0.33899,6.09705 l -0.33899,1.34158 z"
   id="path97677"
   transform="matrix(26.458165,0,0,26.458165,-4499.9112,-2.7666842e-4)" /><path
   style="fill:#146f5e;fill-opacity:1;stroke:#000000;stroke-width:0.536634"
   d="m 443.52897,309.23147 c -1.30308,-2.21219 -1.39415,-3.05798 -3.2208,-29.91324 l -1.87981,-27.63667 -1.39152,0.16165 -1.39152,0.16166 -0.35155,-5.74564 c -0.19335,-3.1601 -0.34625,-9.14924 -0.33976,-13.3092 l 0.0118,-7.56356 10.85531,-4.42723 c 5.97041,-2.43498 11.03631,-4.42724 11.25754,-4.42724 0.22122,0 0.40223,2.89783 0.40223,6.43961 0,5.63232 -0.11125,6.43962 -0.88742,6.43962 -0.79604,0 -0.8513,0.67176 -0.53663,6.52386 0.19293,3.58813 0.35078,9.86675 0.35078,13.9525 0,6.95704 0.0651,7.42863 1.0261,7.42863 1.22496,0 1.27379,0.26587 2.50944,13.66228 0.64712,7.01575 0.72508,9.69214 0.2866,9.83829 -0.79446,0.26483 -0.77593,1.01004 0.27903,11.22514 0.84373,8.16966 0.96482,8.69207 1.99023,8.58615 0.95962,-0.0991 1.17355,0.37461 1.76659,3.91197 0.37111,2.21362 0.80147,4.68884 0.95635,5.5005 l 0.28161,1.47575 -10.31679,-0.004 -10.3168,-0.004 z"
   id="path97716"
   transform="matrix(26.458165,0,0,26.458165,-4499.9112,-2.7666842e-4)" /><path
   style="fill:#146f5e;fill-opacity:1;stroke:#000000;stroke-width:0.536634"
   d="m 352.35447,310.04055 c 0.31022,-0.81166 3.21964,-8.72031 6.46539,-17.57477 3.24575,-8.85447 6.08347,-16.28665 6.30605,-16.51596 0.22259,-0.2293 7.12357,-1.61035 15.33553,-3.069 l 14.93084,-2.65209 3.17733,2.75257 c 3.55306,3.07807 9.05009,9.21163 11.67529,13.02722 2.54272,3.69571 5.68747,10.6989 8.0907,18.01756 1.16462,3.54667 2.11749,6.68288 2.11749,6.96935 0,0.33131 -12.49446,0.52087 -34.33132,0.52087 h -34.33132 z"
   id="path97755"
   transform="matrix(26.458165,0,0,26.458165,-4499.9112,-2.7666842e-4)" /><path
   style="fill:#146f5e;fill-opacity:1;stroke:#000000;stroke-width:0.536634"
   d="m 291.1198,311.11382 c -0.007,-0.68759 9.70089,-60.46744 9.93147,-61.15351 0.14783,-0.43985 1.65114,0.0237 4.68035,1.44325 2.45442,1.15018 6.39007,2.61817 8.74591,3.2622 2.35583,0.64403 4.43664,1.41274 4.62402,1.70825 0.18738,0.2955 0.76953,3.20278 1.29368,6.46061 l 0.953,5.92333 -1.20112,0.9726 c -0.66061,0.53493 -1.80613,1.41333 -2.5456,1.952 l -1.3445,0.9794 1.92272,19.08525 c 1.0575,10.49689 1.92272,19.23912 1.92272,19.42718 0,0.18805 -6.52011,0.34192 -14.48913,0.34192 -7.96902,0 -14.49111,-0.18112 -14.49352,-0.40248 z"
   id="path97794"
   transform="matrix(26.458165,0,0,26.458165,-4499.9112,-2.7666842e-4)" /><path
   style="fill:#146f5e;fill-opacity:1;stroke:#000000;stroke-width:0.536634"
   d="m 565.283,144.55453 c -0.20596,-13.27126 -0.91173,-32.02903 -1.24094,-32.98162 -0.34724,-1.00473 -0.21697,-1.09535 1.26252,-0.87821 1.31338,0.19277 1.64972,0.50323 1.64972,1.52281 0,1.16455 0.22425,1.28068 2.47303,1.28068 2.36993,0 2.45899,-0.0559 2.13631,-1.34159 -0.18519,-0.73787 -0.151,-1.34055 0.076,-1.33929 6.64256,0.037 33.73229,1.78816 33.9849,2.19689 0.31713,0.51314 0.60218,4.80113 1.31642,19.80283 l 0.26827,5.63466 -3.67,-10.73269 -3.67,-10.73269 -7.04836,-0.14961 c -3.87661,-0.0823 -8.15124,0.0385 -9.49919,0.26832 l -2.45081,0.41792 -2.07356,6.1713 c -2.7472,8.17614 -5.33371,13.72664 -8.88062,19.05733 -4.32142,6.49469 -4.55943,6.5873 -4.63367,1.80296 z"
   id="path97833"
   transform="matrix(26.458165,0,0,26.458165,-4499.9112,-2.7666842e-4)" /><path
   style="fill:#146f5e;fill-opacity:1;stroke:#000000;stroke-width:0.536634"
   d="m 499.9496,197.73572 c -3.64833,-1.13998 -6.74122,-2.18058 -6.87309,-2.31245 -0.13187,-0.13187 0.50001,-1.44206 1.40419,-2.91153 l 1.64395,-2.67176 2.54596,0.46615 c 1.40028,0.25638 3.81377,0.72504 5.3633,1.04147 l 2.81733,0.57531 v 3.98671 c 0,2.19269 -0.0604,3.96693 -0.13416,3.94275 -0.0738,-0.0242 -3.11915,-0.97667 -6.76748,-2.11665 z"
   id="path97872"
   transform="matrix(26.458165,0,0,26.458165,-4499.9112,-2.7666842e-4)" /><path
   style="fill:#ffbe30;fill-opacity:1;stroke:#000000;stroke-width:0.536634"
   d="m 280.94377,373.90005 c 0.009,-0.51651 2.25208,-14.65533 4.98552,-31.41959 l 4.96988,-30.48049 14.60166,-0.10768 c 8.03091,-0.0592 14.60165,-0.0972 14.60164,-0.0844 -10e-6,0.0128 0.47865,4.66957 1.06369,10.34835 0.84378,8.19016 0.94242,10.89067 0.47706,13.06057 -0.32267,1.50454 -0.49127,5.05829 -0.37466,7.89723 0.30438,7.41079 2.25306,10.50578 7.29332,11.58362 5.43481,1.16221 11.7455,-6.92528 14.6627,-18.79106 0.74539,-3.03188 7.89484,-22.85729 8.44512,-23.4183 0.19937,-0.20327 15.85992,-0.44475 34.80121,-0.53664 l 34.43871,-0.16706 0.28752,1.43852 c 0.6998,3.50143 8.42415,14.20384 12.67867,17.56685 4.53878,3.58769 8.12262,4.01297 11.58942,1.37524 4.39356,-3.34284 4.54918,-9.46192 0.48762,-19.17319 -0.36587,-0.87479 0.29036,-0.93911 9.58216,-0.93911 9.90728,0 9.97674,0.008 10.24267,1.20743 2.38618,10.76099 2.99816,14.05075 2.7393,14.72532 -0.40727,1.06131 4.19669,19.14018 6.21741,24.4146 0.86909,2.26849 1.92934,4.20038 2.3561,4.29308 0.91289,0.1983 6.707,11.70512 5.89565,11.70846 -0.30347,0.001 -45.58882,1.44882 -100.63409,3.21682 -55.04528,1.768 -100.38419,3.21589 -100.75312,3.21753 -0.36894,0.002 -0.66376,-0.41961 -0.65516,-0.93612 z"
   id="path98028"
   transform="matrix(26.458165,0,0,26.458165,-4499.9112,-2.7666842e-4)" /><path
   style="fill:#ffbe30;fill-opacity:1;stroke:#000000;stroke-width:0.536634"
   d="m 593.48747,363.04935 c -4.63462,-5.32156 -8.58607,-9.67556 -8.781,-9.67556 -0.3821,0 -10.62067,7.68157 -15.86619,11.90373 l -3.21204,2.5854 h -40.8041 -40.80412 l -0.91077,-1.74407 c -0.50093,-0.95923 -1.76531,-3.55263 -2.80973,-5.7631 -1.88892,-3.99783 -1.89316,-4.0234 -0.80411,-4.84488 1.08895,-0.8214 1.08031,-0.87298 -1.60827,-9.60397 -1.4867,-4.82797 -3.0984,-10.97902 -3.58154,-13.66901 -0.48314,-2.68998 -0.94217,-4.96885 -1.02007,-5.06415 -0.0779,-0.0953 -0.96366,0.0537 -1.96838,0.33111 l -1.82675,0.50439 -1.52611,-7.30736 c -0.83936,-4.01905 -1.63546,-7.60922 -1.7691,-7.97815 -0.19357,-0.53436 13.41974,-0.6708 66.92989,-0.6708 63.7219,0 67.15865,0.0482 66.89598,0.93911 -0.1523,0.51651 -2.46268,8.23185 -5.13419,17.14519 -2.67151,8.91334 -4.85729,16.50186 -4.85729,16.86337 0,0.36151 0.59762,0.0959 1.32805,-0.59034 l 1.32804,-1.24764 2.56256,2.33681 c 1.4094,1.28524 5.77296,5.38728 9.6968,9.11563 l 7.13425,6.77884 -5.08262,4.6655 -5.08261,4.66552 z"
   id="path99976"
   transform="matrix(26.458165,0,0,26.458165,-4499.9112,-2.7666842e-4)" /><path
   style="fill:#ffbe30;fill-opacity:1;stroke:#000000;stroke-width:1.07327"
   d="m 593.11768,403.58772 c -14.38716,-18.5024 -26.1816,-34.0316 -26.20988,-34.50933 -0.0283,-0.47774 3.07785,-3.37022 6.90248,-6.42774 l 6.95388,-5.55912 31.43293,36.45256 c 17.28811,20.0489 31.21004,36.67544 30.93763,36.94785 -0.52785,0.52785 -22.40989,6.9094 -23.31967,6.80082 -0.29639,-0.0354 -12.31021,-15.20265 -26.69737,-33.70504 z"
   id="path100483"
   transform="matrix(26.458165,0,0,26.458165,-4499.9112,-2.7666842e-4)" /><path
   style="fill:#ffbe30;fill-opacity:1;stroke:#000000;stroke-width:1.07327"
   d="M 629.47221,403.90703 C 619.142,392.10386 609.77329,381.23549 608.65286,379.7551 l -2.03714,-2.69163 4.72032,-4.68828 4.72031,-4.68828 21.16456,20.00439 21.16456,20.00438 -4.4169,8.12277 c -2.42929,4.46752 -4.70878,8.44364 -5.06552,8.83582 -0.35675,0.39218 -9.10063,-8.94408 -19.43084,-20.74724 z"
   id="path100522"
   transform="matrix(26.458165,0,0,26.458165,-4499.9112,-2.7666842e-4)" /><path
   style="fill:#ffbe30;fill-opacity:1;stroke:#000000;stroke-width:1.07327"
   d="m 535.50791,421.9556 c -0.24207,-0.6788 -3.52422,-11.25584 -7.29367,-23.50452 l -6.85355,-22.27033 h 3.46232 c 1.90428,0 5.58236,-0.28576 8.17352,-0.63501 l 4.71119,-0.63502 10.15125,20.44585 c 5.5832,11.24522 9.92993,20.64395 9.65942,20.88607 -0.2705,0.24211 -5.2345,1.90427 -11.0311,3.69368 -7.2638,2.24234 -10.67605,2.8699 -10.97938,2.01928 z"
   id="path100561"
   transform="matrix(26.458165,0,0,26.458165,-4499.9112,-2.7666842e-4)" /><path
   style="fill:#ffbe30;fill-opacity:1;stroke:#000000;stroke-width:1.07327"
   d="m 621.4632,241.30247 c 0.82305,-3.44112 2.31453,-9.97614 3.3144,-14.52228 l 1.81795,-8.26569 5.46309,-1.1811 c 3.0047,-0.6496 19.63061,-4.04911 36.94647,-7.55447 33.19471,-6.7198 33.72433,-6.74624 37.15078,-1.85428 2.98881,4.26711 2.07326,7.28543 -3.99178,13.15989 l -5.65674,5.47898 -37.0057,10.0163 c -20.35314,5.50897 -37.57478,10.23296 -38.27031,10.49777 -0.93035,0.35421 -0.86907,-1.17225 0.23184,-5.77512 z m 42.34384,-14.10618 c 33.96057,-8.34044 35.89397,-9.08132 33.47445,-12.82749 -0.68077,-1.05403 -8.49306,0.37498 -34.8799,6.38013 l -34.00265,7.73838 v 3.54761 c 0,1.95118 0.36223,3.52833 0.80495,3.50477 0.44273,-0.0236 16.01414,-3.77809 34.60315,-8.3434 z"
   id="path100600"
   transform="matrix(26.458165,0,0,26.458165,-4499.9112,-2.7666842e-4)" /><path
   style="fill:#ffbe30;fill-opacity:1;stroke:#000000;stroke-width:1.07327"
   d="m 264.02415,258.01559 c -1.77089,-0.5469 -7.56655,-1.75721 -12.87923,-2.6896 -5.31268,-0.93238 -9.80427,-1.83594 -9.98132,-2.00791 -0.17705,-0.17197 0.006,-2.78391 0.40659,-5.80431 l 0.72849,-5.49163 h 11.05496 11.05496 l 1.19161,6.17129 c 0.65538,3.39422 1.42328,7.25798 1.70644,8.58615 0.28316,1.32817 0.38489,2.37335 0.22607,2.32261 -0.15882,-0.0507 -1.73768,-0.53971 -3.50857,-1.0866 z"
   id="path100639"
   transform="matrix(26.458165,0,0,26.458165,-4499.9112,-2.7666842e-4)" /><path
   style="fill:#ffbe30;fill-opacity:1;stroke:#000000;stroke-width:1.07327"
   d="m 217.31039,253.22159 c -1.79926,-4.73241 -1.31099,-5.50512 3.9328,-6.22386 8.97265,-1.22984 8.97299,-1.22968 8.97299,4.14719 v 4.82971 h -5.92954 c -5.37743,0 -6.02701,-0.25634 -6.97625,-2.75304 z"
   id="path100678"
   transform="matrix(26.458165,0,0,26.458165,-4499.9112,-2.7666842e-4)" /><path
   style="fill:#ffbe30;fill-opacity:1;stroke:#000000;stroke-width:1.07327"
   d="M 362.96106,96.304233 C 352.81041,79.384604 332.07608,43.214417 332.37394,42.946245 c 0.95708,-0.861707 22.44045,-11.284812 23.25945,-11.284812 0.97834,0 31.77913,59.989808 31.11147,60.594897 -0.20243,0.183462 -4.80649,2.552963 -10.23124,5.265557 l -9.86318,4.931993 z m 6.12281,-35.047454 c -0.37546,-1.224845 -0.88229,-2.446369 -1.12628,-2.714498 -0.24399,-0.268131 -4.5846,1.566204 -9.64579,4.0763 -8.80116,4.364926 -9.12381,4.650398 -7.40398,6.550789 1.74058,1.923319 2.0715,1.864069 10.32845,-1.849311 7.44574,-3.348553 8.44347,-4.119427 7.8476,-6.06328 z m -14.92289,-7.828686 c 4.437,-2.195486 8.06727,-4.276546 8.06727,-4.624577 0,-0.34803 -0.67862,-1.560857 -1.50805,-2.69517 -1.46779,-2.007322 -1.61824,-2.010552 -5.63466,-0.120962 -2.26964,1.067786 -6.21611,3.152945 -8.76994,4.63369 -4.46999,2.591752 -4.57397,2.768919 -2.78515,4.745537 1.022,1.129301 2.01683,2.053275 2.21072,2.053275 0.1939,0 3.98281,-1.796306 8.41981,-3.991793 z"
   id="path100717"
   transform="matrix(26.458165,0,0,26.458165,-4499.9112,-2.7666842e-4)" /><path
   style="fill:#ffbe30;fill-opacity:1;stroke:#000000;stroke-width:1.07327"
   d="m 421.25804,74.992062 c 0,-0.483066 -1.25111,-8.068126 -2.78025,-16.855689 -1.52915,-8.787563 -2.37434,-16.340931 -1.87822,-16.785261 0.86256,-0.772523 14.23255,-4.323335 16.27878,-4.323335 0.54072,0 1.31221,5.916395 1.71443,13.147544 0.40223,7.231149 1.01562,14.795106 1.3631,16.808795 0.53921,3.124842 0.36703,3.559656 -1.17526,2.967826 -1.08531,-0.416474 -4.1466,0.626946 -7.6648,2.612498 -3.22178,1.818257 -5.85778,2.910687 -5.85778,2.427622 z"
   id="path100756"
   transform="matrix(26.458165,0,0,26.458165,-4499.9112,-2.7666842e-4)" /><path
   style="fill:#ff5001;fill-opacity:1;stroke:#000000;stroke-width:1.07327"
   d="m 324.74008,33.926776 c -1.81282,-2.825041 -3.29604,-5.462092 -3.29604,-5.860113 0,-0.39802 1.89025,-0.42141 4.20055,-0.05198 l 4.20056,0.671697 0.67233,-6.293675 c 0.36979,-3.461521 1.01514,-7.591552 1.43411,-9.177846 l 0.76177,-2.884172 7.92561,3.689124 c 4.35908,2.029017 8.31629,3.689123 8.79379,3.689123 0.4775,0 1.73417,-1.466006 2.7926,-3.257792 l 1.92443,-3.257791 2.24054,6.710416 2.24054,6.710417 -12.95876,6.309554 c -18.98695,9.244655 -17.10047,8.974009 -20.93203,3.003035 z"
   id="path100795"
   transform="matrix(26.458165,0,0,26.458165,-4499.9112,-2.7666842e-4)" /><path
   style="fill:#ff5001;fill-opacity:1;stroke:#000000;stroke-width:1.07327"
   d="m 642.20943,168.45454 c -1.55385,-0.82358 -7.07857,-2.73 -12.27715,-4.23649 -5.19859,-1.50649 -9.56455,-2.85165 -9.70214,-2.98924 -0.13759,-0.13759 7.62868,-9.44193 17.25837,-20.67631 l 17.50853,-20.42614 13.65129,-3.50851 c 7.50821,-1.92968 13.83953,-3.32026 14.06961,-3.09019 0.35484,0.35485 -35.01925,53.61084 -36.99742,55.69992 -0.37725,0.39841 -1.95724,0.0505 -3.51109,-0.77304 z m 3.92737,-12.33257 c 3.23073,-4.3183 5.87406,-8.17203 5.87406,-8.56383 0,-1.20717 -5.64739,-3.35915 -6.42922,-2.4499 -3.45451,4.0175 -10.74309,14.33193 -10.74309,15.20308 0,1.13868 4.42781,4.65848 5.0622,4.02409 0.1991,-0.1991 3.00532,-3.89515 6.23605,-8.21344 z"
   id="path102860"
   transform="matrix(26.458165,0,0,26.458165,-4499.9112,-2.7666842e-4)" /><path
   style="fill:#ff5001;fill-opacity:1;stroke:#000000;stroke-width:1.07327"
   d="m 657.33937,176.91474 c -3.22583,-2.14468 -6.01976,-4.02281 -6.20873,-4.17363 -0.18896,-0.15082 8.18225,-12.99883 18.60271,-28.55114 l 18.94629,-28.27693 -0.42892,11.80596 -0.42892,11.80596 -11.53293,19.85547 c -6.34311,10.92051 -11.882,20.21058 -12.30865,20.6446 -0.42664,0.43401 -3.41502,-0.96562 -6.64085,-3.11029 z m 24.78178,-34.41607 c 3.55194,-6.53819 3.58571,-6.71963 1.53018,-8.22266 -1.15605,-0.84533 -2.43013,-1.3341 -2.83129,-1.08617 -0.40116,0.24793 -2.73912,3.93663 -5.19548,8.19712 l -4.46609,7.74633 2.38192,1.92875 c 2.79223,2.26101 2.59142,2.46141 8.58076,-8.56337 z"
   id="path102899"
   transform="matrix(26.458165,0,0,26.458165,-4499.9112,-2.7666842e-4)" /><path
   style="fill:#ff5001;fill-opacity:1;stroke:#000000;stroke-width:1.07327"
   d="m 357.13043,17.026109 c -2.25062,-6.922339 -2.2528,-7.0306178 -0.23644,-11.7345994 l 2.03514,-4.74779082 5.51598,2.41747072 c 4.89978,2.1474121 5.74338,3.0162638 7.55166,7.7776565 1.11963,2.948104 2.03609,5.715934 2.03657,6.150736 4.8e-4,0.434802 -1.68953,1.521486 -3.75557,2.414855 -2.06604,0.893369 -5.35829,2.318246 -7.3161,3.166393 l -3.55966,1.542088 z"
   id="path102938"
   transform="matrix(26.458165,0,0,26.458165,-4499.9112,-2.7666842e-4)" /><path
   style="fill:#ff5001;fill-opacity:1;stroke:#000000;stroke-width:1.07327"
   d="m 262.12675,191.00317 c -2.20307,-1.49702 -4.00558,-3.23595 -4.00558,-3.86429 0,-0.62833 2.81079,-7.01029 6.24621,-14.18212 6.78109,-14.15632 16.91036,-31.54684 24.75299,-42.49734 2.72542,-3.80545 5.28497,-7.40354 5.68789,-7.99576 0.42009,-0.61746 3.02331,1.06595 6.10283,3.94648 5.18617,4.85105 5.79473,7.51678 1.14832,5.0301 -2.55192,-1.36575 -3.21716,-0.73182 -7.5442,7.18921 -2.47285,4.52675 -2.48079,4.63653 -0.4433,6.12638 2.05035,1.49925 2.05024,1.56238 -0.01,5.38764 -2.29438,4.26041 -3.382,4.64504 -6.48922,2.29485 -3.40702,-2.57694 -4.32962,-1.96441 -7.42281,4.92815 l -2.94942,6.57218 2.83773,2.28228 c 2.68908,2.16273 2.74774,2.4097 1.11983,4.71463 -1.68382,2.38411 -1.78187,2.39475 -4.94427,0.53664 -3.11105,-1.82794 -3.28031,-1.8223 -4.73478,0.15779 -0.82961,1.12943 -2.32879,4.2017 -3.3315,6.82727 -1.79878,4.71004 -1.79097,4.79801 0.58559,6.59065 2.37818,1.79387 2.384,1.86028 0.4597,5.24022 -1.07195,1.88284 -2.19911,3.42639 -2.50481,3.43012 -0.30569,0.004 -2.35832,-1.21805 -4.56139,-2.71508 z"
   id="path102977"
   transform="matrix(26.458165,0,0,26.458165,-4499.9112,-2.7666842e-4)" /><path
   style="fill:#ff5001;fill-opacity:1;stroke:#000000;stroke-width:1.07327"
   d="m 306.5059,123.80137 c -7.44225,-6.85087 -8.56099,-9.67224 -5.46356,-13.77859 l 1.94333,-2.57633 3.59452,2.85515 c 1.97699,1.57033 5.65353,4.68274 8.17009,6.91647 l 4.57557,4.06132 -2.96567,4.43161 -2.96566,4.43161 z"
   id="path103016"
   transform="matrix(26.458165,0,0,26.458165,-4499.9112,-2.7666842e-4)" /></g>
</svg>
