<?xml version="1.0" encoding="UTF-8" standalone="no"?>
<!-- Creator: CorelDRAW -->

<svg
   xml:space="preserve"
   width="271.44623mm"
   height="162.06599mm"
   version="1.1"
   style="clip-rule:evenodd;fill-rule:evenodd;image-rendering:optimizeQuality;shape-rendering:geometricPrecision;text-rendering:geometricPrecision"
   viewBox="0 0 27144.3 16207"
   id="svg244"
   sodipodi:docname="reading.svg"
   inkscape:version="1.1.2 (b8e25be8, 2022-02-05)"
   xmlns:inkscape="http://www.inkscape.org/namespaces/inkscape"
   xmlns:sodipodi="http://sodipodi.sourceforge.net/DTD/sodipodi-0.dtd"
   xmlns="http://www.w3.org/2000/svg"
   xmlns:svg="http://www.w3.org/2000/svg"><sodipodi:namedview
   id="namedview246"
   pagecolor="#ffffff"
   bordercolor="#666666"
   borderopacity="1.0"
   inkscape:pageshadow="2"
   inkscape:pageopacity="0.0"
   inkscape:pagecheckerboard="0"
   inkscape:document-units="mm"
   showgrid="false"
   inkscape:zoom="1.386048"
   inkscape:cx="509.00112"
   inkscape:cy="306.26645"
   inkscape:window-width="1836"
   inkscape:window-height="1035"
   inkscape:window-x="0"
   inkscape:window-y="23"
   inkscape:window-maximized="0"
   inkscape:current-layer="g240" />
 <defs
   id="defs11">
  <style
   type="text/css"
   id="style9">
   <![CDATA[
    .fil4 {fill:#E9E7DD;fill-rule:nonzero}
    .fil1 {fill:#C7C2BB;fill-rule:nonzero}
    .fil0 {fill:#FFF583;fill-rule:nonzero}
    .fil10 {fill:#FFD75F;fill-rule:nonzero}
    .fil9 {fill:#FFB615;fill-rule:nonzero}
    .fil5 {fill:#FFA964;fill-rule:nonzero}
    .fil6 {fill:#E9831B;fill-rule:nonzero}
    .fil8 {fill:#FD8301;fill-rule:nonzero}
    .fil7 {fill:#DE5018;fill-rule:nonzero}
    .fil3 {fill:black;fill-rule:nonzero}
    .fil2 {fill:white;fill-rule:nonzero}
   ]]>
  </style>
 </defs>
 <g
   id="Layer_x0020_1"
   inkscape:label="Layer 1"
   inkscape:groupmode="layer"
   transform="translate(5453.5528)">
  <metadata
   id="CorelCorpID_0Corel-Layer" />
  <g
   id="vc013842.ai">
   <g
   id="g240">
    <polygon
   class="fil0"
   points="3478,6141 1817,7291 2527,10074 10691,8611 10520,6879 "
   id="polygon14" />
    <polygon
   class="fil1"
   points="3521,6425 3592,3592 3152,2414 15795,398 16292,6574 3975,7958 "
   id="polygon16" />
    <path
   class="fil2"
   d="m 9484,4331 -71,57 14,1703 171,-241 c 0,0 237,-275 199,-895 -39,-619 -313,-624 -313,-624 z"
   id="path18" />
    <path
   class="fil2"
   d="m 9526,5530 327,397 -99,157 c 0,0 213,539 14,1192 -199,654 -568,1236 -568,1236 l -213,57 c 0,0 43,-512 -284,-739 -327,-227 -838,-42 -838,-42 l -440,1206 171,114 -1974,667 -213,1051 c 0,0 -426,71 -582,71 -156,0 -497,156 -497,156 l -497,-185 -227,838 582,128 -43,156 1875,554 227,-114 270,895 -156,42 411,2158 -270,682 980,-29 -43,-525 c 0,0 171,-852 384,-1349 213,-497 568,-951 568,-951 l 1206,-227 1406,1860 c 0,0 454,894 838,667 383,-227 14,-895 14,-895 l -327,-2228 -269,14 -270,-3919 270,-99 c 0,0 227,-1136 -57,-1832 -284,-696 -653,-1022 -653,-1022 l -199,-653 z"
   id="path20" />
    <path
   class="fil3"
   d="m 9285,4288 c 0,0 383,301 440,823 59,523 -505,1040 -505,1040 l 221,54 c 0,0 572,-518 456,-1157 -116,-638 -464,-851 -464,-851 z"
   id="path22" />
    <polygon
   class="fil4"
   points="6384,7657 8973,5040 9292,4984 6653,7632 "
   id="polygon24" />
    <polygon
   class="fil4"
   points="5521,7788 8142,5154 8383,5184 5790,7763 "
   id="polygon26" />
    <polygon
   class="fil4"
   points="4620,7908 7291,5246 7589,5211 4889,7884 "
   id="polygon28" />
    <polygon
   class="fil0"
   points="15327,6218 15582,6396 15320,6517 15320,6773 15043,6630 14801,6801 14809,6417 14567,6275 14858,6218 14837,5885 15071,6077 15355,5892 "
   id="polygon30" />
    <polygon
   class="fil3"
   points="12643,4984 12714,5608 12913,5566 12828,4984 "
   id="polygon32" />
    <polygon
   class="fil3"
   points="12233,5042 12304,5666 12502,5624 12417,5042 "
   id="polygon34" />
    <path
   class="fil3"
   d="m 13014,4708 170,1022 c 0,0 -484,34 -526,177 -43,141 85,667 85,667 l 185,-14 c 0,0 -99,-518 -57,-589 43,-71 512,-85 512,-85 l -185,-1207 z"
   id="path36" />
    <path
   class="fil3"
   d="m 13760,6865 c 167,0 303,-135 303,-303 0,-167 -136,-303 -303,-303 -167,0 -303,136 -303,303 0,168 136,303 303,303 z"
   id="path38" />
    <polygon
   class="fil0"
   points="9456,937 10670,5175 16236,4834 15759,0 "
   id="polygon40" />
    <polygon
   class="fil3"
   points="11045,1123 11194,2149 11395,2155 11263,1155 "
   id="polygon42" />
    <polygon
   class="fil3"
   points="9299,4962 7412,5239 7440,5438 9314,5182 "
   id="polygon44" />
    <polygon
   class="fil3"
   points="7079,5303 6029,5460 6049,5672 7121,5502 "
   id="polygon46" />
    <polygon
   class="fil3"
   points="5689,5503 4900,5623 4920,5835 5731,5701 "
   id="polygon48" />
    <polygon
   class="fil2"
   points="11230,1214 11259,1498 13133,2463 13076,2179 "
   id="polygon50" />
    <polygon
   class="fil2"
   points="14382,4252 14978,2023 14694,2037 13956,4352 14368,4977 14766,4934 "
   id="polygon52" />
    <polygon
   class="fil3"
   points="6283,5480 6851,5778 6766,5082 "
   id="polygon54" />
    <path
   class="fil3"
   d="m 5055,6029 c 186,0 337,-151 337,-336 0,-186 -151,-336 -337,-336 -185,0 -336,150 -336,336 0,185 151,336 336,336 z"
   id="path56" />
    <path
   class="fil2"
   d="m 5062,5858 c 84,0 151,-68 151,-151 0,-83 -67,-151 -151,-151 -83,0 -151,68 -151,151 0,83 68,151 151,151 z"
   id="path58" />
    <path
   class="fil3"
   d="m 6818,3997 c 479,0 869,-390 869,-869 0,-479 -390,-868 -869,-868 -479,0 -868,389 -868,868 0,479 389,869 868,869 z"
   id="path60" />
    <path
   class="fil2"
   d="m 6810,3794 c 372,0 674,-301 674,-673 0,-373 -302,-674 -674,-674 -372,0 -674,301 -674,674 0,372 302,673 674,673 z"
   id="path62" />
    <polygon
   class="fil3"
   points="7270,3528 5680,3812 5652,3627 6901,3415 6603,3201 6830,2861 4800,3159 5084,5459 4892,5473 4608,2989 7156,2633 6844,3145 "
   id="polygon64" />
    <polygon
   class="fil3"
   points="5516,1810 5765,3755 5609,3826 5311,1654 6772,1413 6786,1619 "
   id="polygon66" />
    <polygon
   class="fil3"
   points="7093,4174 7043,3911 6872,3897 6943,4380 7824,4266 7781,4075 "
   id="polygon68" />
    <polygon
   class="fil3"
   points="9110,3857 8060,4013 8079,4210 9152,4054 "
   id="polygon70" />
    <polygon
   class="fil3"
   points="10251,3699 9399,3826 9416,4013 10294,3897 "
   id="polygon72" />
    <polygon
   class="fil3"
   points="5119,4068 4771,3457 4544,4138 "
   id="polygon74" />
    <polygon
   class="fil3"
   points="11122,3109 10881,3430 11219,3698 10922,4026 11429,4331 11605,4303 11252,1778 11041,1803 10759,2208 11115,2437 10807,2860 "
   id="polygon76" />
    <polygon
   class="fil3"
   points="11659,3047 11973,3295 11700,3642 12078,3890 11635,4313 11456,4243 11225,1783 11436,1758 11804,2086 11511,2392 11908,2732 "
   id="polygon78" />
    <polygon
   class="fil3"
   points="11371,4104 11519,5130 11720,5135 11589,4135 "
   id="polygon80" />
    <polygon
   class="fil2"
   points="11434,3701 11810,3921 11146,3985 "
   id="polygon82" />
    <polygon
   class="fil2"
   points="11395,3114 11802,3352 11067,3424 "
   id="polygon84" />
    <polygon
   class="fil2"
   points="11319,2471 11651,2747 11031,2819 "
   id="polygon86" />
    <polygon
   class="fil2"
   points="11238,1831 11610,2081 10972,2133 "
   id="polygon88" />
    <path
   class="fil3"
   d="m 5234,6640 c 83,0 150,-67 150,-151 0,-83 -67,-151 -150,-151 -83,0 -151,68 -151,151 0,84 68,151 151,151 z"
   id="path90" />
    <path
   class="fil3"
   d="m 6065,6535 c 84,0 151,-68 151,-151 0,-84 -67,-151 -151,-151 -83,0 -151,67 -151,151 0,83 68,151 151,151 z"
   id="path92" />
    <path
   class="fil3"
   d="m 5328,7473 c 83,0 151,-68 151,-151 0,-83 -68,-151 -151,-151 -83,0 -151,68 -151,151 0,83 68,151 151,151 z"
   id="path94" />
    <path
   class="fil3"
   d="m 6195,7374 c 83,0 151,-67 151,-151 0,-83 -68,-151 -151,-151 -83,0 -151,68 -151,151 0,84 68,151 151,151 z"
   id="path96" />
    <polygon
   class="fil3"
   points="5843,6502 5403,7013 5559,7134 5999,6609 "
   id="polygon98" />
    <polygon
   class="fil3"
   points="5389,6658 5964,7113 6091,6957 5495,6502 "
   id="polygon100" />
    <polygon
   class="fil3"
   points="13055,2080 11323,1129 11025,1172 12998,2264 16037,1995 16022,1810 "
   id="polygon102" />
    <polygon
   class="fil3"
   points="11735,1455 12061,1072 12303,1072 11891,1541 "
   id="polygon104" />
    <polygon
   class="fil3"
   points="13737,1043 13375,2009 12608,1058 12409,1051 13268,2165 13495,2179 13907,1043 "
   id="polygon106" />
    <polygon
   class="fil3"
   points="15299,1022 14817,1889 14170,1036 13971,1029 14710,2046 14937,2060 15469,1022 "
   id="polygon108" />
    <polygon
   class="fil3"
   points="12956,2137 13609,5061 13794,5047 13154,2137 "
   id="polygon110" />
    <polygon
   class="fil3"
   points="13836,4366 14617,2009 14816,1966 14049,4352 14518,5019 14304,5019 "
   id="polygon112" />
    <polygon
   class="fil3"
   points="14006,4096 13367,3642 13339,3400 14106,2932 13069,2208 13311,2151 14447,2960 13510,3528 14106,3940 "
   id="polygon114" />
    <polygon
   class="fil3"
   points="13510,4408 13950,4295 14006,4465 13566,4579 "
   id="polygon116" />
    <polygon
   class="fil3"
   points="14447,4252 15085,2037 14901,2052 14262,4281 14731,4990 14929,4962 "
   id="polygon118" />
    <polygon
   class="fil3"
   points="11238,1583 13169,2648 13154,2435 11238,1384 "
   id="polygon120" />
    <path
   class="fil3"
   d="m 13424,5005 171,1022 c 0,0 -483,-14 -526,128 -42,141 114,752 114,752 l 184,-14 c 0,0 -127,-554 -85,-624 43,-71 511,-86 511,-86 l -184,-1206 z"
   id="path122" />
    <polygon
   class="fil3"
   points="14248,5707 14120,4948 13935,4962 14106,5927 16292,5743 16292,5530 "
   id="polygon124" />
    <path
   class="fil2"
   d="m 13749,6708 c 83,0 151,-68 151,-151 0,-83 -68,-151 -151,-151 -83,0 -151,68 -151,151 0,83 68,151 151,151 z"
   id="path126" />
    <path
   class="fil3"
   d="m 14389,6596 c 83,0 151,-69 151,-151 0,-84 -68,-151 -151,-151 -83,0 -151,67 -151,151 0,82 68,151 151,151 z"
   id="path128" />
    <path
   class="fil3"
   d="m 15107,6504 c 83,0 151,-67 151,-151 0,-83 -68,-151 -151,-151 -83,0 -151,68 -151,151 0,84 68,151 151,151 z"
   id="path130" />
    <path
   class="fil3"
   d="m 15924,6370 c 84,0 151,-67 151,-151 0,-83 -67,-151 -151,-151 -83,0 -150,68 -150,151 0,84 67,151 150,151 z"
   id="path132" />
    <path
   class="fil3"
   d="m 16159,4728 c 541,-196 821,-795 624,-1336 l -936,272 -401,-897 c -540,197 -821,796 -624,1337 196,541 796,821 1337,624 z"
   id="path134" />
    <path
   class="fil2"
   d="m 16082,4538 c 442,-161 670,-650 510,-1092 -161,-441 -650,-670 -1092,-510 -441,161 -670,650 -509,1092 160,442 649,670 1091,510 z"
   id="path136" />
    <polygon
   class="fil3"
   points="15753,4091 15517,3459 15936,3284 15871,3104 15266,3331 15653,4354 16286,4101 16245,3927 "
   id="polygon138" />
    <polygon
   class="fil3"
   points="15476,3723 15964,3546 16024,3713 15539,3896 "
   id="polygon140" />
    <path
   class="fil3"
   d="m 12841,6765 c 83,0 150,-68 150,-151 0,-83 -67,-151 -150,-151 -84,0 -151,68 -151,151 0,83 67,151 151,151 z"
   id="path142" />
    <path
   class="fil3"
   d="m 12413,5876 c 100,0 182,-82 182,-181 0,-101 -82,-182 -182,-182 -100,0 -181,81 -181,182 0,99 81,181 181,181 z"
   id="path144" />
    <path
   class="fil3"
   d="m 10010,6026 c 0,0 142,512 0,1179 -142,667 -752,1604 -752,1604 l 1845,-482 c 0,0 114,-923 -71,-1505 -184,-582 -553,-951 -553,-951 z"
   id="path146" />
    <polygon
   class="fil5"
   points="4374,11649 3863,11550 3991,11152 4346,11294 "
   id="polygon148" />
    <path
   class="fil3"
   d="m 6702,13523 270,2030 313,-42 c 0,0 70,-625 312,-1222 241,-596 639,-1107 639,-1107 z"
   id="path150" />
    <path
   class="fil6"
   d="m 9158,8781 -3364,1150 1008,3592 2257,-497 c 0,0 426,-2698 426,-2783 0,-85 -327,-1462 -327,-1462 z"
   id="path152" />
    <path
   class="fil7"
   d="m 8974,8809 c 0,0 85,256 0,582 -85,327 -412,483 -412,483 l 341,3180 2172,-454 -312,-4401 z"
   id="path154" />
    <path
   class="fil3"
   d="m 9002,8824 c 0,0 29,369 -184,667 -213,298 -767,539 -767,539 l 43,128 c 0,0 610,-142 894,-625 284,-482 142,-766 142,-766 z"
   id="path156" />
    <polygon
   class="fil3"
   points="8534,9888 8832,13069 9002,13012 8704,9803 "
   id="polygon158" />
    <polygon
   class="fil3"
   points="9840,13012 11217,14914 11671,14871 11331,12742 "
   id="polygon160" />
    <path
   class="fil6"
   d="m 11274,15084 c 0,0 369,512 497,341 127,-170 -85,-426 -85,-426 z"
   id="path162" />
    <polygon
   class="fil7"
   points="6958,15667 6773,16007 7285,15936 7242,15624 "
   id="polygon164" />
    <path
   class="fil3"
   d="m 5780,9973 -199,1108 c 0,0 -142,-43 -426,-43 -284,0 -710,185 -710,185 l -85,525 1675,540 880,-738 z"
   id="path166" />
    <path
   class="fil5"
   d="m 7966,9370 120,-419 -234,-142 163,-567 c 0,0 249,-93 384,134 135,228 64,838 64,838 z"
   id="path168" />
    <path
   class="fil3"
   d="m 7859,9434 135,-447 -270,-92 284,-937 c 0,0 398,-128 618,63 220,192 121,1108 121,1108 l -157,50 c 0,0 71,-952 -85,-1051 -156,-99 -369,-29 -369,-29 l -191,682 227,107 -128,482 z"
   id="path170" />
    <polygon
   class="fil3"
   points="4334,11130 2911,10663 2929,10421 4404,10912 "
   id="polygon172" />
    <polygon
   class="fil5"
   points="9819,5580 10088,5920 10344,5821 10230,5352 "
   id="polygon174" />
    <polygon
   class="fil3"
   points="3549,6636 4387,9440 4557,9477 3706,6581 "
   id="polygon176" />
    <polygon
   class="fil3"
   points="4145,8268 4252,7638 3676,7868 "
   id="polygon178" />
    <polygon
   class="fil3"
   points="3994,10809 9345,5451 9328,5750 4099,10976 "
   id="polygon180" />
    <polygon
   class="fil3"
   points="2091,7061 3038,10272 3223,10336 2248,7010 "
   id="polygon182" />
    <polygon
   class="fil3"
   points="2814,6862 3720,10010 3890,10031 2971,6810 "
   id="polygon184" />
    <polygon
   class="fil3"
   points="2615,8463 2713,7844 2155,8052 "
   id="polygon186" />
    <polygon
   class="fil3"
   points="3368,8369 3466,7751 2909,7958 "
   id="polygon188" />
    <polygon
   class="fil3"
   points="6964,8485 7153,7825 6563,8017 "
   id="polygon190" />
    <path
   class="fil2"
   d="m 4594,11337 -43,312 1455,440 -277,-774 c 0,0 -369,-142 -596,-114 -227,29 -539,136 -539,136 z"
   id="path192" />
    <polygon
   class="fil3"
   points="4736,11209 4814,11783 4977,11876 4863,11201 "
   id="polygon194" />
    <path
   class="fil3"
   d="m 4998,11152 c 0,0 128,340 320,462 191,120 667,135 667,135 l 21,148 c 0,0 -369,36 -717,-148 -347,-185 -404,-540 -404,-540 z"
   id="path196" />
    <path
   class="fil3"
   d="m 5275,11117 c 0,0 -7,206 227,297 235,93 377,36 377,36 l 42,128 c 0,0 -262,64 -468,-28 -206,-92 -341,-369 -341,-369 z"
   id="path198" />
    <polygon
   class="fil8"
   points="1448,3003 123,6127 3085,7817 4505,4388 "
   id="polygon200" />
    <polygon
   class="fil3"
   points="1540,3046 170,6155 0,6070 1349,2946 "
   id="polygon202" />
    <polygon
   class="fil9"
   points="210,4266 1128,7501 4623,6224 3488,3292 "
   id="polygon204" />
    <path
   class="fil8"
   d="m 2145,6482 c 652,126 1285,-302 1411,-954 126,-652 -301,-1284 -953,-1411 -652,-126 -1285,302 -1411,953 -126,652 301,1285 953,1412 z"
   id="path206" />
    <polygon
   class="fil3"
   points="8307,1159 7167,1316 7186,1513 8348,1356 "
   id="polygon208" />
    <polygon
   class="fil2"
   points="10137,13133 11266,14723 11479,14695 11195,12920 "
   id="polygon210" />
    <polygon
   class="fil3"
   points="11117,14603 11479,14233 11429,14070 11053,14489 "
   id="polygon212" />
    <path
   class="fil3"
   d="m 10939,14460 c 0,0 64,-227 164,-369 99,-141 298,-191 298,-191 l -43,-164 c 0,0 -213,78 -326,228 -114,149 -150,305 -150,305 z"
   id="path214" />
    <polygon
   class="fil3"
   points="10691,14020 11422,13474 11330,13367 10620,13857 "
   id="polygon216" />
    <path
   class="fil3"
   d="m 10840,12899 c 0,0 50,220 206,312 156,93 270,135 270,135 l 28,142 c 0,0 -227,-28 -384,-156 -155,-128 -269,-377 -269,-377 z"
   id="path218" />
    <path
   class="fil3"
   d="m 10385,12941 c 0,0 150,284 313,455 163,170 369,241 369,241 l -170,107 c 0,0 -212,-120 -354,-283 -142,-163 -285,-413 -285,-413 z"
   id="path220" />
    <path
   class="fil10"
   d="m 2115,4422 c 0,0 -837,384 -624,1137 213,752 1178,553 1178,553 l -355,-355 171,-482 -455,-214 z"
   id="path222" />
    <polygon
   class="fil3"
   points="1178,7319 980,6623 795,6510 1093,7560 2073,7234 1917,7092 "
   id="polygon224" />
    <polygon
   class="fil3"
   points="426,5090 156,4252 880,4075 "
   id="polygon226" />
    <polygon
   class="fil2"
   points="3563,6638 4657,6240 4174,5090 "
   id="polygon228" />
    <polygon
   class="fil3"
   points="10186,1839 10627,2023 10556,2165 10116,2002 "
   id="polygon230" />
    <polygon
   class="fil3"
   points="10114,2721 10606,2691 10625,2848 10145,2897 "
   id="polygon232" />
    <polygon
   class="fil3"
   points="10329,3912 10678,3654 10766,3786 10378,4089 "
   id="polygon234" />
    <polygon
   class="fil3"
   points="10747,4770 10995,4362 11125,4453 10898,4864 "
   id="polygon236" />
    <polygon
   class="fil3"
   points="9486,946 8741,1060 8760,1257 9527,1144 "
   id="polygon238" />
   <rect
   style="fill:#ffbe30;stroke:#000000;stroke-width:1.75293"
   id="rect350"
   width="9.9671049"
   height="5.6165543"
   x="-21690.367"
   y="15812.855"
   transform="scale(-1,1)" /><rect
   style="fill:#ffbe30;stroke:#000000;stroke-width:5.80641"
   id="rect352"
   width="39.742104"
   height="39.7421"
   x="-5451.1465"
   y="2356.7739" /></g>
  </g>
 </g>
</svg>
