<?xml version="1.0" encoding="UTF-8" standalone="no"?>
<!-- Creator: CorelDRAW -->

<svg
   xml:space="preserve"
   width="372.88275mm"
   height="178.99664mm"
   version="1.1"
   style="clip-rule:evenodd;fill-rule:evenodd;image-rendering:optimizeQuality;shape-rendering:geometricPrecision;text-rendering:geometricPrecision"
   viewBox="0 0 37287.83 17900.107"
   id="svg244"
   sodipodi:docname="reading.svg"
   inkscape:version="1.1.2 (b8e25be8, 2022-02-05)"
   xmlns:inkscape="http://www.inkscape.org/namespaces/inkscape"
   xmlns:sodipodi="http://sodipodi.sourceforge.net/DTD/sodipodi-0.dtd"
   xmlns="http://www.w3.org/2000/svg"
   xmlns:svg="http://www.w3.org/2000/svg"><sodipodi:namedview
   id="namedview246"
   pagecolor="#ffffff"
   bordercolor="#666666"
   borderopacity="1.0"
   inkscape:pageshadow="2"
   inkscape:pageopacity="0.0"
   inkscape:pagecheckerboard="0"
   inkscape:document-units="mm"
   showgrid="false"
   inkscape:zoom="0.49004198"
   inkscape:cx="1227.4459"
   inkscape:cy="498.93685"
   inkscape:window-width="1836"
   inkscape:window-height="1035"
   inkscape:window-x="11"
   inkscape:window-y="23"
   inkscape:window-maximized="0"
   inkscape:current-layer="g240" />
 <defs
   id="defs11">
  <style
   type="text/css"
   id="style9">
   <![CDATA[
    .fil4 {fill:#E9E7DD;fill-rule:nonzero}
    .fil1 {fill:#C7C2BB;fill-rule:nonzero}
    .fil0 {fill:#FFF583;fill-rule:nonzero}
    .fil10 {fill:#FFD75F;fill-rule:nonzero}
    .fil9 {fill:#FFB615;fill-rule:nonzero}
    .fil5 {fill:#FFA964;fill-rule:nonzero}
    .fil6 {fill:#E9831B;fill-rule:nonzero}
    .fil8 {fill:#FD8301;fill-rule:nonzero}
    .fil7 {fill:#DE5018;fill-rule:nonzero}
    .fil3 {fill:black;fill-rule:nonzero}
    .fil2 {fill:white;fill-rule:nonzero}
   ]]>
  </style>
 </defs>
 <g
   id="Layer_x0020_1"
   inkscape:label="Layer 1"
   inkscape:groupmode="layer"
   transform="translate(7447.3513,1693.1069)">
  <metadata
   id="CorelCorpID_0Corel-Layer" />
  <g
   id="vc013842.ai">
   <g
   id="g240">
    <polygon
   class="fil0"
   points="10691,8611 10520,6879 3478,6141 1817,7291 2527,10074 "
   id="polygon14" />
    <polygon
   class="fil1"
   points="3521,6425 3592,3592 3152,2414 15795,398 16292,6574 3975,7958 "
   id="polygon16" />
    <path
   class="fil2"
   d="m 9484,4331 -71,57 14,1703 171,-241 c 0,0 237,-275 199,-895 -39,-619 -313,-624 -313,-624 z"
   id="path18" />
    <path
   class="fil2"
   d="m 9526,5530 327,397 -99,157 c 0,0 213,539 14,1192 -199,654 -568,1236 -568,1236 l -213,57 c 0,0 43,-512 -284,-739 -327,-227 -838,-42 -838,-42 l -440,1206 171,114 -1974,667 -213,1051 c 0,0 -426,71 -582,71 -156,0 -497,156 -497,156 l -497,-185 -227,838 582,128 -43,156 1875,554 227,-114 270,895 -156,42 411,2158 -270,682 980,-29 -43,-525 c 0,0 171,-852 384,-1349 213,-497 568,-951 568,-951 l 1206,-227 1406,1860 c 0,0 454,894 838,667 383,-227 14,-895 14,-895 l -327,-2228 -269,14 -270,-3919 270,-99 c 0,0 227,-1136 -57,-1832 -284,-696 -653,-1022 -653,-1022 l -199,-653 z"
   id="path20" />
    <path
   class="fil3"
   d="m 9285,4288 c 0,0 383,301 440,823 59,523 -505,1040 -505,1040 l 221,54 c 0,0 572,-518 456,-1157 -116,-638 -464,-851 -464,-851 z"
   id="path22" />
    <polygon
   class="fil4"
   points="9292,4984 6653,7632 6384,7657 8973,5040 "
   id="polygon24" />
    <polygon
   class="fil4"
   points="8383,5184 5790,7763 5521,7788 8142,5154 "
   id="polygon26" />
    <polygon
   class="fil4"
   points="7589,5211 4889,7884 4620,7908 7291,5246 "
   id="polygon28" />
    <polygon
   class="fil0"
   points="14809,6417 14567,6275 14858,6218 14837,5885 15071,6077 15355,5892 15327,6218 15582,6396 15320,6517 15320,6773 15043,6630 14801,6801 "
   id="polygon30" />
    <polygon
   class="fil3"
   points="12913,5566 12828,4984 12643,4984 12714,5608 "
   id="polygon32" />
    <polygon
   class="fil3"
   points="12502,5624 12417,5042 12233,5042 12304,5666 "
   id="polygon34" />
    <path
   class="fil3"
   d="m 13014,4708 170,1022 c 0,0 -484,34 -526,177 -43,141 85,667 85,667 l 185,-14 c 0,0 -99,-518 -57,-589 43,-71 512,-85 512,-85 l -185,-1207 z"
   id="path36" />
    <path
   class="fil3"
   d="m 13760,6865 c 167,0 303,-135 303,-303 0,-167 -136,-303 -303,-303 -167,0 -303,136 -303,303 0,168 136,303 303,303 z"
   id="path38" />
    <polygon
   class="fil0"
   points="16236,4834 15759,0 9456,937 10670,5175 "
   id="polygon40" />
    <polygon
   class="fil3"
   points="11395,2155 11263,1155 11045,1123 11194,2149 "
   id="polygon42" />
    <polygon
   class="fil3"
   points="7440,5438 9314,5182 9299,4962 7412,5239 "
   id="polygon44" />
    <polygon
   class="fil3"
   points="6049,5672 7121,5502 7079,5303 6029,5460 "
   id="polygon46" />
    <polygon
   class="fil3"
   points="4920,5835 5731,5701 5689,5503 4900,5623 "
   id="polygon48" />
    <polygon
   class="fil2"
   points="13133,2463 13076,2179 11230,1214 11259,1498 "
   id="polygon50" />
    <polygon
   class="fil2"
   points="14382,4252 14978,2023 14694,2037 13956,4352 14368,4977 14766,4934 "
   id="polygon52" />
    <polygon
   class="fil3"
   points="6283,5480 6851,5778 6766,5082 "
   id="polygon54" />
    <path
   class="fil3"
   d="m 5055,6029 c 186,0 337,-151 337,-336 0,-186 -151,-336 -337,-336 -185,0 -336,150 -336,336 0,185 151,336 336,336 z"
   id="path56" />
    <path
   class="fil2"
   d="m 5062,5858 c 84,0 151,-68 151,-151 0,-83 -67,-151 -151,-151 -83,0 -151,68 -151,151 0,83 68,151 151,151 z"
   id="path58" />
    <path
   class="fil3"
   d="m 6818,3997 c 479,0 869,-390 869,-869 0,-479 -390,-868 -869,-868 -479,0 -868,389 -868,868 0,479 389,869 868,869 z"
   id="path60" />
    <path
   class="fil2"
   d="m 6810,3794 c 372,0 674,-301 674,-673 0,-373 -302,-674 -674,-674 -372,0 -674,301 -674,674 0,372 302,673 674,673 z"
   id="path62" />
    <polygon
   class="fil3"
   points="4800,3159 5084,5459 4892,5473 4608,2989 7156,2633 6844,3145 7270,3528 5680,3812 5652,3627 6901,3415 6603,3201 6830,2861 "
   id="polygon64" />
    <polygon
   class="fil3"
   points="5516,1810 5765,3755 5609,3826 5311,1654 6772,1413 6786,1619 "
   id="polygon66" />
    <polygon
   class="fil3"
   points="7093,4174 7043,3911 6872,3897 6943,4380 7824,4266 7781,4075 "
   id="polygon68" />
    <polygon
   class="fil3"
   points="8079,4210 9152,4054 9110,3857 8060,4013 "
   id="polygon70" />
    <polygon
   class="fil3"
   points="9416,4013 10294,3897 10251,3699 9399,3826 "
   id="polygon72" />
    <polygon
   class="fil3"
   points="5119,4068 4771,3457 4544,4138 "
   id="polygon74" />
    <polygon
   class="fil3"
   points="11041,1803 10759,2208 11115,2437 10807,2860 11122,3109 10881,3430 11219,3698 10922,4026 11429,4331 11605,4303 11252,1778 "
   id="polygon76" />
    <polygon
   class="fil3"
   points="11436,1758 11804,2086 11511,2392 11908,2732 11659,3047 11973,3295 11700,3642 12078,3890 11635,4313 11456,4243 11225,1783 "
   id="polygon78" />
    <polygon
   class="fil3"
   points="11720,5135 11589,4135 11371,4104 11519,5130 "
   id="polygon80" />
    <polygon
   class="fil2"
   points="11434,3701 11810,3921 11146,3985 "
   id="polygon82" />
    <polygon
   class="fil2"
   points="11395,3114 11802,3352 11067,3424 "
   id="polygon84" />
    <polygon
   class="fil2"
   points="11319,2471 11651,2747 11031,2819 "
   id="polygon86" />
    <polygon
   class="fil2"
   points="11238,1831 11610,2081 10972,2133 "
   id="polygon88" />
    <path
   class="fil3"
   d="m 5234,6640 c 83,0 150,-67 150,-151 0,-83 -67,-151 -150,-151 -83,0 -151,68 -151,151 0,84 68,151 151,151 z"
   id="path90" />
    <path
   class="fil3"
   d="m 6065,6535 c 84,0 151,-68 151,-151 0,-84 -67,-151 -151,-151 -83,0 -151,67 -151,151 0,83 68,151 151,151 z"
   id="path92" />
    <path
   class="fil3"
   d="m 5328,7473 c 83,0 151,-68 151,-151 0,-83 -68,-151 -151,-151 -83,0 -151,68 -151,151 0,83 68,151 151,151 z"
   id="path94" />
    <path
   class="fil3"
   d="m 6195,7374 c 83,0 151,-67 151,-151 0,-83 -68,-151 -151,-151 -83,0 -151,68 -151,151 0,84 68,151 151,151 z"
   id="path96" />
    <polygon
   class="fil3"
   points="5559,7134 5999,6609 5843,6502 5403,7013 "
   id="polygon98" />
    <polygon
   class="fil3"
   points="6091,6957 5495,6502 5389,6658 5964,7113 "
   id="polygon100" />
    <polygon
   class="fil3"
   points="13055,2080 11323,1129 11025,1172 12998,2264 16037,1995 16022,1810 "
   id="polygon102" />
    <polygon
   class="fil3"
   points="12303,1072 11891,1541 11735,1455 12061,1072 "
   id="polygon104" />
    <polygon
   class="fil3"
   points="13268,2165 13495,2179 13907,1043 13737,1043 13375,2009 12608,1058 12409,1051 "
   id="polygon106" />
    <polygon
   class="fil3"
   points="14710,2046 14937,2060 15469,1022 15299,1022 14817,1889 14170,1036 13971,1029 "
   id="polygon108" />
    <polygon
   class="fil3"
   points="13794,5047 13154,2137 12956,2137 13609,5061 "
   id="polygon110" />
    <polygon
   class="fil3"
   points="13836,4366 14617,2009 14816,1966 14049,4352 14518,5019 14304,5019 "
   id="polygon112" />
    <polygon
   class="fil3"
   points="14006,4096 13367,3642 13339,3400 14106,2932 13069,2208 13311,2151 14447,2960 13510,3528 14106,3940 "
   id="polygon114" />
    <polygon
   class="fil3"
   points="14006,4465 13566,4579 13510,4408 13950,4295 "
   id="polygon116" />
    <polygon
   class="fil3"
   points="14447,4252 15085,2037 14901,2052 14262,4281 14731,4990 14929,4962 "
   id="polygon118" />
    <polygon
   class="fil3"
   points="13154,2435 11238,1384 11238,1583 13169,2648 "
   id="polygon120" />
    <path
   class="fil3"
   d="m 13424,5005 171,1022 c 0,0 -483,-14 -526,128 -42,141 114,752 114,752 l 184,-14 c 0,0 -127,-554 -85,-624 43,-71 511,-86 511,-86 l -184,-1206 z"
   id="path122" />
    <polygon
   class="fil3"
   points="14248,5707 14120,4948 13935,4962 14106,5927 16292,5743 16292,5530 "
   id="polygon124" />
    <path
   class="fil2"
   d="m 13749,6708 c 83,0 151,-68 151,-151 0,-83 -68,-151 -151,-151 -83,0 -151,68 -151,151 0,83 68,151 151,151 z"
   id="path126" />
    <path
   class="fil3"
   d="m 14389,6596 c 83,0 151,-69 151,-151 0,-84 -68,-151 -151,-151 -83,0 -151,67 -151,151 0,82 68,151 151,151 z"
   id="path128" />
    <path
   class="fil3"
   d="m 15107,6504 c 83,0 151,-67 151,-151 0,-83 -68,-151 -151,-151 -83,0 -151,68 -151,151 0,84 68,151 151,151 z"
   id="path130" />
    <path
   class="fil3"
   d="m 15924,6370 c 84,0 151,-67 151,-151 0,-83 -67,-151 -151,-151 -83,0 -150,68 -150,151 0,84 67,151 150,151 z"
   id="path132" />
    <path
   class="fil3"
   d="m 16159,4728 c 541,-196 821,-795 624,-1336 l -936,272 -401,-897 c -540,197 -821,796 -624,1337 196,541 796,821 1337,624 z"
   id="path134" />
    <path
   class="fil2"
   d="m 16082,4538 c 442,-161 670,-650 510,-1092 -161,-441 -650,-670 -1092,-510 -441,161 -670,650 -509,1092 160,442 649,670 1091,510 z"
   id="path136" />
    <polygon
   class="fil3"
   points="15936,3284 15871,3104 15266,3331 15653,4354 16286,4101 16245,3927 15753,4091 15517,3459 "
   id="polygon138" />
    <polygon
   class="fil3"
   points="16024,3713 15539,3896 15476,3723 15964,3546 "
   id="polygon140" />
    <path
   class="fil3"
   d="m 12841,6765 c 83,0 150,-68 150,-151 0,-83 -67,-151 -150,-151 -84,0 -151,68 -151,151 0,83 67,151 151,151 z"
   id="path142" />
    <path
   class="fil3"
   d="m 12413,5876 c 100,0 182,-82 182,-181 0,-101 -82,-182 -182,-182 -100,0 -181,81 -181,182 0,99 81,181 181,181 z"
   id="path144" />
    <path
   class="fil3"
   d="m 10010,6026 c 0,0 142,512 0,1179 -142,667 -752,1604 -752,1604 l 1845,-482 c 0,0 114,-923 -71,-1505 -184,-582 -553,-951 -553,-951 z"
   id="path146" />
    <polygon
   class="fil5"
   points="3991,11152 4346,11294 4374,11649 3863,11550 "
   id="polygon148" />
    <path
   class="fil3"
   d="m 6702,13523 270,2030 313,-42 c 0,0 70,-625 312,-1222 241,-596 639,-1107 639,-1107 z"
   id="path150" />
    <path
   class="fil6"
   d="m 9158,8781 -3364,1150 1008,3592 2257,-497 c 0,0 426,-2698 426,-2783 0,-85 -327,-1462 -327,-1462 z"
   id="path152" />
    <path
   class="fil7"
   d="m 8974,8809 c 0,0 85,256 0,582 -85,327 -412,483 -412,483 l 341,3180 2172,-454 -312,-4401 z"
   id="path154" />
    <path
   class="fil3"
   d="m 9002,8824 c 0,0 29,369 -184,667 -213,298 -767,539 -767,539 l 43,128 c 0,0 610,-142 894,-625 284,-482 142,-766 142,-766 z"
   id="path156" />
    <polygon
   class="fil3"
   points="9002,13012 8704,9803 8534,9888 8832,13069 "
   id="polygon158" />
    <polygon
   class="fil3"
   points="11671,14871 11331,12742 9840,13012 11217,14914 "
   id="polygon160" />
    <path
   class="fil6"
   d="m 11274,15084 c 0,0 369,512 497,341 127,-170 -85,-426 -85,-426 z"
   id="path162" />
    <polygon
   class="fil7"
   points="7285,15936 7242,15624 6958,15667 6773,16007 "
   id="polygon164" />
    <path
   class="fil3"
   d="m 5780,9973 -199,1108 c 0,0 -142,-43 -426,-43 -284,0 -710,185 -710,185 l -85,525 1675,540 880,-738 z"
   id="path166" />
    <path
   class="fil5"
   d="m 7966,9370 120,-419 -234,-142 163,-567 c 0,0 249,-93 384,134 135,228 64,838 64,838 z"
   id="path168" />
    <path
   class="fil3"
   d="m 7859,9434 135,-447 -270,-92 284,-937 c 0,0 398,-128 618,63 220,192 121,1108 121,1108 l -157,50 c 0,0 71,-952 -85,-1051 -156,-99 -369,-29 -369,-29 l -191,682 227,107 -128,482 z"
   id="path170" />
    <polygon
   class="fil3"
   points="2929,10421 4404,10912 4334,11130 2911,10663 "
   id="polygon172" />
    <polygon
   class="fil5"
   points="10344,5821 10230,5352 9819,5580 10088,5920 "
   id="polygon174" />
    <polygon
   class="fil3"
   points="4557,9477 3706,6581 3549,6636 4387,9440 "
   id="polygon176" />
    <polygon
   class="fil3"
   points="4145,8268 4252,7638 3676,7868 "
   id="polygon178" />
    <polygon
   class="fil3"
   points="9328,5750 4099,10976 3994,10809 9345,5451 "
   id="polygon180" />
    <polygon
   class="fil3"
   points="3223,10336 2248,7010 2091,7061 3038,10272 "
   id="polygon182" />
    <polygon
   class="fil3"
   points="3890,10031 2971,6810 2814,6862 3720,10010 "
   id="polygon184" />
    <polygon
   class="fil3"
   points="2615,8463 2713,7844 2155,8052 "
   id="polygon186" />
    <polygon
   class="fil3"
   points="3368,8369 3466,7751 2909,7958 "
   id="polygon188" />
    <polygon
   class="fil3"
   points="6964,8485 7153,7825 6563,8017 "
   id="polygon190" />
    <path
   class="fil2"
   d="m 4594,11337 -43,312 1455,440 -277,-774 c 0,0 -369,-142 -596,-114 -227,29 -539,136 -539,136 z"
   id="path192" />
    <polygon
   class="fil3"
   points="4977,11876 4863,11201 4736,11209 4814,11783 "
   id="polygon194" />
    <path
   class="fil3"
   d="m 4998,11152 c 0,0 128,340 320,462 191,120 667,135 667,135 l 21,148 c 0,0 -369,36 -717,-148 -347,-185 -404,-540 -404,-540 z"
   id="path196" />
    <path
   class="fil3"
   d="m 5275,11117 c 0,0 -7,206 227,297 235,93 377,36 377,36 l 42,128 c 0,0 -262,64 -468,-28 -206,-92 -341,-369 -341,-369 z"
   id="path198" />
    <polygon
   class="fil8"
   points="3085,7817 4505,4388 1448,3003 123,6127 "
   id="polygon200" />
    <polygon
   class="fil3"
   points="0,6070 1349,2946 1540,3046 170,6155 "
   id="polygon202" />
    <polygon
   class="fil9"
   points="4623,6224 3488,3292 210,4266 1128,7501 "
   id="polygon204" />
    <path
   class="fil8"
   d="m 2145,6482 c 652,126 1285,-302 1411,-954 126,-652 -301,-1284 -953,-1411 -652,-126 -1285,302 -1411,953 -126,652 301,1285 953,1412 z"
   id="path206" />
    <polygon
   class="fil3"
   points="7186,1513 8348,1356 8307,1159 7167,1316 "
   id="polygon208" />
    <polygon
   class="fil2"
   points="11479,14695 11195,12920 10137,13133 11266,14723 "
   id="polygon210" />
    <polygon
   class="fil3"
   points="11429,14070 11053,14489 11117,14603 11479,14233 "
   id="polygon212" />
    <path
   class="fil3"
   d="m 10939,14460 c 0,0 64,-227 164,-369 99,-141 298,-191 298,-191 l -43,-164 c 0,0 -213,78 -326,228 -114,149 -150,305 -150,305 z"
   id="path214" />
    <polygon
   class="fil3"
   points="11330,13367 10620,13857 10691,14020 11422,13474 "
   id="polygon216" />
    <path
   class="fil3"
   d="m 10840,12899 c 0,0 50,220 206,312 156,93 270,135 270,135 l 28,142 c 0,0 -227,-28 -384,-156 -155,-128 -269,-377 -269,-377 z"
   id="path218" />
    <path
   class="fil3"
   d="m 10385,12941 c 0,0 150,284 313,455 163,170 369,241 369,241 l -170,107 c 0,0 -212,-120 -354,-283 -142,-163 -285,-413 -285,-413 z"
   id="path220" />
    <path
   class="fil10"
   d="m 2115,4422 c 0,0 -837,384 -624,1137 213,752 1178,553 1178,553 l -355,-355 171,-482 -455,-214 z"
   id="path222" />
    <polygon
   class="fil3"
   points="1178,7319 980,6623 795,6510 1093,7560 2073,7234 1917,7092 "
   id="polygon224" />
    <polygon
   class="fil3"
   points="426,5090 156,4252 880,4075 "
   id="polygon226" />
    <polygon
   class="fil2"
   points="3563,6638 4657,6240 4174,5090 "
   id="polygon228" />
    <polygon
   class="fil3"
   points="10556,2165 10116,2002 10186,1839 10627,2023 "
   id="polygon230" />
    <polygon
   class="fil3"
   points="10625,2848 10145,2897 10114,2721 10606,2691 "
   id="polygon232" />
    <polygon
   class="fil3"
   points="10766,3786 10378,4089 10329,3912 10678,3654 "
   id="polygon234" />
    <polygon
   class="fil3"
   points="11125,4453 10898,4864 10747,4770 10995,4362 "
   id="polygon236" />
    <polygon
   class="fil3"
   points="8760,1257 9527,1144 9486,946 8741,1060 "
   id="polygon238" />
   <path
   style="fill:#ffbe30;fill-opacity:1;stroke:#000000;stroke-width:0.721476"
   d="m 622.21763,555.71668 c -0.0303,-0.0992 -2.55797,-26.87834 -5.61692,-59.5092 l -5.56174,-59.32882 4.53941,-4.74488 c 3.23621,-3.38269 5.46316,-6.64851 7.7571,-11.37579 3.9528,-8.1458 5.00867,-12.84453 4.51264,-20.08156 -0.2696,-3.93332 -0.13061,-5.66542 0.47322,-5.89713 7.41859,-2.84678 59.03234,-20.0651 59.31124,-19.78619 0.51377,0.51377 12.12962,164.259 11.68391,164.70471 -0.31602,0.31603 -75.23653,16.17239 -76.50257,16.19119 -0.29761,0.004 -0.56594,-0.0731 -0.59629,-0.17233 z"
   id="path106125"
   transform="matrix(26.458987,0,0,26.458987,-7448.035,-1693.1069)" /><path
   style="fill:#ffbe30;fill-opacity:1;stroke:#000000;stroke-width:0.721476"
   d="m 532.22629,551.07591 c -3.64401,-13.02244 -7.24544,-25.84155 -8.00316,-28.48692 l -1.37769,-4.80976 10.08656,-8.41751 c 6.25283,-5.21816 9.94551,-8.78505 9.71548,-9.38451 -0.20409,-0.53185 -9.48038,-13.62665 -20.61399,-29.09956 -11.13361,-15.47291 -20.32503,-28.86804 -20.42539,-29.76695 -0.17193,-1.53994 2.08975,-2.41376 39.13796,-15.12128 21.62623,-7.4178 39.40217,-13.4184 39.50208,-13.33469 0.0999,0.0837 -0.3024,1.7479 -0.89403,3.69818 -0.59164,1.95028 -1.07921,3.81134 -1.08351,4.13569 -0.0105,0.79455 2.36689,0.0416 7.56769,-2.39673 2.38087,-1.11624 6.76383,-2.78471 9.73992,-3.70771 2.97609,-0.92299 5.6496,-2.00776 5.94113,-2.41058 0.29153,-0.40283 0.53503,-2.12027 0.54111,-3.81655 0.009,-2.64188 0.27642,-3.18502 1.8617,-3.78774 1.01786,-0.38699 2.00303,-0.70362 2.18928,-0.70362 0.18624,0 0.12327,1.62332 -0.13992,3.60738 -0.53234,4.013 -0.19646,4.25331 3.9329,2.81381 2.32795,-0.81153 2.79001,-1.74248 3.1552,-6.35698 0.1794,-2.26692 0.48813,-2.5603 3.91578,-3.72113 3.65221,-1.23687 3.72801,-1.23343 4.09926,0.18621 0.20803,0.79551 0.10415,3.11935 -0.23084,5.16408 -2.49212,15.2113 -10.35635,24.45346 -29.26146,34.38847 -3.15924,1.66024 -5.85758,3.12753 -5.99633,3.26063 -0.29584,0.28379 1.32239,5.38902 1.70817,5.38902 1.09973,0 11.41974,-4.09963 13.87546,-5.51202 2.92685,-1.68337 3.06627,-1.69925 3.06627,-0.3492 0,1.83022 9.93865,108.4539 10.47217,112.34743 l 0.40484,2.95443 -36.89635,8.13487 c -20.29299,4.47418 -37.45175,8.28012 -38.13058,8.45764 -1.05479,0.27583 -2.1975,-3.11962 -7.85971,-23.3544 z"
   id="path108541"
   transform="matrix(26.458987,0,0,26.458987,-7448.035,-1693.1069)" /><path
   style="fill:#ff5001;fill-opacity:1;stroke:#000000;stroke-width:0.721476"
   d="m 588.37938,408.96115 c 1.16362,-4.30136 2.12306,-8.15884 2.13209,-8.57219 0.009,-0.41336 -1.76924,-1.62732 -3.9517,-2.6977 -2.18247,-1.07038 -3.96812,-2.26563 -3.96812,-2.65612 0,-0.71714 5.14965,-19.67348 5.45913,-20.09555 0.46541,-0.63473 6.67058,1.64311 8.16654,2.99783 3.81145,3.4516 4.70589,7.05445 5.00374,20.15517 0.19509,8.58077 0.0282,12.40069 -0.57354,13.12571 -0.46679,0.56245 -3.50283,1.90046 -6.74676,2.97335 -3.24392,1.0729 -6.28932,2.09459 -6.76755,2.27043 -0.56197,0.20663 -0.1212,-2.44645 1.24617,-7.50093 z"
   id="path108580"
   transform="matrix(26.458987,0,0,26.458987,-7448.035,-1693.1069)" /><path
   style="fill:#ff5001;fill-opacity:1;stroke:#000000;stroke-width:0.721476"
   d="m 622.66017,552.11185 c -0.70504,-5.11131 -10.48802,-110.62301 -10.48802,-113.11565 0,-1.837 0.89083,-3.27181 4.28236,-6.89736 4.74153,-5.06871 9.43769,-13.78499 11.2222,-20.82889 0.59916,-2.36503 1.08939,-6.93402 1.08939,-10.1533 v -5.85323 l 29.21976,-9.82292 c 17.56102,-5.90356 29.22128,-9.48093 29.22357,-8.96581 0.002,0.47141 1.12787,15.95399 2.50173,34.40574 1.37387,18.45174 3.79416,52.54147 5.37845,75.75495 1.58428,23.21348 3.06935,44.56014 3.30016,47.43703 0.2308,2.87688 0.25153,5.2307 0.046,5.2307 -0.20547,0 -7.28046,1.47869 -15.72218,3.28598 -8.4417,1.80729 -24.6015,5.21617 -35.91063,7.57528 -11.30913,2.35911 -21.27249,4.45288 -22.14079,4.65281 -1.38989,0.32002 -1.62936,-0.004 -2.00203,-2.70533 z"
   id="path110801"
   transform="matrix(26.458987,0,0,26.458987,-7448.035,-1693.1069)" /><path
   style="fill:#ffbe30;fill-opacity:1;stroke:#000000;stroke-width:0.721476"
   d="m 538.66537,667.9794 c 0.15235,-0.37779 1.56508,-3.15812 3.13939,-6.17852 l 2.8624,-5.49164 3.99162,-0.46714 c 2.1954,-0.25692 4.52094,-0.61972 5.16789,-0.80622 0.97104,-0.27994 1.26662,0.50472 1.69421,4.49744 0.28487,2.6601 0.66095,5.2092 0.83573,5.66466 0.2124,0.55353 -2.02407,1.13123 -6.74454,1.7422 -3.88428,0.50274 -7.99863,1.09678 -9.14301,1.32009 -1.18987,0.23218 -1.96209,0.11193 -1.80369,-0.28087 z"
   id="path110957"
   transform="matrix(26.458987,0,0,26.458987,-7448.035,-1693.1069)" /><path
   style="fill:#ffbe30;fill-opacity:1;stroke:#000000;stroke-width:0.721476"
   d="m 721.5716,647.15259 c -1.11755,-0.57979 -2.94054,-1.81873 -4.05109,-2.7532 -2.5983,-2.18632 -8.67061,-9.01685 -8.67061,-9.75326 0,-0.31079 3.14207,-1.15687 6.98238,-1.88018 l 6.98238,-1.3151 1.25943,1.55533 c 2.3954,2.9582 3.82616,7.88157 3.10892,10.69809 -0.91429,3.59028 -2.93925,4.83465 -5.61141,3.44832 z"
   id="path122306"
   transform="matrix(26.458987,0,0,26.458987,-7448.035,-1693.1069)" /><path
   style="fill:#ff5001;fill-opacity:1;stroke:#000000;stroke-width:0.721476"
   d="m 540.02458,667.39565 c 0,-0.23505 1.11747,-2.64637 2.48327,-5.35848 2.29017,-4.54766 2.69693,-4.96643 5.2307,-5.38512 5.77621,-0.95448 6.48416,-0.72754 6.97394,2.23566 1.08401,6.55823 1.1883,6.42672 -5.84983,7.37672 -3.4721,0.46866 -6.88108,1.01107 -7.5755,1.20535 -0.69442,0.19428 -1.26258,0.16093 -1.26258,-0.0741 z"
   id="path126518"
   transform="matrix(26.458987,0,0,26.458987,-7448.035,-1693.1069)" /><path
   style="fill:#ff5001;fill-opacity:1;stroke:#000000;stroke-width:0.721476"
   d="m 359.80678,308.02996 c -15.06057,-4.0539 -27.11208,-15.75743 -31.90448,-30.98328 -2.04698,-6.5034 -2.22692,-17.34228 -0.40125,-24.16944 3.24611,-12.13892 12.32463,-23.2396 23.52131,-28.76048 7.84558,-3.86852 15.05475,-5.41641 22.81728,-4.89913 16.18411,1.07846 30.90781,10.96755 37.75179,25.35575 3.65284,7.67945 4.69005,12.33937 4.57822,20.56895 -0.14976,11.02107 -4.121,21.10504 -11.71987,29.75967 -4.90196,5.58304 -14.08021,11.00491 -22.18412,13.10484 -5.48661,1.42173 -17.21807,1.4338 -22.45888,0.0231 z m 20.29264,-12.33733 2.76761,-0.45727 -6.73573,-6.77085 -6.73573,-6.77085 3.06627,-8.83647 c 1.68645,-4.86006 3.06628,-9.07313 3.06628,-9.3624 0,-0.28926 -3.73364,-2.28703 -8.29698,-4.4395 -9.60449,-4.53031 -8.88088,-2.70533 -6.87663,-17.34329 0.75932,-5.54567 1.22426,-10.23935 1.0332,-10.43041 -0.92915,-0.92915 -7.75885,3.84138 -13.4033,9.36216 -4.85729,4.75086 -6.8471,7.31481 -8.67874,11.18288 -2.26427,4.7817 -2.37564,5.41059 -2.35817,13.3157 0.0153,6.93925 0.28931,8.97543 1.67426,12.44305 3.39014,8.48821 11.9381,15.20679 22.1161,17.38296 5.33162,1.13995 14.72011,1.49117 19.36156,0.72429 z"
   id="path126557"
   transform="matrix(26.458987,0,0,26.458987,-7448.035,-1693.1069)" /><path
   style="fill:#ff5001;fill-opacity:1;stroke:#000000;stroke-width:0.721476"
   d="m 432.67295,237.578 c -4.01963,-10.39786 -7.23954,-18.96093 -7.15535,-19.02904 0.1408,-0.11391 25.21509,11.17166 25.53747,11.49404 0.16301,0.16302 -10.42338,25.78988 -10.81588,26.18238 -0.1418,0.1418 -3.54661,-8.24952 -7.56624,-18.64738 z"
   id="path126596"
   transform="matrix(26.458987,0,0,26.458987,-7448.035,-1693.1069)" /><path
   style="fill:#ff5001;fill-opacity:1;stroke:#000000;stroke-width:0.721476"
   d="m 325.23013,213.01571 c 0.19783,-0.49602 3.54695,-8.14577 7.44249,-16.99946 5.37163,-12.20852 7.35146,-16.02373 8.19484,-15.7918 3.83053,1.05342 38.8246,17.49176 38.08636,17.89094 -1.21425,0.65658 -52.2937,15.80216 -53.29379,15.80216 -0.43428,0 -0.62773,-0.40583 -0.4299,-0.90184 z"
   id="path126635"
   transform="matrix(26.458987,0,0,26.458987,-7448.035,-1693.1069)" /><path
   style="fill:#ff5001;fill-opacity:1;stroke:#000000;stroke-width:0.721476"
   d="m 300.49464,303.34915 c -6.15058,-3.54251 -11.25923,-6.85148 -11.35257,-7.35326 -0.0933,-0.50177 2.55285,-7.06207 5.8804,-14.57844 l 6.05008,-13.66612 1.47166,5.00841 c 4.27137,14.53656 10.21552,35.69001 10.21552,36.35403 0,0.41803 -0.2435,0.74122 -0.54111,0.71819 -0.29761,-0.023 -5.5734,-2.94029 -11.72398,-6.48281 z"
   id="path126674"
   transform="matrix(26.458987,0,0,26.458987,-7448.035,-1693.1069)" /><path
   style="fill:#ff5001;fill-opacity:1;stroke:#000000;stroke-width:0.721476"
   d="m 378.77476,347.97102 c -10.31711,-5.91277 -19.17551,-11.16362 -19.68535,-11.66855 -0.75169,-0.74446 4.50091,-2.90371 27.77681,-11.41855 15.78709,-5.77526 28.83137,-10.38652 28.9873,-10.24724 0.30466,0.27215 -17.17914,42.92465 -17.89271,43.65006 -0.23523,0.23913 -8.86895,-4.40294 -19.18605,-10.31572 z"
   id="path126713"
   transform="matrix(26.458987,0,0,26.458987,-7448.035,-1693.1069)" /><path
   style="fill:#ffbe30;fill-opacity:1;stroke:#000000;stroke-width:0.721476"
   d="m 724.50045,254.8613 c -0.20809,-0.89283 -1.10313,-7.29714 -1.98898,-14.23181 l -1.61065,-12.60849 8.86205,-8.52439 c 7.98232,-7.6782 8.73664,-8.61609 7.59885,-9.44806 -0.69475,-0.50802 -3.80805,-2.5238 -6.91845,-4.47951 -3.11039,-1.95571 -5.67003,-3.77101 -5.68808,-4.03399 -0.0181,-0.263 2.07749,-3.15669 4.65677,-6.43044 2.57928,-3.27375 4.68959,-6.20107 4.68959,-6.50516 0,-0.30408 -2.56423,-2.58082 -5.6983,-5.0594 l -5.69829,-4.50653 4.6842,-5.80169 4.6842,-5.80169 -2.79215,-2.54905 c -1.53567,-1.40198 -4.89413,-4.39125 -7.46324,-6.64283 l -4.6711,-4.09378 5.2307,-5.30237 c 2.87689,-2.9163 5.22629,-5.6194 5.2209,-6.00688 -0.005,-0.38748 -3.06009,-3.38299 -6.78823,-6.65669 -4.76012,-4.17988 -7.33508,-5.95217 -8.64791,-5.95217 -1.52961,0 -1.86948,-0.33912 -1.86948,-1.86537 v -1.86537 l 3.06627,1.71152 c 1.68645,0.94135 16.01265,8.84221 31.83599,17.55747 17.79194,9.79954 29.01286,16.39654 29.40691,17.28889 0.35045,0.79363 4.82573,20.27347 9.94506,43.28855 5.11934,23.01507 9.52317,42.69342 9.78628,43.72965 0.45644,1.79766 0.31831,1.9053 -3.01199,2.34708 -3.88947,0.51596 -59.56649,4.06583 -63.7694,4.06583 -2.1791,0 -2.7431,-0.30003 -3.05152,-1.62332 z"
   id="path137594"
   transform="matrix(26.458987,0,0,26.458987,-7448.035,-1693.1069)" /><path
   style="fill:#ffbe30;fill-opacity:1;stroke:#000000;stroke-width:0.721476"
   d="m 425.80087,432.00959 c -0.56285,-1.89915 -4.37765,-15.22182 -8.47733,-29.60592 l -7.45396,-26.15291 1.48592,-9.56014 c 0.81726,-5.25807 1.3766,-9.68817 1.24299,-9.84467 -0.13362,-0.15649 -1.73873,0.28672 -3.56691,0.98491 -1.84338,0.70399 -3.58146,0.99141 -3.90206,0.64527 -0.31796,-0.3433 -1.06853,-2.33556 -1.66794,-4.42725 l -1.08983,-3.80308 6.5284,-15.85714 c 3.59062,-8.72142 6.73955,-15.85713 6.99762,-15.85713 0.25808,0 2.97084,8.42111 6.02837,18.71357 3.05752,10.29247 5.72791,19.1534 5.93419,19.69095 0.25265,0.6584 -0.80967,1.4034 -3.25493,2.28271 -1.99649,0.71792 -3.79557,1.57325 -3.99796,1.90072 -0.20239,0.32748 2.35682,2.91557 5.68714,5.75133 l 6.05511,5.15592 7.09768,23.86033 c 3.90373,13.12318 7.49848,24.26112 7.98834,24.75098 0.8626,0.8626 5.89938,2.13889 6.4132,1.62507 0.13968,-0.13968 -3.07404,-11.58346 -7.14161,-25.43062 -7.03835,-23.96053 -7.36269,-25.35811 -6.71463,-28.93347 l 0.68095,-3.75683 3.6814,-0.50492 c 2.02478,-0.2777 7.71702,-0.64662 12.64943,-0.81982 4.93242,-0.1732 9.35073,-0.63252 9.81847,-1.02071 0.46774,-0.3882 6.98371,-1.34496 14.47994,-2.12616 7.49622,-0.78119 16.06447,-1.76341 19.04056,-2.18271 5.59099,-0.78771 50.02531,-5.76845 51.46166,-5.76845 0.44507,0 -1.60605,2.43148 -4.55803,5.4033 -4.89402,4.9269 -5.87842,5.57156 -11.16482,7.31161 -3.18866,1.04956 -6.04237,2.04701 -6.34156,2.21655 -0.29919,0.16953 0.2564,1.35761 1.23465,2.64017 l 1.77865,2.33191 -27.3292,27.3221 -27.32919,27.32209 -23.32655,4.18403 c -12.8296,2.30121 -24.36565,4.37018 -25.63567,4.59772 -2.23603,0.4006 -2.34152,0.30439 -3.33249,-3.03931 z"
   id="path137633"
   transform="matrix(26.458987,0,0,26.458987,-7448.035,-1693.1069)" /><path
   style="fill:#ffbe30;fill-opacity:1;stroke:#000000;stroke-width:0.721476"
   d="m 390.52405,409.60467 -9.0273,-30.82991 1.42002,-8.88285 c 0.78101,-4.88556 1.22721,-9.07565 0.99155,-9.3113 -0.23565,-0.23565 -1.79597,0.10872 -3.46739,0.76527 -1.67141,0.65654 -3.271,0.95066 -3.55465,0.65359 -0.67705,-0.70909 -5.13659,-16.1213 -4.77061,-16.48728 0.50406,-0.50407 25.6177,14.12753 26.01197,15.15498 0.25892,0.67473 -0.7082,1.40553 -2.99187,2.2608 -1.85595,0.69509 -3.53678,1.41147 -3.73519,1.59198 -0.1984,0.1805 2.19196,2.66395 5.31192,5.51877 l 5.67266,5.1906 8.85074,30.81212 c 4.86791,16.94666 8.62177,30.81211 8.34193,30.81211 -0.62023,0 -16.39148,2.759 -18.51042,3.23818 -1.42104,0.32136 -2.08185,-1.58943 -10.54336,-30.48706 z"
   id="path137672"
   transform="matrix(26.458987,0,0,26.458987,-7448.035,-1693.1069)" /><path
   style="fill:#ffbe30;fill-opacity:1;stroke:#000000;stroke-width:0.721476"
   d="m 376.97107,443.64823 c 0,-0.23104 -5.85348,-23.3376 -13.00773,-51.34791 -7.15425,-28.0103 -12.7547,-51.15717 -12.44546,-51.43749 0.30925,-0.28031 2.28032,-1.06716 4.38016,-1.74855 5.88041,-1.90817 6.19572,-1.51053 10.60414,13.37271 l 3.72611,12.57973 -3.84471,1.43893 c -2.11459,0.79141 -3.76294,1.66029 -3.663,1.93084 0.0999,0.27055 2.74414,2.74526 5.876,5.49936 l 5.69429,5.00745 9.23435,31.28178 c 5.07889,17.20498 9.17207,31.33182 9.09596,31.39296 -0.22766,0.1829 -13.95774,2.45027 -14.83763,2.45027 -0.44687,0 -0.81248,-0.18903 -0.81248,-0.42008 z"
   id="path137711"
   transform="matrix(26.458987,0,0,26.458987,-7448.035,-1693.1069)" /><path
   style="fill:#ffbe30;fill-opacity:1;stroke:#000000;stroke-width:0.721476"
   d="m 515.10145,400.87756 23.055,-23.12901 3.37214,3.75974 3.37213,3.75975 1.58377,-5.41107 c 0.87106,-2.97609 2.20204,-7.53332 2.95773,-10.12718 1.29229,-4.43577 1.83592,-5.16622 9.14509,-12.2879 l 7.77114,-7.57178 41.32885,-4.58229 c 22.73087,-2.52026 41.49434,-4.41681 41.69659,-4.21455 0.67044,0.67043 -6.82619,18.87492 -11.82948,28.7262 -7.07218,13.92489 -8.10251,15.39543 -11.49981,16.41329 -4.22404,1.26555 -4.50326,1.14597 -4.50326,-1.92846 0,-3.90619 -1.08407,-9.18581 -2.86168,-13.93691 -4.48245,-11.9804 -17.01708,-17.25051 -33.25326,-13.98111 -3.35027,0.67463 -6.34126,1.46983 -6.64665,1.76711 -0.3054,0.29727 -4.09443,10.25782 -8.42007,22.13455 -4.32565,11.87672 -8.05722,22.0829 -8.29239,22.68039 -0.28907,0.73447 0.51032,1.666 2.4679,2.87586 1.59251,0.98422 2.89547,1.98313 2.89547,2.2198 0,1.37777 -18.0941,5.55221 -43.64928,10.0702 -15.87247,2.80615 -29.50836,5.2799 -30.30198,5.49724 -0.79363,0.21733 8.9318,-10.01291 21.61205,-22.73387 z"
   id="path137750"
   transform="matrix(26.458987,0,0,26.458987,-7448.035,-1693.1069)" /><path
   style="fill:#ffbe30;fill-opacity:1;stroke:#000000;stroke-width:0.721476"
   d="m 683.67423,254.51703 c -0.79084,-2.68754 -3.28575,-11.37971 -5.54425,-19.31594 -2.2585,-7.93624 -4.23712,-14.77713 -4.39692,-15.20199 -0.15981,-0.42485 2.95166,-3.26946 6.91438,-6.32134 3.96271,-3.05188 7.40461,-5.87197 7.64866,-6.26684 0.35325,-0.57158 -0.86632,-2.87843 -3.0028,-5.67987 -0.11834,-0.15518 -3.28856,2.02795 -7.04492,4.85141 -5.58694,4.19941 -6.89513,4.90719 -7.18901,3.88953 -18.98277,-65.73337 -31.29176,-110.41511 -30.55866,-110.928151 0.4598,-0.321773 235.87664,-35.067172 236.0979,-34.845916 0.35669,0.35669 6.92815,67.132157 6.63538,67.424927 -0.43159,0.43159 -32.40223,3.24548 -32.764,2.88371 -0.19499,-0.19499 3.24911,-7.31592 7.65355,-15.82429 4.40444,-8.50836 8.00807,-15.85288 8.00807,-16.32114 0,-0.56518 -1.14713,-0.77746 -3.4125,-0.63148 l -3.41249,0.2199 -8.91882,16.06606 -8.91882,16.06606 -9.75164,-12.81942 c -5.3634,-7.05068 -10.74559,-14.19924 -11.96042,-15.88569 -2.16911,-3.01118 -2.28525,-3.06627 -6.46447,-3.06627 h -4.25568 l 1.65421,2.3448 c 0.90981,1.28963 6.43591,8.9074 12.2802,16.92837 l 10.62598,14.58357 -2.31077,0.3714 c -3.80158,0.611 -36.67533,3.43798 -36.89622,3.17289 -0.11229,-0.13477 2.82928,-8.52396 6.53682,-18.64266 3.70755,-10.1187 6.74641,-18.49576 6.75304,-18.6157 0.006,-0.11994 -1.64808,-0.11994 -3.67714,0 l -3.68918,0.21807 -6.53209,17.49579 c -3.59265,9.62268 -6.77931,17.49578 -7.08147,17.49578 -0.30217,0 -6.82234,-7.78864 -14.48928,-17.30809 l -13.93988,-17.30809 -4.23682,-0.007 c -3.29188,-0.006 -4.07678,0.19382 -3.51921,0.89452 0.3947,0.49602 6.96581,9.01398 14.60247,18.92882 12.9625,16.82945 13.7714,18.05604 12.17692,18.46473 -0.93937,0.24076 -2.35727,0.11941 -3.1509,-0.26968 -1.95017,-0.95612 -39.61101,-21.55723 -39.94815,-21.85231 -0.14684,-0.12852 2.66781,-3.57662 6.25478,-7.66243 l 6.52178,-7.42876 -4.81184,-0.21917 c -5.32554,-0.24257 -5.37042,-0.21227 -12.42883,8.3914 l -2.56119,3.1219 -8.61894,-4.67371 c -8.42121,-4.56648 -8.74307,-4.67379 -14.02935,-4.6774 -5.70889,-0.004 -6.75802,0.55141 -5.74496,3.04087 0.33782,0.83017 1.14485,5.56769 1.79338,10.52784 0.64853,4.96014 1.33768,9.58661 1.53144,10.28103 0.27466,0.98436 -0.0956,1.2668 -1.68039,1.28174 -1.77241,0.0167 -2.71904,1.03168 -7.39307,7.92679 -2.94822,4.34919 -5.22086,8.03122 -5.05033,8.18227 0.17053,0.15106 3.18071,2.11525 6.68927,4.36487 4.60703,2.95391 6.18869,4.33337 5.69339,4.96549 -0.37721,0.48141 -3.02784,4.06897 -5.89028,7.97235 -4.43363,6.04594 -5.04418,7.22136 -4.12235,7.93624 0.59516,0.46154 3.20955,2.46248 5.80976,4.44654 2.60022,1.98406 4.58448,4.00653 4.40948,4.49437 -0.17499,0.48785 -2.17528,3.35439 -4.44508,6.37009 -2.50615,3.32972 -3.82721,5.67314 -3.36381,5.96702 1.93809,1.22909 11.76171,9.16408 11.75239,9.49293 -0.006,0.20361 -2.46417,3.08494 -5.46311,6.40297 l -5.45261,6.03277 9.23982,5.54355 9.23981,5.54356 2.07366,14.61885 c 1.14051,8.04037 1.91971,14.7728 1.73155,14.96096 -0.18816,0.18816 -5.17464,0.65063 -11.08106,1.02772 -5.90643,0.37709 -12.75216,0.86112 -15.21273,1.07562 l -4.47377,0.39 z m 14.53796,-14.60414 c 4.40123,-7.88567 4.41538,-8.09974 0.68023,-10.29222 l -2.1322,-1.25156 -4.80114,8.0216 c -2.64064,4.41189 -4.70925,8.10311 -4.59693,8.20271 1.19348,1.05834 5.41816,3.17468 5.97602,2.99366 0.39681,-0.12876 2.59012,-3.58214 4.87402,-7.67419 z m -22.3981,-67.19683 c 4.08288,-0.43937 7.48375,-0.85142 7.55748,-0.91566 0.0737,-0.0642 -0.0554,-1.52942 -0.28699,-3.25595 l -0.42105,-3.13916 -9.45293,0.51771 c -5.19911,0.28474 -9.53516,0.59537 -9.63566,0.69028 -0.1005,0.0949 0.0248,1.68661 0.27844,3.5371 0.53895,3.93207 0.11282,3.84066 11.96071,2.56568 z m 6.32118,-29.46387 c 0.79874,-1.56565 1.16264,-3.02562 0.80868,-3.24439 -0.8061,-0.49819 -16.05145,-6.89553 -16.43259,-6.89553 -0.35182,0 -3.22217,6.64734 -2.95219,6.83685 0.43867,0.30792 16.10781,6.0792 16.59741,6.11318 0.28954,0.0201 1.17995,-1.24445 1.97869,-2.81011 z"
   id="path137789"
   transform="matrix(26.458987,0,0,26.458987,-7448.035,-1693.1069)" /><path
   style="fill:#ffbe30;fill-opacity:1;stroke:#000000;stroke-width:0.721476"
   d="m 836.32131,236.82441 -8.39626,-12.44546 11.66793,-40.40264 c 6.41736,-22.22145 11.9146,-40.57491 12.21609,-40.78545 0.85064,-0.59407 31.65594,-3.08634 32.14187,-2.60041 0.23688,0.23688 1.01662,6.5243 1.73275,13.97205 0.71612,7.44774 1.46854,14.88412 1.67203,16.52529 l 0.36999,2.98394 -3.04119,-0.70279 c -3.19398,-0.73811 -12.95492,-0.41599 -15.14361,0.49975 -1.02329,0.42814 -1.53019,-0.059 -2.52517,-2.42688 -1.43152,-3.40675 -2.00123,-3.54086 -6.11855,-1.44036 -13.63341,6.95524 -21.73023,20.22716 -21.73023,35.61913 0,18.03563 11.42259,33.24446 28.76834,38.30413 6.02087,1.75626 16.69417,1.65778 22.12648,-0.20416 l 4.08958,-1.40172 0.35593,1.8522 c 0.19576,1.01871 0.28644,1.92329 0.20151,2.0102 -0.17593,0.18002 -45.62982,3.08863 -48.26719,3.08863 -1.42662,0 -3.17253,-2.14702 -10.1203,-12.44545 z"
   id="path137828"
   transform="matrix(26.458987,0,0,26.458987,-7448.035,-1693.1069)" /><path
   style="fill:#ffbe30;fill-opacity:1;stroke:#000000;stroke-width:0.721476"
   d="m 801.76275,203.54268 c -4.64996,-3.22208 -8.4515,-6.02066 -8.44784,-6.21907 0.007,-0.38872 25.52095,-15.87246 26.15432,-15.87246 0.34481,0 -8.57894,27.39023 -9.05187,27.78346 -0.11007,0.0915 -4.00464,-2.46985 -8.65461,-5.69193 z"
   id="path137867"
   transform="matrix(26.458987,0,0,26.458987,-7448.035,-1693.1069)" /><path
   style="fill:#ffbe30;fill-opacity:1;stroke:#000000;stroke-width:0.721476"
   d="m 787.92704,185.16523 c -3.729,-16.42638 -6.98758,-32.02486 -6.79435,-32.52383 0.26075,-0.67331 31.31238,20.87827 31.61316,21.94131 0.11003,0.38889 -5.18421,4.00821 -11.76497,8.04295 l -11.96502,7.33588 z"
   id="path137906"
   transform="matrix(26.458987,0,0,26.458987,-7448.035,-1693.1069)" /><path
   style="fill:#ffbe30;fill-opacity:1;stroke:#000000;stroke-width:0.721476"
   d="m 806.32746,160.2804 c -8.88518,-6.37361 -15.86546,-11.67874 -15.51173,-11.78919 1.22977,-0.38397 40.26445,-3.77494 40.51944,-3.51995 0.31867,0.31867 -7.79602,25.85223 -8.40848,26.458 -0.2444,0.24173 -7.71405,-4.77525 -16.59923,-11.14886 z"
   id="path137945"
   transform="matrix(26.458987,0,0,26.458987,-7448.035,-1693.1069)" /><path
   style="fill:#ffbe30;fill-opacity:1;stroke:#000000;stroke-width:0.721476"
   d="m 802.30414,250.61899 c -0.22469,-0.94043 -1.02024,-4.55093 -1.76789,-8.02334 l -1.35935,-6.31348 3.96898,-1.15381 c 2.18294,-0.6346 4.24032,-0.87784 4.57196,-0.54054 1.81177,1.84269 11.4321,15.72975 11.11591,16.04594 -0.20583,0.20583 -2.55341,0.40092 -5.21685,0.43352 -2.66344,0.0326 -6.20647,0.32979 -7.87342,0.66042 -2.81959,0.55925 -3.05927,0.48199 -3.43934,-1.10871 z"
   id="path137984"
   transform="matrix(26.458987,0,0,26.458987,-7448.035,-1693.1069)" /><path
   style="fill:#ffbe30;fill-opacity:1;stroke:#000000;stroke-width:0.721476"
   d="m 797.25452,227.44522 c -0.59982,-1.85502 -4.58069,-20.3887 -4.4154,-20.55668 0.17022,-0.17298 13.1916,8.8106 14.39201,9.9292 0.34234,0.319 -0.0861,2.70451 -0.95419,5.31319 -1.45585,4.37484 -1.77689,4.79022 -4.22865,5.47118 -3.4775,0.96586 -4.44093,0.93433 -4.79377,-0.15689 z"
   id="path138023"
   transform="matrix(26.458987,0,0,26.458987,-7448.035,-1693.1069)" /><path
   style="fill:#ffbe30;fill-opacity:1;stroke:#000000;stroke-width:0.721476"
   d="m 841.60143,313.20699 v -6.85965 l -3.95354,-2.36472 c -4.39126,-2.62652 -4.20647,-3.0544 1.65964,-3.84289 l 3.83864,-0.51597 -0.23126,-6.05952 c -0.12719,-3.33274 -0.12071,-6.05877 0.0144,-6.05785 0.13511,9.3e-4 2.00733,1.50672 4.16047,3.34621 l 3.9148,3.34452 5.15098,-3.42517 5.15098,-3.42517 -0.44606,6.03282 -0.44605,6.03283 4.30153,2.88167 c 2.36585,1.58492 4.30154,3.08273 4.30154,3.32848 0,0.24575 -1.94798,1.32101 -4.32885,2.38949 l -4.32886,1.94267 v 4.64913 c 0,2.55703 -0.15115,4.64914 -0.3359,4.64914 -0.18475,0 -2.47118,-1.1737 -5.08096,-2.60821 l -4.74506,-2.60822 -4.29822,3.01503 -4.29823,3.01503 z m 14.92413,-4.90188 c 3.72069,-3.49541 1.12181,-9.9749 -4.00088,-9.9749 -3.44883,0 -5.87292,2.34062 -5.87292,5.6707 0,5.24552 6.05991,7.88716 9.8738,4.3042 z"
   id="path138062"
   transform="matrix(26.458987,0,0,26.458987,-7448.035,-1693.1069)" /><path
   style="fill:#146f5e;fill-opacity:1;stroke:#000000;stroke-width:0.721476"
   d="m 658.08425,281.15607 -4.78508,-6.16881 6.85247,-3.84025 c 3.76886,-2.11214 7.09601,-3.83763 7.39368,-3.83443 0.50765,0.005 4.59327,16.00552 4.19245,16.41842 -0.102,0.10507 -2.13913,0.95668 -4.52695,1.89246 l -4.34149,1.70141 z"
   id="path138101"
   transform="matrix(26.458987,0,0,26.458987,-7448.035,-1693.1069)" /><path
   style="fill:#146f5e;fill-opacity:1;stroke:#000000;stroke-width:0.721476"
   d="m 639.01599,385.08767 c 5.78583,-10.04145 13.88263,-26.62398 16.72998,-34.26358 5.65211,-15.16495 7.82444,-31.03856 6.32126,-46.1906 -0.48171,-4.85564 -1.05967,-9.68418 -1.28437,-10.73007 -0.39822,-1.85363 -0.20583,-1.96918 7.62051,-4.57703 4.41598,-1.47147 8.4868,-2.49974 9.04627,-2.28505 3.35413,1.2871 14.31235,18.59983 18.41655,29.09606 3.48349,8.90877 4.82117,15.42237 5.76829,28.08756 0.67908,9.08095 -0.0243,33.01154 -0.99891,33.98617 -0.53955,0.53955 -10.83337,3.03995 -11.16203,2.71129 -0.17174,-0.17174 -0.47067,-1.96092 -0.66429,-3.97596 -0.28939,-3.01175 -0.55969,-3.58108 -1.51893,-3.19938 -1.38568,0.5514 -51.5221,17.6535 -51.7529,17.6535 -0.0874,0 1.47796,-2.84081 3.47857,-6.31291 z"
   id="path140090"
   transform="matrix(26.458987,0,0,26.458987,-7448.035,-1693.1069)" /><path
   style="fill:#146f5e;fill-opacity:1;stroke:#000000;stroke-width:0.721476"
   d="m 543.96804,641.2853 c -0.71458,-5.49672 -2.97711,-22.49361 -5.02784,-37.77085 -2.05072,-15.27725 -3.67321,-27.85855 -3.60552,-27.95845 0.0677,-0.0999 1.71878,-0.33211 3.66907,-0.51602 1.9503,-0.18392 14.25991,-2.73283 27.3547,-5.66425 13.09478,-2.93142 23.90137,-5.25795 24.01465,-5.17008 0.11327,0.0879 -1.55416,2.71853 -3.70539,5.84588 -14.41745,20.95931 -23.47683,43.04011 -28.42432,69.27976 -1.07093,5.67978 -2.30505,10.46423 -2.74249,10.63209 -0.43744,0.16787 -2.91896,0.53263 -5.51448,0.81058 l -4.71913,0.50538 z"
   id="path140246"
   transform="matrix(26.458987,0,0,26.458987,-7448.035,-1693.1069)" /></g>
  </g>
 </g>
</svg>
