<?xml version="1.0" encoding="UTF-8" standalone="no"?>
<svg
   enable-background="new 0 0 1600 1200"
   viewBox="0 0 2071.7582 956.09998"
   x="0px"
   y="0px"
   width="2071.7583"
   height="956.09998"
   version="1.1"
   id="svg436"
   sodipodi:docname="teaching.svg"
   inkscape:version="1.1.2 (b8e25be8, 2022-02-05)"
   xmlns:inkscape="http://www.inkscape.org/namespaces/inkscape"
   xmlns:sodipodi="http://sodipodi.sourceforge.net/DTD/sodipodi-0.dtd"
   xmlns="http://www.w3.org/2000/svg"
   xmlns:svg="http://www.w3.org/2000/svg">
  <defs
     id="defs440" />
  <sodipodi:namedview
     id="namedview438"
     pagecolor="#ffffff"
     bordercolor="#666666"
     borderopacity="1.0"
     inkscape:pageshadow="2"
     inkscape:pageopacity="0.0"
     inkscape:pagecheckerboard="0"
     showgrid="false"
     inkscape:zoom="0.4786229"
     inkscape:cx="1373.7328"
     inkscape:cy="176.54818"
     inkscape:window-width="1702"
     inkscape:window-height="1035"
     inkscape:window-x="172"
     inkscape:window-y="23"
     inkscape:window-maximized="0"
     inkscape:current-layer="svg436" />
  <path
     d="m 510.20863,932.6 h 227.3 c 3.9,0 3.9,-6 0,-6 -75.8,0 -151.6,0 -227.3,0 -3.9,0 -3.9,6 0,6 z"
     fill="#e8e8e8"
     id="path2" />
  <path
     d="m 584.30863,909.1 h 228.1 64.7 c 3.9,0 3.9,-6 0,-6 -76,0 -152,0 -228.1,0 -21.6,0 -43.2,0 -64.7,0 -3.8,0 -3.8,6 0,6 z"
     fill="#e8e8e8"
     id="path4" />
  <path
     d="m 872.20863,872.1 h 154.39997 c 3.9,0 3.9,-6 0,-6 -51.49997,0 -102.99997,0 -154.39997,0 -3.9,0 -3.9,6 0,6 z"
     fill="#e8e8e8"
     id="path6" />
  <path
     d="m 1004.4086,956.1 h 321.5 89.9 c 3.9,0 3.9,-6 0,-6 -107.2,0 -214.4,0 -321.5,0 -30,0 -59.9,0 -89.9,0 -3.9,0 -3.9,6 0,6 z"
     fill="#e8e8e8"
     id="path8" />
  <path
     d="m 1257.7086,932.6 h 212.5 c 3.9,0 3.9,-6 0,-6 -70.8,0 -141.7,0 -212.5,0 -3.9,0 -3.9,6 0,6 z"
     fill="#e8e8e8"
     id="path10" />
  <path
     d="m 697.80863,204.6 c -5.2,0.9 -13.4,3 -22,8.3 -5.4,3.3 -16.4,11.3 -23.3,26 -2.5,5.2 -8.1,17.3 -5.3,32.3 4.1,22.2 23.6,33.3 26.7,35 9.9,-15.1 19.7,-30.3 29.6,-45.4 -2,-18.7 -3.9,-37.4 -5.7,-56.2 z"
     fill="#ec615b"
     id="path12" />
  <path
     d="m 705.20863,259 c 14.6,-7.9 29.1,-15.8 43.7,-23.8 3.2,4 9.2,12.9 9.1,24.9 0,2.7 -0.3,5.2 -0.8,7.5 -17.4,-2.9 -34.7,-5.8 -52,-8.6 z"
     fill="#5222d0"
     id="path14" />
  <path
     d="m 548.60863,328 c 1.8,23.5 3.5,47.1 5.3,70.6 6.4,-0.4 12.8,-0.9 19.1,-1.3 -2.1,-23.9 -4.2,-47.7 -6.3,-71.6 -6.1,0.8 -12.1,1.5 -18.1,2.3 z"
     fill="#5222d0"
     id="path16" />
  <path
     d="m 584.30863,352.5 c 1,14.5 2,28.9 3.1,43.4 6.4,-0.6 12.8,-1.1 19.1,-1.7 -1.4,-14.5 -2.7,-28.9 -4.1,-43.4 -6.1,0.5 -12.1,1.1 -18.1,1.7 z"
     fill="#ec615b"
     id="path18" />
  <path
     d="m 811.80863,442.1 c -99.2,9.1 -198.3,18.1 -297.5,27.2 -9.1,-145.2 -18.3,-290.4 -27.4,-435.7 98.9,-3.5 197.9,-7 296.8,-10.5 9.4,139.7 18.8,279.4 28.1,419 z"
     fill="none"
     stroke="#161616"
     stroke-miterlimit="10"
     stroke-width="2"
     id="path20" />
  <g
     fill="#e8e8e8"
     id="g190"
     transform="translate(238.50863,-170)">
    <path
       d="m 350.7,176.1 c 1.1,7.9 2.3,15.8 3.4,23.7 0.3,1.9 3.2,1.1 2.9,-0.8 -1.1,-7.9 -2.3,-15.8 -3.4,-23.7 -0.3,-1.9 -3.2,-1.1 -2.9,0.8 z"
       id="path22" />
    <path
       d="m 352.8,175.9 c 22.5,-1.5 45.1,-2.4 67.6,-2.9 1.9,0 1.9,-3 0,-3 -22.6,0.5 -45.1,1.5 -67.6,2.9 -1.9,0.1 -1.9,3.1 0,3 z"
       id="path24" />
    <path
       d="m 419.5,171.8 c 1,8.5 1.8,16.9 2.3,25.4 0.1,1.9 3.1,1.9 3,0 -0.5,-8.5 -1.3,-17 -2.3,-25.4 -0.3,-1.9 -3.3,-1.9 -3,0 z"
       id="path26" />
    <path
       d="m 352.9,175.8 c 0.7,7.4 1.4,14.9 2.1,22.3 0.1,0.8 0.6,1.5 1.5,1.5 21.5,0.2 42.9,-3.2 64.5,-2.5 1.9,0.1 1.9,-2.9 0,-3 -21.5,-0.7 -42.9,2.6 -64.5,2.5 l 1.5,1.5 c -0.7,-7.4 -1.4,-14.9 -2.1,-22.3 -0.2,-1.9 -3.2,-1.9 -3,0 z"
       id="path28" />
    <path
       d="m 354.5,176.8 c 3.3,2 7.6,1 11.2,0.8 6,-0.3 12,-0.6 18,-0.9 12,-0.6 23.9,-1.3 35.9,-1.9 -0.5,-0.5 -1,-1 -1.5,-1.5 0.3,6.5 0.6,13 0.9,19.6 0.1,1.9 3.1,1.9 3,0 -0.3,-6.5 -0.6,-13 -0.9,-19.6 0,-0.8 -0.7,-1.5 -1.5,-1.5 -10.6,0.6 -21.3,1.1 -31.9,1.7 -5.3,0.3 -10.6,0.6 -16,0.8 -4.2,0.2 -12,2.2 -15.7,-0.1 -1.6,-1 -3.1,1.6 -1.5,2.6 z"
       id="path30" />
    <path
       d="m 354.4,177.4 c 1.5,6.1 2.5,12.3 3.1,18.6 1,-0.1 2,-0.3 2.9,-0.4 -1.1,-5.4 -0.8,-10.7 0.2,-16.2 -1,-0.1 -2,-0.3 -2.9,-0.4 0.2,6 0.6,11.7 2.9,17.2 0.7,1.6 3.2,0.4 2.7,-1.2 -1.7,-6.4 -3.3,-12.7 -1.6,-19.3 -1,0 -1.9,0 -2.9,0 0.9,6 1.8,12 2.7,18 0.3,1.9 3.2,1.1 2.9,-0.8 -0.9,-6 -1.8,-12 -2.7,-18 -0.2,-1.5 -2.6,-1.3 -2.9,0 -1.8,7.1 -0.2,14 1.6,20.9 0.9,-0.4 1.8,-0.8 2.7,-1.2 -2.1,-5 -2.3,-10.4 -2.5,-15.7 0,-1.6 -2.6,-2.1 -2.9,-0.4 -1.1,6 -1.5,11.8 -0.2,17.8 0.3,1.6 3.1,1.3 2.9,-0.4 -0.6,-6.5 -1.7,-13 -3.2,-19.4 -0.4,-1.8 -3.2,-1 -2.8,0.9 z"
       id="path32" />
    <path
       d="m 362.1,182.7 c 1.1,-1.8 2.2,-3.6 3.3,-5.4 -0.9,-0.5 -1.7,-1 -2.6,-1.5 -1.3,2.9 -2.5,5.8 -3.8,8.7 -0.6,1.4 1.2,3.3 2.4,1.8 2,-2.5 3.9,-5.1 5.9,-7.6 -0.8,-0.5 -1.7,-1 -2.5,-1.5 -0.8,2.4 -1.8,4.6 -3.2,6.8 -0.9,1.4 1.3,3.2 2.4,1.8 1.5,-1.9 3,-3.8 4.6,-5.7 -0.8,-0.6 -1.6,-1.2 -2.4,-1.8 -2,4.7 -4,9.3 -6,14 -0.6,1.4 1.2,3.3 2.4,1.8 3.6,-4.5 7.3,-9.1 10.9,-13.6 -0.8,-0.6 -1.6,-1.2 -2.4,-1.8 -2.7,4.4 -5.4,8.9 -8.1,13.3 -0.7,1.1 0.4,2.6 1.7,2.2 1.6,-0.5 1.8,-0.7 3,-1.7 -0.8,-0.5 -1.7,-1 -2.5,-1.5 -0.6,1.7 -1.6,3 -3.1,4.1 -1.5,1.1 -0.2,3.6 1.5,2.6 1.6,-0.9 3.1,-1.5 4.9,-1.7 -0.6,-0.6 -1.2,-1.2 -1.8,-1.8 -2.6,-1.3 -3.4,-3.1 -2.4,-5.5 0.3,-1.3 0.8,-2.5 1.4,-3.6 0.8,-1.4 2.3,-4.8 3.8,-1.8 1.1,2.2 -3.5,14.5 -4.1,6.9 -0.1,-2 0.1,-4 0.7,-5.8 0.4,-1.4 1,-2.7 1.7,-4 1,-2 1.5,-2 1.6,0 1.9,4 -0.4,10.3 -2.3,13.8 0.9,0.1 1.8,0.2 2.7,0.4 -0.8,-2.8 -1.1,-5.5 -0.5,-8.3 0.2,-1.1 1.2,-6.4 2.3,-4.7 2.3,3.3 -1.5,10.8 -3.1,13.7 0.9,0.3 1.9,0.5 2.8,0.8 -0.3,-2.7 -0.4,-5.3 0.1,-8 0.3,-1.8 1.4,-7.6 3.3,-7.8 2.7,-0.3 -2.5,12 -3.7,13.8 0.9,0.1 1.8,0.2 2.7,0.4 -0.9,-4.5 -0.9,-14.1 5.2,-15.6 -0.6,-0.3 -1.2,-0.7 -1.8,-1 1.1,6.1 -0.6,12 -4.8,16.5 0.8,0.2 1.7,0.4 2.5,0.7 -0.7,-2.8 -0.8,-5.5 -0.1,-8.3 0.4,-1.5 2.5,-7.8 4.5,-7.3 1.4,0.3 -0.4,6.1 -0.8,7.4 -1.1,3.2 -2.8,6 -5.3,8.4 0.8,0.2 1.7,0.4 2.5,0.7 -1.6,-6.7 1.2,-13.4 7.1,-17 -0.7,-0.3 -1.5,-0.6 -2.2,-0.9 2.3,6.1 -3.6,14 -7.5,18.1 0.8,0.2 1.7,0.4 2.5,0.7 -0.7,-2.9 -0.7,-5.7 0.2,-8.6 0.3,-0.9 3.3,-7.7 4.7,-7.2 2,0.7 -1.4,6.8 -2,7.7 -0.7,1.3 -2,3.6 -3.3,4.4 -1.5,1 -1.4,1.2 -1.5,-1 -0.1,-3 1.9,-6.4 3.6,-8.6 0.9,-1.2 2.4,-3.1 3.8,-3.6 1.6,-0.7 1.4,-0.9 1.2,1.2 -0.7,6.2 -4.2,11.8 -8.6,16.1 0.8,0.2 1.7,0.4 2.5,0.7 -0.9,-5.9 1.1,-12 5.5,-16.1 1.3,-1.2 2.8,-2 3.3,0.5 0.2,1 -1,3.4 -1.4,4.3 -1.4,3.3 -3.4,6.1 -5.9,8.6 h 2.1 c -1.8,-2.1 0.5,-6.7 1.6,-8.7 0.5,-0.9 4.8,-7.5 6,-6.9 1.4,0.7 -1.7,7.4 -2.1,8.1 -1.4,2.7 -3.2,5.1 -5.3,7.3 0.9,0.4 1.7,0.7 2.6,1.1 0.1,-7.3 3.5,-13.5 9.7,-17.4 -0.8,-0.4 -1.5,-0.9 -2.3,-1.3 0.1,6.7 -2.3,12.6 -7.1,17.3 0.9,0.4 1.7,0.7 2.6,1.1 0.6,-7.3 4,-13.6 9.6,-18.3 -0.8,-0.1 -1.6,-0.2 -2.4,-0.3 3.2,4.8 -3.8,13.8 -6.6,17.4 0.9,0.4 1.7,0.7 2.6,1.1 0.1,-2.8 0.6,-5.4 1.7,-8 0.6,-1.6 3.1,-7.1 4.9,-7.5 2.4,-0.5 -0.1,4.1 -0.9,5.8 -1.4,2.9 -3.3,5.4 -5.5,7.7 0.8,0.5 1.7,1 2.5,1.5 0.9,-6.2 3.4,-14.4 9.9,-16.7 -0.6,-0.5 -1.3,-1 -1.9,-1.4 -0.8,6.8 -3.8,12.6 -8.8,17.2 0.9,0.4 1.7,0.7 2.6,1.1 0.3,-3.2 1,-6.3 2.4,-9.3 0.9,-1.9 3.3,-6.9 5.5,-7.3 1.1,-0.2 0,1.5 -0.4,2.6 -0.6,1.6 -1.4,3.1 -2.2,4.5 -1.6,2.8 -3.6,5.3 -5.9,7.6 0.9,0.4 1.7,0.7 2.6,1.1 0.4,-6.4 3.4,-11.9 8.4,-15.8 -0.7,-0.6 -1.5,-1.1 -2.2,-1.7 -0.8,4.7 -3.2,8.4 -6.4,11.9 -1.9,2.1 -2.5,1.6 -2.7,-1.2 -0.2,-3.8 2.1,-7.6 5.9,-8.6 -0.6,-0.5 -1.3,-1 -1.9,-1.4 -0.3,6 -2.1,11.4 -5.3,16.4 0.9,0.3 1.9,0.5 2.8,0.8 0.3,-3 1.1,-5.9 2.5,-8.6 0.9,-1.8 3.2,-6.3 5.2,-6.8 2.9,-0.8 0,4.9 -0.7,6.3 -1.4,2.8 -3.3,5.2 -5.5,7.5 0.9,0.4 1.7,0.7 2.6,1.1 -0.4,-7.3 4,-13.7 10.9,-15.9 -0.6,-0.5 -1.3,-1 -1.9,-1.4 -0.8,7.1 -4.2,13.1 -9.7,17.7 0.9,0.4 1.7,0.7 2.6,1.1 0.8,-6.9 4.3,-12.8 10,-16.8 -0.7,-0.3 -1.5,-0.6 -2.2,-0.9 1.6,5.2 -3.9,12 -6.9,15.7 0.9,0.4 1.7,0.7 2.6,1.1 0.4,-5.1 3.3,-14.4 9.4,-15.3 -0.6,-0.6 -1.2,-1.2 -1.8,-1.8 -1.1,5.7 -3.4,10.8 -7.1,15.3 0.9,0.4 1.7,0.7 2.6,1.1 0.3,-6.1 2.7,-11.4 6.9,-15.7 -0.8,-0.1 -1.6,-0.2 -2.4,-0.3 2.3,4.2 -2.4,11.6 -4.5,15.3 l 2.7,1.2 c 1,-4.8 1.8,-12.9 6.3,-15.8 -0.6,-0.1 -1.2,-0.2 -1.8,-0.2 2.5,2.8 -2.3,12.2 -3.4,15 1,0.3 1.9,0.5 2.9,0.8 1.4,-5.1 2.7,-10.1 4.1,-15.2 -1,-0.1 -2,-0.3 -2.9,-0.4 0.2,4.8 -0.5,9.3 -2.1,13.9 1,0.1 2,0.3 2.9,0.4 0.5,-4.5 0,-11.5 2.6,-15.3 -0.9,-0.1 -1.8,-0.2 -2.7,-0.4 1.4,4.9 0.9,9.6 0.2,14.7 1,0.1 2,0.3 2.9,0.4 -0.4,-5.6 -0.8,-11.3 -1.2,-16.9 -0.9,0.4 -1.7,0.7 -2.6,1.1 3.8,3.9 2.3,9 0.6,13.5 0.9,-0.1 1.8,-0.2 2.7,-0.4 -1.1,-2.1 -3.3,-5.6 -3.2,-8.1 -1,-1.6 -0.6,-2.4 1.3,-2.3 0.9,1.6 1.2,3.3 0.8,5 0.9,-0.4 1.7,-0.7 2.6,-1.1 -1.6,-1.9 -2.4,-3.7 -2.9,-6 -0.7,0.6 -1.5,1.1 -2.2,1.7 0.4,1.1 0.8,2.3 1.2,3.4 0.9,0.1 1.8,0.2 2.7,0.4 -0.7,-2 -1,-3.8 -0.9,-5.9 -0.6,0.5 -1.3,1 -1.9,1.4 3.9,1.6 1.2,12 0.7,14.7 0.5,-0.4 1,-0.7 1.4,-1.1 -7.6,0.2 -15.2,0.4 -22.8,0.6 -1.9,0.1 -1.9,2.9 0,3 6.7,0.2 13.3,-0.8 19.9,-1.8 -0.3,-1 -0.5,-1.9 -0.8,-2.9 -7.8,2.1 -15.6,3.5 -23.6,4.1 -1.9,0.1 -1.9,2.9 0,3 7.8,0.3 15.4,-2.4 23.2,-2.1 -0.1,-1 -0.3,-2 -0.4,-2.9 -6,2 -12,2.6 -18.3,1.9 v 3 c 7.2,-0.7 14.4,-1.4 21.6,-2.1 -0.1,-1 -0.3,-2 -0.4,-2.9 -4.8,1.4 -9.5,1.9 -14.5,1.7 v 3 c 4.9,0 9.6,-0.6 14.3,-1.8 1.9,-0.5 1.1,-3.3 -0.8,-2.9 -5.6,1.2 -11.2,1.8 -16.9,1.8 v 3 c 6.8,-0.9 13.6,-2 20.4,-3.4 1.6,-0.3 1.3,-3.1 -0.4,-2.9 -6.5,0.8 -12.9,0.7 -19.3,-0.3 -1.9,-0.3 -2.7,2.6 -0.8,2.9 6.7,1 13.4,1.2 20.1,0.4 -0.1,-1 -0.3,-2 -0.4,-2.9 -6.5,1.3 -13,2.5 -19.6,3.3 -1.9,0.2 -2,3 0,3 6,0 11.8,-0.6 17.7,-1.9 -0.3,-1 -0.5,-1.9 -0.8,-2.9 -4.5,1.1 -8.9,1.7 -13.5,1.7 -1.9,0 -1.9,2.9 0,3 5.2,0.2 10.2,-0.4 15.3,-1.8 1.6,-0.5 1.3,-3.1 -0.4,-2.9 -7.2,0.7 -14.4,1.4 -21.6,2.1 -1.9,0.2 -1.9,2.8 0,3 6.6,0.7 12.9,0 19.1,-2 1.6,-0.5 1.3,-2.9 -0.4,-2.9 -7.8,-0.3 -15.4,2.4 -23.2,2.1 v 3 c 8.3,-0.6 16.4,-2 24.4,-4.2 1.9,-0.5 1.1,-3.2 -0.8,-2.9 -6.4,1 -12.7,1.9 -19.1,1.7 v 3 c 7.6,-0.2 15.2,-0.4 22.8,-0.6 0.6,0 1.3,-0.5 1.4,-1.1 1,-5.6 4.1,-15.5 -2.8,-18.4 -1,-0.4 -1.8,0.6 -1.9,1.4 -0.2,2.5 0.1,4.4 1,6.7 0.4,1.1 2.1,1.6 2.7,0.4 1.4,-2.9 0.6,-5.8 -2.3,-7.5 -1.2,-0.7 -2.5,0.4 -2.2,1.7 0.6,2.9 1.8,5.1 3.7,7.4 0.9,1.1 2.5,0.1 2.6,-1.1 0.3,-3.2 -2.5,-12.7 -7.6,-9.8 -4.6,2.7 1.5,13.6 3,16.7 0.6,1.3 2.3,0.7 2.7,-0.4 2.2,-5.7 3.2,-11.7 -1.4,-16.4 -0.9,-0.9 -2.7,-0.3 -2.6,1.1 0.4,5.6 0.8,11.3 1.2,16.9 0.1,1.6 2.7,2.2 2.9,0.4 0.8,-5.5 1.4,-10.8 -0.2,-16.3 -0.4,-1.3 -2,-1.4 -2.7,-0.4 -3.1,4.4 -2.5,11.7 -3,16.8 -0.2,1.8 2.4,1.9 2.9,0.4 1.7,-4.8 2.4,-9.6 2.2,-14.7 -0.1,-1.7 -2.5,-2.1 -2.9,-0.4 -1.4,5.1 -2.7,10.1 -4.1,15.2 -0.5,1.9 2.2,2.6 2.9,0.8 1.8,-4.6 6.6,-13.4 2.6,-18 -0.4,-0.5 -1.3,-0.6 -1.8,-0.2 -5.5,3.6 -6.5,11.7 -7.7,17.6 -0.3,1.6 1.9,2.7 2.7,1.2 2.7,-4.9 7.5,-12.8 4.5,-18.4 -0.5,-0.8 -1.7,-1 -2.4,-0.3 -4.8,5 -7.4,10.9 -7.8,17.8 -0.1,1.2 1.7,2.1 2.6,1.1 4.1,-4.9 6.7,-10.4 7.9,-16.6 0.2,-1.2 -0.7,-2 -1.8,-1.8 -7.5,1.1 -11.1,11.7 -11.6,18.2 -0.1,1.3 1.7,2 2.6,1.1 3.9,-4.7 9.7,-12.1 7.7,-18.6 -0.3,-0.9 -1.4,-1.5 -2.2,-0.9 -6.6,4.6 -10.6,11.3 -11.5,19.3 -0.2,1.4 1.7,1.8 2.6,1.1 6.1,-5.1 9.6,-12 10.5,-19.8 0.1,-1 -1,-1.7 -1.9,-1.4 -8.2,2.6 -13.6,10.2 -13.1,18.8 0.1,1.3 1.6,2 2.6,1.1 2.3,-2.3 14.3,-18.6 6.8,-20.4 -3.1,-0.8 -6.6,4 -8.1,6 -3.1,4.1 -4.7,8.8 -5.3,13.9 -0.2,1.6 2.1,1.9 2.8,0.8 3.6,-5.4 5.5,-11.4 5.8,-17.9 0,-1 -1,-1.7 -1.9,-1.4 -4.1,1.1 -6.6,4.1 -7.6,8.2 -0.7,2.6 -1.4,7.5 1.4,9.2 2.7,1.7 4.9,-1.3 6.4,-3.1 3.2,-3.7 5.8,-7.7 6.6,-12.6 0.2,-1.1 -1,-2.6 -2.2,-1.7 -6,4.6 -9.4,10.9 -9.9,18.4 -0.1,1.3 1.7,1.9 2.6,1.1 2.4,-2.4 15.2,-18.2 8.3,-20.8 -3.1,-1.2 -6.4,3.8 -7.8,5.8 -3.1,4.4 -4.6,9.3 -5.1,14.6 -0.1,1.4 1.7,1.9 2.6,1.1 5.6,-5.2 8.9,-11.7 9.7,-19.3 0.1,-0.9 -1,-1.7 -1.9,-1.4 -7.6,2.7 -10.9,11.4 -12,18.8 -0.2,1.4 1.4,2.7 2.5,1.5 2.4,-2.5 13.8,-18.2 6.8,-20.2 -3.2,-0.9 -6.7,4.6 -8.1,6.8 -2.6,4 -3.8,8.6 -4,13.3 -0.1,1.2 1.7,2.1 2.6,1.1 3.8,-4.7 11.2,-14.7 7.1,-21 -0.6,-0.9 -1.6,-0.9 -2.4,-0.3 -6.2,5.2 -9.8,12.4 -10.5,20.5 -0.1,1.3 1.7,1.9 2.6,1.1 5.3,-5.3 8,-12 7.9,-19.4 0,-1.1 -1.3,-1.9 -2.3,-1.3 -7.1,4.4 -11.1,11.7 -11.2,20 0,1.3 1.7,2 2.6,1.1 3.8,-4 6.9,-8.8 8.2,-14.2 0.6,-2.3 1,-6.8 -2.7,-6.6 -3.9,0.2 -8,7 -9.4,10 -1.5,3.4 -3.1,7.8 -0.4,10.9 0.5,0.6 1.6,0.5 2.1,0 4,-3.9 7,-8.8 8.1,-14.3 0.5,-2.5 0.7,-6.7 -2.9,-6.7 -3.8,0 -7.9,5.6 -9.4,8.5 -2.4,4.3 -3,9 -2.2,13.8 0.2,1.2 1.8,1.4 2.5,0.7 4.5,-4.4 7.8,-9.9 9.2,-16.1 0.6,-2.7 1.4,-7.3 -2.6,-7.2 -6.9,0.2 -16.4,17.5 -9.9,22 0.5,0.3 1.1,0.2 1.5,0 3.5,-1.7 15.9,-18.5 8.3,-20.7 -3.2,-1 -6.8,4.4 -8,6.7 -2.3,4.3 -2.8,9 -1.7,13.6 0.2,1.1 1.8,1.5 2.5,0.7 4.7,-5 11,-13.9 8.3,-21 -0.3,-0.9 -1.3,-1.4 -2.2,-0.9 -7.1,4.3 -10.4,12.4 -8.5,20.4 0.3,1.1 1.7,1.4 2.5,0.7 4,-3.9 6.2,-8.8 7.2,-14.3 0.4,-2.4 1.3,-6.8 -1.8,-7.8 -3.3,-1 -6.4,4.6 -7.5,7 -2,4.3 -2.3,9 -1.2,13.7 0.3,1.1 1.7,1.5 2.5,0.7 5,-5.4 7,-12.2 5.6,-19.4 -0.2,-0.8 -1.1,-1.2 -1.8,-1 -7.8,1.9 -8.6,12.9 -7.3,19.3 0.3,1.4 2.1,1.3 2.7,0.4 2.6,-3.7 4.3,-7.8 4.7,-12.4 0.2,-2.2 0.8,-6.8 -2.2,-7.6 -3,-0.8 -4.8,3.6 -5.7,5.7 -2.1,4.7 -2.6,9.7 -2,14.8 0.2,1.4 2,2.2 2.8,0.8 3.1,-5.4 5.7,-13.5 2.9,-19.5 -0.2,-0.5 -0.8,-0.8 -1.3,-0.7 -7.4,0.1 -7,14.2 -5.7,18.9 0.3,1.2 2.1,1.5 2.7,0.4 2.8,-4.9 4.6,-12.1 2.2,-17.6 -1.7,-3.9 -4.8,-2.1 -6.7,0.8 -2.7,4.2 -4.4,12.1 -1.7,16.7 2.1,3.6 4.8,0.9 6.3,-1.8 1.8,-3.3 4.7,-11.4 1.7,-14.9 -2.7,-3.1 -6.2,1.2 -7.7,3.4 -2.3,3.5 -4.5,9.9 -1.6,13.7 2.2,2.9 6.2,2.3 7.4,-1 0.5,-1.2 -0.8,-2 -1.8,-1.8 -2.1,0.3 -3.8,0.9 -5.6,2 0.5,0.9 1,1.7 1.5,2.6 2.1,-1.6 3.5,-3.4 4.5,-5.9 0.6,-1.5 -1.5,-2.3 -2.5,-1.5 -0.6,0.3 -1.1,0.6 -1.7,0.9 0.6,0.7 1.1,1.5 1.7,2.2 2.7,-4.4 5.4,-8.9 8.1,-13.3 0.9,-1.4 -1.3,-3.2 -2.4,-1.8 -3.6,4.5 -7.3,9.1 -10.9,13.6 0.8,0.6 1.6,1.2 2.4,1.8 2,-4.7 4,-9.3 6,-14 0.6,-1.4 -1.2,-3.3 -2.4,-1.8 -1.5,1.9 -3,3.8 -4.6,5.7 0.8,0.6 1.6,1.2 2.4,1.8 1.5,-2.4 2.6,-4.8 3.5,-7.5 0.4,-1.4 -1.6,-2.7 -2.5,-1.5 -2,2.5 -3.9,5.1 -5.9,7.6 0.8,0.6 1.6,1.2 2.4,1.8 1.3,-2.9 2.5,-5.8 3.8,-8.7 0.8,-1.7 -1.6,-3.2 -2.6,-1.5 -1.1,1.8 -2.2,3.6 -3.3,5.4 -1.3,-0.6 1.3,0.9 2.3,-0.8 z"
       id="path34" />
    <path
       d="m 416.4,174.2 c 0,3.4 0.1,6.9 0.2,10.3 0.1,2.5 1.2,7.8 -0.4,9.7 -1,1.2 0.3,3.3 1.8,2.4 0.7,-0.5 0.9,-0.6 1.5,-1.2 0.6,-0.8 0.5,-2.2 -0.7,-2.5 -1.8,-0.4 -3.1,-0.4 -4.9,0.2 -1.8,0.6 -1.1,3.5 0.8,2.9 1.1,-0.1 2.2,-0.1 3.3,-0.2 -0.2,-0.8 -0.4,-1.7 -0.7,-2.5 -0.3,0.3 -0.6,0.5 -0.8,0.8 0.6,0.8 1.2,1.6 1.8,2.4 2.2,-2.6 1.6,-4.4 1.4,-7.9 -0.2,-4.7 -0.3,-9.5 -0.3,-14.2 0,-2.2 -3,-2.2 -3,-0.2 z"
       id="path36" />
    <path
       d="m 268.5,261.3 c 41.1,-2.3 82.3,-3.2 123.5,-2.7 1.9,0 1.9,-3 0,-3 -41.2,-0.5 -82.4,0.4 -123.5,2.7 -1.9,0.1 -1.9,3.1 0,3 z"
       id="path38" />
    <path
       d="m 273.8,288.7 c 29.5,-3.1 59.1,-4.7 88.7,-4.7 1.9,0 1.9,-3 0,-3 -29.6,0 -59.2,1.5 -88.7,4.7 -1.9,0.2 -2,3.2 0,3 z"
       id="path40" />
    <path
       d="m 276.5,339.8 c 39.4,-4.1 78.9,-6.4 118.5,-6.7 1.9,0 1.9,-3 0,-3 -39.6,0.3 -79.1,2.6 -118.5,6.7 -1.9,0.2 -1.9,3.2 0,3 z"
       id="path42" />
    <path
       d="m 438.3,476.6 c -19.4,-7.5 -30.9,-29 -29,-49.4 2,-20.7 17.4,-38.4 35.9,-46.7 12.7,-5.7 26.7,-6.9 39.2,-0.2 9.8,5.2 18.2,13.2 24.1,22.6 12.3,19.6 11.4,43.3 -1.6,62.5 -7.8,11.5 -22.5,14.8 -35.4,16.8 -12.8,2 -26.3,1.3 -37.1,-6.6 -1.6,-1.1 -3.1,1.5 -1.5,2.6 10,7.3 22.3,8.8 34.3,7.6 11.9,-1.2 26,-3.8 35.6,-11.4 9.5,-7.5 15.2,-21.7 17.2,-33.3 1.9,-11.1 -0.2,-22.3 -4.9,-32.5 -10.5,-22.7 -34.7,-40.9 -60.4,-34.6 -22.2,5.4 -41.8,23.3 -47.2,45.8 -5.8,23.9 6.7,50.6 29.9,59.6 1.9,0.8 2.7,-2.1 0.9,-2.8 z"
       id="path44" />
    <path
       d="m 459.4,374.5 c 1.2,18.5 2.4,37 3.7,55.5 0.1,1.9 3.1,1.9 3,0 -1.2,-18.5 -2.4,-37 -3.7,-55.5 -0.1,-1.9 -3.1,-1.9 -3,0 z"
       id="path46" />
    <path
       d="m 465.9,431.8 c 15.2,-8.3 30.2,-17 45,-26.2 1.6,-1 0.1,-3.6 -1.5,-2.6 -14.7,9.2 -29.7,17.9 -45,26.2 -1.7,1 -0.2,3.6 1.5,2.6 z"
       id="path48" />
    <path
       d="m 466.5,432.3 c 17.2,0 34.2,4.1 51.1,7 1.9,0.3 2.7,-2.6 0.8,-2.9 -17.1,-2.9 -34.4,-7.1 -51.9,-7.1 -1.9,0 -1.9,3 0,3 z"
       id="path50" />
    <path
       d="m 463.9,430.3 c -9.6,15.9 -19.2,31.7 -28.9,47.6 -1,1.7 1.6,3.2 2.6,1.5 9.6,-15.9 19.2,-31.7 28.9,-47.6 1,-1.6 -1.6,-3.2 -2.6,-1.5 z"
       id="path52" />
    <path
       d="m 293.6,572 c 43.5,-3.3 86.9,-7.1 130.2,-11.6 1.9,-0.2 1.9,-3.2 0,-3 -43.4,4.4 -86.8,8.3 -130.2,11.6 -1.9,0.2 -1.9,3.2 0,3 z"
       id="path54" />
    <path
       d="m 308.4,498.3 c 1.6,23 3.3,46.1 4.9,69.1 0.1,1.9 3.1,1.9 3,0 -1.6,-23 -3.3,-46.1 -4.9,-69.1 -0.2,-1.9 -3.2,-1.9 -3,0 z"
       id="path56" />
    <path
       d="m 311.3,498.6 c 5.7,-1 11.4,-1.3 17.2,-1 -0.5,-0.5 -1,-1 -1.5,-1.5 1.5,23.4 3.7,46.7 6.4,69.9 0.2,1.9 3.2,1.9 3,0 -2.8,-23.2 -4.9,-46.6 -6.4,-69.9 -0.1,-0.8 -0.6,-1.5 -1.5,-1.5 -6.1,-0.3 -12,0.1 -18,1.1 -1.9,0.4 -1,3.3 0.8,2.9 z"
       id="path58" />
    <path
       d="m 342.8,522 c 2.3,13.9 3.7,28 4.2,42.1 0.1,1.9 3.1,1.9 3,0 -0.5,-14.4 -1.9,-28.7 -4.3,-42.9 -0.3,-1.9 -3.2,-1.1 -2.9,0.8 z"
       id="path60" />
    <path
       d="m 346.4,523.5 c 5.8,0 11.5,-0.3 17.2,-1.1 -0.5,-0.5 -1,-1 -1.5,-1.5 1.4,13.9 2.9,27.7 4.3,41.6 0.2,1.9 3.2,1.9 3,0 -1.4,-13.9 -2.9,-27.7 -4.3,-41.6 -0.1,-0.7 -0.6,-1.6 -1.5,-1.5 -5.7,0.7 -11.5,1.1 -17.2,1.1 -1.9,0 -1.9,3 0,3 z"
       id="path62" />
    <path
       d="m 378.4,498.1 c 2.4,21.6 3.9,43.2 4.5,65 0.1,1.9 3.1,1.9 3,0 -0.7,-21.7 -2.2,-43.4 -4.5,-65 -0.2,-1.9 -3.2,-1.9 -3,0 z"
       id="path64" />
    <path
       d="m 379.9,499.3 c 3.2,0.2 6.5,0.3 9.7,0.5 4.5,0.2 4.6,0.3 4.7,4.8 0.3,6.5 0.6,12.9 1,19.4 0.9,12.4 2.3,24.7 4.6,36.9 0.4,1.9 3.2,1.1 2.9,-0.8 -2.9,-15.4 -4.3,-31.1 -5.1,-46.8 -0.2,-3.6 -0.3,-7.1 -0.5,-10.7 -0.1,-1.4 0.1,-3.5 -1,-4.7 -1.2,-1.2 -3.3,-1 -4.8,-1.1 -3.9,-0.2 -7.7,-0.4 -11.6,-0.6 -1.8,0 -1.8,3 0.1,3.1 z"
       id="path66" />
    <path
       d="m 418.8,593.3 c 38.6,-2.7 77.1,-7.6 115.1,-14.7 1.9,-0.4 1.1,-3.2 -0.8,-2.9 -37.8,7.1 -76,11.9 -114.3,14.6 -2,0.1 -2,3.1 0,3 z"
       id="path68" />
    <path
       d="m 477.6,574.2 c 16.4,-1.7 32.9,-3.4 49.3,-5.1 1.9,-0.2 1.9,-3.2 0,-3 -16.4,1.7 -32.9,3.4 -49.3,5.1 -1.9,0.2 -1.9,3.2 0,3 z"
       id="path70" />
    <path
       d="m 505.6,554.2 c 7.5,-0.3 15.1,-0.6 22.6,-0.9 1.9,-0.1 1.9,-3.1 0,-3 -7.5,0.3 -15.1,0.6 -22.6,0.9 -2,0.1 -2,3.1 0,3 z"
       id="path72" />
    <path
       d="m 426.4,217.9 c 1.9,5.5 2.7,11.1 2.4,16.9 -0.1,1.9 2.9,1.9 3,0 0.3,-6.1 -0.5,-11.9 -2.5,-17.7 -0.7,-1.8 -3.6,-1 -2.9,0.8 z"
       id="path74" />
    <path
       d="m 428.9,218.2 c 27.5,-2.8 55,-4.6 82.6,-5.5 1.9,-0.1 1.9,-3.1 0,-3 -27.6,0.9 -55.2,2.7 -82.6,5.5 -1.9,0.2 -1.9,3.2 0,3 z"
       id="path76" />
    <path
       d="m 431.8,236.4 c 27.4,-2 54.7,-4 82.1,-6 1.9,-0.1 1.9,-3.1 0,-3 -27.4,2 -54.7,4 -82.1,6 -1.9,0.1 -1.9,3.1 0,3 z"
       id="path78" />
    <path
       d="m 511.9,213.2 c 0.9,6.2 1.8,12.3 2.7,18.5 0.3,1.9 3.2,1.1 2.9,-0.8 -0.9,-6.2 -1.8,-12.3 -2.7,-18.5 -0.3,-1.9 -3.2,-1.1 -2.9,0.8 z"
       id="path80" />
    <path
       d="m 995.5,294.6 c 0.1,3.8 0.3,7.5 0.8,11.3 0.3,1.9 3.3,1.9 3,0 -0.5,-3.7 -0.8,-7.5 -0.8,-11.3 0,-1.9 -3,-1.9 -3,0 z"
       id="path82" />
    <path
       d="m 997.7,296.1 h 194.1 c 1.9,0 1.9,-3 0,-3 -64.7,0 -129.4,0 -194.1,0 -1.9,0 -1.9,3 0,3 z"
       id="path84" />
    <path
       d="m 1190,295.8 v 6.6 c 0,1.9 3,1.9 3,0 0,-2.2 0,-4.4 0,-6.6 0,-2 -3,-2 -3,0 z"
       id="path86" />
    <path
       d="m 999.5,307 h 191.6 c 1.9,0 1.9,-3 0,-3 -63.9,0 -127.8,0 -191.6,0 -2,0 -2,3 0,3 z"
       id="path88" />
    <path
       d="m 999.2,260.1 c 2.5,11.3 4.6,22.7 6.3,34.1 0.3,1.9 3.2,1.1 2.9,-0.8 -1.8,-11.4 -3.9,-22.8 -6.3,-34.1 -0.5,-1.9 -3.3,-1.1 -2.9,0.8 z"
       id="path90" />
    <path
       d="m 1001,259.9 c 13.1,0.4 26.8,2 39.9,0.4 1.9,-0.2 1.9,-3.2 0,-3 -13.1,1.6 -26.8,0 -39.9,-0.4 -1.9,-0.1 -1.9,2.9 0,3 z"
       id="path92" />
    <path
       d="m 1039.4,260.9 c -1.4,10.8 -2.7,21.6 -4.1,32.5 -0.2,1.9 2.8,1.9 3,0 1.4,-10.8 2.7,-21.6 4.1,-32.5 0.2,-1.9 -2.8,-1.9 -3,0 z"
       id="path94" />
    <path
       d="m 1015.9,256.6 c -2,-0.9 -4.4,-1.8 -5.9,-3.4 -2.6,-2.6 -2.4,-6.1 -2.8,-9.5 -0.6,-4.5 -3.1,-8.5 -3.4,-13.1 -0.8,0.4 -1.5,0.9 -2.3,1.3 9.3,6 17.5,14.5 17.2,26.3 -0.1,1.9 2.9,1.9 3,0 0.4,-12.9 -8.5,-22.3 -18.7,-28.9 -0.9,-0.6 -2.3,0.2 -2.3,1.3 0.2,2.7 1,5.1 1.9,7.7 1.3,3.6 1.3,7.1 2,10.8 1.1,5.5 4.9,7.9 9.7,10.1 1.8,0.7 3.3,-1.8 1.6,-2.6 z"
       id="path96" />
    <path
       d="m 1018.8,243.8 c -1.1,-7.6 3.9,-14.9 6.7,-21.6 2.2,-5.3 3.8,-10.7 3.5,-16.5 -1,0.1 -2,0.3 -2.9,0.4 3.7,17.3 8.3,33.7 0.4,50.7 -0.8,1.7 1.8,3.3 2.6,1.5 3.6,-7.8 5.5,-16.2 5.1,-24.8 -0.5,-9.5 -3.2,-18.9 -5.2,-28.2 -0.3,-1.7 -3,-1.3 -2.9,0.4 0.6,13.9 -12.2,25.1 -10.1,38.9 0.2,1.9 3.1,1.1 2.8,-0.8 z"
       id="path98" />
    <path
       d="m 1067.7,185.9 c 1.2,36.4 1.6,72.7 0.9,109.1 0,1.9 3,1.9 3,0 0.6,-36.4 0.3,-72.8 -0.9,-109.1 0,-2 -3,-2 -3,0 z"
       id="path100" />
    <path
       d="m 1070,186.4 c 4.3,-3.6 11.6,-2 16.4,-0.5 1.8,0.6 2.6,-2.3 0.8,-2.9 -6.1,-1.9 -14.1,-3.1 -19.3,1.3 -1.5,1.2 0.6,3.3 2.1,2.1 z"
       id="path102" />
    <path
       d="m 1085.2,185.9 c 0.2,35.9 0.4,71.7 0.6,107.6 0,1.9 3,1.9 3,0 -0.2,-35.9 -0.4,-71.7 -0.6,-107.6 0,-2 -3,-2 -3,0 z"
       id="path104" />
    <path
       d="m 1072.2,210.1 c 4,-3.3 9.9,-3 13.6,0.5 1.4,1.3 3.5,-0.8 2.1,-2.1 -5,-4.7 -12.6,-4.8 -17.8,-0.5 -1.5,1.2 0.6,3.3 2.1,2.1 z"
       id="path106" />
    <path
       d="m 1070.9,198.6 c 4.4,-3.8 10.7,-3.9 15.3,-0.4 1.6,1.2 3,-1.5 1.5,-2.6 -5.8,-4.3 -13.6,-3.7 -19,0.9 -1.4,1.3 0.8,3.4 2.2,2.1 z"
       id="path108" />
    <path
       d="m 1088.3,211.6 c 4.5,0 8.9,0.5 13.3,1.6 -0.4,-0.5 -0.7,-1 -1.1,-1.4 0.6,27 0.3,53.9 -1.1,80.9 -0.1,1.9 2.9,1.9 3,0 1.4,-26.9 1.7,-53.9 1.1,-80.9 0,-0.6 -0.5,-1.3 -1.1,-1.4 -4.7,-1.2 -9.3,-1.7 -14.1,-1.7 -2,-0.1 -2,2.9 0,2.9 z"
       id="path110" />
    <path
       d="m 1089,240 c 4,-2.6 8.8,-2.7 12.9,-0.3 1.7,1 3.2,-1.6 1.5,-2.6 -5,-3 -11.1,-2.9 -15.9,0.3 -1.6,1 -0.1,3.6 1.5,2.6 z"
       id="path112" />
    <path
       d="m 1088.5,225.7 c 3.5,-1.7 7.5,-1.8 11.1,-0.3 1.8,0.7 3.3,-1.8 1.5,-2.6 -4.7,-2 -9.5,-1.9 -14.1,0.3 -1.7,0.9 -0.2,3.5 1.5,2.6 z"
       id="path114" />
    <path
       d="m 1110.1,293 c 0,-1.7 -1.1,-7.9 -0.1,-9.1 1.4,-1.7 9.1,-1.1 11.1,-1.2 6.9,-0.4 13.9,-0.7 20.8,-0.8 13.9,-0.2 27.8,0.3 41.6,1.4 -0.5,-0.5 -1,-1 -1.5,-1.5 0.6,4.5 0.9,9 0.8,13.6 0,1.9 3,1.9 3,0 0,-4.6 -0.2,-9.1 -0.8,-13.6 -0.1,-0.9 -0.6,-1.4 -1.5,-1.5 -17.1,-1.3 -34.4,-1.7 -51.5,-1.1 -4,0.1 -7.9,0.3 -11.9,0.6 -2.9,0.2 -8.3,-0.4 -11,0.9 -3.9,1.8 -2.1,9.1 -2,12.4 0,1.8 3,1.9 3,-0.1 z"
       id="path116" />
    <path
       d="m 1120.4,279.3 c -0.2,-1.1 -1.2,-4.4 -1,-5.5 0.7,-3 3.6,-2.3 5.8,-2.3 3.6,-0.1 7.3,-0.1 10.9,-0.2 7.6,-0.1 15.2,-0.3 22.9,-0.4 7.3,-0.1 14.6,-0.3 21.9,-0.4 4,-0.1 8,-0.1 11.9,-0.2 2.8,0 4.4,-1 5.3,2.6 0.4,1.6 0.1,3.7 0,5.3 -0.1,1.9 2.9,1.9 3,0 0.1,-2.6 0.9,-7.7 -1.2,-9.9 -1.9,-1.9 -5.8,-1 -8.1,-0.9 -11.3,0.2 -22.5,0.4 -33.8,0.6 -10.9,0.2 -21.9,0.4 -32.8,0.6 -2.2,0 -6.9,-0.9 -8.5,1.1 -1.9,2.3 0.4,8 0.8,10.5 0.4,1.8 3.3,1 2.9,-0.9 z"
       id="path118" />
    <path
       d="m 1182.9,283.2 c 4.5,0.1 9.1,0.2 13.6,-0.1 2.2,-0.2 4.4,-1 4.2,-3.6 -0.2,-1.9 -3.2,-1.9 -3,0 0.1,1.1 -13.5,0.8 -14.8,0.7 -1.9,-0.1 -1.9,2.9 0,3 z"
       id="path120" />
    <path
       d="m 1129.2,269.2 c -0.1,-1.7 -0.6,-4 -0.4,-5.7 0.2,-2 -0.3,-2.3 2,-2.6 3.2,-0.4 7.3,0.7 10.5,0.9 6.7,0.5 13.5,0.8 20.2,0.9 6.7,0.1 13.5,0.1 20.2,-0.2 3,-0.1 6.6,-0.9 9.6,-0.5 1.4,-0.6 2.5,-0.2 3.2,1.1 1.1,0.5 1.5,1.4 1.4,2.5 0.3,0.8 0.4,1.8 0.7,2.7 0.7,1.8 3.6,1 2.9,-0.8 -0.9,-2.2 -0.3,-5.5 -2.1,-7.4 -1.6,-1.7 -3.9,-1.3 -6.1,-1.2 -9.9,0.5 -19.9,0.8 -29.8,0.7 -9.6,-0.2 -19.2,-0.7 -28.8,-1.6 -2,-0.2 -5.1,-1 -6.5,1 -1.6,2.4 -0.2,7.5 0,10.1 0.2,2 3.2,2 3,0.1 z"
       id="path122" />
    <path
       d="m 1205.9,368.2 v 44.5 c 0,1.9 3,1.9 3,0 0,-14.8 0,-29.7 0,-44.5 0,-1.9 -3,-1.9 -3,0 z"
       id="path124" />
    <path
       d="m 1208.4,368.2 h 78 c 1.9,0 1.9,-3 0,-3 -26,0 -52,0 -78,0 -1.9,0 -1.9,3 0,3 z"
       id="path126" />
    <path
       d="m 1285,367.2 v 44.5 c 0,1.9 3,1.9 3,0 0,-14.8 0,-29.7 0,-44.5 0,-1.9 -3,-1.9 -3,0 z"
       id="path128" />
    <path
       d="m 1207.4,415.2 h 78 c 1.9,0 1.9,-3 0,-3 -26,0 -52,0 -78,0 -1.9,0 -1.9,3 0,3 z"
       id="path130" />
    <path
       d="m 1241.4,365.2 c 0,-2.6 0.2,-5 0.9,-7.5 0.3,-1.1 0.7,-2.8 1.4,-3.6 0.3,-1 1,-1.3 2.2,-0.9 1.6,-0.7 2.4,-0.2 2.5,1.6 1.2,4.2 1.4,9 2,13.4 0.3,1.9 3.2,1.1 2.9,-0.8 -0.6,-4.4 -0.8,-9.1 -2,-13.4 -0.6,-2.4 -2.4,-4.9 -5.1,-5.1 -6.7,-0.4 -7.9,11.8 -7.9,16.3 0.2,1.9 3.2,1.9 3.1,0 z"
       id="path132" />
    <path
       d="m 1210.8,374.7 v 33 c 0,1.9 3,1.9 3,0 0,-11 0,-22 0,-33 0,-1.9 -3,-1.9 -3,0 z"
       id="path134" />
    <path
       d="m 1213.9,374.7 h 68 c 1.9,0 1.9,-3 0,-3 -22.7,0 -45.4,0 -68,0 -1.9,0 -1.9,3 0,3 z"
       id="path136" />
    <path
       d="m 1280,373.7 v 35 c 0,1.9 3,1.9 3,0 0,-11.7 0,-23.3 0,-35 0,-1.9 -3,-1.9 -3,0 z"
       id="path138" />
    <path
       d="m 1212.9,409.2 h 65 c 1.9,0 1.9,-3 0,-3 -21.7,0 -43.4,0 -65,0 -1.9,0 -1.9,3 0,3 z"
       id="path140" />
    <path
       d="m 1215.7,395.9 c 2.2,-3.2 4.2,-3.9 5.9,-2.3 0.3,0.2 0.5,0.4 0.8,0.6 0.7,0.3 1.2,0.8 1.9,1 1.2,0.4 2.6,0.3 3.8,-0.2 0.9,-0.4 1.7,-1.1 2,-2.1 0.5,-1.6 -0.7,-1.9 -0.8,-3.3 -0.5,-0.6 -0.3,-1.2 0.6,-2 0.2,-2.3 1.6,-2.8 4,-1.4 0.6,0 1.2,0.2 1.7,0.1 1.8,-0.3 2,-0.9 3.3,-2 4.2,-3.4 8.9,-1.7 10,3.7 0.1,0.7 0.6,5.3 -0.2,5.8 -0.8,-1 -1.6,-1.9 -2.4,-2.9 2.6,0.4 4.5,1.8 5.6,4 0.6,1 1.9,0.9 2.6,0 2,-2.1 4,-2.2 6,-0.2 0.7,-0.7 1.4,-1.4 2.1,-2.1 -0.8,-0.7 -1.5,-1.4 -2.3,-2.1 -2.6,-2.2 -2.4,-4.7 0.7,-7.6 4.2,0.2 6.4,4.3 4.6,8 -2.3,4.5 -7.8,5.1 -12.3,4.7 v 3 c 6.5,0.4 13.1,0.8 19.6,1.2 1.9,0.1 1.9,-2.9 0,-3 -6.5,-0.4 -13.1,-0.8 -19.6,-1.2 -1.9,-0.1 -1.9,2.8 0,3 5.2,0.5 10.9,-0.5 14.2,-5.1 2.6,-3.7 2.4,-9.3 -1.4,-12.2 -2.9,-2.2 -7.3,-1.8 -9.7,1.1 -3.6,4.5 0.6,9.4 4,12.4 1.4,1.3 3.5,-0.7 2.1,-2.1 -3.2,-3.4 -8.1,-2.8 -10.7,0.8 h 2.6 c -2.5,-4.1 -7.2,-7.1 -11.9,-4.6 -3.6,2 -4.9,7.2 -1.6,10.2 3.4,3.1 8.3,0.7 10.1,-2.8 2,-4 1.6,-10.3 -1.3,-13.9 -2.9,-3.6 -8,-4 -11.6,-1.3 -2.5,1.9 -1,2.2 -5.2,1.9 -1.4,-0.1 -2.6,-0.4 -4,0 -1.5,0.4 -2.9,1.3 -3.6,2.8 -0.5,1.1 -0.7,2.1 -0.2,3.3 0.1,0.4 1.2,1.3 1.1,1.6 -0.4,2.2 -6.2,-1.8 -7.2,-2 -4.5,-0.7 -7.5,4.1 -6.2,8 0.6,1.8 3.5,1.1 2.9,-0.8 z"
       id="path142" />
    <path
       d="m 1301.4,311.4 v 34.4 c 0,1.9 3,1.9 3,0 0,-11.5 0,-22.9 0,-34.4 0,-1.9 -3,-1.9 -3,0 z"
       id="path144" />
    <path
       d="m 1304.6,311.2 h 55.2 c 1.9,0 1.9,-3 0,-3 -18.4,0 -36.8,0 -55.2,0 -2,0 -2,3 0,3 z"
       id="path146" />
    <path
       d="m 1303.7,348.2 h 55.2 c 1.9,0 1.9,-3 0,-3 -18.4,0 -36.8,0 -55.2,0 -1.9,0 -1.9,3 0,3 z"
       id="path148" />
    <path
       d="m 1358.3,311 v 35.3 c 0,1.9 3,1.9 3,0 0,-11.8 0,-23.5 0,-35.3 0,-2 -3,-2 -3,0 z"
       id="path150" />
    <path
       d="m 1304.8,312.7 v 32.7 c 0,1.9 3,1.9 3,0 0,-10.9 0,-21.8 0,-32.7 0,-2 -3,-2 -3,0 z"
       id="path152" />
    <path
       d="m 1305.9,345.6 h 52.7 c 1.9,0 1.9,-3 0,-3 -17.6,0 -35.1,0 -52.7,0 -2,0 -2,3 0,3 z"
       id="path154" />
    <path
       d="m 1306.7,313.3 h 51 c 1.9,0 1.9,-3 0,-3 -17,0 -34,0 -51,0 -1.9,0 -1.9,3 0,3 z"
       id="path156" />
    <path
       d="m 1357,312.2 v 31.4 c 0,1.9 3,1.9 3,0 0,-10.5 0,-21 0,-31.4 0,-1.9 -3,-1.9 -3,0 z"
       id="path158" />
    <path
       d="m 1316.4,337.7 c 8.3,-4 17.7,-5.9 26.1,-1 1.7,1 3.2,-1.6 1.5,-2.6 -9.3,-5.5 -19.8,-3.5 -29.1,1 -1.8,0.8 -0.2,3.4 1.5,2.6 z"
       id="path160" />
    <path
       d="m 1316.4,333.5 c -1.8,-2.2 2.8,-2.9 3.4,-4.1 0.5,-0.9 -0.2,-3.7 0.1,-3.6 0.9,0.2 1.9,-0.4 1.9,-1.4 -0.1,-4.7 5,2.8 4.8,2.5 0.6,0.7 1.2,1.4 2.2,1.8 1.4,0.6 4.4,-1 5.2,-0.4 0.9,0.8 2.1,0.4 2.5,-0.7 0.8,-0.3 1.6,-0.6 2.5,-0.8 -0.1,1.3 1.7,2 2.6,1.1 2.7,2.1 3.1,3.8 1.1,5 -1.5,1.3 0.7,3.4 2.1,2.1 2.6,-2.2 4.4,-6 2,-9.1 -2,-2.6 -5.3,-2.4 -7.4,-0.1 0.9,0.4 1.7,0.7 2.6,1.1 0.2,-2.2 -1.1,-4 -3.5,-4.2 -2.6,-0.2 -4.1,2 -4.9,4.2 0.8,-0.2 1.7,-0.4 2.5,-0.7 -1.7,-1.4 -2,-0.8 -3.9,-0.9 -5.1,-0.2 -3.6,-3.4 -6.9,-5.3 -3.3,-1.9 -6.5,1 -6.5,4.4 0.6,-0.5 1.3,-1 1.9,-1.4 -1.5,-0.3 -3.3,-0.4 -4.3,0.9 -1.1,1.4 0.6,2.5 0.2,3.5 -0.6,1.6 -3.5,1.1 -4.2,3.2 -0.7,2 0.7,3.8 1.9,5.2 1.2,1.4 3.3,-0.8 2.1,-2.3 z"
       id="path162" />
    <path
       d="m 1328.4,307.2 c -0.6,-1.3 -0.9,-2.6 -0.6,-4 0.1,-0.9 0.9,-3.8 2.3,-3.4 1,0.3 2,2.9 2.2,3.8 0.5,1.6 0.6,3.1 0.4,4.8 -0.2,1.9 2.8,1.9 3,0 0.3,-2.7 -0.1,-5.3 -1.4,-7.7 -1,-2 -2.9,-4.7 -5.5,-3.9 -2,0.6 -3.3,3.1 -3.8,5 -0.6,2.4 -0.3,4.8 0.8,7 0.9,1.7 3.4,0.2 2.6,-1.6 z"
       id="path164" />
    <path
       d="m 1305.8,362.9 v 45.9 c 0,1.9 3,1.9 3,0 0,-15.3 0,-30.6 0,-45.9 0,-2 -3,-2 -3,0 z"
       id="path166" />
    <path
       d="m 1307.3,361.8 h 46.5 c 1.9,0 1.9,-3 0,-3 -15.5,0 -31,0 -46.5,0 -2,0 -2,3 0,3 z"
       id="path168" />
    <path
       d="m 1352.3,360.3 v 48.4 c 0,1.9 3,1.9 3,0 0,-16.1 0,-32.3 0,-48.4 0,-1.9 -3,-1.9 -3,0 z"
       id="path170" />
    <path
       d="m 1308.5,412.2 h 44 c 1.9,0 1.9,-3 0,-3 -14.7,0 -29.3,0 -44,0 -1.9,0 -1.9,3 0,3 z"
       id="path172" />
    <path
       d="m 1322.2,378.2 c -0.7,5.8 3,12.1 9.2,12.8 6.5,0.7 11.3,-4.3 11.1,-10.6 -0.1,-1.9 -3.1,-1.9 -3,0 0.2,4.7 -3.4,8.5 -8.3,7.5 -4.5,-0.9 -6.4,-5.5 -6,-9.7 0.2,-1.9 -2.8,-1.9 -3,0 z"
       id="path174" />
    <path
       d="m 1332.3,390.3 c -0.2,1.4 0.7,2.5 0.3,3.8 -0.6,2 -3.2,3.9 -4.5,5.4 -2.2,2.6 -3.8,5.2 -3.9,8.7 -0.1,1.9 2.9,1.9 3,0 0.2,-4.6 4.1,-7.3 6.7,-10.7 0.8,-1 1.6,-2.1 1.9,-3.3 0.3,-1.4 -0.7,-2.5 -0.5,-3.9 0.2,-1.9 -2.8,-1.9 -3,0 z"
       id="path176" />
    <path
       d="m 1325.4,390.2 c -3.5,-0.2 -10.1,-2.4 -8.5,-7.3 0.8,-2.6 4.1,-2.7 5.5,-4.5 1.9,-2.3 0.3,-3.6 -1.2,-5.3 -1.4,-1.6 -4.3,-2.2 -0.4,-5.7 2.2,-2 5.8,0.5 7.6,2 1.1,1 1.3,2.1 2.8,2.8 1,0.5 2.3,0.7 3.4,0.3 1.8,-0.8 3.8,-6.1 5.7,0.5 0.2,0.8 1.1,1.3 1.8,1 0.1,2.1 0.2,4.1 0.2,6.2 -1.2,1.5 0.9,3.6 2.1,2.1 1.9,-2.4 4.1,-5.4 2.7,-8.6 -1.1,-2.4 -3.5,-3.3 -5.9,-2.6 0.6,0.3 1.2,0.7 1.8,1 -0.8,-2.7 -2.1,-5.5 -5.2,-5.7 -1,-0.1 -1.9,0.1 -2.7,0.6 0.2,-0.1 -1.2,1.5 -1.2,1.5 -2.1,1.1 -2.7,-0.8 -3.9,-2 -2.1,-2.3 -3.8,-3.6 -7.2,-3.1 -2.6,0.4 -6.3,2.2 -7.2,4.9 -1.1,3.2 1.6,4.1 2.8,6.5 1.3,0.5 1.3,1.1 -0.1,1.8 -0.3,0.6 -0.7,0.9 -1.2,1.1 -0.4,0.3 -1,0.5 -1.4,0.9 -0.8,0.9 -1.4,1.8 -1.8,2.9 -2.3,7.3 5.2,11.2 11.2,11.6 2.2,0.2 2.2,-2.8 0.3,-2.9 z"
       id="path178" />
    <path
       d="m 1326.5,360 c -0.1,-1.5 -0.6,-4.2 1.2,-5.1 1.9,-0.9 1.6,2 1.4,3 -0.4,1.9 2.5,2.7 2.9,0.8 0.3,-1.6 0.5,-3.4 -0.3,-4.9 -0.8,-1.4 -2.3,-2.2 -3.8,-2 -4.1,0.5 -4.6,4.9 -4.3,8.2 0,1.9 3,1.9 2.9,0 z"
       id="path180" />
    <path
       d="m 1309.5,362.6 v 44.1 c 0,1.9 3,1.9 3,0 0,-14.7 0,-29.4 0,-44.1 0,-2 -3,-2 -3,0 z"
       id="path182" />
    <path
       d="m 1311.3,408.9 h 39.9 c 1.9,0 1.9,-3 0,-3 -13.3,0 -26.6,0 -39.9,0 -1.9,0 -1.9,3 0,3 z"
       id="path184" />
    <path
       d="m 1352.3,407.8 c 0,-15.4 0,-30.9 0,-46.3 0,-1.9 -3,-1.9 -3,0 v 46.3 c 0,1.9 3,1.9 3,0 z"
       id="path186" />
    <path
       d="m 1312,363 h 39.5 c 1.9,0 1.9,-3 0,-3 -13.2,0 -26.3,0 -39.5,0 -1.9,0 -1.9,3 0,3 z"
       id="path188" />
  </g>
  <path
     d="m 991.70863,733.4 c -6.7,-5.4 -15.8,-6.5 -23.2,-2.8 -8.7,4.4 -13.4,14.7 -11.2,25 1.8,13.7 3.6,27.5 5.4,41.2 -36.5,16.7 -53.9,27.6 -52.4,32.6 1.8,6.1 31.4,3.5 88.9,-7.6 -2.5,-29.5 -5,-58.9 -7.5,-88.4 z"
     fill="#191919"
     id="path192" />
  <path
     d="m 967.30863,408.8 c -1.4,20.1 -3.7,52.7 -7.6,93.1 -4.8,50.7 -6.8,101.8 -13.6,152.3 -7,52.4 -14.7,88.3 3,100.8 6.4,4.5 14.1,4.5 19.6,3.8 5.8,-1.5 11.6,-3.1 17.4,-4.6 5.7,2.8 13.4,5.5 19.59997,2.3 18.2,-9.3 1,-57 2.3,-125.4 0.9,-45.1 9.6,-90.1 21.2,-149.2 8.8,-45.1 15.5,-68.5 3,-80 -15.2,-14.1 -48.89997,-0.6 -64.89997,6.9 z"
     fill="#ffffff"
     stroke="#161616"
     stroke-miterlimit="10"
     stroke-width="2"
     id="path194" />
  <path
     d="m 996.00863,399.4 c 3.8,17.7 8.09997,44.5 7.79997,77.1 -0.5,52.6 -12.79997,85.8 -21.69997,125.3 -8.1,35.8 -15.9,88 -12.4,155.3 5.3,-1 10.7,-2.1 16,-3.1 1.2,0.9 6.1,4.2 12.9,3.6 1,-0.1 7.59997,-0.8 11.89997,-5.7 5.3,-6 4.2,-14.9 3.6,-19.2 -2.3,-18.7 -2.8,-37.6 -4.7,-56.4 -2,-19.8 -1.7,-35.2 -1.6,-44.5 0.1,-7 0.6,-20.1 3.1,-41.4 4.4,-37.1 8.4,-43.4 17.1,-97.3 6.6,-40.6 3.7,-33.2 6.2,-42.4 2.3,-8.2 6.2,-20.1 4.1,-35.2 -1,-7.1 -2.8,-11.1 -5.7,-14 -6,-5.9 -14.9,-5.8 -20.2,-5.7 -7.1,0.1 -12.89997,2.1 -16.39997,3.6 z"
     fill="#6d6c6c"
     opacity="0.14"
     id="path196" />
  <path
     d="m 1024.5086,501.4 c -7.5,16.6 -15.4,38.4 -20.2,64.7 -8.39997,46.4 -0.1,70 -7.19997,119.6 -2.6,18.3 -7.5,41.3 -17.1,67.3 3.6,0.5 7.2,1 10.9,1.6 5.4,1.9 12.19997,3.3 17.09997,0 8.8,-5.9 5.8,-23.2 3.6,-43.5 0,0 -2.7,-25 -3.1,-72.5 -0.2,-26.3 2.2,-45.7 5.7,-74 3.1,-25.4 6.9,-46.9 10.3,-63.2 z"
     fill="#6d6c6c"
     opacity="0.1"
     id="path198" />
  <path
     d="m 1117.9086,725.8 c -6.7,-5.4 -15.8,-6.5 -23.2,-2.8 -8.7,4.4 -13.4,14.7 -11.2,25 1.8,13.7 3.6,27.5 5.4,41.2 -36.5,16.7 -53.9,27.6 -52.4,32.6 1.8,6.1 31.4,3.5 88.9,-7.6 -2.6,-29.5 -5.1,-58.9 -7.5,-88.4 z"
     fill="#191919"
     id="path200" />
  <path
     d="m 1080.6086,405.7 c 5.8,47.5 12,96.5 18.6,147.4 4.5,35 5.6,43.3 9.1,56.9 6,23.6 14.1,43.7 21.1,80.2 3.3,17 5,30.8 -2.9,41.2 -5.9,7.8 -17.4,14 -20,11.6 -1.1,-1.1 -0.4,-3.9 0.6,-6.4 -2.4,2.3 -17.6,16.6 -29.7,11.6 -7.1,-2.9 -10,-11.2 -11.4,-15.7 -14.2,-43.5 -16.5,-87.1 -16.5,-87.1 -0.9,-16.8 -3.1,-34 -7.4,-68.5 -3.2,-25.3 -9.2,-61.9 -22.1,-106.4 -1.9,-1.2 -20.49997,-13.6 -21.69997,-36.5 -0.1,-1.7 -0.8,-19 10.09997,-30.7 14.4,-15.5 45.2,-16.6 72.2,2.4 z"
     fill="#ffffff"
     stroke="#161616"
     stroke-miterlimit="10"
     stroke-width="2"
     id="path202" />
  <path
     d="m 999.90863,417.7 c -3.6,10.4 -4.6,22.1 1.09997,32 4.9,8.5 12.8,17.8 22.4,20.8 1.8,0.6 2.6,-2.3 0.8,-2.9 -8.8,-2.7 -16.2,-11.6 -20.6,-19.4 -5.29997,-9.2 -4.09997,-20 -0.8,-29.7 0.7,-1.8 -2.2,-2.6 -2.89997,-0.8 z"
     fill="#ffffff"
     id="path204" />
  <path
     d="m 996.90863,436.3 c 0.9,15.6 10.89997,28.6 26.09997,32.9 1.9,0.5 2.7,-2.4 0.8,-2.9 -13.8,-3.9 -23,-15.7 -23.89997,-30 -0.1,-1.9 -3.1,-1.9 -3,0 z"
     fill="#ffffff"
     id="path206" />
  <path
     d="m 1041.2086,392.7 c 2.6,7.8 6.6,20.4 11,36 12.8,45.2 34.9,123.5 36.3,217.7 0.2,15.7 0.8,95.6 8,96 1.7,0.1 4.5,-4.3 8.3,-3.3 2.6,0.7 2.7,3.1 5,4 5,1.9 13.3,-6.7 17.3,-13 1.4,-2.2 4.6,-7.2 5.3,-14.3 0.4,-3.2 0.1,-5.5 -1,-12.3 -1.6,-10.5 -2.4,-15.7 -3,-18.3 -4.3,-20.3 -12,-39.8 -18.3,-67.3 -2.7,-11.6 -4.5,-22 -6.7,-34 -0.7,-3.8 -2.6,-14.9 -4.7,-28.7 -4.7,-31.6 -6.2,-53.3 -9.3,-81 -1.7,-15.1 -4.3,-36.4 -8.3,-62.3 -1,-2.2 -2.8,-5.6 -6,-8.7 -1.1,-1 -4.5,-4.1 -13.7,-7 -4.5,-1.6 -11.4,-3.3 -20.2,-3.5 z"
     fill="#6d6c6c"
     opacity="0.14"
     id="path208" />
  <path
     d="m 1106.2086,603 c 5.5,25.6 9.2,47.5 11.7,64.7 4,28 4.2,38.2 -1,49 -7.8,16.3 -24,26 -23,27.3 0.4,0.5 3,-0.5 12,-6.3 0.3,2.4 1,5.1 3,6 5.1,2.2 16.4,-8.8 21.3,-19.3 6.7,-14.5 1.8,-29.4 -2.7,-43.7 -5.6,-18.1 -13.1,-43.9 -21.3,-77.7 z"
     fill="#6d6c6c"
     opacity="0.2"
     id="path210" />
  <path
     d="m 973.20863,235.7 c -9.8,-1.3 -18.8,11.5 -36.3,37 -12,17.4 -20.4,32.7 -25.9,43.3 -11.9,-0.6 -23.8,-1.2 -35.7,-1.9 -11.1,-0.6 -22.2,-1.2 -33.3,-1.9 -4.4,-1.5 -11,-3.7 -19.1,-5.6 -13.1,-3.2 -40.2,-8.5 -41.9,-3.8 -0.5,1.5 1.3,4.6 12.9,11.9 -0.8,2 -3.7,10.4 0,20.1 0.6,1.5 3.9,9.6 11.7,13.8 10,5.3 23.8,2.4 33.9,-7.5 7.8,4.7 50.1,29.4 89.9,12.5 13,-5.5 22.1,-13.9 30.2,-21.3 14.7,-13.5 34,-31.2 34.5,-55.8 0.4,-17.8 -9,-39.2 -20.9,-40.8 z"
     fill="#ffffff"
     stroke="#161616"
     stroke-miterlimit="10"
     stroke-width="2"
     id="path212" />
  <path
     d="m 780.20863,304 c 3.9,3.9 7.7,8.1 12.1,11.4 4.3,3.2 9.2,5 14.2,6.7 1.4,0.5 2,-1.7 0.6,-2.2 -5.3,-1.8 -10.4,-3.8 -14.8,-7.4 -3.8,-3.1 -7.1,-6.7 -10.5,-10.1 -1,-1 -2.6,0.6 -1.6,1.6 z"
     fill="#161616"
     id="path214" />
  <path
     d="m 827.50863,314.3 c -3.8,1.4 -7.3,3.6 -10,6.6 -1.9,2.1 -4.7,5.4 -4,8.4 0.7,3.4 4.9,3.4 7.7,3.4 4.5,-0.1 8.8,-1.4 12.7,-3.7 1.2,-0.7 0.1,-2.7 -1.1,-1.9 -2.5,1.5 -5.2,2.6 -8.1,3.1 -2.5,0.4 -9.8,1.3 -8.5,-3.4 1.3,-4.8 7.7,-8.7 12,-10.3 1.2,-0.5 0.6,-2.7 -0.7,-2.2 z"
     fill="#161616"
     id="path216" />
  <path
     d="m 792.60863,316.5 c -2.1,6.7 -2.1,13.2 5.1,16.4 5.3,2.4 13,1.2 15.7,-4.5 0.6,-1.3 -1.3,-2.4 -1.9,-1.1 -2.2,4.7 -8.5,5.5 -12.9,3.5 -6.1,-2.7 -5.5,-8.2 -3.8,-13.7 0.4,-1.4 -1.7,-2 -2.2,-0.6 z"
     fill="#161616"
     id="path218" />
  <path
     d="m 792.10863,331.3 c 0.4,5.7 3.9,11.3 9.9,12.4 5.3,1 10.2,-2.2 12.1,-7 0.5,-1.3 -1.6,-1.9 -2.2,-0.6 -1.6,4 -6.1,6.4 -10.4,5.2 -4.4,-1.3 -6.9,-5.7 -7.2,-10 0,-1.4 -2.3,-1.4 -2.2,0 z"
     fill="#161616"
     id="path220" />
  <path
     d="m 813.70863,337.8 c 7.8,-1.4 5.2,12.5 -0.5,12 -1.4,-0.1 -1.4,2.1 0,2.3 4.8,0.4 7.4,-5.5 7.7,-9.5 0.3,-4.4 -3.5,-7.6 -7.8,-6.8 -1.4,0.1 -0.8,2.2 0.6,2 z"
     fill="#161616"
     id="path222" />
  <path
     d="m 813.10863,329.7 c 0,-0.1 0.1,-0.1 0.1,-0.2 -0.4,0.1 -0.7,0.2 -1.1,0.3 0.8,0.2 0.9,2.8 0.8,3.3 -0.1,1.3 -0.6,2.5 -1.6,3.5 -1,1 0.6,2.6 1.6,1.6 1.5,-1.5 2.3,-3.6 2.2,-5.8 -0.1,-1.6 -0.6,-4.4 -2.5,-4.8 -0.4,-0.1 -0.8,0 -1.1,0.3 0,0.1 -0.1,0.1 -0.1,0.2 -0.8,1.1 0.7,2.7 1.7,1.6 z"
     fill="#161616"
     id="path224" />
  <path
     d="m 807.70863,322.3 c 2.4,0.1 3.9,2.4 3.3,4.7 -0.4,1.4 1.8,2 2.2,0.6 1,-3.7 -1.5,-7.4 -5.4,-7.5 -1.6,-0.1 -1.6,2.2 -0.1,2.2 z"
     fill="#161616"
     id="path226" />
  <path
     d="m 988.00863,251.8 c -2.9,8.5 -7.7,20 -15.3,32.6 -7.8,12.9 -16.5,27.2 -33.4,39.2 -6.2,4.4 -24.9,17.4 -52.6,18.4 -26.1,0.9 -45.3,-9.3 -52.9,-13.9 -6,4.5 -10.1,4.8 -12.8,4.2 -2.4,-0.6 -3.3,-1.8 -7.5,-3.1 -3.6,-1.1 -6.5,-1.3 -8.1,-1.4 -5.8,-0.4 -11.8,-0.8 -13.4,1.9 -2.1,3.7 4.7,11.6 10,15.9 2.4,1.9 6.6,5.2 12.5,6.1 13.9,2.2 24.2,-9.9 24.8,-10.6 3.4,2.1 8.3,5 14.5,7.8 10.1,4.7 24.4,11.2 43.4,11.1 21.6,0 37.2,-8.5 40.4,-10.3 3.8,-2.2 10.9,-8.4 25,-20.9 13.1,-11.6 17.9,-16.7 22.3,-23.7 2.6,-4.1 5.9,-9.4 7.8,-16.7 4.1,-15.6 -1.4,-29.8 -4.7,-36.6 z"
     fill="#6d6c6c"
     opacity="0.12"
     id="path228" />
  <path
     d="m 993.30863,263.8 c -1.9,6.6 -5.2,15.9 -10.9,26.2 -5.3,9.6 -19.3,34.3 -49,49.5 -8.8,4.5 -24,12.1 -45.1,11.7 -23.4,-0.5 -40.2,-10.5 -47.3,-15.3 -4,2.5 -10,5.7 -17.8,7.8 -10.4,2.7 -17.9,1.8 -18.1,3.3 -0.2,1.5 7,4.7 14.5,4.5 10.5,-0.3 17.9,-7.2 20.6,-10 6.9,5 32.7,22.6 66.5,18.1 26.1,-3.5 42.6,-18.2 57.1,-31.2 10.8,-9.7 23.3,-21.2 28.1,-40.4 2.5,-9.8 2.1,-18.4 1.4,-24.2 z"
     fill="#6d6c6c"
     opacity="0.15"
     id="path230" />
  <path
     d="m 962.60863,236.1 c -2,2.3 -5.5,7.2 -8.5,30.6 -4,31.8 -1.9,57 0,75.8 2.2,22.3 5.3,49.2 9.8,79.8 17.4,5.4 46.29997,11.5 80.99997,6 15.7,-2.5 29.1,-6.8 39.9,-11.3 -2.3,-25 -2,-45.2 -1.3,-58.5 3.4,-68.7 6.5,-87.8 6.5,-87.8 2.3,-13.7 4.4,-22.2 -0.7,-29.9 -5.1,-7.9 -14.8,-10.6 -45.7,-12.6 -46.89997,-3.2 -70.49997,-4.5 -80.99997,7.9 z"
     fill="#ec615b"
     id="path232" />
  <path
     d="m 1030.1086,228.4 c 3.1,11 5.7,22.7 7.9,35.1 11.4,65.2 3.4,123 -7.9,166.1 5.8,-0.4 11.9,-1.1 18.4,-2.2 13.8,-2.3 25.9,-5.9 35.9,-9.6 -1.4,-19.9 -1.8,-36.9 -1.8,-50.4 0.1,-37.7 3.4,-66.5 4.8,-78 1.8,-14 3.7,-25.7 5.3,-34.2 0.4,-2.4 0.8,-6.8 -1.3,-11.4 -2.4,-5.3 -6.9,-8.1 -8.8,-9.2 -6.5,-3.9 -13.1,-3.9 -16.7,-3.9 -8.6,-0.3 -20,-0.8 -35.8,-2.3 z"
     fill="#6d6c6c"
     opacity="0.14"
     id="path234" />
  <path
     d="m 1091.9086,252 c -17.7,45.9 -21.4,78.7 -21,100.8 0.1,8.3 1,28.2 -9.6,49.1 -6.5,12.7 -15,21.6 -21.5,27.2 6,-0.8 12.6,-2 19.7,-3.9 9.1,-2.4 17,-5.4 23.7,-8.3 -0.9,-25.8 -0.8,-53.8 0.9,-83.7 1.5,-29.2 4.3,-56.3 7.8,-81.2 z"
     fill="#6d6c6c"
     opacity="0.16"
     id="path236" />
  <path
     d="m 1078.3086,236.4 c 12.3,-5.4 29,10.4 39.8,20.5 11.8,11.1 35.7,33.6 36.9,70.4 1,30.7 -14.3,52.9 -21.9,62.2 -11.9,14.5 -25.4,22.1 -33.4,25.8 -0.1,3.4 -0.6,8.8 -2.9,14.7 -1.3,3.2 -7.9,20 -20.5,20.7 -1.7,0.1 -7.5,0.1 -14.2,-6.2 -0.4,0 -2.4,-0.3 -3.7,-2.1 -1.2,-1.7 -1.3,-4.2 -0.1,-6.2 -0.3,-0.2 -2.9,-1.5 -3.5,-4.6 -0.7,-3.4 1.6,-5.9 1.8,-6 0.1,-1.7 0.5,-3.9 2.1,-5 1.8,-1.2 3.7,-0.2 6.6,-0.4 1.9,-0.2 4.6,-0.9 7.8,-3.7 -3.6,-1 -11.7,-3.6 -11.5,-6.5 0.1,-3.4 11.8,-5.4 14.4,-5.9 6.4,-1.1 11.9,-0.9 15.6,-0.6 2.2,-4 5.4,-9.9 9.2,-17 6.4,-12 9.6,-18 11.5,-22.3 3.6,-8 7.6,-20.1 8.7,-37 -4.5,-4.4 -11.4,-10.7 -20.2,-17.6 -19,-14.8 -25.4,-15.1 -30.6,-23.5 -9.8,-15.7 -5.1,-43.9 8.1,-49.7 z"
     fill="#ffffff"
     stroke="#161616"
     stroke-miterlimit="10"
     stroke-width="2"
     id="path238" />
  <path
     d="m 1055.6086,424.4 c 1.6,7.8 13.6,6 18.4,3.2 1.2,-0.7 0.1,-2.7 -1.1,-1.9 -3.5,2.1 -13.9,4.4 -15.1,-1.8 -0.3,-1.5 -2.5,-0.9 -2.2,0.5 z"
     fill="#161616"
     id="path240" />
  <path
     d="m 1056.8086,436.9 c 6,4.3 14.8,2.3 21.1,-0.6 1.3,-0.6 0.2,-2.5 -1.1,-1.9 -5.6,2.5 -13.5,4.3 -18.8,0.6 -1.2,-0.9 -2.3,1.1 -1.2,1.9 z"
     fill="#161616"
     id="path242" />
  <path
     d="m 1061.3086,445.7 c 6.2,3 13.4,2.6 19.1,-1.4 1.2,-0.8 0.1,-2.8 -1.1,-1.9 -5,3.5 -11.3,4.1 -16.8,1.4 -1.3,-0.7 -2.5,1.2 -1.2,1.9 z"
     fill="#161616"
     id="path244" />
  <path
     d="m 1074.0086,240.2 c -2,6.8 21.4,13.3 41.9,35.3 7.1,7.6 21.6,23.1 25,46.1 4.3,28.5 -10.6,51.3 -16.1,59.5 -10.6,16.1 -23.5,25.6 -31.3,30.5 0,2.8 -0.4,13 -8.2,21.6 -1.6,1.8 -7.9,8.7 -17.1,9.7 -5.3,0.6 -10.1,-0.9 -10.3,-0.3 -0.1,0.6 3.6,1.4 8.4,4.7 3.1,2.1 3.2,3 4.7,3.7 6.2,2.9 16,-5.9 17.1,-6.8 10.2,-9.3 11.4,-23.1 11.6,-28.2 2.3,-1.3 5.4,-3.1 9,-5.5 3.7,-2.5 14.6,-9.7 23.2,-19.2 2.3,-2.5 14,-15.8 19.7,-37.1 2,-7.5 7.5,-29.2 -1.3,-52.9 -3.9,-10.3 -8.9,-17 -17.9,-28.7 -8,-10.5 -13.9,-15.7 -25.3,-25.8 -8.2,-7.3 -13.1,-10.7 -19.7,-11.1 -4.5,-0.3 -12.3,0.8 -13.4,4.5 z"
     fill="#6d6c6c"
     opacity="0.18"
     id="path246" />
  <path
     d="m 1142.5086,286 c 3.4,8.4 8.3,23.7 7.6,43.2 -0.7,21.2 -7.6,36.6 -10.3,41.9 -12.4,25 -32,38.4 -41.6,44 7.8,-2.9 19.1,-8.4 29.8,-18.7 31.3,-30.2 26.7,-72.8 26.3,-75.8 -1.8,-15 -7.2,-26.7 -11.8,-34.6 z"
     fill="#6d6c6c"
     opacity="0.18"
     id="path248" />
  <path
     d="m 1027.9086,159.4 c 6,20.1 8.2,31.8 16.7,50.2 4,8.6 7.8,15.4 10.5,19.9 -8.7,4.1 -22.8,9.4 -40.9,10.1 -10.7,0.4 -19.89997,-1 -26.99997,-2.6 0.7,-5.5 1.1,-12.4 0.6,-20.2 -0.7,-9.8 -2.8,-18.1 -4.8,-24.2 -9.6,-1.2 -19.3,-2.5 -28.9,-3.7 -1.9,-4.2 -3.8,-8.5 -5.7,-12.7 -2.6,-0.1 -5.3,-0.2 -7.9,-0.3 2,-5.8 5,-14.9 8.5,-26.2 6.5,-21.3 6.4,-24.3 9.9,-29.1 9.7,-13.1 31.4,-21.5 45.69997,-14.4 8.5,4.1 13.5,20.5 23.3,53.2 z"
     fill="#ffffff"
     stroke="#161616"
     stroke-miterlimit="10"
     stroke-width="2"
     id="path250" />
  <path
     d="m 940.70863,177.5 c 5,0.1 9.9,-0.3 14.8,-1 1.9,-0.3 1.1,-3.2 -0.8,-2.9 -4.7,0.7 -9.3,1 -14,0.9 -1.9,0 -1.9,3 0,3 z"
     fill="#161616"
     id="path252" />
  <path
     d="m 938.80863,139.3 c 2.8,-1.5 6.5,-0.7 8.3,1.9 1.1,1.6 3.7,0.1 2.6,-1.5 -2.8,-4 -8.1,-5.3 -12.4,-3 -1.7,0.9 -0.2,3.5 1.5,2.6 z"
     fill="#161616"
     id="path254" />
  <path
     d="m 962.40863,142.8 c 3.6,-1.1 7.5,0.1 9.6,3.3 1.1,1.6 3.7,0.1 2.6,-1.5 -2.9,-4.2 -8.1,-6.2 -13,-4.6 -1.8,0.5 -1.1,3.4 0.8,2.8 z"
     fill="#161616"
     id="path256" />
  <path
     d="m 963.10863,154 c -0.1,-1.1 0.1,-2.2 0.7,-3.2 0.1,-0.2 0.3,-0.5 0.5,-0.7 -0.4,-0.5 -0.6,-0.6 -0.5,-0.1 -0.2,0.2 -0.1,1.2 -0.2,1.5 -0.1,0.5 -0.3,1 -0.5,1.5 -0.1,0.2 -0.2,0.4 -0.3,0.5 0.5,0.9 0.8,1 1,0.3 0.4,-0.4 0.6,-1.3 0.9,-1.8 0.3,-0.6 0.6,-1.2 0.9,-1.8 0.8,-1.5 -1.1,-3 -2.4,-1.8 -0.7,0.7 -1.1,1.4 -1.4,2.3 -0.5,1.9 2.4,2.7 2.9,0.8 0.1,-0.5 0.3,-0.7 0.6,-1 -0.8,-0.6 -1.6,-1.2 -2.4,-1.8 -0.7,1.4 -1.5,2.8 -2.1,4.3 -0.5,1.1 -0.4,2.4 0.7,3.1 2.7,1.7 4.4,-1.8 4.9,-3.9 0.4,-2 0.4,-6.2 -2.9,-5.3 -2.6,0.8 -3.6,4.6 -3.5,6.9 0.2,2.1 3.2,2.1 3.1,0.2 z"
     fill="#161616"
     id="path258" />
  <path
     d="m 955.40863,125.8 c 0.7,-4.3 2.4,-11.5 7.1,-18.9 1.7,-2.6 5.2,-8.1 10.9,-11.8 10.9,-7.1 27.59997,-6.5 39.69997,2.2 11.9,8.5 17.8,23.7 15.2,38.9 -24.2,-3.4 -48.59997,-6.9 -72.89997,-10.4 z"
     fill="#5222d0"
     id="path260"
     style="fill:#ffbe30;fill-opacity:1" />
  <path
     d="m 915.60863,126.1 c 37.5,4.7 74.9,9.4 112.39997,14.1 5.7,0.7 5.7,-8.3 0,-9 -37.49997,-4.7 -74.89997,-9.4 -112.39997,-14.1 -5.8,-0.7 -5.7,8.3 0,9 z"
     fill="#161616"
     id="path262" />
  <path
     d="m 1004.1086,135.2 c -6.59997,2.4 -10.49997,7 -14.89997,12.3 -9.4,11.4 -6.6,15.6 -13.2,22.7 -10.5,11.3 -21.2,4.6 -30.6,15.7 -8,9.4 -6.9,22.1 -6.6,25 0.3,2.8 1.7,14.1 11,21.9 8.1,6.7 18.9,8.2 19.6,6.7 0.2,-0.5 -0.6,-1.9 -6.6,-5.9 1.7,1.2 4.5,2.7 8,3.4 4.1,0.7 8,0 8,-0.6 0,-0.5 -2.2,-0.4 -3.9,-2.2 -1,-1.1 -1.4,-2.3 -1.7,-3.4 3.3,2.1 7.4,4 11.3,2.8 10.7,-3.2 12.6,-26.9 13.2,-34.8 2,-25.4 -5.3,-39.3 3.59997,-48.3 0.7,-0.8 4.3,-4.4 8.3,-3.6 5,0.9 8.8,8.6 7.2,13.7 -1.4,4.4 -6.4,5.6 -6.1,6.5 0.5,1 8.9,-0.6 16,-6.2 2.6,-2 4.7,-3.7 5.8,-6.7 1.9,-5.3 -0.3,-11.3 -3.3,-14.9 -6.2,-7.2 -17.9,-6.7 -25.1,-4.1 z"
     fill="#161616"
     stroke="#161616"
     stroke-miterlimit="10"
     stroke-width="2"
     id="path264" />
  <path
     d="m 1014.0086,168 c -1.6,0.2 -3.9,0.2 -4,-0.3 -0.1,-0.3 0.5,-0.7 0.5,-0.7 0,0 -1.9,2.4 -4.3,2.7 -1.1,0.1 -2.1,-0.2 -2.8,-0.6 4.2,8.9 8.5,19.6 12.2,32 4,13.6 6.3,25.9 7.6,36.5 4.3,0 10.4,-0.5 17.4,-2.7 5.7,-1.8 10.2,-4.2 13.6,-6.3 -9,-14.1 -13.6,-25.4 -16.2,-33.1 -1.2,-3.6 -3.8,-12.1 -5,-16.3 -2.3,-7.6 -4.2,-13.9 -5.4,-18.1 -0.6,0.6 -1.7,1.5 -3,2.4 -1.9,1.4 -5.6,4 -10.6,4.5 z"
     fill="#6d6c6c"
     opacity="0.22"
     id="path266" />
  <path
     d="m 987.10863,90.7 c 9.7,1.9 16.99997,9.7 18.19997,18.8 1.3,10.9 -6.69997,18.4 -7.49997,19 10.39997,1.3 20.69997,2.5 31.09997,3.8 0.2,-2.4 0.3,-5.7 -0.4,-9.5 -2,-12.2 -9.2,-19.8 -10.7,-21.3 -2.4,-2.4 -10.9,-10.5 -23.59997,-11.2 -2.9,-0.1 -5.4,0.2 -7.1,0.4 z"
     fill="#321693"
     id="path268" />
  <path
     d="m 767.00863,528.4 c 0.5,5.4 0.9,10.9 1.4,16.3 l 509.09997,0.9 c 1.5,-5.4 3,-10.9 4.5,-16.3 -171.6,-0.3 -343.29997,-0.6 -514.99997,-0.9 z"
     fill="#ffffff"
     id="path270" />
  <path
     d="m 773.80863,529.1 h 5.4 c 1.9,0 1.9,-3 0,-3 -1.8,0 -3.6,0 -5.4,0 -2,0 -2,3 0,3 z"
     fill="#161616"
     id="path272" />
  <path
     d="m 768.30863,532 h 200.7 c 0,0 133.79997,0 200.69997,0 h 113.8 c 3.9,0 3.9,-6 0,-6 -66.9,0 -133.8,0 -200.7,0 -66.9,0 -133.79997,0 -200.69997,0 -37.9,0 -75.9,0 -113.8,0 -3.8,0 -3.8,6 0,6 z"
     fill="#161616"
     id="path274" />
  <path
     d="m 769.70863,546.8 h 395.19997 111.8 c 3.9,0 3.9,-6 0,-6 -131.7,0 -263.5,0 -395.19997,0 -37.3,0 -74.5,0 -111.8,0 -3.9,0 -3.9,6 0,6 z"
     fill="#161616"
     id="path276" />
  <path
     d="m 785.60863,561.4 v 251.3 71.8 c 0,3.9 6,3.9 6,0 0,-83.8 0,-167.6 0,-251.3 0,-23.9 0,-47.9 0,-71.8 0,-3.8 -6,-3.8 -6,0 z"
     fill="#161616"
     id="path278" />
  <path
     d="m 1203.4086,557.4 v 227.5 64.6 c 0,3.9 6,3.9 6,0 0,-75.8 0,-151.7 0,-227.5 0,-21.5 0,-43 0,-64.6 0,-3.9 -6,-3.9 -6,0 z"
     fill="#161616"
     id="path280" />
  <path
     d="m 372.30863,814.5 h 228.8 229.8 128.9 c 3.9,0 3.9,-6 0,-6 -76.3,0 -152.5,0 -228.8,0 -76.6,0 -153.2,0 -229.8,0 -43,0 -85.9,0 -128.9,0 -3.9,0 -3.9,6 0,6 z"
     fill="#161616"
     id="path282" />
  <path
     d="m 1074.8086,817.2 h 202.7 201.7 114.8 c 3.9,0 3.9,-6 0,-6 -67.6,0 -135.1,0 -202.7,0 -67.2,0 -134.5,0 -201.7,0 -38.3,0 -76.5,0 -114.8,0 -3.9,0 -3.9,6 0,6 z"
     fill="#161616"
     id="path284" />
  <path
     d="m 786.80863,561.3 v 245.8 70 c 0,3.9 6,3.9 6,0 0,-81.9 0,-163.9 0,-245.8 0,-23.3 0,-46.6 0,-70 0,-3.9 -6,-3.9 -6,0 z"
     fill="#161616"
     id="path286" />
  <path
     d="m 788.10863,562.6 v 244.8 69.7 c 0,3.9 6,3.9 6,0 0,-81.6 0,-163.2 0,-244.8 0,-23.2 0,-46.4 0,-69.7 0,-3.8 -6,-3.8 -6,0 z"
     fill="#161616"
     id="path288" />
  <path
     d="m 1202.9086,555.9 v 222.7 63.6 c 0,3.9 6,3.9 6,0 0,-74.2 0,-148.5 0,-222.7 0,-21.2 0,-42.4 0,-63.6 0,-3.8 -6,-3.8 -6,0 z"
     fill="#161616"
     id="path290" />
  <path
     d="M 1204.3086,557.3 V 778.1 841 c 0,3.9 6,3.9 6,0 0,-73.6 0,-147.2 0,-220.8 0,-21 0,-42 0,-62.9 0,-3.9 -6,-3.9 -6,0 z"
     fill="#161616"
     id="path292" />
  <path
     d="m 773.00863,547.3 c 5.2,6.3 9.8,12.9 13.9,19.9 2,3.3 7.2,0.3 5.2,-3 -4.4,-7.4 -9.4,-14.4 -14.9,-21.1 -2.5,-3 -6.7,1.2 -4.2,4.2 z"
     fill="#161616"
     id="path294" />
  <path
     d="m 793.30863,565.1 c 7.4,-6.2 14.7,-12.5 22.1,-18.7 2.9,-2.5 -1.3,-6.7 -4.2,-4.2 -7.4,6.2 -14.7,12.5 -22.1,18.7 -3,2.5 1.3,6.7 4.2,4.2 z"
     fill="#161616"
     id="path296" />
  <path
     d="m 1186.2086,550.4 c 6.2,3.9 12.4,7.8 18.6,11.7 3.3,2.1 6.3,-3.1 3,-5.2 -6.2,-3.9 -12.4,-7.8 -18.6,-11.7 -3.3,-2 -6.3,3.2 -3,5.2 z"
     fill="#161616"
     id="path298" />
  <path
     d="m 1222.3086,543.3 c -5.2,4.2 -10.2,8.7 -14.9,13.4 -2.7,2.7 1.5,7 4.2,4.2 4.7,-4.7 9.7,-9.2 14.9,-13.4 3,-2.4 -1.2,-6.6 -4.2,-4.2 z"
     fill="#161616"
     id="path300" />
  <path
     d="m 1190.9086,550.7 c 8,1.2 15.8,1.5 23.8,0.7 -0.5,-1.9 -1,-3.7 -1.5,-5.6 -3.3,2.1 -6.7,2.7 -10.6,3.1 -2.2,0.3 -4.4,3.3 -2.1,5.1 3.1,2.5 6.2,3.3 10.1,2.3 3.7,-0.9 2.2,-6.7 -1.6,-5.8 -1.5,0.6 -3,0.3 -4.3,-0.8 -0.7,1.7 -1.4,3.4 -2.1,5.1 4.8,-0.5 9.5,-1.2 13.6,-4 2.3,-1.5 1.7,-5.9 -1.5,-5.6 -7.4,0.7 -14.9,0.6 -22.3,-0.5 -3.7,-0.4 -5.3,5.4 -1.5,6 z"
     fill="#161616"
     id="path302" />
  <path
     d="m 1219.9086,545 c -2.8,-0.6 -5.6,-0.2 -8,1.4 -1.3,0.9 -1.9,2.6 -1.1,4.1 0.8,1.3 2.8,2 4.1,1.1 1.1,-0.8 2.2,-1.1 3.3,-0.8 1.6,0.3 3.2,-0.5 3.7,-2.1 0.5,-1.5 -0.4,-3.4 -2,-3.7 z"
     fill="#161616"
     id="path304" />
  <path
     d="m 779.80863,550.1 c 1.8,1.2 8.5,4.3 8.2,6.9 l 3,-3 c -0.4,0 -1.6,-4.6 -1.9,-5.4 -0.9,1.5 -1.7,3 -2.6,4.5 6,-0.3 11.7,-1.5 17.2,-3.7 -1,-1.7 -1.9,-3.3 -2.9,-5 -3.4,3.5 -7,6.8 -10.9,9.8 l 4.1,4.1 c 3.6,-6.1 -1.5,-11.1 -6.7,-13.7 -0.5,1.9 -1,3.7 -1.5,5.6 4.1,-0.2 8.2,-0.3 12.3,-0.1 3.9,0.2 3.8,-5.8 0,-6 -4.1,-0.2 -8.2,-0.2 -12.3,0.1 -2.8,0.2 -4.3,4.2 -1.5,5.6 1.8,0.9 6.2,2.8 4.6,5.5 -1.4,2.4 1.6,6 4.1,4.1 4.3,-3.3 8.4,-6.8 12.1,-10.7 1.9,-2 0,-6.2 -2.9,-5 -5.1,2 -10.2,3.2 -15.6,3.5 -2.4,0.1 -3.5,2.4 -2.6,4.5 1.7,3.8 1.6,8.4 7.1,8.3 1.8,0 2.8,-1.4 3,-3 0.8,-6 -7.1,-9.4 -11.1,-12 -3.4,-2.2 -6.4,3 -3.2,5.1 z"
     fill="#161616"
     id="path306" />
  <path
     d="m 812.60863,525.3 c 0,-4.9 0,-9.8 0,-14.8 0,-1.9 -3,-1.9 -3,0 v 14.8 c 0,2 3,2 3,0 z"
     fill="#e8e8e8"
     id="path308" />
  <path
     d="m 811.10863,511.8 h 83 c 1.9,0 1.9,-3 0,-3 -27.7,0 -55.3,0 -83,0 -1.9,0 -1.9,3 0,3 z"
     fill="#e8e8e8"
     id="path310" />
  <path
     d="m 892.60863,510.3 v 14.1 c 0,1.9 3,1.9 3,0 0,-4.7 0,-9.4 0,-14.1 0,-2 -3,-2 -3,0 z"
     fill="#e8e8e8"
     id="path312" />
  <path
     d="m 814.90863,517.4 h 63.5 c 1.9,0 1.9,-3 0,-3 -21.2,0 -42.3,0 -63.5,0 -1.9,0 -1.9,3 0,3 z"
     fill="#e8e8e8"
     id="path314" />
  <path
     d="m 829.00863,523.1 h 48.7 c 1.9,0 1.9,-3 0,-3 -16.2,0 -32.5,0 -48.7,0 -1.9,0 -1.9,3 0,3 z"
     fill="#e8e8e8"
     id="path316" />
  <path
     d="m 832.40863,510 c 0,-3.4 0,-6.7 0,-10.1 0,-1.9 -3,-1.9 -3,0 V 510 c 0,1.9 3,1.9 3,0 z"
     fill="#e8e8e8"
     id="path318" />
  <path
     d="m 832.80863,500.8 h 72.3 c 1.9,0 1.9,-3 0,-3 -24.1,0 -48.2,0 -72.3,0 -1.9,0 -1.9,3 0,3 z"
     fill="#e8e8e8"
     id="path320" />
  <path
     d="m 895.00863,511.1 h 9.4 c 1.9,0 1.9,-3 0,-3 -3.1,0 -6.3,0 -9.4,0 -1.9,0 -1.9,3 0,3 z"
     fill="#e8e8e8"
     id="path322" />
  <path
     d="m 903.60863,499.6 v 9.7 c 0,1.9 3,1.9 3,0 0,-3.2 0,-6.5 0,-9.7 0,-2 -3,-2 -3,0 z"
     fill="#e8e8e8"
     id="path324" />
  <path
     d="m 847.30863,505.8 h 17.3 c 1.9,0 1.9,-3 0,-3 -5.8,0 -11.5,0 -17.3,0 -2,0 -2,3 0,3 z"
     fill="#e8e8e8"
     id="path326" />
  <path
     d="m 877.10863,508.3 h 15.4 c 1.9,0 1.9,-3 0,-3 -5.1,0 -10.3,0 -15.4,0 -1.9,0 -1.9,3 0,3 z"
     fill="#e8e8e8"
     id="path328" />
  <path
     d="m 849.20863,496.4 c -2.4,-2.3 -2.9,-5.8 -2.7,-9 0.4,-5.3 5.2,-5.5 9.2,-3.9 1.8,0.7 2.6,-2.2 0.8,-2.9 -4.5,-1.8 -10.4,-1.7 -12.4,3.6 -1.7,4.5 -0.5,11 3,14.3 1.4,1.4 3.5,-0.8 2.1,-2.1 z"
     fill="#e8e8e8"
     id="path330" />
  <path
     d="m 855.20863,482 c 9.4,-4.2 13.3,11.6 5.2,15.6 -1.7,0.9 -0.2,3.4 1.5,2.6 11.6,-5.8 4.8,-26.6 -8.2,-20.8 -1.8,0.8 -0.2,3.4 1.5,2.6 z"
     fill="#e8e8e8"
     id="path332" />
  <path
     d="m 855.50863,481.2 c -0.5,-3.2 -1.7,-6.1 -3.6,-8.7 -1.1,-1.6 -3.7,-0.1 -2.6,1.5 1.7,2.4 2.8,5 3.3,8 0.3,1.9 3.2,1.1 2.9,-0.8 z"
     fill="#e8e8e8"
     id="path334" />
  <path
     d="m 854.10863,476.1 c 0.3,-0.8 0.7,-1.5 1.2,-2.2 0.2,-0.3 0.5,-0.7 0.8,-1 0.1,-0.2 0.3,-0.3 0.5,-0.5 -0.5,-1 -0.8,-1.2 -1,-0.7 -0.5,0.5 -1,1.8 -1.3,2.5 -0.5,0.9 -1.1,1.7 -1.7,2.5 -1.1,1.6 1.5,3.1 2.6,1.5 1.1,-1.5 2.1,-3.1 2.9,-4.8 0.7,-1.4 1.1,-3.2 -0.7,-3.9 -3,-1.1 -5.3,3.6 -6.1,5.7 -0.8,1.9 2.1,2.7 2.8,0.9 z"
     fill="#e8e8e8"
     id="path336" />
  <path
     d="m 1345.5086,677.4 c 0.4,4.7 0.8,9.5 1.2,14.2 46.1,-0.4 92.2,-0.8 138.3,-1.2 -0.5,-4.5 -1,-9 -1.5,-13.4 -46.1,0.2 -92,0.3 -138,0.4 z"
     fill="#ffffff"
     id="path338" />
  <path
     d="m 1346.4086,693.2 h 138.2 c 3.9,0 3.9,-6 0,-6 -46.1,0 -92.1,0 -138.2,0 -3.8,0 -3.9,6 0,6 z"
     fill="#161616"
     id="path340" />
  <path
     d="m 1347.3086,679.5 h 135.6 c 3.9,0 3.9,-6 0,-6 -45.2,0 -90.4,0 -135.6,0 -3.9,0 -3.9,6 0,6 z"
     fill="#161616"
     id="path342" />
  <path
     d="m 1342.6086,677.4 v 10.2 c 0,3.9 6,3.9 6,0 0,-3.4 0,-6.8 0,-10.2 0,-3.9 -6,-3.9 -6,0 z"
     fill="#161616"
     id="path344" />
  <path
     d="M 1481.6086,677.4 V 691 c 0,3.9 6,3.9 6,0 0,-4.5 0,-9.1 0,-13.6 0,-3.9 -6,-3.9 -6,0 z"
     fill="#161616"
     id="path346" />
  <path
     d="m 1414.2086,691.9 v 172.3 c 0,3.9 6,3.9 6,0 0,-57.4 0,-114.8 0,-172.3 0,-3.9 -6,-3.9 -6,0 z"
     fill="#161616"
     id="path348" />
  <path
     d="m 1414.0086,863.3 c -10.3,6.1 -20.6,12.2 -31,18.3 -3.3,2 -0.3,7.2 3,5.2 10.3,-6.1 20.6,-12.2 31,-18.3 3.4,-2 0.3,-7.2 -3,-5.2 z"
     fill="#161616"
     id="path350" />
  <path
     d="m 1415.7086,867.6 c 11.7,6.5 23.3,13.1 35,19.6 3.4,1.9 6.4,-3.3 3,-5.2 -11.7,-6.5 -23.3,-13.1 -35,-19.6 -3.4,-1.9 -6.4,3.3 -3,5.2 z"
     fill="#161616"
     id="path352" />
  <path
     d="m 1384.8086,889 c 22.2,-0.2 44.3,-0.9 66.5,-2 3.8,-0.2 3.9,-6.2 0,-6 -22.1,1.1 -44.3,1.8 -66.5,2 -3.9,0 -3.9,6 0,6 z"
     fill="#161616"
     id="path354" />
  <path
     d="m 1388.1086,694.1 c 9,12.8 17.2,26.2 24.6,40 1.8,3.4 7,0.4 5.2,-3 -7.4,-13.8 -15.6,-27.2 -24.6,-40 -2.2,-3.2 -7.4,-0.2 -5.2,3 z"
     fill="#161616"
     id="path356" />
  <path
     d="m 1448.2086,689.8 c -13.1,12.5 -24.3,26.7 -33.4,42.3 -2,3.3 3.2,6.4 5.2,3 8.9,-15.2 19.8,-28.9 32.5,-41 2.8,-2.7 -1.5,-7 -4.3,-4.3 z"
     fill="#161616"
     id="path358" />
  <path
     d="m 1203.8086,807.4 c -0.8,14.3 -1.5,28.6 -2.3,42.9 -38.2,16.6 -56.6,27.5 -55.1,32.5 1.7,6 31.1,3.9 88,-6.1 0.4,-24.5 0.8,-49 1.1,-73.5 -10.5,1.4 -21.1,2.8 -31.7,4.2 z"
     fill="#161616"
     id="path360" />
  <path
     d="m 1322.4086,575.7 c -8.5,7.6 -20.6,18.6 -34.7,32.2 -33.6,32.6 -58.3,56.5 -75,81.2 -13.8,20.5 -34.3,59.5 -35.9,123.3 13.8,3.8 31.2,7 51.4,6.8 6.8,-0.1 13.3,-0.5 19.2,-1.2 -2.6,-14.5 -4.7,-37.2 0.6,-63.8 3.7,-18.7 9.9,-33.7 15.5,-44.6 45,-20 75.4,-44.5 94.8,-63.2 19.6,-18.9 41.9,-40.5 35.9,-55.8 -5.5,-14.5 -34.8,-20.1 -71.8,-14.9 z"
     fill="#ec615b"
     id="path362" />
  <path
     d="m 1369.7086,575.8 c -15.1,20.1 -33.2,41.9 -54.9,64.1 -27.2,27.9 -54.1,50.4 -78.2,68.3 -8.4,36.9 -16.8,73.8 -25.2,110.6 3.6,0.6 7.7,1.1 12.2,1.1 9.1,0.2 16.9,-1.1 22.9,-2.7 -1.9,-12.6 -3.2,-29.9 -0.8,-50 3,-24.8 10.6,-44.3 16.8,-57.2 22.6,-10.4 40.5,-21 53.4,-29.4 0,0 40.4,-26.2 71.7,-66.4 0.7,-0.9 3.1,-4 5,-8.8 1.5,-3.9 3.4,-8.7 1.9,-13.7 -1.4,-4.5 -4.8,-7 -8.4,-9.5 -2.8,-1.9 -8.3,-5.2 -16.4,-6.4 z"
     fill="#6d6c6c"
     opacity="0.18"
     id="path364" />
  <path
     d="m 1261.7086,710.5 c -4.3,8 -8.5,16.4 -12.6,25.2 -13.8,29.7 -23.4,58.1 -30.1,83.9 9.2,-0.4 18.3,-0.8 27.5,-1.1 -2.1,-12.1 -3.7,-28.4 -1.9,-47.3 2.5,-26.7 10.6,-47.5 17.1,-60.7 z"
     fill="#6d6c6c"
     opacity="0.16"
     id="path366" />
  <path
     d="m 1265.5086,821.2 c 4.6,14.3 9.2,28.6 13.8,42.9 -34,20.4 -50.1,32.7 -48.2,36.8 2.3,5 31.6,-2.4 88,-22.2 -7.8,-22.7 -15.6,-45.4 -23.4,-68.1 -10.1,3.4 -20.2,7 -30.2,10.6 z"
     fill="#161616"
     id="path368" />
  <path
     d="m 1430.4086,595.1 c 7.1,36.1 -3.6,56.4 -8.7,64.2 -10.2,15.6 -23.8,20.4 -63.5,40.1 -15.5,7.7 -39.1,19.7 -68,35.6 2,12.7 5.2,27.3 10.3,43.2 4.8,15 10.4,28.1 15.8,39.1 -5.3,5.1 -16,14.1 -32.3,19.3 -17.6,5.7 -32.7,4 -40.1,2.7 -15.7,-31 -19.7,-58.2 -20.8,-74.8 -1.3,-20 -2.8,-42.7 8.9,-65.1 9,-17.2 17.7,-18.8 54.1,-46.6 54.7,-41.7 60.2,-57.3 88.4,-63.1 23.1,-4.7 43.6,0.8 55.9,5.4 z"
     fill="#ec615b"
     id="path370" />
  <path
     d="m 1393.0086,588.4 c 0.5,11.6 -0.4,29.8 -9.7,48.4 -7.8,15.7 -18.2,26.9 -52.5,50.1 -30.5,20.6 -54.8,36.5 -70.5,46.7 10,33.5 20,67 30,100.5 3,-1 6.6,-2.5 10.3,-4.6 6.8,-3.9 11.6,-8.6 14.7,-12.2 -4.4,-9.4 -8.8,-19.9 -12.7,-31.4 -6.4,-18.4 -10.4,-35.6 -12.9,-50.5 24.8,-13.8 42.2,-22.8 52.4,-27.9 15.2,-7.6 22.7,-11.4 30.4,-15.1 2.6,-1.2 8.4,-3.9 16,-7.9 8.5,-4.4 12.7,-6.5 16.5,-9.1 3.1,-2.1 10.9,-7.6 17.2,-16.7 9,-13 9.8,-26.6 10.4,-36.5 0.4,-6.4 0.3,-15.7 -2.1,-26.6 -5.2,-2.2 -12.2,-4.6 -20.6,-6 -6.5,-1.2 -12.2,-1.4 -16.9,-1.2 z"
     fill="#6d6c6c"
     opacity="0.22"
     id="path372" />
  <path
     d="m 1432.5086,615.1 c -1.6,5.3 -4.5,13 -9.6,21.3 -15.7,25.2 -39.7,35.2 -56.5,43.6 -19.9,10 -46.7,26.5 -76.5,55 8.4,-4.7 18.7,-10.3 30.7,-16.7 21.2,-11.3 31.7,-16.9 42.6,-22.1 8.5,-4 18.2,-8.3 32.7,-16 10.4,-5.5 16.1,-8.9 21.5,-15.2 6.1,-7.1 8.8,-14.2 10.6,-19 2.2,-6 5.3,-16.7 4.5,-30.9 z"
     fill="#6d6c6c"
     opacity="0.11"
     id="path374" />
  <path
     d="m 1289.5086,736 c 0.1,8.4 0.7,17.4 1.8,26.9 2.8,24.3 8.7,45.2 15,62.1 1.8,-1 3.9,-2.4 6.1,-4.3 1.4,-1.2 2.6,-2.4 3.5,-3.5 -4.2,-8.7 -8.3,-18.4 -12.2,-28.9 -6.9,-19 -11.3,-36.7 -14.2,-52.3 z"
     fill="#6d6c6c"
     opacity="0.17"
     id="path376" />
  <path
     d="m 1364.5086,399.3 c -12.5,4.2 -14.7,19.1 -23.1,36.1 0,0 -13.2,27 -42.1,49.2 -10.5,8.1 -33.2,22.4 -71.1,24.9 -3.7,-1.5 -9.4,-3.5 -16.6,-4.7 -10.3,-1.7 -24.7,-4.2 -34.4,4.1 -4.4,3.8 -9.3,11 -7.1,15.4 2.7,5.4 14.7,3.3 34.4,2.4 27.3,-1.2 26,1.8 45,0.6 17,-1.1 43.8,-2.7 71.7,-19 26.7,-15.5 40.5,-36.2 43.8,-41.5 6.4,-10 9.3,-18.1 15.2,-34.4 7.8,-21.4 6.5,-26.2 4.3,-29 -3.8,-5.2 -13,-6.5 -20,-4.1 z"
     fill="#ffffff"
     stroke="#161616"
     stroke-miterlimit="10"
     stroke-width="2"
     id="path378" />
  <path
     d="m 1216.3086,512.6 c -6.3,1.2 -15.4,1.5 -20,6.7 -2.6,3 -2.2,8.3 2.6,8.3 1.4,0 1.5,-2.3 0,-2.3 -2.4,-2.5 -2.2,-4.5 0.8,-5.9 1,-0.7 2.1,-1.2 3.3,-1.7 1.3,-0.5 2.6,-0.8 3.9,-1.1 3.3,-0.7 6.6,-1.3 10,-1.9 1.4,-0.2 0.8,-2.3 -0.6,-2.1 z"
     fill="#161616"
     id="path380" />
  <path
     d="m 1169.1086,521.9 c 5.9,7.4 15.1,-1.2 22.2,0.7 1.4,0.4 2,-1.8 0.6,-2.2 -3.1,-0.8 -5.8,-0.4 -8.9,0.6 -4.1,1.3 -9.1,3.5 -12.4,-0.7 -0.8,-1.1 -2.4,0.5 -1.5,1.6 z"
     fill="#161616"
     id="path382" />
  <path
     d="m 1172.7086,512.8 c 0.2,3 2.2,4.2 5.1,4.2 6.5,0 12.2,-2.6 18.7,-0.5 1.4,0.4 2,-1.7 0.6,-2.2 -3.3,-1.1 -6.5,-1.2 -9.9,-0.9 -2.4,0.2 -12,2.9 -12.2,-0.7 -0.2,-1.3 -2.4,-1.3 -2.3,0.1 z"
     fill="#161616"
     id="path384" />
  <path
     d="m 1182.5086,506.6 c 1,2.4 2.7,3.5 5.3,3.9 5.1,0.7 9.5,0.9 14.2,3 1.3,0.6 2.5,-1.4 1.1,-1.9 -2.6,-1.1 -5.2,-2.1 -8,-2.6 -3.2,-0.6 -9.1,0.4 -10.5,-3 -0.5,-1.3 -2.7,-0.7 -2.1,0.6 z"
     fill="#161616"
     id="path386" />
  <path
     d="m 1376.6086,399.6 c -5.7,1.4 -4,16.7 -7,30.9 -5,22.9 -21.3,37.2 -39.3,53 -12.2,10.7 -26.5,23.3 -48.3,28.9 -7.5,1.9 -19.9,4 -33.2,4.7 -18,0.9 -26.9,1.4 -27.5,1.3 -3,-0.3 -10.3,-1.1 -18.1,2.3 -1.6,0.7 -6,2.6 -5.7,4 0.4,2.1 10.8,1.5 34.2,1.3 17.3,-0.1 15.5,0.2 20.8,0 10,-0.4 27.4,-1 47,-8.1 27.9,-10 45.1,-27.7 53,-35.9 7.6,-8 11.8,-14.2 13.1,-16.1 6.2,-9.3 9.1,-17.6 14.8,-33.9 6.6,-19 6.6,-24 4,-27.9 -1.8,-2.3 -5.1,-5.2 -7.8,-4.5 z"
     fill="#6d6c6c"
     opacity="0.16"
     id="path388" />
  <path
     d="m 1171.8086,525.1 c 0.7,-1.8 3.7,-9.2 11.7,-13.1 12,-5.7 23.7,2 24.2,2.3 -2.6,1.4 -4.8,2.4 -6.4,3 -2.5,1.1 -3.5,1.3 -4.4,2.3 -1.5,1.9 -1.1,4.7 -0.7,6.4 -3.2,0.7 -7.4,1.2 -12.4,1 -4.8,-0.1 -8.9,-1 -12,-1.9 z"
     fill="#6d6c6c"
     opacity="0.13"
     id="path390" />
  <path
     d="m 1384.3086,416 c -4.2,14 -13.4,37.6 -33.6,60.4 -27.5,31.1 -59.8,43.2 -74.5,47.7 11.3,-2 53.3,-10.9 82.9,-49.3 17.5,-22.8 23.1,-46 25.2,-58.8 z"
     fill="#6d6c6c"
     opacity="0.14"
     id="path392" />
  <path
     d="m 1361.1086,400.1 c -6.3,6.9 -10.8,16 -13.7,49.6 -4.3,49.1 2.5,60.4 -5.1,84.7 -3.5,11.1 -10.7,27.2 -27.4,44.5 11.8,7.6 30.9,18 56.5,24 25.3,5.9 46.8,5 60.8,3.4 18,-55.3 16.5,-100 12.8,-127.5 -3.5,-26.2 -11.4,-86.5 -42.8,-94.1 -14.9,-3.7 -31.8,5.3 -41.1,15.4 z"
     fill="#ffffff"
     stroke="#161616"
     stroke-miterlimit="10"
     stroke-width="2"
     id="path394" />
  <path
     d="m 1394.2086,384.9 c -0.5,4.1 -1.2,10.2 -1.9,17.5 -4.7,48.9 0.8,57.8 -2.8,86.6 -2,16.4 -6.2,47.1 -27.8,75.7 -9,11.9 -18.5,20.2 -25.3,25.3 10.9,5.5 27.5,12.4 48.7,15.6 19,2.8 35.1,1.7 46.5,0 3.2,-9.2 7,-21.7 10,-36.7 5.6,-27.8 6,-51.5 5.3,-67.9 -1.3,-31.7 -4.2,-99.7 -39,-113.6 -5.4,-2.1 -10.3,-2.5 -13.7,-2.5 z"
     fill="#6d6c6c"
     opacity="0.12"
     id="path396" />
  <path
     d="m 1446.2086,528.5 c -1.2,-0.2 -4,12.2 -8.1,23.4 -5.2,14.5 -15,34 -35.3,55.1 9.8,-0.5 19.7,-0.9 29.5,-1.4 3.3,-10.6 7.5,-26.4 10.9,-45.9 2.2,-13.1 4.5,-30.9 3,-31.2 z"
     fill="#6d6c6c"
     opacity="0.24"
     id="path398" />
  <path
     d="m 1420.5086,398.8 c 11.3,2.2 16.1,20.1 20.1,35.8 4,15.8 11.7,48 0.9,90.4 -4.5,17.5 -8.5,33.8 -22.4,50.3 -18.1,21.6 -41.2,30 -52,33.1 -12,8.3 -18.2,12.5 -21.7,14.7 -2.5,1.6 -4,2.5 -6.7,4.4 -3.9,2.8 -4.6,3.7 -6.5,4.5 -2,0.8 -5.2,1.4 -10,-0.1 -0.4,0.1 -3.5,0.5 -5.8,-1.8 -1.4,-1.4 -1.7,-3 -1.7,-3.7 -0.3,0 -2.2,-0.2 -3.5,-1.8 -1.2,-1.5 -1.3,-3.6 -0.4,-5.4 -0.4,-0.8 -0.8,-1.9 -0.8,-3.3 -0.5,-7 7.8,-12.6 12.4,-15.8 4.9,-3.4 14.6,-8.8 29.6,-10.2 8.1,-4.3 20.2,-12 30.9,-24.9 3.4,-4 26.1,-32.2 24.3,-70.1 -0.7,-15.9 -6.4,-45.5 -9.6,-73.1 -0.2,-2 -0.8,-7.4 2.1,-12.6 4.2,-7.1 13.8,-11.7 20.8,-10.4 z"
     fill="#ffffff"
     stroke="#161616"
     stroke-miterlimit="10"
     stroke-width="2"
     id="path400" />
  <path
     d="m 1311.1086,619.9 c 1.4,0 1.5,-2.3 0,-2.3 -1.4,0 -1.4,2.3 0,2.3 z"
     fill="#161616"
     id="path402" />
  <path
     d="m 1310.0086,618.7 v 0.7 c 0.1,1.2 1.4,1.5 2.1,0.6 4,-5.3 9.4,-9.2 15.7,-11.2 1.4,-0.4 0.8,-2.6 -0.6,-2.2 -6.9,2.2 -12.7,6.4 -17.1,12.2 0.7,0.2 1.4,0.4 2.1,0.6 0,-0.2 0,-0.4 0,-0.7 0,-1.4 -2.3,-1.4 -2.2,0 z"
     fill="#161616"
     id="path404" />
  <path
     d="m 1315.6086,626.8 c 5.1,-5.8 11.4,-10.2 18.6,-13.1 1.3,-0.5 0.8,-2.7 -0.6,-2.2 -7.6,3 -14.2,7.5 -19.6,13.6 -0.9,1.2 0.7,2.8 1.6,1.7 z"
     fill="#161616"
     id="path406" />
  <path
     d="m 1323.1086,632.2 c 5.2,-5.9 11.2,-10.8 18,-14.8 1.2,-0.7 0.1,-2.7 -1.1,-1.9 -6.9,4.1 -13.1,9.1 -18.4,15.2 -1,1 0.6,2.6 1.5,1.5 z"
     fill="#161616"
     id="path408" />
  <path
     d="m 1416.1086,402.6 c -3.8,5.5 2.4,15.2 5.9,22.4 5.1,10.6 5.9,22.1 7.5,45.1 2.9,41.7 -16.5,77.4 -17.9,79.9 -17.7,31.5 -45.2,50.4 -53.8,56.2 -14.6,9.8 -35.3,20.5 -33.6,24.6 0.6,1.5 3.9,1.7 5.3,1.6 4.8,-0.2 6.8,-3.9 13.5,-8.6 3.5,-2.5 3.4,-1.7 9.4,-5.3 3.5,-2.1 8.5,-5.3 14.4,-9.8 13.4,-3.6 23.3,-9.1 29.5,-13.1 9,-5.8 26.3,-19.1 36.9,-42.3 3.6,-7.9 5,-14.2 7.8,-26.7 2.9,-13.1 7.5,-34.6 4.9,-62 -1.2,-12.4 -3.3,-20.7 -6.2,-31.6 -4.5,-17.5 -8.6,-32.6 -16.4,-33.6 -2.6,-0.4 -5.7,1.1 -7.2,3.2 z"
     fill="#6d6c6c"
     opacity="0.13"
     id="path410" />
  <path
     d="m 1444.6086,457.3 c -0.9,0 -0.7,10.5 -5,38.4 -3.9,25 -5.9,37.8 -11.4,49.5 -8,17 -18.9,27.7 -24.2,32.8 -15.1,14.6 -24.2,15.6 -47.3,32.6 -12.1,8.9 -21.1,17 -26.4,22 12,-8 23.9,-16 35.9,-23.9 11,-3.2 33.6,-11.6 51.8,-33.1 12.5,-14.8 17.4,-29.3 21.2,-40.6 13,-40.3 7,-77.7 5.4,-77.7 z"
     fill="#6d6c6c"
     opacity="0.16"
     id="path412" />
  <path
     d="m 1375.6086,355.2 c -4.5,3.1 -5.3,9.1 -6,15.7 -0.7,6.7 -0.8,18.4 5.3,32.9 3.8,0 8.5,-0.3 13.7,-1.3 4.1,-0.8 7.7,-1.9 10.7,-3 -0.4,-13.3 -0.7,-26.6 -1.1,-39.9 -8.4,-6.2 -17.2,-8.1 -22.6,-4.4 z"
     fill="#ffffff"
     stroke="#161616"
     stroke-miterlimit="10"
     stroke-width="2"
     id="path414" />
  <path
     d="m 1351.8086,288.5 c -7,4 -10,10.7 -15.9,23.7 -6.6,14.8 -11.2,27.6 -13,37 -0.3,1.4 0.4,2.8 1.7,3.4 1.7,0.8 4.7,1.1 6.3,1.5 0,3.9 0.5,10.6 4,17.8 6.4,13.1 18.2,18.4 21.7,19.8 11.1,-1.9 19.3,-5.7 24.2,-8.6 4.5,-2.5 10.3,-5.9 16,-12.5 5.1,-6 7.8,-12 9.2,-16 2.1,0 5.3,-0.2 8.6,-2 6.8,-3.7 12.6,-13.4 9,-19.3 -2.7,-4.3 -10.1,-6.1 -17.7,-3.3 0.1,-3.2 0,-7.6 -1.1,-12.8 -0.3,-1.3 -2.4,-10.8 -7.2,-17.5 -9.2,-12.9 -31.6,-19.3 -45.8,-11.2 z"
     fill="#ffffff"
     stroke="#161616"
     stroke-miterlimit="10"
     stroke-width="2"
     id="path416" />
  <path
     d="m 1326.6086,333.8 c -2.5,-3.9 -8,-13.7 -7.2,-26.7 0.3,-4.4 0.9,-12.8 7,-20.7 7.4,-9.6 17.7,-12.1 20.7,-12.7 1.4,-2.3 3.8,-5.7 7.8,-8.5 1.6,-1.1 6,-3.8 16.8,-4.4 5.7,-0.3 14.4,-0.1 24.8,2.9 8.1,2.4 13.5,5.8 16.8,8.5 12.7,10 11.7,17.9 27.8,34.1 3.7,3.7 6.3,5 11.9,10.5 5.9,5.7 10.6,11.2 13.2,14.5 5.9,7.5 17,21.7 19.1,40.9 0.7,6.5 2.7,24.8 -8.7,38.8 -15.5,19.1 -50.5,20.6 -71.8,5.4 -4,-2.8 -20.6,-14.8 -19.7,-34.1 0.8,-17.4 15.3,-27.8 17.3,-29.3 1.7,0.7 5.2,1.8 8.6,0.6 7.1,-2.6 10.1,-13.5 6.4,-19 -1.5,-2.2 -3.9,-3.1 -4.6,-3.3 -5.8,-2 -11.2,2.3 -11.6,2.6 -7.8,-5.7 -13.7,-11.2 -17.8,-15.5 -5.6,-5.7 -8.4,-9.5 -9.4,-10.9 -3.1,-4.4 -5.4,-8.4 -6.9,-11.4 -4.6,1.1 -10.6,3.2 -16.9,7.3 -1.5,0.9 -6.5,4.3 -11.7,10.2 -0.6,0.7 -3.5,4 -6.6,9 -2.3,4.3 -4.1,8.1 -5.3,11.2 z"
     fill="#5222d0"
     id="path418" />
  <path
     d="m 1347.0086,342.7 c 0,-0.1 0,-0.1 0,0 0,0.1 0.1,0.3 0.1,0.5 v 0.1 c -0.1,0.2 -0.2,0.3 -0.3,0.5 0.2,-0.2 0,-0.1 -0.4,0.2 -0.2,-0.1 -0.4,-0.1 -0.6,-0.2 -0.1,-0.1 -0.2,-0.1 -0.2,-0.2 -0.1,-0.2 -0.1,-0.4 -0.2,-0.6 v -0.1 c 0.1,-0.2 0.2,-0.3 0.3,-0.5 0.2,0 0.4,-0.1 0.6,-0.1 l 0.8,0.8 v 0.3 c -0.5,0.1 -1,0.3 -1.5,0.4 0,0 -0.1,-0.1 -0.1,-0.1 -0.1,-0.2 -0.2,-0.3 -0.3,-0.5 0.1,-0.3 0.3,-0.6 0.4,-0.8 0.2,-0.1 0.4,-0.1 0.6,-0.2 h -0.1 c -0.6,0.1 -1.1,0.5 -1.1,1.1 0,0.6 0.5,1.2 1.1,1.1 0.6,-0.1 1.2,-0.4 1.3,-1.1 0.2,-0.6 -0.1,-1.3 -0.7,-1.6 -0.6,-0.3 -1.2,-0.1 -1.5,0.4 -0.6,0.8 -0.2,2.1 0.8,2.2 0.9,0.1 1.7,-0.6 1.7,-1.5 0,-0.9 -0.9,-1.5 -1.8,-1.3 -0.9,0.3 -1.3,1.2 -0.9,2.1 0.3,0.6 1.1,0.7 1.5,0.4 0.7,-0.1 0.7,-0.8 0.5,-1.3 z"
     fill="#161616"
     id="path420" />
  <path
     d="m 1355.8086,340.3 c 0.2,1 -0.2,0.9 -1.1,-0.3 0.2,-0.1 0.3,-0.2 0.5,-0.3 0.4,0 0.7,0.2 0.9,0.7 0.1,-0.6 -0.6,-1.1 -1.1,-1.1 -0.7,0 -1.1,0.5 -1.1,1.1 -0.1,0.9 0.8,1.6 1.6,1.5 1,0 1.6,-1 1.3,-1.9 -0.3,-0.9 -1.3,-1.4 -2.2,-0.9 -0.9,0.5 -1,1.4 -0.6,2.3 0.2,0.6 1.1,0.7 1.5,0.4 0.5,-0.3 0.6,-0.9 0.3,-1.5 z"
     fill="#161616"
     id="path422" />
  <path
     d="m 1353.0086,346.9 c 0.6,0 0.7,0.2 0.3,0.7 0,0.4 -0.1,0.6 -0.4,0.6 -0.1,-0.4 -0.1,-0.9 -0.2,-1.3 0.3,-0.1 0.5,-0.1 0.8,0.1 -1,-1.1 -2.6,0.5 -1.6,1.6 0.7,0.8 2,0.6 2.5,-0.3 0.5,-0.9 0,-2 -0.9,-2.3 -1,-0.3 -2,0.4 -2.1,1.4 0,1.1 1.1,1.9 2.1,1.7 1.5,-0.4 0.9,-2.6 -0.5,-2.2 z"
     fill="#161616"
     id="path424" />
  <path
     d="m 1334.5086,368.7 c 6.2,-1.1 11.6,-4.7 15.1,-10 0.8,-1.2 -1.1,-2.3 -1.9,-1.1 -3.2,4.8 -8,7.9 -13.7,9 -1.5,0.2 -0.9,2.3 0.5,2.1 z"
     fill="#161616"
     id="path426" />
  <path
     d="m 1368.5086,299.4 c 1.8,3.6 4.1,8.4 6.7,14.1 8,17.4 8.9,22.2 9.2,26.4 0.4,6.3 -0.7,11.1 -1.6,14.5 -4.6,18.6 -18.1,31 -24.8,36.4 3.3,-0.4 7.3,-1.1 11.7,-2.6 6.8,-2.3 12.1,-5.4 15.7,-8 -0.3,3.1 -0.3,7.9 1.5,13.3 2,6.4 5.6,10.4 8.6,14.2 2.3,2.9 6.4,7.5 12.9,11.2 6.3,3.7 12.2,5 15.8,5.6 8.4,1.9 15.4,1.7 20.1,1.3 6.5,-0.6 16.8,-1.5 26.4,-8.9 2.4,-1.9 7.9,-6.2 11.2,-13.8 0.8,-1.8 2,-5.2 2.6,-14.2 0.7,-10.6 1.2,-18 -1.3,-27.4 -2.6,-9.7 -7.3,-17.2 -11.9,-22.7 -8,21.5 -27.3,33.9 -44.7,31.3 -13.6,-2.1 -21.8,-12.8 -24.2,-16.1 5.3,1.2 10.7,-0.4 13.8,-4.3 3.7,-4.4 4.8,-12.3 0,-16.5 -3.8,-3.3 -10.1,-3.4 -14.8,0.3 -5.7,-4.1 -12.2,-9.5 -18.8,-16.5 -5.9,-6.1 -10.5,-12.2 -14.1,-17.6 z"
     fill="#6d6c6c"
     opacity="0.1"
     id="path428"
     style="fill:#ffbe30;fill-opacity:1" />
  <path
     d="m 1345.4086,331.9 c -0.6,-1 -0.7,-2.5 0.3,-3.3 -0.3,0.1 -0.5,0.2 -0.8,0.3 h 0.3 c -0.3,-0.1 -0.5,-0.2 -0.8,-0.3 1,0.8 0.2,3.9 -0.2,4.8 0.2,-0.2 0.4,-0.3 0.7,-0.5 -0.1,0 -0.2,0.1 -0.2,0.1 0.3,0 0.6,0.1 0.9,0.1 -0.6,-0.3 -0.5,-1.9 -0.4,-2.3 0.1,-0.9 0.3,-1.7 0.7,-2.4 -0.5,0.1 -1,0.3 -1.5,0.4 0.5,0.4 0.6,1.2 0.5,1.8 0,0.3 -0.1,0.6 -0.2,0.8 -0.1,0.5 -0.3,0.5 0.2,0.6 0.2,0.2 0.4,0.3 0.7,0.5 0,-0.1 -0.1,-0.1 -0.1,-0.2 -0.9,-1.1 -2.8,0 -1.9,1.1 0.5,0.6 1.2,1 2,0.7 0.9,-0.3 1.2,-1.2 1.4,-2 0.5,-2 0.5,-4 -1.3,-5.3 -0.5,-0.4 -1.3,-0.1 -1.5,0.4 -1,2 -1.6,5.1 -0.3,7.1 0.5,0.8 1.6,1.2 2.4,0.6 0.9,-0.7 1,-2.5 1.1,-3.5 0.2,-1.5 -0.1,-5.8 -2.7,-4.5 -2.1,1.1 -1.9,4.5 -0.9,6.2 0.4,1.2 2.4,0 1.6,-1.2 z"
     fill="#161616"
     id="path430" />
  <path
     d="m 1340.8086,321.7 c 5.3,-0.9 9.8,2 13.9,5.1 1.2,0.9 2.3,-1.1 1.1,-1.9 -4.6,-3.5 -9.6,-6.2 -15.6,-5.3 -1.4,0.1 -0.8,2.3 0.6,2.1 z"
     fill="#161616"
     id="path432" />
  <path
     d="m 1346.8086,357.7 c 1.1,0.7 2.1,1.6 3,2.6 1,1.1 2.6,-0.5 1.6,-1.6 -1,-1.1 -2.2,-2.1 -3.5,-3 -1.2,-0.8 -2.3,1.2 -1.1,2 z"
     fill="#161616"
     id="path434" />
  <path
     style="fill:#ffbe30;fill-opacity:1;stroke:#000000;stroke-width:1.04466"
     d="m 1424.2597,424.12153 c -9.8351,-2.13704 -20.2348,-8.08841 -27.1094,-15.5138 -14.0728,-15.20036 -15.1613,-30.8987 -3.2189,-46.42377 6.4229,-8.34968 7.0655,-8.45799 13.2841,-2.2393 2.912,2.91198 7.901,6.48779 11.0867,7.94625 5.0182,2.2974 6.9357,2.60286 14.3493,2.2859 6.8414,-0.29249 9.7917,-0.97201 14.7144,-3.3891 7.6676,-3.76487 16.8395,-12.83946 21.1489,-20.9245 l 3.279,-6.15178 2.9251,4.60313 c 1.6089,2.53173 4.3642,8.12888 6.1231,12.43811 3.088,7.56577 3.1966,8.37663 3.1624,23.59881 -0.035,15.60755 -0.069,15.83147 -3.3951,22.58832 -3.9307,7.98442 -10.6142,14.58547 -18.3244,18.09846 -9.9607,4.53833 -25.5217,5.80009 -38.0252,3.08327 z"
     id="path26787" />
  <path
     style="fill:#ffbe30;fill-opacity:1;stroke:#000000;stroke-width:1.04466"
     d="m 1418.2234,366.28937 c -3.4488,-1.74536 -8.1277,-5.07522 -10.3975,-7.3997 l -4.1269,-4.22632 h 3.7882 c 10.194,0 16.1287,-14.91155 8.709,-21.88206 -2.5586,-2.40366 -2.9682,-2.43032 -13.8585,-0.90206 -4.3171,0.60583 -25.8994,-20.45496 -31.4695,-30.70907 -2.6628,-4.90189 -2.9479,-5.10412 -6.4424,-4.56959 -11.2478,1.72049 -26.9854,14.64883 -33.9381,27.87983 -2.316,4.40723 -4.2702,7.01782 -4.8324,6.45555 -0.5193,-0.51922 -1.9463,-3.73722 -3.1712,-7.1511 -2.5528,-7.1149 -3.0437,-19.28541 -1.0578,-26.22552 2.7511,-9.61426 12.8391,-19.79503 22.0802,-22.28341 2.5407,-0.68416 4.9742,-2.38564 6.7595,-4.72631 4.781,-6.26817 9.8949,-8.18762 23.0395,-8.6476 13.0655,-0.45721 22.2596,1.2115 31.088,5.64247 8.8481,4.44078 13.8706,9.25669 21.7948,20.89807 4.1922,6.15884 10.9264,14.25761 15.3677,18.48196 13.1807,12.53674 21.1331,20.82149 25.4828,26.54759 l 4.1382,5.44768 -3.4302,6.04362 c -1.8865,3.32399 -6.2338,8.80587 -9.6607,12.18195 -8.0988,7.97891 -15.3637,11.33655 -25.7365,11.89469 -7.1262,0.38345 -8.4378,0.12807 -14.1262,-2.75067 z"
     id="path26826" />
  <path
     style="fill:#146f5e;fill-opacity:1;stroke:#000000;stroke-width:1.04466"
     d="m 738.67227,262.55658 c -8.90576,-1.57077 -18.42526,-2.87882 -21.15444,-2.90679 -2.72919,-0.028 -4.94421,-0.40342 -4.92229,-0.83434 0.0219,-0.43093 8.13113,-5.55948 18.02045,-11.39679 l 17.98058,-10.6133 1.79305,3.82298 c 2.38717,5.08973 5.23321,17.95204 4.812,21.7472 l -0.33706,3.03699 z"
     id="path38151" />
  <path
     style="fill:#146f5e;fill-opacity:1;stroke:#000000;stroke-width:1.04466"
     d="m 552.85379,363.04894 c -1.30651,-18.5082 -2.22319,-33.7791 -2.03707,-33.93534 0.82431,-0.69197 13.44041,-1.34127 13.82948,-0.71175 0.23847,0.38586 1.20761,10.02265 2.15365,21.41509 0.94603,11.39244 2.35735,26.19274 3.13626,32.88957 0.7789,6.69682 1.32795,12.26428 1.22011,12.37213 -0.10785,0.10785 -3.73554,0.51682 -8.06153,0.90883 l -7.86543,0.71275 z"
     id="path38190" />
  <path
     style="fill:#146f5e;fill-opacity:1;stroke:#000000;stroke-width:1.04466"
     d="m 1009.7625,129.49684 c -5.1711,-0.74025 -9.4864,-1.38633 -9.5896,-1.43572 -0.1032,-0.0494 0.9191,-2.08773 2.2717,-4.52963 1.3526,-2.4419 2.7856,-6.22146 3.1845,-8.39902 1.4973,-8.17359 -3.8211,-18.33034 -11.89385,-22.71437 l -3.82135,-2.075237 5.22332,0.612458 c 16.70848,1.95914 31.48108,17.376309 32.71568,34.143169 l 0.4423,6.00681 -4.5653,-0.13127 c -2.511,-0.0722 -8.7963,-0.73694 -13.9674,-1.47719 z"
     id="path38229" />
  <path
     d="m 2.925,865.89226 h 227.3 c 3.9,0 3.9,-6 0,-6 -75.8,0 -151.599999,0 -227.3,0 -3.9,0 -3.9,6 0,6 z"
     fill="#e8e8e8"
     id="path2-9" />
  <path
     d="m 1841.5332,849.17764 h 227.3 c 3.9,0 3.9,-6 0,-6 -75.8,0 -151.6,0 -227.3,0 -3.9,0 -3.9,6 0,6 z"
     fill="#e8e8e8"
     id="path2-3" />
  <path
     d="m 1706.1542,930.66142 h 227.3 c 3.9,0 3.9,-6 0,-6 -75.8,0 -151.6,0 -227.3,0 -3.9,0 -3.9,6 0,6 z"
     fill="#e8e8e8"
     id="path2-0" />
  <path
     d="m 137.0693,930.66142 h 227.3 c 3.9,0 3.9,-6 0,-6 -75.8,0 -151.6,0 -227.3,0 -3.9,0 -3.9,6 0,6 z"
     fill="#e8e8e8"
     id="path2-4" />
</svg>
