<?xml version="1.0" encoding="UTF-8" standalone="no"?>
<!-- Creator: CorelDRAW -->

<svg
   xml:space="preserve"
   width="243.61571mm"
   height="114.95869mm"
   version="1.1"
   style="clip-rule:evenodd;fill-rule:evenodd;image-rendering:optimizeQuality;shape-rendering:geometricPrecision;text-rendering:geometricPrecision"
   viewBox="0 0 24361.849 11495.869"
   id="svg1562"
   sodipodi:docname="teaching.svg"
   inkscape:version="1.1.2 (b8e25be8, 2022-02-05)"
   xmlns:inkscape="http://www.inkscape.org/namespaces/inkscape"
   xmlns:sodipodi="http://sodipodi.sourceforge.net/DTD/sodipodi-0.dtd"
   xmlns="http://www.w3.org/2000/svg"
   xmlns:svg="http://www.w3.org/2000/svg"><sodipodi:namedview
   id="namedview1564"
   pagecolor="#ffffff"
   bordercolor="#666666"
   borderopacity="1.0"
   inkscape:pageshadow="2"
   inkscape:pageopacity="0.0"
   inkscape:pagecheckerboard="0"
   inkscape:document-units="mm"
   showgrid="false"
   inkscape:zoom="1.6573406"
   inkscape:cx="437.14612"
   inkscape:cy="217.51715"
   inkscape:window-width="1796"
   inkscape:window-height="1035"
   inkscape:window-x="0"
   inkscape:window-y="23"
   inkscape:window-maximized="0"
   inkscape:current-layer="Layer_x0020_1" />
 <defs
   id="defs1111">
  <style
   type="text/css"
   id="style1109">
   <![CDATA[
    .fil20 {fill:#BDBBB8;fill-rule:nonzero}
    .fil19 {fill:#D9D7CF;fill-rule:nonzero}
    .fil0 {fill:#F8E9D0;fill-rule:nonzero}
    .fil6 {fill:#FFCC8F;fill-rule:nonzero}
    .fil7 {fill:#D43408;fill-rule:nonzero}
    .fil12 {fill:#F34150;fill-rule:nonzero}
    .fil13 {fill:#CA0100;fill-rule:nonzero}
    .fil2 {fill:#EE0E22;fill-rule:nonzero}
    .fil18 {fill:#464950;fill-rule:nonzero}
    .fil15 {fill:#C0CCB6;fill-rule:nonzero}
    .fil14 {fill:#A5B6B6;fill-rule:nonzero}
    .fil10 {fill:#6A8377;fill-rule:nonzero}
    .fil11 {fill:#8B9FA4;fill-rule:nonzero}
    .fil16 {fill:#CDEBF5;fill-rule:nonzero}
    .fil9 {fill:#507483;fill-rule:nonzero}
    .fil8 {fill:#18503C;fill-rule:nonzero}
    .fil21 {fill:#67A685;fill-rule:nonzero}
    .fil4 {fill:#13528A;fill-rule:nonzero}
    .fil5 {fill:#3685C7;fill-rule:nonzero}
    .fil23 {fill:#105AA1;fill-rule:nonzero}
    .fil22 {fill:#2279C2;fill-rule:nonzero}
    .fil17 {fill:#019DCA;fill-rule:nonzero}
    .fil3 {fill:black;fill-rule:nonzero}
    .fil1 {fill:white;fill-rule:nonzero}
   ]]>
  </style>
 </defs>
 <g
   id="Layer_x0020_1"
   inkscape:label="Layer 1"
   inkscape:groupmode="layer"
   transform="translate(3780.8544,-0.06550979)">
  <metadata
   id="CorelCorpID_0Corel-Layer" />
  <g
   id="vc013844.ai">
   <g
   id="g1558">
    <polygon
   class="fil0"
   points="14264,4906 15732,5312 15376,599 2822,2789 2865,5120 "
   id="polygon1114" />
    <path
   class="fil1"
   d="m 15386,129 c -2777,542 -2563,2586 -2454,3072 l 813,45 c 322,-463 1287,-869 1806,-779 z"
   id="path1116" />
    <path
   class="fil2"
   d="m 1951,5255 -636,2594 13458,2371 -486,-5314 c 0,0 -1219,-610 -5171,-588 -3951,23 -7165,937 -7165,937 z"
   id="path1118" />
    <path
   class="fil1"
   d="m 10116,994 152,-385 c 0,0 165,-183 348,-147 183,37 220,275 220,275 l -30,220 h 463 c 0,0 495,116 550,775 55,660 -488,715 -488,715 l 6,171 73,12 37,519 -611,49 -183,-361 -275,6 -222,412 -529,22 -98,-638 61,-37 -36,-430 c 0,0 -122,171 -134,324 -12,152 24,311 24,311 l -397,36 v -268 c 0,0 -207,-434 -73,-910 134,-476 550,-653 550,-653 z"
   id="path1120" />
    <path
   class="fil3"
   d="m 13698,3268 c 0,0 169,-305 835,-621 666,-316 999,-271 999,-271 l -16,113 c 0,0 -407,0 -926,249 -519,248 -768,564 -768,564 z"
   id="path1122" />
    <polygon
   class="fil3"
   points="11340,3156 11304,2724 10706,2706 10962,3173 "
   id="polygon1124" />
    <polygon
   class="fil3"
   points="10104,3252 10297,2712 9680,2736 9725,3257 "
   id="polygon1126" />
    <path
   class="fil3"
   d="m 13850,812 c 0,0 -716,531 -829,1231 -113,700 17,1168 17,1168 l -113,-11 c 0,0 -181,-869 113,-1524 293,-655 649,-830 649,-830 z"
   id="path1128" />
    <polygon
   class="fil4"
   points="11237,2742 11255,1076 9503,1124 9753,2736 "
   id="polygon1130" />
    <polygon
   class="fil5"
   points="9688,2749 9491,1118 10370,1094 10480,2742 "
   id="polygon1132" />
    <polygon
   class="fil6"
   points="10617,1042 10526,1030 10471,1213 10208,1158 10379,737 10697,810 "
   id="polygon1134" />
    <polygon
   class="fil1"
   points="10013,3223 10143,2834 9793,2837 9824,3235 "
   id="polygon1136" />
    <path
   class="fil3"
   d="m 11229,1074 v 794 l -430,289 25,209 c 0,0 751,134 886,-449 136,-584 -481,-843 -481,-843 z"
   id="path1138" />
    <polygon
   class="fil6"
   points="10618,2335 10773,2270 10741,2171 10580,2167 "
   id="polygon1140" />
    <path
   class="fil3"
   d="m 10165,1167 162,-467 c 0,0 95,-137 232,-119 138,18 162,199 162,199 l -49,323 -91,-31 -40,162 -85,-18 63,-241 83,24 30,-213 c 0,0 7,-83 -94,-98 -101,-15 -141,79 -141,79 l -146,425 z"
   id="path1142" />
    <path
   class="fil3"
   d="m 9509,1118 385,763 c 0,0 -290,54 -419,249 -128,196 -141,345 -141,345 l -250,-20 c 0,0 -101,-365 -20,-750 81,-384 445,-587 445,-587 z"
   id="path1144" />
    <polygon
   class="fil3"
   points="9320,2697 9280,2515 9145,2522 9138,2725 "
   id="polygon1146" />
    <path
   class="fil1"
   d="m 9496,1265 92,617 c 0,0 -150,124 -218,239 -67,115 -101,263 -101,263 l -105,-7 c 0,0 -77,-388 -13,-651 64,-263 345,-461 345,-461 z"
   id="path1148" />
    <path
   class="fil1"
   d="m 10882,2184 10,116 c 0,0 256,49 500,-82 244,-132 260,-382 260,-382 l -302,46 z"
   id="path1150" />
    <path
   class="fil3"
   d="m 10972,2385 c 105,0 190,-85 190,-190 0,-105 -85,-191 -190,-191 -105,0 -190,86 -190,191 0,105 85,190 190,190 z"
   id="path1152" />
    <path
   class="fil1"
   d="m 10966,2314 c 69,0 125,-56 125,-125 0,-70 -56,-126 -125,-126 -69,0 -126,56 -126,126 0,69 57,125 126,125 z"
   id="path1154" />
    <path
   class="fil3"
   d="m 10949,2059 3,140 116,46 -55,-82 c 0,0 -65,-123 -64,-104 z"
   id="path1156" />
    <polygon
   class="fil3"
   points="9301,2102 9106,2038 9112,2147 9267,2196 "
   id="polygon1158" />
    <polygon
   class="fil3"
   points="9463,2056 9118,1763 9096,1861 9408,2123 "
   id="polygon1160" />
    <path
   class="fil3"
   d="m 9130,1650 c 0,0 122,55 238,46 116,-10 214,-76 214,-76 l 39,94 c 0,0 -100,40 -225,64 -126,25 -269,-36 -269,-36 z"
   id="path1162" />
    <path
   class="fil3"
   d="m 9185,1516 c 0,0 61,58 183,61 122,3 205,-37 205,-37 l 3,-92 c 0,0 -116,50 -199,43 -82,-6 -122,-36 -122,-36 z"
   id="path1164" />
    <path
   class="fil1"
   d="m 2602,3438 c 0,0 982,-576 1784,-170 802,407 517,1789 517,1789 l -1307,131 c 0,0 180,-655 -204,-1005 -384,-350 -688,-215 -688,-215 z"
   id="path1166" />
    <polygon
   class="fil7"
   points="9404,9266 9133,6760 5362,6602 4188,8295 "
   id="polygon1168" />
    <path
   class="fil8"
   d="m 2825,3749 c 69,0 125,-56 125,-125 0,-68 -56,-124 -125,-124 -68,0 -124,56 -124,124 0,69 56,125 124,125 z"
   id="path1170" />
    <path
   class="fil3"
   d="m 1276,5450 c 0,0 -232,48 -576,164 C 356,5729 23,5913 23,5913 L 0,5823 c 0,0 214,-125 632,-271 418,-147 610,-170 610,-170 z"
   id="path1172" />
    <path
   class="fil3"
   d="m 2831,3285 c 0,0 1028,-446 1705,6 677,451 373,1761 373,1761 l -74,-17 c 0,0 288,-1411 -451,-1733 -740,-322 -1553,73 -1553,73 z"
   id="path1174" />
    <path
   class="fil3"
   d="m 12071,4487 c 0,0 1350,201 1975,382 625,181 1320,481 1320,481 l 50,-83 c 0,0 -812,-354 -1434,-506 -623,-153 -1902,-382 -1902,-382 z"
   id="path1176" />
    <path
   class="fil9"
   d="m 9602,8557 260,-2148 3127,58 c 0,0 294,-33 384,69 90,101 89,406 89,406 l 35,1748 -2393,217 -56,-1174 440,-59 -158,725 1693,-71 -180,-1332 -97,-4 -2252,-86 -56,657 z"
   id="path1178" />
    <polygon
   class="fil3"
   points="12808,8339 13034,8348 12859,6987 10483,6897 10477,6982 12789,7058 "
   id="polygon1180" />
    <polygon
   class="fil10"
   points="13049,4797 12947,3340 13568,3329 13342,5339 11570,5328 11443,8489 11093,8918 10912,4583 "
   id="polygon1182" />
    <polygon
   class="fil3"
   points="13339,5243 13557,3340 13763,3349 13430,5351 11691,5353 11527,8393 11443,8399 11465,5241 "
   id="polygon1184" />
    <path
   class="fil11"
   d="m 12560,6418 -34,-3305 -3223,220 -141,231 -89,1978 c 0,0 -21,136 81,237 101,102 271,140 271,140 l 1275,-27 -33,-1705 h -181 l -189,1379 -644,-6 -62,-1685 2348,231 101,2290 z"
   id="path1186" />
    <polygon
   class="fil3"
   points="13373,8546 11250,8738 11228,4855 13192,4984 13215,4234 13305,4239 13277,5086 11324,4951 11352,8608 13271,8445 13136,6853 11555,6751 11567,6650 13203,6751 "
   id="polygon1188" />
    <polygon
   class="fil9"
   points="9590,4121 9590,3878 11938,4093 11967,4703 12209,4736 12119,3460 9432,3585 9387,4127 "
   id="polygon1190" />
    <polygon
   class="fil3"
   points="9337,5764 9387,3539 9484,3534 9438,5747 "
   id="polygon1192" />
    <path
   class="fil3"
   d="m 9116,4540 21,-815 c 0,0 -14,-237 93,-362 107,-124 409,-129 409,-129 l 2902,-198 v 101 l -2902,198 c 0,0 -282,11 -344,119 -62,107 -45,282 -45,282 l -32,832 z"
   id="path1194" />
    <polygon
   class="fil3"
   points="13681,2489 13230,1710 12710,1992 13173,2771 "
   id="polygon1196" />
    <polygon
   class="fil3"
   points="14319,2026 14579,1450 14059,1247 13811,1800 "
   id="polygon1198" />
    <polygon
   class="fil3"
   points="13783,1439 13785,813 13288,813 13230,1405 "
   id="polygon1200" />
    <polygon
   class="fil3"
   points="14573,2873 13794,3369 13602,3019 14268,2466 "
   id="polygon1202" />
    <polygon
   class="fil3"
   points="14641,649 14189,468 14031,818 14494,1010 "
   id="polygon1204" />
    <polygon
   class="fil3"
   points="13788,2359 13907,2037 13828,2009 13709,2320 "
   id="polygon1206" />
    <polygon
   class="fil3"
   points="14404,2303 14669,2032 14607,1964 14347,2229 "
   id="polygon1208" />
    <polygon
   class="fil2"
   points="13557,2455 13190,1823 12829,2032 13190,2647 "
   id="polygon1210" />
    <polygon
   class="fil1"
   points="13896,1766 14087,1354 14234,1405 14042,1823 "
   id="polygon1212" />
    <polygon
   class="fil12"
   points="14105,1846 14297,1434 14466,1507 14285,1919 "
   id="polygon1214" />
    <polygon
   class="fil12"
   points="13828,3245 14437,2850 14251,2602 13709,3036 "
   id="polygon1216" />
    <polygon
   class="fil2"
   points="13325,1320 13356,892 13486,897 13484,1332 "
   id="polygon1218" />
    <polygon
   class="fil13"
   points="14443,908 14539,683 14364,626 14274,829 "
   id="polygon1220" />
    <polygon
   class="fil14"
   points="10396,4856 8601,5407 8330,4029 10672,4165 "
   id="polygon1222" />
    <polygon
   class="fil9"
   points="5383,5552 4796,5518 4503,6229 5360,6229 "
   id="polygon1224" />
    <polygon
   class="fil15"
   points="8826,7268 5225,7335 5372,3971 8352,3892 "
   id="polygon1226" />
    <polygon
   class="fil11"
   points="8341,3892 8239,3215 5643,3452 5631,3914 "
   id="polygon1228" />
    <polygon
   class="fil11"
   points="8319,7301 5451,7426 5575,6263 8217,6150 "
   id="polygon1230" />
    <path
   class="fil3"
   d="m 6186,5105 c 300,0 543,-244 543,-543 0,-300 -243,-543 -543,-543 -300,0 -543,243 -543,543 0,299 243,543 543,543 z"
   id="path1232" />
    <path
   class="fil1"
   d="m 6185,5026 c 252,0 457,-205 457,-457 0,-252 -205,-457 -457,-457 -253,0 -458,205 -458,457 0,252 205,457 458,457 z"
   id="path1234" />
    <polygon
   class="fil3"
   points="6171,4228 6151,4086 6050,4097 6074,4238 "
   id="polygon1236" />
    <polygon
   class="fil3"
   points="6374,4326 6467,4195 6382,4130 6293,4263 "
   id="polygon1238" />
    <polygon
   class="fil3"
   points="6508,4519 6658,4457 6620,4356 6472,4422 "
   id="polygon1240" />
    <polygon
   class="fil3"
   points="6489,4716 6629,4800 6689,4709 6547,4628 "
   id="polygon1242" />
    <polygon
   class="fil3"
   points="5867,4612 5719,4669 5753,4770 5900,4708 "
   id="polygon1244" />
    <polygon
   class="fil3"
   points="5909,4409 5770,4322 5708,4411 5849,4496 "
   id="polygon1246" />
    <path
   class="fil3"
   d="m 7639,5086 c 300,0 545,-244 545,-544 0,-301 -245,-545 -545,-545 -300,0 -545,244 -545,545 0,300 245,544 545,544 z"
   id="path1248" />
    <path
   class="fil16"
   d="m 7378,4168 c -206,145 -255,432 -110,638 146,206 431,255 638,109 z"
   id="path1250" />
    <path
   class="fil1"
   d="m 7906,4915 c 206,-145 255,-431 109,-637 -145,-206 -431,-255 -637,-110 z"
   id="path1252" />
    <polygon
   class="fil3"
   points="7393,4191 7678,4902 7906,4739 "
   id="polygon1254" />
    <path
   class="fil17"
   d="m 7628,4685 c 69,0 125,-56 125,-125 0,-68 -56,-124 -125,-124 -68,0 -124,56 -124,124 0,69 56,125 124,125 z"
   id="path1256" />
    <polygon
   class="fil3"
   points="7629,4201 7609,4059 7508,4070 7532,4211 "
   id="polygon1258" />
    <polygon
   class="fil3"
   points="7831,4299 7924,4168 7839,4103 7750,4236 "
   id="polygon1260" />
    <polygon
   class="fil3"
   points="7965,4492 8115,4430 8077,4329 7930,4395 "
   id="polygon1262" />
    <polygon
   class="fil3"
   points="7947,4688 8086,4772 8146,4681 8004,4601 "
   id="polygon1264" />
    <polygon
   class="fil3"
   points="7324,4584 7176,4642 7211,4742 7357,4680 "
   id="polygon1266" />
    <polygon
   class="fil3"
   points="7366,4382 7227,4294 7165,4385 7306,4469 "
   id="polygon1268" />
    <polygon
   class="fil3"
   points="5954,4243 6239,4954 6468,4790 "
   id="polygon1270" />
    <path
   class="fil2"
   d="m 6171,4713 c 69,0 125,-56 125,-125 0,-69 -56,-125 -125,-125 -69,0 -124,56 -124,125 0,69 55,125 124,125 z"
   id="path1272" />
    <path
   class="fil3"
   d="m 5970,7169 c 218,0 396,-177 396,-395 0,-219 -178,-396 -396,-396 -218,0 -395,177 -395,396 0,218 177,395 395,395 z"
   id="path1274" />
    <path
   class="fil1"
   d="m 5969,7080 c 167,0 303,-138 303,-309 0,-170 -136,-308 -303,-308 -168,0 -304,138 -304,308 0,171 136,309 304,309 z"
   id="path1276" />
    <path
   class="fil3"
   d="m 6936,7136 c 218,0 396,-177 396,-395 0,-218 -178,-396 -396,-396 -218,0 -395,178 -395,396 0,218 177,395 395,395 z"
   id="path1278" />
    <path
   class="fil1"
   d="m 6935,7047 c 167,0 303,-139 303,-309 0,-170 -136,-308 -303,-308 -168,0 -303,138 -303,308 0,170 135,309 303,309 z"
   id="path1280" />
    <path
   class="fil3"
   d="m 7854,7103 c 192,0 348,-156 348,-347 0,-192 -156,-348 -348,-348 -191,0 -347,156 -347,348 0,191 156,347 347,347 z"
   id="path1282" />
    <path
   class="fil1"
   d="m 7856,7019 c 140,0 254,-116 254,-259 0,-143 -114,-259 -254,-259 -141,0 -255,116 -255,259 0,143 114,259 255,259 z"
   id="path1284" />
    <polygon
   class="fil2"
   points="6114,6881 5837,6576 5939,6983 "
   id="polygon1286" />
    <polygon
   class="fil2"
   points="7103,6842 6826,6537 6928,6944 "
   id="polygon1288" />
    <polygon
   class="fil2"
   points="7926,6881 7870,6537 7802,6875 "
   id="polygon1290" />
    <path
   class="fil3"
   d="m 5702,5994 2473,12 c 0,0 -68,-514 -525,-712 -458,-197 -1095,-169 -1508,51 -412,220 -440,649 -440,649 z"
   id="path1292" />
    <path
   class="fil1"
   d="m 5792,5927 2281,6 c 0,0 -45,-684 -1095,-701 -1050,-17 -1186,695 -1186,695 z"
   id="path1294" />
    <path
   class="fil16"
   d="m 6497,5286 435,644 H 5792 c 0,0 33,-249 265,-429 231,-181 440,-215 440,-215 z"
   id="path1296" />
    <path
   class="fil3"
   d="m 6003,5845 c 41,0 74,-33 74,-75 0,-41 -33,-74 -74,-74 -42,0 -75,33 -75,74 0,42 33,75 75,75 z"
   id="path1298" />
    <path
   class="fil3"
   d="m 6243,5646 c 42,0 75,-34 75,-75 0,-42 -33,-75 -75,-75 -41,0 -74,33 -74,75 0,41 33,75 74,75 z"
   id="path1300" />
    <path
   class="fil3"
   d="m 6577,5474 c 41,0 75,-33 75,-75 0,-41 -34,-75 -75,-75 -41,0 -75,34 -75,75 0,42 34,75 75,75 z"
   id="path1302" />
    <path
   class="fil3"
   d="m 6959,5441 c 41,0 75,-33 75,-75 0,-41 -34,-74 -75,-74 -41,0 -75,33 -75,74 0,42 34,75 75,75 z"
   id="path1304" />
    <path
   class="fil3"
   d="m 7366,5479 c 42,0 75,-34 75,-75 0,-41 -33,-75 -75,-75 -41,0 -74,34 -74,75 0,41 33,75 74,75 z"
   id="path1306" />
    <path
   class="fil3"
   d="m 7661,5643 c 41,0 74,-33 74,-75 0,-41 -33,-75 -74,-75 -42,0 -75,34 -75,75 0,42 33,75 75,75 z"
   id="path1308" />
    <path
   class="fil3"
   d="m 7890,5881 c 41,0 75,-33 75,-75 0,-41 -34,-74 -75,-74 -41,0 -75,33 -75,74 0,42 34,75 75,75 z"
   id="path1310" />
    <polygon
   class="fil3"
   points="6924,5854 6695,5459 6608,5509 6825,5893 "
   id="polygon1312" />
    <path
   class="fil17"
   d="m 7037,5933 c 0,-69 -56,-125 -125,-125 -68,0 -124,56 -124,125 z"
   id="path1314" />
    <path
   class="fil3"
   d="m 6402,5856 c 0,0 116,-220 420,-254 306,-33 472,164 472,164 l -56,68 197,6 -11,-187 -62,62 c 0,0 -155,-208 -528,-192 -373,17 -511,317 -511,317 z"
   id="path1316" />
    <path
   class="fil3"
   d="m 5654,3869 c 45,12 2676,-56 2676,-56 l 11,101 -2710,46 z"
   id="path1318" />
    <polygon
   class="fil3"
   points="8906,7527 5225,7437 5236,7313 8849,7245 "
   id="polygon1320" />
    <polygon
   class="fil3"
   points="8917,7539 8352,3813 8251,3858 8631,7443 "
   id="polygon1322" />
    <polygon
   class="fil14"
   points="4943,6229 4909,5167 3565,5145 4514,6240 "
   id="polygon1324" />
    <path
   class="fil3"
   d="m 5272,5538 -19,702 c 0,0 206,-76 211,-330 6,-254 -192,-372 -192,-372 z"
   id="path1326" />
    <polygon
   class="fil3"
   points="4328,6025 4920,5619 4915,5523 4260,5947 "
   id="polygon1328" />
    <polygon
   class="fil3"
   points="4503,6235 5011,5535 4920,5523 4452,6167 "
   id="polygon1330" />
    <polygon
   class="fil3"
   points="4994,6229 5005,5540 4903,5602 4903,6229 "
   id="polygon1332" />
    <path
   class="fil3"
   d="m 4243,3821 c -190,38 -429,203 -305,553 124,350 565,283 700,-22 135,-305 -169,-576 -395,-531 z"
   id="path1334" />
    <path
   class="fil18"
   d="m 3283,3499 c -152,62 -180,226 -67,351 112,124 317,17 329,-153 11,-169 -149,-243 -262,-198 z"
   id="path1336" />
    <path
   class="fil3"
   d="m 3915,3852 c 167,0 303,-139 303,-309 0,-170 -136,-308 -303,-308 -167,0 -304,138 -304,308 0,170 137,309 304,309 z"
   id="path1338" />
    <path
   class="fil19"
   d="m 4283,4507 c 159,0 288,-131 288,-292 0,-161 -129,-292 -288,-292 -158,0 -287,131 -287,292 0,161 129,292 287,292 z"
   id="path1340" />
    <path
   class="fil3"
   d="m 4808,3848 c 111,0 202,-92 202,-206 0,-112 -91,-205 -202,-205 -111,0 -201,93 -201,205 0,114 90,206 201,206 z"
   id="path1342" />
    <path
   class="fil1"
   d="m 4805,3781 c 75,0 136,-62 136,-138 0,-76 -61,-138 -136,-138 -75,0 -136,62 -136,138 0,76 61,138 136,138 z"
   id="path1344" />
    <path
   class="fil18"
   d="m 4377,4979 c 69,0 125,-56 125,-125 0,-69 -56,-125 -125,-125 -69,0 -125,56 -125,125 0,69 56,125 125,125 z"
   id="path1346" />
    <path
   class="fil8"
   d="m 3971,4860 c 68,0 124,-56 124,-125 0,-68 -56,-124 -124,-124 -69,0 -125,56 -125,124 0,69 56,125 125,125 z"
   id="path1348" />
    <polygon
   class="fil3"
   points="10390,4913 8578,5489 8524,5201 10418,4811 "
   id="polygon1350" />
    <polygon
   class="fil3"
   points="8916,5300 8783,4049 8704,4055 8812,5331 "
   id="polygon1352" />
    <polygon
   class="fil3"
   points="9169,5244 8936,4060 8849,4053 9076,5275 "
   id="polygon1354" />
    <path
   class="fil20"
   d="m 3879,3767 c 41,0 75,-34 75,-75 0,-41 -34,-75 -75,-75 -41,0 -75,34 -75,75 0,41 34,75 75,75 z"
   id="path1356" />
    <path
   class="fil20"
   d="m 4083,3717 c 41,0 75,-34 75,-75 0,-42 -34,-75 -75,-75 -41,0 -75,33 -75,75 0,41 34,75 75,75 z"
   id="path1358" />
    <path
   class="fil20"
   d="m 3768,3549 c 42,0 75,-34 75,-75 0,-41 -33,-75 -75,-75 -41,0 -74,34 -74,75 0,41 33,75 74,75 z"
   id="path1360" />
    <path
   class="fil21"
   d="m 3981,3489 c 34,0 62,-28 62,-62 0,-34 -28,-62 -62,-62 -34,0 -62,28 -62,62 0,34 28,62 62,62 z"
   id="path1362" />
    <path
   class="fil14"
   d="m 12029,6418 18,962 -1632,150 -830,1024 2547,-525 c 0,0 304,-48 372,-172 68,-124 45,-384 45,-384 l 22,-1066 z"
   id="path1364" />
    <polygon
   class="fil3"
   points="13565,3719 12972,3708 12972,3612 13559,3612 "
   id="polygon1366" />
    <polygon
   class="fil3"
   points="13424,4035 13102,4024 13243,3775 "
   id="polygon1368" />
    <polygon
   class="fil3"
   points="13521,4301 13017,4301 13017,4210 13515,4194 "
   id="polygon1370" />
    <polygon
   class="fil3"
   points="11832,3527 11471,3313 11448,3696 "
   id="polygon1372" />
    <polygon
   class="fil3"
   points="12442,7129 12092,7095 12284,7366 "
   id="polygon1374" />
    <polygon
   class="fil3"
   points="10319,7422 9890,7388 10138,7004 "
   id="polygon1376" />
    <polygon
   class="fil3"
   points="12160,8608 12419,8427 12442,8732 "
   id="polygon1378" />
    <polygon
   class="fil3"
   points="9529,8576 9619,8531 9879,6409 9811,6409 "
   id="polygon1380" />
    <polygon
   class="fil3"
   points="12583,7735 12628,3034 12413,3046 12515,7735 "
   id="polygon1382" />
    <polygon
   class="fil3"
   points="5684,3954 5650,3446 5408,3480 5385,3965 "
   id="polygon1384" />
    <polygon
   class="fil3"
   points="3827,5461 4911,5168 4928,5021 3551,5145 "
   id="polygon1386" />
    <polygon
   class="fil3"
   points="8242,3158 5402,3440 5402,3542 8242,3260 "
   id="polygon1388" />
    <polygon
   class="fil3"
   points="11623,8136 11662,7419 11578,7419 11544,8148 "
   id="polygon1390" />
    <polygon
   class="fil3"
   points="12498,6341 12004,6369 12001,6448 12487,6448 "
   id="polygon1392" />
    <polygon
   class="fil3"
   points="11487,6347 10979,6341 10985,6431 11487,6437 "
   id="polygon1394" />
    <polygon
   class="fil3"
   points="10937,6990 10914,6420 10988,6431 11010,6990 "
   id="polygon1396" />
    <path
   class="fil1"
   d="m 6221,7095 67,237 c 0,0 -51,350 -141,521 -91,172 -339,456 -339,456 l -118,-11 c 0,0 39,-528 -277,-510 -316,18 -389,521 -389,521 l -796,-17 c 0,0 -339,260 -395,781 -57,522 11,723 11,723 l -90,296 344,66 51,-238 237,-361 146,675 -186,77 170,942 -63,243 458,-12 -85,-213 277,-1001 366,-30 c 0,0 305,190 413,456 107,267 118,468 118,468 l 62,243 424,12 -153,-314 74,-811 -45,-36 254,-1824 c 0,0 90,-237 79,-575 -12,-338 -57,-533 -57,-533 l -5,-278 z"
   id="path1398" />
    <path
   class="fil6"
   d="m 5144,8461 282,44 101,-37 -22,-142 c 0,0 28,-296 16,-302 -11,-6 -268,23 -268,23 z"
   id="path1400" />
    <path
   class="fil3"
   d="m 5129,8450 c 0,0 6,-531 263,-543 256,-12 184,563 184,563 l -82,-9 c 0,0 71,-458 -98,-467 -168,-10 -183,479 -183,479 z"
   id="path1402" />
    <polygon
   class="fil3"
   points="4742,11230 4590,11236 4466,10383 4996,10276 "
   id="polygon1404" />
    <path
   class="fil3"
   d="m 5843,8420 c 0,0 225,-212 344,-443 119,-230 175,-544 175,-544 l 204,-42 c 39,262 44,776 -68,1116 z"
   id="path1406" />
    <polygon
   class="fil5"
   points="6266,10246 5471,10140 5284,8404 6520,8417 "
   id="polygon1408" />
    <path
   class="fil4"
   d="m 5358,8405 135,1741 c -316,12 -443,33 -861,133 L 4274,8405 Z"
   id="path1410" />
    <path
   class="fil3"
   d="m 4268,8393 423,794 c 0,0 -231,88 -367,284 -135,195 -214,379 -214,379 l -192,-83 c 0,0 -79,-462 45,-853 124,-391 305,-521 305,-521 z"
   id="path1412" />
    <polygon
   class="fil6"
   points="6554,7172 6537,7355 6402,7373 6357,7184 "
   id="polygon1414" />
    <polygon
   class="fil3"
   points="4031,10039 4059,9892 3935,9850 3873,10010 "
   id="polygon1416" />
    <path
   class="fil3"
   d="m 5634,10241 c 0,0 237,184 333,409 96,225 102,467 102,467 l 164,12 73,-776 z"
   id="path1418" />
    <polygon
   class="fil5"
   points="6374,11331 6227,11177 6097,11183 6125,11313 "
   id="polygon1420" />
    <path
   class="fil3"
   d="m 4658,11278 c -81,0 -91,136 -91,136 l 221,-12 c 0,0 -17,-124 -130,-124 z"
   id="path1422" />
    <path
   class="fil3"
   d="m 4976,8407 c 0,0 -25,83 119,222 144,139 355,98 355,98 l 6,77 c 0,0 -254,24 -401,-101 -146,-125 -161,-302 -161,-302 z"
   id="path1424" />
    <path
   class="fil1"
   d="m 4251,8519 320,605 c 0,0 -172,73 -298,258 -127,184 -186,349 -186,349 l -91,-36 c 0,0 -53,-352 13,-647 67,-294 242,-529 242,-529 z"
   id="path1426" />
    <path
   class="fil1"
   d="m 5863,10347 c 0,0 118,114 186,302 68,188 82,391 82,391 h 39 l 48,-619 z"
   id="path1428" />
    <path
   class="fil1"
   d="m 14005,3345 186,231 c 0,0 17,305 186,615 170,311 429,503 429,503 l 79,-29 587,904 -90,45 c 0,0 23,220 62,418 40,197 136,496 136,496 l -130,334 508,-79 -45,-221 c 0,0 107,-451 180,-604 74,-152 220,-327 220,-327 l 227,-56 c 0,0 282,180 412,423 129,242 192,440 192,440 0,0 79,333 282,288 203,-45 84,-384 84,-384 l -107,-1123 -118,39 -384,-1733 147,-79 c 0,0 -74,-530 -390,-767 -316,-237 -627,-209 -627,-209 l -282,-203 -164,429 311,73 c 0,0 180,135 243,310 62,175 73,537 73,537 l -79,28 -23,-265 c 0,0 -124,-96 -293,-68 -170,28 -266,203 -266,203 l -39,508 -90,28 c 0,0 -333,-90 -537,-242 -203,-153 -355,-339 -355,-339 l -90,-339 z"
   id="path1430" />
    <path
   class="fil3"
   d="m 15507,5687 734,-164 c 0,0 -220,271 -293,531 -74,259 -108,457 -108,457 l -169,11 c 0,0 -68,-209 -107,-384 -40,-175 -57,-451 -57,-451 z"
   id="path1432" />
    <path
   class="fil3"
   d="m 14322,3621 c 0,0 45,316 169,542 125,225 350,417 350,417 l 678,-395 c 0,0 -395,-101 -621,-248 -226,-147 -418,-384 -418,-384 z"
   id="path1434" />
    <polygon
   class="fil22"
   points="17178,5292 15665,5698 14920,4490 16760,3418 "
   id="polygon1436" />
    <path
   class="fil3"
   d="m 16653,5523 661,-153 113,999 -209,18 c 0,0 -62,-271 -215,-497 -152,-226 -350,-367 -350,-367 z"
   id="path1438" />
    <polygon
   class="fil5"
   points="15823,6714 15801,6562 15665,6579 15575,6759 "
   id="polygon1440" />
    <path
   class="fil3"
   d="m 17263,6443 c 0,0 63,226 152,186 89,-38 25,-211 25,-211 z"
   id="path1442" />
    <path
   class="fil6"
   d="m 15665,3957 350,-17 -50,-457 c 0,0 -122,-74 -195,36 -74,110 -105,438 -105,438 z"
   id="path1444" />
    <path
   class="fil3"
   d="m 15632,3960 c 0,0 0,-350 79,-464 79,-113 265,-107 333,0 v 452 l -79,6 -17,-418 c -40,-51 -147,-25 -175,23 -29,47 -62,406 -62,406 z"
   id="path1446" />
    <polygon
   class="fil6"
   points="14370,3256 14426,3471 14291,3538 14169,3339 "
   id="polygon1448" />
    <polygon
   class="fil3"
   points="15792,2432 15972,2583 15894,2658 15725,2613 "
   id="polygon1450" />
    <path
   class="fil3"
   d="m 16921,3392 -621,305 c 0,0 34,-350 -45,-610 -79,-259 -259,-361 -259,-361 l 113,-158 c 0,0 316,11 530,248 215,237 282,576 282,576 z"
   id="path1452" />
    <path
   class="fil1"
   d="m 16831,5566 c 0,0 211,178 313,395 102,217 127,341 127,341 l 68,-8 -105,-813 z"
   id="path1454" />
    <path
   class="fil1"
   d="m 16116,2718 c 0,0 150,116 218,364 68,248 51,480 51,480 l 417,-215 c 0,0 -53,-282 -214,-463 -161,-180 -435,-228 -435,-228 z"
   id="path1456" />
    <path
   class="fil3"
   d="m 2843,3962 c 0,0 536,85 671,446 136,362 40,740 40,740 l 118,-6 c 0,0 51,-751 -248,-1005 -299,-254 -587,-242 -587,-242 z"
   id="path1458" />
    <path
   class="fil1"
   d="m 2116,4389 -22,446 c 0,0 440,-418 615,-226 175,192 -84,570 -84,570 l 124,74 c 0,0 243,-40 412,-181 169,-141 260,-373 260,-373 l 50,-17 -13,-234 389,73 -99,387 c 0,0 -6,265 -152,565 -147,299 -452,457 -452,457 l -68,-73 -609,931 84,17 -101,723 169,203 -384,147 -90,-260 -322,-813 -119,-28 c 0,0 -299,174 -429,434 -130,260 -175,480 -175,480 0,0 -84,277 -225,254 -142,-22 -102,-367 -102,-367 l 102,-1089 508,-2015 276,-633 808,-50 316,-51 45,372 -271,-17 c 0,0 -79,108 -192,181 -113,73 -249,113 -249,113 z"
   id="path1460" />
    <polygon
   class="fil3"
   points="2357,7530 2448,6886 1883,6717 2222,7541 "
   id="polygon1462" />
    <path
   class="fil6"
   d="m 2131,4964 198,206 102,34 65,-121 c 0,0 194,-206 189,-217 -6,-12 -258,-99 -258,-99 z"
   id="path1464" />
    <path
   class="fil4"
   d="m 1443,4549 c 406,204 1676,1070 1676,1070 L 2318,6850 957,6503 Z"
   id="path1466" />
    <path
   class="fil3"
   d="m 2126,4947 c 0,0 322,-338 516,-262 195,76 -175,550 -175,550 l -59,-56 c 0,0 302,-376 192,-424 -110,-48 -429,243 -429,243 z"
   id="path1468" />
    <path
   class="fil3"
   d="m 1477,4493 237,-553 688,-68 51,195 c -130,144 -181,170 -434,257 l -23,485 z"
   id="path1470" />
    <path
   class="fil3"
   d="m 2786,5362 c 0,0 328,-90 474,-237 147,-147 209,-339 209,-339 l 175,80 c 0,0 23,333 -147,581 -169,249 -338,350 -338,350 z"
   id="path1472" />
    <path
   class="fil3"
   d="m 946,6616 644,146 c 0,0 -294,169 -395,418 -102,248 -159,452 -159,452 l -191,-35 z"
   id="path1474" />
    <polygon
   class="fil3"
   points="2730,4024 2527,4013 2498,3889 2702,3833 "
   id="polygon1476" />
    <polygon
   class="fil6"
   points="3695,4809 3763,4600 3571,4532 3548,4735 "
   id="polygon1478" />
    <path
   class="fil3"
   d="m 850,7643 c 0,0 -22,158 34,192 57,34 130,-175 130,-175 z"
   id="path1480" />
    <polygon
   class="fil5"
   points="2470,7699 2357,7575 2233,7592 2301,7739 "
   id="polygon1482" />
    <path
   class="fil3"
   d="m 1920,4820 c 0,0 -124,241 37,483 160,243 443,184 443,184 v -60 c 0,0 -277,23 -393,-174 -115,-198 -36,-393 -36,-393 z"
   id="path1484" />
    <polygon
   class="fil3"
   points="1666,6314 2021,5332 2067,5371 1728,6342 "
   id="polygon1486" />
    <path
   class="fil1"
   d="m 1004,6695 405,101 c 0,0 -213,207 -272,334 -59,127 -146,425 -146,425 l -82,-14 z"
   id="path1488" />
    <path
   class="fil1"
   d="m 1787,4019 164,220 c 0,0 127,-11 245,-65 119,-54 172,-127 172,-127 l -14,-101 z"
   id="path1490" />
    <polygon
   class="fil3"
   points="1047,7497 897,7341 894,7437 1013,7545 "
   id="polygon1492" />
    <polygon
   class="fil3"
   points="1089,7330 937,7163 917,7237 1072,7395 "
   id="polygon1494" />
    <path
   class="fil3"
   d="m 1016,7305 c 0,0 67,-40 73,-257 6,-218 -113,-302 -113,-302 l -8,90 c 0,0 59,99 53,201 -5,101 -45,200 -45,200 z"
   id="path1496" />
    <path
   class="fil3"
   d="m 1092,6698 c -10,5 59,118 79,212 20,93 14,194 14,194 l 76,-82 c 0,0 -14,-104 -37,-183 -22,-79 -47,-107 -47,-107 0,0 -80,-37 -85,-34 z"
   id="path1498" />
    <polygon
   class="fil3"
   points="4194,9616 3951,9455 3951,9559 4146,9701 "
   id="polygon1500" />
    <polygon
   class="fil3"
   points="4239,9518 3968,9088 3931,9177 4174,9586 "
   id="polygon1502" />
    <polygon
   class="fil3"
   points="4403,9290 4030,8893 3993,9000 4329,9355 "
   id="polygon1504" />
    <path
   class="fil3"
   d="m 4219,8544 c 0,0 62,138 85,305 22,166 -51,351 -51,351 l 51,66 c 0,0 104,-175 90,-364 -14,-190 -132,-382 -132,-382 z"
   id="path1506" />
    <path
   class="fil3"
   d="m 4134,8695 c 0,0 34,112 29,195 -6,83 -43,145 -43,145 l 57,80 c 0,0 65,-100 62,-246 -3,-145 -62,-257 -62,-257 z"
   id="path1508" />
    <path
   class="fil3"
   d="m 16223,2636 c 0,0 11,62 -5,110 -17,48 -60,91 -60,91 l 48,84 c 0,0 62,-67 82,-141 20,-73 14,-130 14,-130 z"
   id="path1510" />
    <polygon
   class="fil3"
   points="16280,3014 16494,2780 16424,2727 16246,2944 "
   id="polygon1512" />
    <path
   class="fil3"
   d="m 16395,2865 c 0,0 65,93 150,133 85,39 166,25 166,25 l 51,90 c 0,0 -132,14 -245,-36 -113,-51 -175,-144 -175,-144 z"
   id="path1514" />
    <path
   class="fil3"
   d="m 16308,3057 c 0,0 87,110 226,127 138,17 237,-28 237,-28 l 48,65 c 0,0 -175,53 -291,47 -116,-5 -186,-64 -186,-64 z"
   id="path1516" />
    <path
   class="fil3"
   d="m 16359,3328 c 0,0 93,53 183,56 90,3 274,-65 274,-65 l 17,68 c 0,0 -184,88 -325,76 -141,-11 -161,-45 -161,-45 z"
   id="path1518" />
    <polygon
   class="fil3"
   points="16977,5764 17115,5498 17025,5498 16903,5696 "
   id="polygon1520" />
    <path
   class="fil3"
   d="m 17304,5654 c 0,0 -70,0 -138,53 -68,54 -102,189 -102,189 l -56,-50 c 0,0 22,-142 113,-209 90,-68 158,-62 158,-62 z"
   id="path1522" />
    <polygon
   class="fil3"
   points="17107,5978 17324,5814 17296,5730 17073,5896 "
   id="polygon1524" />
    <polygon
   class="fil3"
   points="17335,6015 17180,6176 17163,6085 17324,5896 "
   id="polygon1526" />
    <path
   class="fil23"
   d="m 16226,3737 c 0,0 40,102 23,198 -17,95 -152,276 -152,276 l 423,1254 672,-181 -418,-1824 z"
   id="path1528" />
    <path
   class="fil3"
   d="m 15818,4242 c 0,0 200,5 319,-136 118,-141 45,-347 45,-347 l 76,-48 c 0,0 105,215 -45,420 -150,207 -401,201 -401,201 z"
   id="path1530" />
    <polygon
   class="fil3"
   points="16461,5165 16134,4166 16072,4211 16388,5193 "
   id="polygon1532" />
    <polygon
   class="fil3"
   points="12255,7638 11595,7762 11578,7863 12351,7722 12176,3432 9416,3545 9427,3641 12086,3534 "
   id="polygon1534" />
    <polygon
   class="fil3"
   points="10167,6639 10946,6661 10968,6774 10280,6729 10076,8016 11583,7762 11600,7863 9963,8151 "
   id="polygon1536" />
    <polygon
   class="fil3"
   points="10567,4397 8975,4493 9004,4606 10477,4488 10471,5696 9382,5673 9342,5764 10567,5792 "
   id="polygon1538" />
    <path
   class="fil3"
   d="m 3351,3817 v -249 c -68,0 -124,56 -124,125 0,69 56,124 124,124 z"
   id="path1540" />
    <polygon
   class="fil3"
   points="15353,1575 15613,999 15093,796 14845,1349 "
   id="polygon1542" />
    <polygon
   class="fil13"
   points="14930,1316 15043,1101 15383,1259 15292,1439 "
   id="polygon1544" />
    <polygon
   class="fil13"
   points="15015,2665 15134,2416 14897,2281 14772,2546 "
   id="polygon1546" />
    <polygon
   class="fil3"
   points="14671,339 14976,0 15047,75 15040,557 14981,649 "
   id="polygon1548" />
    <polygon
   class="fil12"
   points="15044,564 15278,316 15044,68 14824,331 "
   id="polygon1550" />
    <polygon
   class="fil3"
   points="11938,3776 9613,3765 9590,3878 11950,4115 "
   id="polygon1552" />
    <path
   class="fil3"
   d="m 3430,4301 c 69,0 125,-55 125,-124 0,-69 -56,-125 -125,-125 -69,0 -125,56 -125,125 0,69 56,124 125,124 z"
   id="path1554" />
    <path
   class="fil20"
   d="m 3427,4238 c 34,0 62,-28 62,-62 0,-34 -28,-62 -62,-62 -34,0 -62,28 -62,62 0,34 28,62 62,62 z"
   id="path1556" />
   </g>
  </g>
 <rect
   style="fill:#ffbe30;stroke:#000000;stroke-width:14.4804"
   id="rect1588"
   width="6.9544992"
   height="43.907181"
   x="-20573.754"
   y="10801.921"
   transform="scale(-1,1)" /><rect
   style="fill:#ffbe30;stroke:#000000;stroke-width:18.0204"
   id="rect1590"
   width="24.402664"
   height="19.379009"
   x="-3771.8442"
   y="-1638.0044"
   transform="scale(1,-1)" /></g>
</svg>
