<?xml version="1.0" encoding="UTF-8" standalone="no"?>
<!-- Creator: CorelDRAW -->

<svg
   xml:space="preserve"
   width="243.61571mm"
   height="114.95869mm"
   version="1.1"
   style="clip-rule:evenodd;fill-rule:evenodd;image-rendering:optimizeQuality;shape-rendering:geometricPrecision;text-rendering:geometricPrecision"
   viewBox="0 0 24361.849 11495.869"
   id="svg1562"
   sodipodi:docname="teaching.svg"
   inkscape:version="1.1.2 (b8e25be8, 2022-02-05)"
   xmlns:inkscape="http://www.inkscape.org/namespaces/inkscape"
   xmlns:sodipodi="http://sodipodi.sourceforge.net/DTD/sodipodi-0.dtd"
   xmlns="http://www.w3.org/2000/svg"
   xmlns:svg="http://www.w3.org/2000/svg"><sodipodi:namedview
   id="namedview1564"
   pagecolor="#ffffff"
   bordercolor="#666666"
   borderopacity="1.0"
   inkscape:pageshadow="2"
   inkscape:pageopacity="0.0"
   inkscape:pagecheckerboard="0"
   inkscape:document-units="mm"
   showgrid="false"
   inkscape:zoom="0.82867028"
   inkscape:cx="708.96714"
   inkscape:cy="51.286985"
   inkscape:window-width="1920"
   inkscape:window-height="1035"
   inkscape:window-x="0"
   inkscape:window-y="23"
   inkscape:window-maximized="1"
   inkscape:current-layer="Layer_x0020_1" />
 <defs
   id="defs1111">
  <style
   type="text/css"
   id="style1109">
   <![CDATA[
    .fil20 {fill:#BDBBB8;fill-rule:nonzero}
    .fil19 {fill:#D9D7CF;fill-rule:nonzero}
    .fil0 {fill:#F8E9D0;fill-rule:nonzero}
    .fil6 {fill:#FFCC8F;fill-rule:nonzero}
    .fil7 {fill:#D43408;fill-rule:nonzero}
    .fil12 {fill:#F34150;fill-rule:nonzero}
    .fil13 {fill:#CA0100;fill-rule:nonzero}
    .fil2 {fill:#EE0E22;fill-rule:nonzero}
    .fil18 {fill:#464950;fill-rule:nonzero}
    .fil15 {fill:#C0CCB6;fill-rule:nonzero}
    .fil14 {fill:#A5B6B6;fill-rule:nonzero}
    .fil10 {fill:#6A8377;fill-rule:nonzero}
    .fil11 {fill:#8B9FA4;fill-rule:nonzero}
    .fil16 {fill:#CDEBF5;fill-rule:nonzero}
    .fil9 {fill:#507483;fill-rule:nonzero}
    .fil8 {fill:#18503C;fill-rule:nonzero}
    .fil21 {fill:#67A685;fill-rule:nonzero}
    .fil4 {fill:#13528A;fill-rule:nonzero}
    .fil5 {fill:#3685C7;fill-rule:nonzero}
    .fil23 {fill:#105AA1;fill-rule:nonzero}
    .fil22 {fill:#2279C2;fill-rule:nonzero}
    .fil17 {fill:#019DCA;fill-rule:nonzero}
    .fil3 {fill:black;fill-rule:nonzero}
    .fil1 {fill:white;fill-rule:nonzero}
   ]]>
  </style>
 </defs>
 <g
   id="Layer_x0020_1"
   inkscape:label="Layer 1"
   inkscape:groupmode="layer"
   transform="translate(3780.8544,-0.06550979)">
  <metadata
   id="CorelCorpID_0Corel-Layer" />
  <g
   id="vc013844.ai">
   <g
   id="g1558">
    <polygon
   class="fil0"
   points="14264,4906 15732,5312 15376,599 2822,2789 2865,5120 "
   id="polygon1114" />
    <path
   class="fil1"
   d="m 15386,129 c -2777,542 -2563,2586 -2454,3072 l 813,45 c 322,-463 1287,-869 1806,-779 z"
   id="path1116" />
    <path
   class="fil2"
   d="m 1951,5255 -636,2594 13458,2371 -486,-5314 c 0,0 -1219,-610 -5171,-588 -3951,23 -7165,937 -7165,937 z"
   id="path1118" />
    <path
   class="fil1"
   d="m 10116,994 152,-385 c 0,0 165,-183 348,-147 183,37 220,275 220,275 l -30,220 h 463 c 0,0 495,116 550,775 55,660 -488,715 -488,715 l 6,171 73,12 37,519 -611,49 -183,-361 -275,6 -222,412 -529,22 -98,-638 61,-37 -36,-430 c 0,0 -122,171 -134,324 -12,152 24,311 24,311 l -397,36 v -268 c 0,0 -207,-434 -73,-910 134,-476 550,-653 550,-653 z"
   id="path1120" />
    <path
   class="fil3"
   d="m 13698,3268 c 0,0 169,-305 835,-621 666,-316 999,-271 999,-271 l -16,113 c 0,0 -407,0 -926,249 -519,248 -768,564 -768,564 z"
   id="path1122" />
    <polygon
   class="fil3"
   points="11340,3156 11304,2724 10706,2706 10962,3173 "
   id="polygon1124" />
    <polygon
   class="fil3"
   points="10104,3252 10297,2712 9680,2736 9725,3257 "
   id="polygon1126" />
    <path
   class="fil3"
   d="m 13850,812 c 0,0 -716,531 -829,1231 -113,700 17,1168 17,1168 l -113,-11 c 0,0 -181,-869 113,-1524 293,-655 649,-830 649,-830 z"
   id="path1128" />
    <polygon
   class="fil4"
   points="11237,2742 11255,1076 9503,1124 9753,2736 "
   id="polygon1130" />
    <polygon
   class="fil5"
   points="9688,2749 9491,1118 10370,1094 10480,2742 "
   id="polygon1132" />
    <polygon
   class="fil6"
   points="10617,1042 10526,1030 10471,1213 10208,1158 10379,737 10697,810 "
   id="polygon1134" />
    <polygon
   class="fil1"
   points="10013,3223 10143,2834 9793,2837 9824,3235 "
   id="polygon1136" />
    <path
   class="fil3"
   d="m 11229,1074 v 794 l -430,289 25,209 c 0,0 751,134 886,-449 136,-584 -481,-843 -481,-843 z"
   id="path1138" />
    <polygon
   class="fil6"
   points="10618,2335 10773,2270 10741,2171 10580,2167 "
   id="polygon1140" />
    <path
   class="fil3"
   d="m 10165,1167 162,-467 c 0,0 95,-137 232,-119 138,18 162,199 162,199 l -49,323 -91,-31 -40,162 -85,-18 63,-241 83,24 30,-213 c 0,0 7,-83 -94,-98 -101,-15 -141,79 -141,79 l -146,425 z"
   id="path1142" />
    <path
   class="fil3"
   d="m 9509,1118 385,763 c 0,0 -290,54 -419,249 -128,196 -141,345 -141,345 l -250,-20 c 0,0 -101,-365 -20,-750 81,-384 445,-587 445,-587 z"
   id="path1144" />
    <polygon
   class="fil3"
   points="9320,2697 9280,2515 9145,2522 9138,2725 "
   id="polygon1146" />
    <path
   class="fil1"
   d="m 9496,1265 92,617 c 0,0 -150,124 -218,239 -67,115 -101,263 -101,263 l -105,-7 c 0,0 -77,-388 -13,-651 64,-263 345,-461 345,-461 z"
   id="path1148" />
    <path
   class="fil1"
   d="m 10882,2184 10,116 c 0,0 256,49 500,-82 244,-132 260,-382 260,-382 l -302,46 z"
   id="path1150" />
    <path
   class="fil3"
   d="m 10972,2385 c 105,0 190,-85 190,-190 0,-105 -85,-191 -190,-191 -105,0 -190,86 -190,191 0,105 85,190 190,190 z"
   id="path1152" />
    <path
   class="fil1"
   d="m 10966,2314 c 69,0 125,-56 125,-125 0,-70 -56,-126 -125,-126 -69,0 -126,56 -126,126 0,69 57,125 126,125 z"
   id="path1154" />
    <path
   class="fil3"
   d="m 10949,2059 3,140 116,46 -55,-82 c 0,0 -65,-123 -64,-104 z"
   id="path1156" />
    <polygon
   class="fil3"
   points="9301,2102 9106,2038 9112,2147 9267,2196 "
   id="polygon1158" />
    <polygon
   class="fil3"
   points="9463,2056 9118,1763 9096,1861 9408,2123 "
   id="polygon1160" />
    <path
   class="fil3"
   d="m 9130,1650 c 0,0 122,55 238,46 116,-10 214,-76 214,-76 l 39,94 c 0,0 -100,40 -225,64 -126,25 -269,-36 -269,-36 z"
   id="path1162" />
    <path
   class="fil3"
   d="m 9185,1516 c 0,0 61,58 183,61 122,3 205,-37 205,-37 l 3,-92 c 0,0 -116,50 -199,43 -82,-6 -122,-36 -122,-36 z"
   id="path1164" />
    <path
   class="fil1"
   d="m 2602,3438 c 0,0 982,-576 1784,-170 802,407 517,1789 517,1789 l -1307,131 c 0,0 180,-655 -204,-1005 -384,-350 -688,-215 -688,-215 z"
   id="path1166" />
    <polygon
   class="fil7"
   points="9404,9266 9133,6760 5362,6602 4188,8295 "
   id="polygon1168" />
    <path
   class="fil8"
   d="m 2825,3749 c 69,0 125,-56 125,-125 0,-68 -56,-124 -125,-124 -68,0 -124,56 -124,124 0,69 56,125 124,125 z"
   id="path1170" />
    <path
   class="fil3"
   d="m 1276,5450 c 0,0 -232,48 -576,164 C 356,5729 23,5913 23,5913 L 0,5823 c 0,0 214,-125 632,-271 418,-147 610,-170 610,-170 z"
   id="path1172" />
    <path
   class="fil3"
   d="m 2831,3285 c 0,0 1028,-446 1705,6 677,451 373,1761 373,1761 l -74,-17 c 0,0 288,-1411 -451,-1733 -740,-322 -1553,73 -1553,73 z"
   id="path1174" />
    <path
   class="fil3"
   d="m 12071,4487 c 0,0 1350,201 1975,382 625,181 1320,481 1320,481 l 50,-83 c 0,0 -812,-354 -1434,-506 -623,-153 -1902,-382 -1902,-382 z"
   id="path1176" />
    <path
   class="fil9"
   d="m 9602,8557 260,-2148 3127,58 c 0,0 294,-33 384,69 90,101 89,406 89,406 l 35,1748 -2393,217 -56,-1174 440,-59 -158,725 1693,-71 -180,-1332 -97,-4 -2252,-86 -56,657 z"
   id="path1178" />
    <polygon
   class="fil3"
   points="12808,8339 13034,8348 12859,6987 10483,6897 10477,6982 12789,7058 "
   id="polygon1180" />
    <polygon
   class="fil10"
   points="13049,4797 12947,3340 13568,3329 13342,5339 11570,5328 11443,8489 11093,8918 10912,4583 "
   id="polygon1182" />
    <polygon
   class="fil3"
   points="13339,5243 13557,3340 13763,3349 13430,5351 11691,5353 11527,8393 11443,8399 11465,5241 "
   id="polygon1184" />
    <path
   class="fil11"
   d="m 12560,6418 -34,-3305 -3223,220 -141,231 -89,1978 c 0,0 -21,136 81,237 101,102 271,140 271,140 l 1275,-27 -33,-1705 h -181 l -189,1379 -644,-6 -62,-1685 2348,231 101,2290 z"
   id="path1186" />
    <polygon
   class="fil3"
   points="13373,8546 11250,8738 11228,4855 13192,4984 13215,4234 13305,4239 13277,5086 11324,4951 11352,8608 13271,8445 13136,6853 11555,6751 11567,6650 13203,6751 "
   id="polygon1188" />
    <polygon
   class="fil9"
   points="9590,4121 9590,3878 11938,4093 11967,4703 12209,4736 12119,3460 9432,3585 9387,4127 "
   id="polygon1190" />
    <polygon
   class="fil3"
   points="9337,5764 9387,3539 9484,3534 9438,5747 "
   id="polygon1192" />
    <path
   class="fil3"
   d="m 9116,4540 21,-815 c 0,0 -14,-237 93,-362 107,-124 409,-129 409,-129 l 2902,-198 v 101 l -2902,198 c 0,0 -282,11 -344,119 -62,107 -45,282 -45,282 l -32,832 z"
   id="path1194" />
    <polygon
   class="fil3"
   points="13681,2489 13230,1710 12710,1992 13173,2771 "
   id="polygon1196" />
    <polygon
   class="fil3"
   points="14319,2026 14579,1450 14059,1247 13811,1800 "
   id="polygon1198" />
    <polygon
   class="fil3"
   points="13783,1439 13785,813 13288,813 13230,1405 "
   id="polygon1200" />
    <polygon
   class="fil3"
   points="14573,2873 13794,3369 13602,3019 14268,2466 "
   id="polygon1202" />
    <polygon
   class="fil3"
   points="14641,649 14189,468 14031,818 14494,1010 "
   id="polygon1204" />
    <polygon
   class="fil3"
   points="13788,2359 13907,2037 13828,2009 13709,2320 "
   id="polygon1206" />
    <polygon
   class="fil3"
   points="14404,2303 14669,2032 14607,1964 14347,2229 "
   id="polygon1208" />
    <polygon
   class="fil2"
   points="13557,2455 13190,1823 12829,2032 13190,2647 "
   id="polygon1210" />
    <polygon
   class="fil1"
   points="13896,1766 14087,1354 14234,1405 14042,1823 "
   id="polygon1212" />
    <polygon
   class="fil12"
   points="14105,1846 14297,1434 14466,1507 14285,1919 "
   id="polygon1214" />
    <polygon
   class="fil12"
   points="13828,3245 14437,2850 14251,2602 13709,3036 "
   id="polygon1216" />
    <polygon
   class="fil2"
   points="13325,1320 13356,892 13486,897 13484,1332 "
   id="polygon1218" />
    <polygon
   class="fil13"
   points="14443,908 14539,683 14364,626 14274,829 "
   id="polygon1220" />
    <polygon
   class="fil14"
   points="10396,4856 8601,5407 8330,4029 10672,4165 "
   id="polygon1222" />
    <polygon
   class="fil9"
   points="5383,5552 4796,5518 4503,6229 5360,6229 "
   id="polygon1224" />
    <polygon
   class="fil15"
   points="8826,7268 5225,7335 5372,3971 8352,3892 "
   id="polygon1226" />
    <polygon
   class="fil11"
   points="8341,3892 8239,3215 5643,3452 5631,3914 "
   id="polygon1228" />
    <polygon
   class="fil11"
   points="8319,7301 5451,7426 5575,6263 8217,6150 "
   id="polygon1230" />
    <path
   class="fil3"
   d="m 6186,5105 c 300,0 543,-244 543,-543 0,-300 -243,-543 -543,-543 -300,0 -543,243 -543,543 0,299 243,543 543,543 z"
   id="path1232" />
    <path
   class="fil1"
   d="m 6185,5026 c 252,0 457,-205 457,-457 0,-252 -205,-457 -457,-457 -253,0 -458,205 -458,457 0,252 205,457 458,457 z"
   id="path1234" />
    <polygon
   class="fil3"
   points="6171,4228 6151,4086 6050,4097 6074,4238 "
   id="polygon1236" />
    <polygon
   class="fil3"
   points="6374,4326 6467,4195 6382,4130 6293,4263 "
   id="polygon1238" />
    <polygon
   class="fil3"
   points="6508,4519 6658,4457 6620,4356 6472,4422 "
   id="polygon1240" />
    <polygon
   class="fil3"
   points="6489,4716 6629,4800 6689,4709 6547,4628 "
   id="polygon1242" />
    <polygon
   class="fil3"
   points="5867,4612 5719,4669 5753,4770 5900,4708 "
   id="polygon1244" />
    <polygon
   class="fil3"
   points="5909,4409 5770,4322 5708,4411 5849,4496 "
   id="polygon1246" />
    <path
   class="fil3"
   d="m 7639,5086 c 300,0 545,-244 545,-544 0,-301 -245,-545 -545,-545 -300,0 -545,244 -545,545 0,300 245,544 545,544 z"
   id="path1248" />
    <path
   class="fil16"
   d="m 7378,4168 c -206,145 -255,432 -110,638 146,206 431,255 638,109 z"
   id="path1250" />
    <path
   class="fil1"
   d="m 7906,4915 c 206,-145 255,-431 109,-637 -145,-206 -431,-255 -637,-110 z"
   id="path1252" />
    <polygon
   class="fil3"
   points="7393,4191 7678,4902 7906,4739 "
   id="polygon1254" />
    <path
   class="fil17"
   d="m 7628,4685 c 69,0 125,-56 125,-125 0,-68 -56,-124 -125,-124 -68,0 -124,56 -124,124 0,69 56,125 124,125 z"
   id="path1256" />
    <polygon
   class="fil3"
   points="7629,4201 7609,4059 7508,4070 7532,4211 "
   id="polygon1258" />
    <polygon
   class="fil3"
   points="7831,4299 7924,4168 7839,4103 7750,4236 "
   id="polygon1260" />
    <polygon
   class="fil3"
   points="7965,4492 8115,4430 8077,4329 7930,4395 "
   id="polygon1262" />
    <polygon
   class="fil3"
   points="7947,4688 8086,4772 8146,4681 8004,4601 "
   id="polygon1264" />
    <polygon
   class="fil3"
   points="7324,4584 7176,4642 7211,4742 7357,4680 "
   id="polygon1266" />
    <polygon
   class="fil3"
   points="7366,4382 7227,4294 7165,4385 7306,4469 "
   id="polygon1268" />
    <polygon
   class="fil3"
   points="5954,4243 6239,4954 6468,4790 "
   id="polygon1270" />
    <path
   class="fil2"
   d="m 6171,4713 c 69,0 125,-56 125,-125 0,-69 -56,-125 -125,-125 -69,0 -124,56 -124,125 0,69 55,125 124,125 z"
   id="path1272" />
    <path
   class="fil3"
   d="m 5970,7169 c 218,0 396,-177 396,-395 0,-219 -178,-396 -396,-396 -218,0 -395,177 -395,396 0,218 177,395 395,395 z"
   id="path1274" />
    <path
   class="fil1"
   d="m 5969,7080 c 167,0 303,-138 303,-309 0,-170 -136,-308 -303,-308 -168,0 -304,138 -304,308 0,171 136,309 304,309 z"
   id="path1276" />
    <path
   class="fil3"
   d="m 6936,7136 c 218,0 396,-177 396,-395 0,-218 -178,-396 -396,-396 -218,0 -395,178 -395,396 0,218 177,395 395,395 z"
   id="path1278" />
    <path
   class="fil1"
   d="m 6935,7047 c 167,0 303,-139 303,-309 0,-170 -136,-308 -303,-308 -168,0 -303,138 -303,308 0,170 135,309 303,309 z"
   id="path1280" />
    <path
   class="fil3"
   d="m 7854,7103 c 192,0 348,-156 348,-347 0,-192 -156,-348 -348,-348 -191,0 -347,156 -347,348 0,191 156,347 347,347 z"
   id="path1282" />
    <path
   class="fil1"
   d="m 7856,7019 c 140,0 254,-116 254,-259 0,-143 -114,-259 -254,-259 -141,0 -255,116 -255,259 0,143 114,259 255,259 z"
   id="path1284" />
    <polygon
   class="fil2"
   points="6114,6881 5837,6576 5939,6983 "
   id="polygon1286" />
    <polygon
   class="fil2"
   points="7103,6842 6826,6537 6928,6944 "
   id="polygon1288" />
    <polygon
   class="fil2"
   points="7926,6881 7870,6537 7802,6875 "
   id="polygon1290" />
    <path
   class="fil3"
   d="m 5702,5994 2473,12 c 0,0 -68,-514 -525,-712 -458,-197 -1095,-169 -1508,51 -412,220 -440,649 -440,649 z"
   id="path1292" />
    <path
   class="fil1"
   d="m 5792,5927 2281,6 c 0,0 -45,-684 -1095,-701 -1050,-17 -1186,695 -1186,695 z"
   id="path1294" />
    <path
   class="fil16"
   d="m 6497,5286 435,644 H 5792 c 0,0 33,-249 265,-429 231,-181 440,-215 440,-215 z"
   id="path1296" />
    <path
   class="fil3"
   d="m 6003,5845 c 41,0 74,-33 74,-75 0,-41 -33,-74 -74,-74 -42,0 -75,33 -75,74 0,42 33,75 75,75 z"
   id="path1298" />
    <path
   class="fil3"
   d="m 6243,5646 c 42,0 75,-34 75,-75 0,-42 -33,-75 -75,-75 -41,0 -74,33 -74,75 0,41 33,75 74,75 z"
   id="path1300" />
    <path
   class="fil3"
   d="m 6577,5474 c 41,0 75,-33 75,-75 0,-41 -34,-75 -75,-75 -41,0 -75,34 -75,75 0,42 34,75 75,75 z"
   id="path1302" />
    <path
   class="fil3"
   d="m 6959,5441 c 41,0 75,-33 75,-75 0,-41 -34,-74 -75,-74 -41,0 -75,33 -75,74 0,42 34,75 75,75 z"
   id="path1304" />
    <path
   class="fil3"
   d="m 7366,5479 c 42,0 75,-34 75,-75 0,-41 -33,-75 -75,-75 -41,0 -74,34 -74,75 0,41 33,75 74,75 z"
   id="path1306" />
    <path
   class="fil3"
   d="m 7661,5643 c 41,0 74,-33 74,-75 0,-41 -33,-75 -74,-75 -42,0 -75,34 -75,75 0,42 33,75 75,75 z"
   id="path1308" />
    <path
   class="fil3"
   d="m 7890,5881 c 41,0 75,-33 75,-75 0,-41 -34,-74 -75,-74 -41,0 -75,33 -75,74 0,42 34,75 75,75 z"
   id="path1310" />
    <polygon
   class="fil3"
   points="6924,5854 6695,5459 6608,5509 6825,5893 "
   id="polygon1312" />
    <path
   class="fil17"
   d="m 7037,5933 c 0,-69 -56,-125 -125,-125 -68,0 -124,56 -124,125 z"
   id="path1314" />
    <path
   class="fil3"
   d="m 6402,5856 c 0,0 116,-220 420,-254 306,-33 472,164 472,164 l -56,68 197,6 -11,-187 -62,62 c 0,0 -155,-208 -528,-192 -373,17 -511,317 -511,317 z"
   id="path1316" />
    <path
   class="fil3"
   d="m 5654,3869 c 45,12 2676,-56 2676,-56 l 11,101 -2710,46 z"
   id="path1318" />
    <polygon
   class="fil3"
   points="8906,7527 5225,7437 5236,7313 8849,7245 "
   id="polygon1320" />
    <polygon
   class="fil3"
   points="8917,7539 8352,3813 8251,3858 8631,7443 "
   id="polygon1322" />
    <polygon
   class="fil14"
   points="4943,6229 4909,5167 3565,5145 4514,6240 "
   id="polygon1324" />
    <path
   class="fil3"
   d="m 5272,5538 -19,702 c 0,0 206,-76 211,-330 6,-254 -192,-372 -192,-372 z"
   id="path1326" />
    <polygon
   class="fil3"
   points="4328,6025 4920,5619 4915,5523 4260,5947 "
   id="polygon1328" />
    <polygon
   class="fil3"
   points="4503,6235 5011,5535 4920,5523 4452,6167 "
   id="polygon1330" />
    <polygon
   class="fil3"
   points="4994,6229 5005,5540 4903,5602 4903,6229 "
   id="polygon1332" />
    <path
   class="fil3"
   d="m 4243,3821 c -190,38 -429,203 -305,553 124,350 565,283 700,-22 135,-305 -169,-576 -395,-531 z"
   id="path1334" />
    <path
   class="fil18"
   d="m 3283,3499 c -152,62 -180,226 -67,351 112,124 317,17 329,-153 11,-169 -149,-243 -262,-198 z"
   id="path1336" />
    <path
   class="fil3"
   d="m 3915,3852 c 167,0 303,-139 303,-309 0,-170 -136,-308 -303,-308 -167,0 -304,138 -304,308 0,170 137,309 304,309 z"
   id="path1338" />
    <path
   class="fil19"
   d="m 4283,4507 c 159,0 288,-131 288,-292 0,-161 -129,-292 -288,-292 -158,0 -287,131 -287,292 0,161 129,292 287,292 z"
   id="path1340" />
    <path
   class="fil3"
   d="m 4808,3848 c 111,0 202,-92 202,-206 0,-112 -91,-205 -202,-205 -111,0 -201,93 -201,205 0,114 90,206 201,206 z"
   id="path1342" />
    <path
   class="fil1"
   d="m 4805,3781 c 75,0 136,-62 136,-138 0,-76 -61,-138 -136,-138 -75,0 -136,62 -136,138 0,76 61,138 136,138 z"
   id="path1344" />
    <path
   class="fil18"
   d="m 4377,4979 c 69,0 125,-56 125,-125 0,-69 -56,-125 -125,-125 -69,0 -125,56 -125,125 0,69 56,125 125,125 z"
   id="path1346" />
    <path
   class="fil8"
   d="m 3971,4860 c 68,0 124,-56 124,-125 0,-68 -56,-124 -124,-124 -69,0 -125,56 -125,124 0,69 56,125 125,125 z"
   id="path1348" />
    <polygon
   class="fil3"
   points="10390,4913 8578,5489 8524,5201 10418,4811 "
   id="polygon1350" />
    <polygon
   class="fil3"
   points="8916,5300 8783,4049 8704,4055 8812,5331 "
   id="polygon1352" />
    <polygon
   class="fil3"
   points="9169,5244 8936,4060 8849,4053 9076,5275 "
   id="polygon1354" />
    <path
   class="fil20"
   d="m 3879,3767 c 41,0 75,-34 75,-75 0,-41 -34,-75 -75,-75 -41,0 -75,34 -75,75 0,41 34,75 75,75 z"
   id="path1356" />
    <path
   class="fil20"
   d="m 4083,3717 c 41,0 75,-34 75,-75 0,-42 -34,-75 -75,-75 -41,0 -75,33 -75,75 0,41 34,75 75,75 z"
   id="path1358" />
    <path
   class="fil20"
   d="m 3768,3549 c 42,0 75,-34 75,-75 0,-41 -33,-75 -75,-75 -41,0 -74,34 -74,75 0,41 33,75 74,75 z"
   id="path1360" />
    <path
   class="fil21"
   d="m 3981,3489 c 34,0 62,-28 62,-62 0,-34 -28,-62 -62,-62 -34,0 -62,28 -62,62 0,34 28,62 62,62 z"
   id="path1362" />
    <path
   class="fil14"
   d="m 12029,6418 18,962 -1632,150 -830,1024 2547,-525 c 0,0 304,-48 372,-172 68,-124 45,-384 45,-384 l 22,-1066 z"
   id="path1364" />
    <polygon
   class="fil3"
   points="13565,3719 12972,3708 12972,3612 13559,3612 "
   id="polygon1366" />
    <polygon
   class="fil3"
   points="13424,4035 13102,4024 13243,3775 "
   id="polygon1368" />
    <polygon
   class="fil3"
   points="13521,4301 13017,4301 13017,4210 13515,4194 "
   id="polygon1370" />
    <polygon
   class="fil3"
   points="11832,3527 11471,3313 11448,3696 "
   id="polygon1372" />
    <polygon
   class="fil3"
   points="12442,7129 12092,7095 12284,7366 "
   id="polygon1374" />
    <polygon
   class="fil3"
   points="10319,7422 9890,7388 10138,7004 "
   id="polygon1376" />
    <polygon
   class="fil3"
   points="12160,8608 12419,8427 12442,8732 "
   id="polygon1378" />
    <polygon
   class="fil3"
   points="9529,8576 9619,8531 9879,6409 9811,6409 "
   id="polygon1380" />
    <polygon
   class="fil3"
   points="12583,7735 12628,3034 12413,3046 12515,7735 "
   id="polygon1382" />
    <polygon
   class="fil3"
   points="5684,3954 5650,3446 5408,3480 5385,3965 "
   id="polygon1384" />
    <polygon
   class="fil3"
   points="3827,5461 4911,5168 4928,5021 3551,5145 "
   id="polygon1386" />
    <polygon
   class="fil3"
   points="8242,3158 5402,3440 5402,3542 8242,3260 "
   id="polygon1388" />
    <polygon
   class="fil3"
   points="11623,8136 11662,7419 11578,7419 11544,8148 "
   id="polygon1390" />
    <polygon
   class="fil3"
   points="12498,6341 12004,6369 12001,6448 12487,6448 "
   id="polygon1392" />
    <polygon
   class="fil3"
   points="11487,6347 10979,6341 10985,6431 11487,6437 "
   id="polygon1394" />
    <polygon
   class="fil3"
   points="10937,6990 10914,6420 10988,6431 11010,6990 "
   id="polygon1396" />
    <path
   class="fil1"
   d="m 6221,7095 67,237 c 0,0 -51,350 -141,521 -91,172 -339,456 -339,456 l -118,-11 c 0,0 39,-528 -277,-510 -316,18 -389,521 -389,521 l -796,-17 c 0,0 -339,260 -395,781 -57,522 11,723 11,723 l -90,296 344,66 51,-238 237,-361 146,675 -186,77 170,942 -63,243 458,-12 -85,-213 277,-1001 366,-30 c 0,0 305,190 413,456 107,267 118,468 118,468 l 62,243 424,12 -153,-314 74,-811 -45,-36 254,-1824 c 0,0 90,-237 79,-575 -12,-338 -57,-533 -57,-533 l -5,-278 z"
   id="path1398" />
    <path
   class="fil6"
   d="m 5144,8461 282,44 101,-37 -22,-142 c 0,0 28,-296 16,-302 -11,-6 -268,23 -268,23 z"
   id="path1400" />
    <path
   class="fil3"
   d="m 5129,8450 c 0,0 6,-531 263,-543 256,-12 184,563 184,563 l -82,-9 c 0,0 71,-458 -98,-467 -168,-10 -183,479 -183,479 z"
   id="path1402" />
    <polygon
   class="fil3"
   points="4742,11230 4590,11236 4466,10383 4996,10276 "
   id="polygon1404" />
    <path
   class="fil3"
   d="m 5843,8420 c 0,0 225,-212 344,-443 119,-230 175,-544 175,-544 l 204,-42 c 39,262 44,776 -68,1116 z"
   id="path1406" />
    <polygon
   class="fil5"
   points="6266,10246 5471,10140 5284,8404 6520,8417 "
   id="polygon1408" />
    <path
   class="fil4"
   d="m 5358,8405 135,1741 c -316,12 -443,33 -861,133 L 4274,8405 Z"
   id="path1410" />
    <path
   class="fil3"
   d="m 4268,8393 423,794 c 0,0 -231,88 -367,284 -135,195 -214,379 -214,379 l -192,-83 c 0,0 -79,-462 45,-853 124,-391 305,-521 305,-521 z"
   id="path1412" />
    <polygon
   class="fil6"
   points="6554,7172 6537,7355 6402,7373 6357,7184 "
   id="polygon1414" />
    <polygon
   class="fil3"
   points="4031,10039 4059,9892 3935,9850 3873,10010 "
   id="polygon1416" />
    <path
   class="fil3"
   d="m 5634,10241 c 0,0 237,184 333,409 96,225 102,467 102,467 l 164,12 73,-776 z"
   id="path1418" />
    <polygon
   class="fil5"
   points="6374,11331 6227,11177 6097,11183 6125,11313 "
   id="polygon1420" />
    <path
   class="fil3"
   d="m 4658,11278 c -81,0 -91,136 -91,136 l 221,-12 c 0,0 -17,-124 -130,-124 z"
   id="path1422" />
    <path
   class="fil3"
   d="m 4976,8407 c 0,0 -25,83 119,222 144,139 355,98 355,98 l 6,77 c 0,0 -254,24 -401,-101 -146,-125 -161,-302 -161,-302 z"
   id="path1424" />
    <path
   class="fil1"
   d="m 4251,8519 320,605 c 0,0 -172,73 -298,258 -127,184 -186,349 -186,349 l -91,-36 c 0,0 -53,-352 13,-647 67,-294 242,-529 242,-529 z"
   id="path1426" />
    <path
   class="fil1"
   d="m 5863,10347 c 0,0 118,114 186,302 68,188 82,391 82,391 h 39 l 48,-619 z"
   id="path1428" />
    <path
   class="fil1"
   d="m 14005,3345 186,231 c 0,0 17,305 186,615 170,311 429,503 429,503 l 79,-29 587,904 -90,45 c 0,0 23,220 62,418 40,197 136,496 136,496 l -130,334 508,-79 -45,-221 c 0,0 107,-451 180,-604 74,-152 220,-327 220,-327 l 227,-56 c 0,0 282,180 412,423 129,242 192,440 192,440 0,0 79,333 282,288 203,-45 84,-384 84,-384 l -107,-1123 -118,39 -384,-1733 147,-79 c 0,0 -74,-530 -390,-767 -316,-237 -627,-209 -627,-209 l -282,-203 -164,429 311,73 c 0,0 180,135 243,310 62,175 73,537 73,537 l -79,28 -23,-265 c 0,0 -124,-96 -293,-68 -170,28 -266,203 -266,203 l -39,508 -90,28 c 0,0 -333,-90 -537,-242 -203,-153 -355,-339 -355,-339 l -90,-339 z"
   id="path1430" />
    <path
   class="fil3"
   d="m 15507,5687 734,-164 c 0,0 -220,271 -293,531 -74,259 -108,457 -108,457 l -169,11 c 0,0 -68,-209 -107,-384 -40,-175 -57,-451 -57,-451 z"
   id="path1432" />
    <path
   class="fil3"
   d="m 14322,3621 c 0,0 45,316 169,542 125,225 350,417 350,417 l 678,-395 c 0,0 -395,-101 -621,-248 -226,-147 -418,-384 -418,-384 z"
   id="path1434" />
    <polygon
   class="fil22"
   points="17178,5292 15665,5698 14920,4490 16760,3418 "
   id="polygon1436" />
    <path
   class="fil3"
   d="m 16653,5523 661,-153 113,999 -209,18 c 0,0 -62,-271 -215,-497 -152,-226 -350,-367 -350,-367 z"
   id="path1438" />
    <polygon
   class="fil5"
   points="15823,6714 15801,6562 15665,6579 15575,6759 "
   id="polygon1440" />
    <path
   class="fil3"
   d="m 17263,6443 c 0,0 63,226 152,186 89,-38 25,-211 25,-211 z"
   id="path1442" />
    <path
   class="fil6"
   d="m 15665,3957 350,-17 -50,-457 c 0,0 -122,-74 -195,36 -74,110 -105,438 -105,438 z"
   id="path1444" />
    <path
   class="fil3"
   d="m 15632,3960 c 0,0 0,-350 79,-464 79,-113 265,-107 333,0 v 452 l -79,6 -17,-418 c -40,-51 -147,-25 -175,23 -29,47 -62,406 -62,406 z"
   id="path1446" />
    <polygon
   class="fil6"
   points="14370,3256 14426,3471 14291,3538 14169,3339 "
   id="polygon1448" />
    <polygon
   class="fil3"
   points="15792,2432 15972,2583 15894,2658 15725,2613 "
   id="polygon1450" />
    <path
   class="fil3"
   d="m 16921,3392 -621,305 c 0,0 34,-350 -45,-610 -79,-259 -259,-361 -259,-361 l 113,-158 c 0,0 316,11 530,248 215,237 282,576 282,576 z"
   id="path1452" />
    <path
   class="fil1"
   d="m 16831,5566 c 0,0 211,178 313,395 102,217 127,341 127,341 l 68,-8 -105,-813 z"
   id="path1454" />
    <path
   class="fil1"
   d="m 16116,2718 c 0,0 150,116 218,364 68,248 51,480 51,480 l 417,-215 c 0,0 -53,-282 -214,-463 -161,-180 -435,-228 -435,-228 z"
   id="path1456" />
    <path
   class="fil3"
   d="m 2843,3962 c 0,0 536,85 671,446 136,362 40,740 40,740 l 118,-6 c 0,0 51,-751 -248,-1005 -299,-254 -587,-242 -587,-242 z"
   id="path1458" />
    <path
   class="fil1"
   d="m 2116,4389 -22,446 c 0,0 440,-418 615,-226 175,192 -84,570 -84,570 l 124,74 c 0,0 243,-40 412,-181 169,-141 260,-373 260,-373 l 50,-17 -13,-234 389,73 -99,387 c 0,0 -6,265 -152,565 -147,299 -452,457 -452,457 l -68,-73 -609,931 84,17 -101,723 169,203 -384,147 -90,-260 -322,-813 -119,-28 c 0,0 -299,174 -429,434 -130,260 -175,480 -175,480 0,0 -84,277 -225,254 -142,-22 -102,-367 -102,-367 l 102,-1089 508,-2015 276,-633 808,-50 316,-51 45,372 -271,-17 c 0,0 -79,108 -192,181 -113,73 -249,113 -249,113 z"
   id="path1460" />
    <polygon
   class="fil3"
   points="2357,7530 2448,6886 1883,6717 2222,7541 "
   id="polygon1462" />
    <path
   class="fil6"
   d="m 2131,4964 198,206 102,34 65,-121 c 0,0 194,-206 189,-217 -6,-12 -258,-99 -258,-99 z"
   id="path1464" />
    <path
   class="fil4"
   d="m 1443,4549 c 406,204 1676,1070 1676,1070 L 2318,6850 957,6503 Z"
   id="path1466" />
    <path
   class="fil3"
   d="m 2126,4947 c 0,0 322,-338 516,-262 195,76 -175,550 -175,550 l -59,-56 c 0,0 302,-376 192,-424 -110,-48 -429,243 -429,243 z"
   id="path1468" />
    <path
   class="fil3"
   d="m 1477,4493 237,-553 688,-68 51,195 c -130,144 -181,170 -434,257 l -23,485 z"
   id="path1470" />
    <path
   class="fil3"
   d="m 2786,5362 c 0,0 328,-90 474,-237 147,-147 209,-339 209,-339 l 175,80 c 0,0 23,333 -147,581 -169,249 -338,350 -338,350 z"
   id="path1472" />
    <path
   class="fil3"
   d="m 946,6616 644,146 c 0,0 -294,169 -395,418 -102,248 -159,452 -159,452 l -191,-35 z"
   id="path1474" />
    <polygon
   class="fil3"
   points="2730,4024 2527,4013 2498,3889 2702,3833 "
   id="polygon1476" />
    <polygon
   class="fil6"
   points="3695,4809 3763,4600 3571,4532 3548,4735 "
   id="polygon1478" />
    <path
   class="fil3"
   d="m 850,7643 c 0,0 -22,158 34,192 57,34 130,-175 130,-175 z"
   id="path1480" />
    <polygon
   class="fil5"
   points="2470,7699 2357,7575 2233,7592 2301,7739 "
   id="polygon1482" />
    <path
   class="fil3"
   d="m 1920,4820 c 0,0 -124,241 37,483 160,243 443,184 443,184 v -60 c 0,0 -277,23 -393,-174 -115,-198 -36,-393 -36,-393 z"
   id="path1484" />
    <polygon
   class="fil3"
   points="1666,6314 2021,5332 2067,5371 1728,6342 "
   id="polygon1486" />
    <path
   class="fil1"
   d="m 1004,6695 405,101 c 0,0 -213,207 -272,334 -59,127 -146,425 -146,425 l -82,-14 z"
   id="path1488" />
    <path
   class="fil1"
   d="m 1787,4019 164,220 c 0,0 127,-11 245,-65 119,-54 172,-127 172,-127 l -14,-101 z"
   id="path1490" />
    <polygon
   class="fil3"
   points="1047,7497 897,7341 894,7437 1013,7545 "
   id="polygon1492" />
    <polygon
   class="fil3"
   points="1089,7330 937,7163 917,7237 1072,7395 "
   id="polygon1494" />
    <path
   class="fil3"
   d="m 1016,7305 c 0,0 67,-40 73,-257 6,-218 -113,-302 -113,-302 l -8,90 c 0,0 59,99 53,201 -5,101 -45,200 -45,200 z"
   id="path1496" />
    <path
   class="fil3"
   d="m 1092,6698 c -10,5 59,118 79,212 20,93 14,194 14,194 l 76,-82 c 0,0 -14,-104 -37,-183 -22,-79 -47,-107 -47,-107 0,0 -80,-37 -85,-34 z"
   id="path1498" />
    <polygon
   class="fil3"
   points="4194,9616 3951,9455 3951,9559 4146,9701 "
   id="polygon1500" />
    <polygon
   class="fil3"
   points="4239,9518 3968,9088 3931,9177 4174,9586 "
   id="polygon1502" />
    <polygon
   class="fil3"
   points="4403,9290 4030,8893 3993,9000 4329,9355 "
   id="polygon1504" />
    <path
   class="fil3"
   d="m 4219,8544 c 0,0 62,138 85,305 22,166 -51,351 -51,351 l 51,66 c 0,0 104,-175 90,-364 -14,-190 -132,-382 -132,-382 z"
   id="path1506" />
    <path
   class="fil3"
   d="m 4134,8695 c 0,0 34,112 29,195 -6,83 -43,145 -43,145 l 57,80 c 0,0 65,-100 62,-246 -3,-145 -62,-257 -62,-257 z"
   id="path1508" />
    <path
   class="fil3"
   d="m 16223,2636 c 0,0 11,62 -5,110 -17,48 -60,91 -60,91 l 48,84 c 0,0 62,-67 82,-141 20,-73 14,-130 14,-130 z"
   id="path1510" />
    <polygon
   class="fil3"
   points="16280,3014 16494,2780 16424,2727 16246,2944 "
   id="polygon1512" />
    <path
   class="fil3"
   d="m 16395,2865 c 0,0 65,93 150,133 85,39 166,25 166,25 l 51,90 c 0,0 -132,14 -245,-36 -113,-51 -175,-144 -175,-144 z"
   id="path1514" />
    <path
   class="fil3"
   d="m 16308,3057 c 0,0 87,110 226,127 138,17 237,-28 237,-28 l 48,65 c 0,0 -175,53 -291,47 -116,-5 -186,-64 -186,-64 z"
   id="path1516" />
    <path
   class="fil3"
   d="m 16359,3328 c 0,0 93,53 183,56 90,3 274,-65 274,-65 l 17,68 c 0,0 -184,88 -325,76 -141,-11 -161,-45 -161,-45 z"
   id="path1518" />
    <polygon
   class="fil3"
   points="16977,5764 17115,5498 17025,5498 16903,5696 "
   id="polygon1520" />
    <path
   class="fil3"
   d="m 17304,5654 c 0,0 -70,0 -138,53 -68,54 -102,189 -102,189 l -56,-50 c 0,0 22,-142 113,-209 90,-68 158,-62 158,-62 z"
   id="path1522" />
    <polygon
   class="fil3"
   points="17107,5978 17324,5814 17296,5730 17073,5896 "
   id="polygon1524" />
    <polygon
   class="fil3"
   points="17335,6015 17180,6176 17163,6085 17324,5896 "
   id="polygon1526" />
    <path
   class="fil23"
   d="m 16226,3737 c 0,0 40,102 23,198 -17,95 -152,276 -152,276 l 423,1254 672,-181 -418,-1824 z"
   id="path1528" />
    <path
   class="fil3"
   d="m 15818,4242 c 0,0 200,5 319,-136 118,-141 45,-347 45,-347 l 76,-48 c 0,0 105,215 -45,420 -150,207 -401,201 -401,201 z"
   id="path1530" />
    <polygon
   class="fil3"
   points="16461,5165 16134,4166 16072,4211 16388,5193 "
   id="polygon1532" />
    <polygon
   class="fil3"
   points="12255,7638 11595,7762 11578,7863 12351,7722 12176,3432 9416,3545 9427,3641 12086,3534 "
   id="polygon1534" />
    <polygon
   class="fil3"
   points="10167,6639 10946,6661 10968,6774 10280,6729 10076,8016 11583,7762 11600,7863 9963,8151 "
   id="polygon1536" />
    <polygon
   class="fil3"
   points="10567,4397 8975,4493 9004,4606 10477,4488 10471,5696 9382,5673 9342,5764 10567,5792 "
   id="polygon1538" />
    <path
   class="fil3"
   d="m 3351,3817 v -249 c -68,0 -124,56 -124,125 0,69 56,124 124,124 z"
   id="path1540" />
    <polygon
   class="fil3"
   points="15353,1575 15613,999 15093,796 14845,1349 "
   id="polygon1542" />
    <polygon
   class="fil13"
   points="14930,1316 15043,1101 15383,1259 15292,1439 "
   id="polygon1544" />
    <polygon
   class="fil13"
   points="15015,2665 15134,2416 14897,2281 14772,2546 "
   id="polygon1546" />
    <polygon
   class="fil3"
   points="14671,339 14976,0 15047,75 15040,557 14981,649 "
   id="polygon1548" />
    <polygon
   class="fil12"
   points="15044,564 15278,316 15044,68 14824,331 "
   id="polygon1550" />
    <polygon
   class="fil3"
   points="11938,3776 9613,3765 9590,3878 11950,4115 "
   id="polygon1552" />
    <path
   class="fil3"
   d="m 3430,4301 c 69,0 125,-55 125,-124 0,-69 -56,-125 -125,-125 -69,0 -125,56 -125,125 0,69 56,124 125,124 z"
   id="path1554" />
    <path
   class="fil20"
   d="m 3427,4238 c 34,0 62,-28 62,-62 0,-34 -28,-62 -62,-62 -34,0 -62,28 -62,62 0,34 28,62 62,62 z"
   id="path1556" />
   </g>
  </g>
 <path
   style="fill:#146f5e;fill-opacity:1;stroke:#000000;stroke-width:0.426651"
   d="m 765.81173,201.48549 c -0.87506,-2.63954 -1.67935,-5.03916 -1.7873,-5.33248 -0.10795,-0.29332 0.11226,-0.53331 0.48935,-0.53331 0.3771,0 0.68563,-0.14849 0.68563,-0.32997 0,-0.18148 -2.65948,-8.4285 -5.90996,-18.32671 l -5.90995,-17.99674 1.24056,-1.18853 c 0.68231,-0.6537 1.85384,-2.43428 2.60341,-3.95686 1.279,-2.59802 1.3588,-3.03135 1.2972,-7.04381 -0.0361,-2.35152 -0.13209,-4.72516 -0.21332,-5.27476 -0.13401,-0.90668 0.69452,-1.43499 8.9414,-5.7015 4.999,-2.58622 9.19958,-4.59172 9.33463,-4.45667 0.21957,0.21956 15.29097,65.43385 15.58714,67.44588 0.10803,0.73387 -1.11219,1.15692 -11.18501,3.8778 -6.21844,1.67973 -11.81847,3.18067 -12.4445,3.33543 -1.12068,0.27705 -1.1628,0.20732 -2.72928,-4.51777 z"
   id="path52843"
   transform="matrix(26.458636,0,0,26.458636,-3780.8544,-2.1866781e-4)" /><path
   style="fill:#146f5e;fill-opacity:1;stroke:#000000;stroke-width:0.426651"
   d="m 539.06205,102.28969 c -0.007,-0.64531 -0.8536,-13.652848 -1.88212,-28.905638 -1.02852,-15.25279 -1.80999,-27.793405 -1.73661,-27.868034 0.0734,-0.07463 1.14718,0.165363 2.38621,0.533314 3.50781,1.041707 3.63425,0.989388 4.31198,-1.784242 l 0.59945,-2.453246 1.89978,-0.100337 c 1.04489,-0.05518 4.87568,-0.202055 8.51289,-0.326378 3.6372,-0.124322 8.29303,-0.295058 10.3463,-0.379412 l 3.7332,-0.153371 -0.0157,14.772573 -0.0157,14.772573 -3.93082,2.625248 c -3.40906,2.276787 -4.24748,2.648805 -6.3165,2.802733 -2.93974,0.218706 -4.86973,1.483796 -5.97437,3.916142 -1.03626,2.281786 -1.01221,3.563842 0.13303,7.092582 l 0.94598,2.914776 3.5276,0.293848 c 3.23257,0.269273 5.20304,0.171036 10.25988,-0.511487 l 1.81327,-0.24474 v 3.182786 c 0,1.750534 -0.12475,4.940219 -0.27722,7.088195 l -0.27721,3.905405 h -14.01561 -14.01561 z m 9.12362,-15.429318 c 2.2191,-0.96241 2.26061,-1.111256 1.13525,-4.071171 -0.39209,-1.031275 -0.57434,-1.085445 -3.65188,-1.085445 -2.87855,0 -3.2164,0.08313 -3.03438,0.74664 0.11265,0.410652 0.4389,1.802602 0.72499,3.093223 0.75726,3.416152 0.2834,3.286859 4.82602,1.316753 z"
   id="path52882"
   transform="matrix(26.458636,0,0,26.458636,-3780.8544,-2.1866781e-4)" /><path
   style="fill:#146f5e;fill-opacity:1;stroke:#000000;stroke-width:0.426651"
   d="m 317.84459,386.65289 c -0.14452,-0.76264 -1.66053,-8.68236 -3.36894,-17.59937 l -3.10618,-16.21276 2.17631,-1.57563 c 1.19697,-0.8666 3.18427,-2.08944 4.41623,-2.71744 1.23195,-0.62799 2.23992,-1.28435 2.23992,-1.45857 0,-0.17422 -3.43609,-6.77509 -7.63576,-14.66861 l -7.63575,-14.35184 h 11.42813 11.42814 l 0.26469,1.38662 c 0.38761,2.03059 2.15236,5.62055 3.72479,7.57724 2.4967,3.1068 5.83329,4.75132 11.61735,5.7259 l 3.04494,0.51306 1.9212,24.98018 1.92119,24.98019 -4.69316,0.28168 c -6.25799,0.37561 -12.27606,1.28569 -20.2304,3.05933 -3.61765,0.80665 -6.72884,1.46664 -6.91375,1.46664 -0.18491,0 -0.45444,-0.62398 -0.59895,-1.38662 z"
   id="path52921"
   transform="matrix(26.458636,0,0,26.458636,-3780.8544,-2.1866781e-4)" /><path
   style="fill:#146f5e;fill-opacity:1;stroke:#000000;stroke-width:0.426651"
   d="m 205.00603,252.15389 c -24.92959,-6.38386 -25.38378,-6.51896 -25.27523,-7.51829 0.30242,-2.78423 17.84846,-72.05508 18.25127,-72.05508 0.47346,0 15.80654,9.03857 16.4864,9.71843 0.2125,0.2125 0.0739,1.64251 -0.32237,3.32685 -1.28583,5.46498 -0.38236,10.3497 2.7954,15.11372 l 1.56525,2.34658 -6.29547,17.27938 c -3.46251,9.50366 -6.30818,17.59659 -6.32371,17.98429 -0.0164,0.40981 0.4954,0.88745 1.22263,1.14096 1.2103,0.42191 1.27072,0.3783 1.86307,-1.34488 2.33955,-6.80589 11.51015,-32.9481 11.59007,-33.0393 0.0544,-0.062 1.18925,0.3864 2.52196,0.99653 2.78027,1.27285 7.56288,2.05235 9.43975,1.53854 0.9651,-0.2642 1.27995,-0.59997 1.27995,-1.36496 0,-0.94414 -0.23978,-1.04882 -3.45481,-1.50818 -7.77744,-1.11125 -11.92729,-4.79193 -13.39112,-11.87718 -0.50538,-2.44616 -0.30633,-7.18955 0.34599,-8.24503 0.20613,-0.33353 1.3896,0.22335 3.65586,1.72025 3.88896,2.56872 3.44916,2.28394 8.89352,5.7589 2.34452,1.49643 4.13482,2.91768 4.03081,3.19989 -0.10291,0.27924 0.30342,1.03422 0.90297,1.67773 0.96897,1.04001 1.16677,1.10062 1.78026,0.54542 0.61682,-0.55821 1.39547,-0.15383 7.3264,3.8049 5.90263,3.93983 7.0677,4.92512 10.53941,8.91308 2.14674,2.46598 3.90317,4.69066 3.90317,4.94373 0,0.31027 -26.5858,41.64938 -27.90636,43.3925 -0.0216,0.0285 -11.4629,-2.87341 -25.42507,-6.44878 z"
   id="path52960"
   transform="matrix(26.458636,0,0,26.458636,-3780.8544,-2.1866781e-4)" /><path
   style="fill:#ffbe30;fill-opacity:1;stroke:#000000;stroke-width:0.426651"
   d="m 343.33834,329.58048 c -3.20763,-0.46769 -6.60595,-2.27409 -8.65887,-4.60268 -1.9916,-2.25903 -3.38461,-4.74444 -3.38461,-6.03883 0,-0.84055 0.23894,-0.8703 6.98879,-0.8703 h 6.98878 l 0.28915,4.5865 c 0.15904,2.52258 0.39533,5.21048 0.5251,5.97312 0.12977,0.76264 0.0706,1.36267 -0.13152,1.33339 -0.20211,-0.0293 -1.37968,-0.20081 -2.61682,-0.3812 z"
   id="path52999"
   transform="matrix(26.458636,0,0,26.458636,-3780.8544,-2.1866781e-4)" /><path
   style="fill:#ffbe30;fill-opacity:1;stroke:#000000;stroke-width:0.213326"
   d="m 330.88478,173.4116 c 0.29347,-3.69421 0.17483,-12.48867 -0.21843,-16.19053 -0.39943,-3.75996 -1.17319,-8.27621 -1.85342,-10.81798 l -0.44022,-1.64497 1.29295,-1.19705 c 0.79897,-0.7397 1.52019,-1.65979 1.88773,-2.40822 0.53616,-1.09179 0.59478,-1.43194 0.59478,-3.45109 0,-1.9817 -0.0657,-2.38001 -0.56962,-3.45513 -1.59764,-3.40836 -5.72063,-5.24889 -9.14631,-4.08296 l -1.18289,0.4026 -0.8437,-1.0303 c -1.28656,-1.57111 -4.01901,-3.91745 -6.31082,-5.41906 -12.45629,-8.16147 -30.09222,-9.65605 -51.16484,-4.33603 -3.26204,0.82354 -8.71943,2.53201 -11.15229,3.4913 l -1.8666,0.73601 v -2.82478 c 0,-1.55364 -0.0634,-5.71464 -0.14079,-9.24669 l -0.14078,-6.42189 0.5141,-0.11449 c 1.76592,-0.39326 231.03349,-40.279516 231.10677,-40.206222 0.0499,0.04988 -0.0961,1.145046 -0.32439,2.433705 -0.54637,3.084166 -0.76155,9.422013 -0.4332,12.759668 0.50904,5.174478 1.90526,11.164748 3.55704,15.261089 l 0.73288,1.817526 v 5.052164 5.05215 l 0.90663,-0.0947 c 0.49865,-0.0521 3.86024,-0.36196 7.47018,-0.68865 3.60994,-0.3267 6.60851,-0.63899 6.66351,-0.69398 0.055,-0.055 -0.0361,-0.81326 -0.20249,-1.68505 -0.16635,-0.8718 -0.41925,-2.9953 -0.56197,-4.718897 -0.42914,-5.182388 0.20996,-8.676173 2.38087,-13.015566 1.19961,-2.397927 2.4246,-4.364682 2.48757,-3.993954 0.22736,1.338171 1.29866,15.676349 1.17463,15.721124 -0.0878,0.0317 -0.61717,0.344827 -1.17638,0.695837 -0.82566,0.518268 -0.99685,0.727925 -0.91097,1.115656 0.13504,0.60962 3.31432,21.40757 3.31432,21.68128 0,0.11259 -0.55198,0.26303 -1.22662,0.33431 -2.59012,0.27366 -6.20606,0.97243 -7.84115,1.51529 -4.44019,1.47414 -6.48963,3.4439 -7.9069,7.59945 -0.81655,2.39421 -1.11471,4.92531 -1.25178,10.62566 -0.0691,2.87456 -0.18474,6.74279 -0.25699,8.59606 l -0.13136,3.36959 -2.37219,-0.13017 c -1.3047,-0.0716 -3.09215,-0.2331 -3.97212,-0.35891 -0.87997,-0.12581 -2.67991,-0.22136 -3.99986,-0.21233 -1.31995,0.009 -2.39991,-0.0559 -2.39991,-0.14439 0,-0.0884 -0.55198,-0.12888 -1.22663,-0.0899 -0.67464,0.039 -4.05852,-0.0988 -7.51973,-0.30637 l -6.29311,-0.37732 -0.63056,-4.11249 c -0.58491,-3.8148 -0.66143,-4.10819 -1.05704,-4.05318 -0.40352,0.0561 -0.51539,-0.52639 -2.07795,-10.82032 -0.90831,-5.98378 -1.65659,-11.57558 -1.66286,-12.42622 -0.01,-1.32275 -0.0654,-1.54795 -0.38471,-1.55584 -0.20533,-0.005 -24.39639,2.37083 -53.75791,5.27981 l -53.38459,5.28904 -0.005,3.30655 c -0.003,1.8186 -0.14505,6.09045 -0.31644,9.493 -0.38646,7.6722 -0.39079,7.09638 0.0543,7.21268 0.23508,0.0614 0.16093,0.10672 -0.20026,0.12231 -0.74877,0.0323 -0.69871,-0.4731 -1.24905,12.61096 -0.24923,5.92512 -0.46907,10.78438 -0.48854,10.79835 -0.0195,0.014 -2.88246,0.42259 -6.36218,0.90804 -3.47972,0.48544 -6.63362,0.944 -7.00866,1.01901 l -0.68189,0.13637 z"
   id="path55805"
   transform="matrix(26.458636,0,0,26.458636,-3780.8544,-2.1866781e-4)" /><path
   style="fill:#ffbe30;fill-opacity:1;stroke:#000000;stroke-width:0.213326"
   d="m 588.67236,166.90823 c -8.80526,-0.85988 -22.77893,-1.83497 -35.19874,-2.45619 -3.93053,-0.1966 -7.16723,-0.37287 -7.19268,-0.39171 -0.0254,-0.0188 -0.0576,-1.53395 -0.0714,-3.36692 l -0.0251,-3.33266 -1.52857,-0.12675 c -0.84071,-0.0697 -9.8772,-0.60685 -20.08107,-1.19363 -10.20388,-0.58679 -18.6154,-1.13716 -18.69228,-1.22305 -0.12175,-0.13603 -0.46178,-8.16763 -0.34499,-8.14866 0.0244,0.004 19.8934,2.00556 44.15324,4.44799 24.25984,2.44243 44.1584,4.49037 44.21902,4.55099 0.0606,0.0606 0.20174,2.11488 0.3136,4.56502 0.11186,2.45014 0.24154,5.05479 0.28816,5.78809 l 0.0848,1.33329 -0.98873,-0.0302 c -0.5438,-0.0166 -2.76467,-0.20363 -4.93526,-0.4156 z"
   id="path55844"
   transform="matrix(26.458636,0,0,26.458636,-3780.8544,-2.1866781e-4)" /><path
   style="fill:#ffbe30;fill-opacity:1;stroke:#000000;stroke-width:0.213326"
   d="m 531.60435,114.1826 c 3.11312,-5.77748 3.541,-6.46721 4.08686,-6.58786 0.33533,-0.0741 2.68786,-0.14611 5.22785,-0.15999 l 4.61816,-0.0252 2.9201,5.77682 c 1.60605,3.17725 2.88515,5.81176 2.84245,5.85447 -0.0773,0.0773 -21.6167,1.5949 -22.63683,1.5949 -0.5073,0 -0.35106,-0.34277 2.94141,-6.4531 z"
   id="path55883"
   transform="matrix(26.458636,0,0,26.458636,-3780.8544,-2.1866781e-4)" /><path
   style="fill:#ffbe30;fill-opacity:1;stroke:#000000;stroke-width:0.213326"
   d="m 230.07446,191.78309 c -2.40379,-1.57698 -4.40174,-2.96086 -4.43988,-3.0753 -0.14509,-0.43527 5.80614,-5.05449 8.93457,-6.93483 l 1.59397,-0.95806 2.71414,0.97539 c 1.72739,0.62077 2.71413,1.08444 2.71413,1.27535 0,0.45981 -1.34231,3.17715 -2.54721,5.15649 -1.169,1.92038 -4.31871,6.42679 -4.49254,6.42767 -0.0587,2.9e-4 -2.07339,-1.28972 -4.47718,-2.86671 z"
   id="path55922"
   transform="matrix(26.458636,0,0,26.458636,-3780.8544,-2.1866781e-4)" /><path
   style="fill:#ffbe30;fill-opacity:1;stroke:#000000;stroke-width:0.213326"
   d="m 340.27507,316.52206 c 0.57164,-4.86651 1.49919,-8.74525 2.63428,-11.01581 l 0.75841,-1.51708 1.27995,-0.13314 c 0.70398,-0.0732 1.92773,-0.19588 2.71945,-0.27255 l 1.4395,-0.13941 0.42647,0.6992 c 1.09341,1.79265 1.58465,5.42508 1.37117,10.13887 l -0.14733,3.25321 h -5.30047 -5.30046 z"
   id="path55961"
   transform="matrix(26.458636,0,0,26.458636,-3780.8544,-2.1866781e-4)" /><path
   style="fill:#ffbe30;fill-opacity:1;stroke:#000000;stroke-width:0.213326"
   d="m 384.75186,277.69677 c -0.11598,-0.43998 -0.48803,-1.97013 -0.82678,-3.40033 l -0.61591,-2.60036 0.76523,-0.11307 c 1.57039,-0.23204 6.41816,-0.38833 6.41202,-0.20672 -0.0351,1.03643 -0.63032,6.33494 -0.722,6.42662 -0.11667,0.11667 -3.70136,0.67121 -4.43659,0.68633 -0.24483,0.005 -0.43456,-0.25601 -0.57597,-0.79247 z"
   id="path56000"
   transform="matrix(26.458636,0,0,26.458636,-3780.8544,-2.1866781e-4)" /><path
   style="fill:#ffbe30;fill-opacity:1;stroke:#000000;stroke-width:0.603376"
   d="m 534.59139,44.76044 c -1.65928,-0.312925 -3.1183,-0.657754 -3.24226,-0.766286 -0.12397,-0.108533 0.93449,-3.603033 2.35213,-7.765557 2.81867,-8.276296 2.44072,-7.93763 7.52727,-6.745045 3.2737,0.767546 3.19511,0.579195 2.37031,5.681138 -0.27633,1.709293 -0.5349,1.955981 -1.89729,1.810129 -1.47766,-0.158193 -1.64385,0.09142 -2.62946,3.949478 -0.57866,2.265089 -1.14474,4.182863 -1.25796,4.26172 -0.11322,0.07886 -1.56345,-0.112652 -3.22274,-0.425577 z"
   id="path56039"
   transform="matrix(26.458636,0,0,26.458636,-3780.8544,-2.1866781e-4)" /><path
   style="fill:#ffbe30;fill-opacity:1;stroke:#000000;stroke-width:0.603376"
   d="m 626.36049,170.27737 -6.58124,-1.2662 0.41763,-27.33568 0.41763,-27.33568 -1.68028,0.0144 c -0.92416,0.008 -10.90174,0.66706 -22.1724,1.46484 -11.27066,0.79778 -20.67528,1.3373 -20.89915,1.19894 -0.22386,-0.13838 -0.60504,-4.076 -0.84706,-8.75029 -0.4231,-8.17157 -0.4954,-8.523918 -1.87831,-9.154017 -1.22002,-0.555879 -1.43827,-1.087894 -1.43827,-3.505901 v -2.850579 l 3.08205,-1.008089 c 6.16174,-2.015401 10.37249,-5.793488 13.10216,-11.75587 3.15534,-6.89217 2.32641,-20.363598 -1.76391,-28.666159 -0.97009,-1.969109 -1.51217,-3.735715 -1.20462,-3.925792 0.87817,-0.542739 58.61463,-10.466202 58.94896,-10.131863 0.16427,0.164258 0.0342,2.883767 -0.28907,6.043354 -0.46418,4.53718 -0.92725,6.282559 -2.20303,8.303512 -2.17976,3.452965 -6.80367,13.015397 -7.63449,15.788434 -0.59092,1.972323 -1.24227,2.54026 -5.3853,4.695703 -2.59219,1.348605 -4.86494,2.697741 -5.05056,2.998081 -0.18562,0.30034 1.12135,2.951922 2.90438,5.892405 l 3.24187,5.346334 -0.29273,7.599018 c -0.2708,7.029429 0.56281,20.262589 1.58937,25.230589 l 0.43637,2.11181 14.45659,0.75477 c 8.39945,0.43853 14.54085,1.00735 14.65771,1.3576 0.11062,0.33156 0.52046,0.60283 0.91077,0.60283 0.3903,0 1.00642,0.47522 1.36914,1.05603 0.62301,0.9976 -0.20366,1.04405 -14.93926,0.8393 l -15.59878,-0.21674 0.006,1.42337 c 0.003,0.78285 0.68134,10.79078 1.507,22.23984 0.82567,11.44907 1.50186,21.15588 1.50265,21.5707 0.002,0.95936 -0.70019,0.90856 -8.69162,-0.62896 z"
   id="path56078"
   transform="matrix(26.458636,0,0,26.458636,-3780.8544,-2.1866781e-4)" /><path
   style="fill:#ff5001;fill-opacity:1;stroke:#000000;stroke-width:0.603376"
   d="m 708.66545,191.84613 c -15.66496,-6.08423 -29.79612,-10.52983 -43.11128,-13.56262 -4.33071,-0.98639 -8.44181,-1.92412 -9.13578,-2.08383 -1.24697,-0.28698 -1.21687,-0.56128 2.56553,-23.38208 4.48248,-27.04468 4.20996,-25.69772 5.17742,-25.58986 0.41763,0.0466 7.33782,-4.09021 15.37819,-9.19282 l 14.61885,-9.27747 -1.24543,-1.74906 -1.24544,-1.74905 5.02956,-2.32998 c 8.32884,-3.858395 9.18964,-4.071634 11.66716,-2.89019 l 2.13484,1.01804 0.97327,-2.040966 c 0.91435,-1.917413 1.26977,-2.099114 5.87117,-3.00155 8.17019,-1.60235 11.832,-1.884747 11.86674,-0.915158 0.0165,0.460512 0.63118,8.619814 1.36595,18.131784 1.0869,14.0706 1.19384,17.50851 0.57364,18.44258 -0.43713,0.65834 -1.06447,5.17546 -1.47065,10.58914 l -0.70834,9.44104 -1.62953,0.56806 c -3.21128,1.11946 -16.65065,-4.61153 -23.31228,-9.94112 -4.86367,-3.89113 -9.70575,-8.64011 -11.00664,-10.79499 -0.60101,-0.99557 -1.68641,-4.11804 -2.41199,-6.93883 -0.72557,-2.82078 -1.43352,-5.47319 -1.57321,-5.89425 -0.17379,-0.52382 -2.93393,0.57697 -8.74101,3.48605 l -8.48702,4.2516 3.55681,4.35785 c 2.91427,3.57059 3.63326,4.90284 3.97999,7.37472 1.6343,11.65112 7.20936,23.26503 15.70233,32.71088 4.53592,5.04483 7.20273,6.92513 8.90433,6.27818 1.34654,-0.51195 1.7849,-0.003 7.27113,8.44091 3.211,4.94215 5.51022,8.97498 5.10936,8.96186 -0.40086,-0.0131 -3.85131,-1.23661 -7.66767,-2.71887 z"
   id="path56117"
   transform="matrix(26.458636,0,0,26.458636,-3780.8544,-2.1866781e-4)" /><path
   style="fill:#ff5001;fill-opacity:1;stroke:#000000;stroke-width:0.426651"
   d="m 246.60455,305.97854 c -29.33229,-5.16601 -53.40408,-9.44757 -53.49286,-9.51458 -0.0888,-0.067 0.0368,-0.94516 0.27909,-1.95144 0.24229,-1.00629 2.21869,-9.1017 4.39199,-17.98981 l 3.95147,-16.1602 2.75869,-2.02572 2.75868,-2.02572 2.12123,0.55957 c 1.16668,0.30776 2.1799,0.61971 2.25161,0.69321 0.31043,0.31819 13.01073,32.8837 14.02894,35.97236 0.61886,1.87727 1.27328,3.64634 1.45427,3.93127 0.24154,0.38026 2.2484,-0.21924 7.54472,-2.2538 3.96861,-1.52452 7.29514,-2.85135 7.3923,-2.9485 0.0971,-0.0972 -1.28765,-1.90255 -3.07733,-4.01199 l -3.25397,-3.83534 1.90988,-13.55378 c 1.05043,-7.45458 1.83075,-13.63291 1.73404,-13.72963 -0.0967,-0.0967 -0.77145,-0.29766 -1.4994,-0.44654 l -1.32355,-0.2707 11.15815,-17.06589 c 6.13699,-9.38624 11.23669,-17.1479 11.33266,-17.24812 0.096,-0.10022 0.74967,0.36882 1.45265,1.04232 l 1.27815,1.22454 1.5003,-0.85742 c 3.00816,-1.71915 8.79693,-6.68393 11.03812,-9.46692 3.19242,-3.96417 5.01125,-7.21904 7.09151,-12.69054 l 0.43455,-1.14296 1.78817,2.07692 c 0.9835,1.14231 2.52423,2.79743 3.42386,3.67806 1.75349,1.71645 24.22349,27.5307 25.29242,29.05674 0.63568,0.90751 0.74458,0.9134 14.60504,0.78914 7.68053,-0.0689 14.2116,0.0428 14.5135,0.24814 0.44352,0.30166 0.45908,2.20511 0.081,9.91373 -0.25734,5.24721 -0.58994,9.74338 -0.73913,9.99149 -0.47309,0.7868 -36.84151,53.26492 -38.37548,55.37423 -0.80729,1.11008 -1.36272,2.18839 -1.23426,2.39622 0.12844,0.20784 -0.0979,0.6606 -0.50304,1.00614 -0.65646,0.55992 -6.53744,-0.39339 -54.06801,-8.76448 z"
   id="path58845"
   transform="matrix(26.458636,0,0,26.458636,-3780.8544,-2.1866781e-4)" /><path
   style="fill:#ff5001;fill-opacity:1;stroke:#000000;stroke-width:0.426651"
   d="m 599.23199,368.10917 c -55.26204,-9.74993 -100.53029,-17.77178 -100.59613,-17.82633 -0.0658,-0.0546 -2.42353,-21.37832 -5.2393,-47.38617 -2.81578,-26.00783 -5.18229,-47.34966 -5.2589,-47.42627 -0.0766,-0.0766 -2.95074,-0.26073 -6.38695,-0.40915 -3.43621,-0.14841 -6.24765,-0.35056 -6.24765,-0.44923 0,-0.38858 -6.8493,-45.60812 -7.03306,-46.4327 -0.17875,-0.80214 0.5475,-1.11396 8.21832,-3.52862 4.62792,-1.4568 8.55839,-2.64479 8.73439,-2.63998 0.17599,0.005 0.3242,2.64866 0.32936,5.87521 0.008,4.76013 0.15637,6.1883 0.7889,7.57306 1.65851,3.63094 7.97315,7.79524 12.47668,8.22797 1.77179,0.17025 48.23641,-0.6929 48.44341,-0.89991 0.0413,-0.0413 -0.19037,-12.84261 -0.51483,-28.44736 -0.32447,-15.60475 -0.59648,-28.7329 -0.60448,-29.17366 -0.0138,-0.75912 0.28365,-0.78576 5.63859,-0.50497 16.32277,0.8559 41.39982,2.76218 42.06125,3.19737 0.2025,0.13324 0.49418,2.21018 0.64817,4.61543 0.2556,3.9922 0.21476,4.37295 -0.46879,4.37056 -0.41183,-0.001 -9.28008,-0.86179 -19.70723,-1.91191 -10.42714,-1.05012 -19.05525,-1.81251 -19.17357,-1.69419 -0.11832,0.11831 0.40291,15.13817 1.15827,33.37746 0.75536,18.23929 1.36776,33.81479 1.36087,34.61222 l -0.0125,1.44988 -22.14262,-0.31067 -22.14261,-0.31067 -0.25538,1.63403 c -0.14046,0.89871 -2.46357,18.72141 -5.16248,39.606 -2.6989,20.88459 -5.02089,38.69583 -5.15997,39.58053 -0.24422,1.55341 -0.21865,1.5944 0.74603,1.19574 1.26672,-0.52347 3.9142,-1.09055 32.96802,-7.06156 13.12449,-2.69729 23.94127,-4.82559 24.0373,-4.72957 0.096,0.096 0.35979,5.13325 0.58613,11.19382 0.22634,6.06057 0.50028,11.61351 0.60877,12.33987 l 0.19724,1.32065 2.23296,-0.3524 c 1.22813,-0.19381 21.72027,-2.10704 45.53809,-4.25161 23.81782,-2.14457 43.31566,-3.92424 43.32853,-3.95482 0.2655,-0.63061 -1.58043,-71.72983 -1.91527,-73.76989 -0.65001,-3.96023 -1.99695,-7.37158 -3.32221,-8.41402 -2.17695,-1.71239 -5.32068,-2.25211 -12.6863,-2.17798 -3.76498,0.0379 -8.90934,-0.0577 -11.43192,-0.21246 l -4.5865,-0.28134 0.003,-17.7578 c 0.002,-9.7668 0.12543,-19.05377 0.27502,-20.63771 l 0.27199,-2.8799 h 15.41974 15.41975 l 1.87603,-11.43881 1.87603,-11.43881 4.29509,0.94916 c 8.98813,1.98628 23.02575,5.83509 23.80159,6.52587 0.28061,0.24983 18.25218,194.86384 18.25218,197.65243 0,0.70245 -0.22377,1.19562 -0.53331,1.17532 -0.29332,-0.0192 -45.7477,-8.01218 -101.00973,-17.76211 z"
   id="path58884"
   transform="matrix(26.458636,0,0,26.458636,-3780.8544,-2.1866781e-4)" /><path
   style="fill:#ff5001;fill-opacity:1;stroke:#000000;stroke-width:0.426651"
   d="m 707.60146,190.878 c -12.29594,-4.74503 -26.3948,-9.19645 -38.39863,-12.12357 -6.45311,-1.57358 -12.00028,-2.93895 -12.32706,-3.03415 -0.94208,-0.27448 -0.44292,-4.3994 3.11632,-25.75229 3.54839,-21.28779 3.64413,-21.75685 4.53954,-22.24237 3.95627,-2.1452 28.68089,-17.50139 29.73389,-18.46739 0.41744,-0.38295 0.29593,-0.83123 -0.57124,-2.10739 -0.60582,-0.89153 -1.02613,-1.69631 -0.93404,-1.7884 0.75126,-0.75126 11.94248,-5.30558 13.04495,-5.3087 0.77198,-0.002 2.18254,0.39341 3.13456,0.8791 0.95203,0.48568 1.78475,0.82167 1.8505,0.74664 0.0657,-0.075 0.52774,-0.94598 1.02667,-1.935434 0.49893,-0.989452 1.24996,-1.982476 1.66897,-2.206721 1.12125,-0.600077 9.71264,-2.145181 12.67044,-2.278696 l 2.55545,-0.115352 0.95133,12.586223 c 1.14989,15.21308 1.34467,22.94441 0.6486,25.74558 -0.28242,1.13653 -0.81606,5.55238 -1.18588,9.81298 -0.36981,4.26061 -0.83847,7.91518 -1.04147,8.12127 -1.66514,1.69058 -13.66909,-2.63153 -20.86932,-7.51415 -3.08698,-2.09334 -8.13166,-6.39019 -10.83179,-9.22609 -2.87313,-3.01758 -3.60351,-4.51164 -5.57765,-11.40956 -1.43464,-5.01282 -1.46836,-5.07589 -2.66468,-4.98354 -1.33915,0.10337 -16.80601,7.55981 -16.80286,8.10052 10e-4,0.18643 1.26232,1.87492 2.80273,3.75219 3.61716,4.40815 4.20936,5.60446 5.06876,10.23963 1.80239,9.72111 6.4619,19.81156 12.81193,27.74496 4.96536,6.20347 9.03677,9.58705 11.53595,9.58705 1.67928,0 2.26606,0.63714 6.28686,6.82642 4.53172,6.97573 5.63308,8.96534 4.94412,8.93147 -0.31562,-0.0155 -3.54975,-1.17662 -7.18695,-2.58023 z"
   id="path58923"
   transform="matrix(26.458636,0,0,26.458636,-3780.8544,-2.1866781e-4)" /><path
   style="fill:#ff5001;fill-opacity:1;stroke:#000000;stroke-width:0.426651"
   d="m 537.79417,283.96858 c 0,-0.86533 1.3074,-16.1764 1.52375,-17.84473 l 0.23514,-1.81327 h 4.60004 c 2.53002,0 6.90727,0.12406 9.72721,0.27569 l 5.12716,0.27568 0.30468,8.51007 c 0.16757,4.68053 0.21048,8.60426 0.0954,8.71939 -0.11513,0.11513 -4.20926,0.57034 -9.09806,1.01158 -4.8888,0.44124 -9.7047,0.90162 -10.702,1.02307 -0.99729,0.12145 -1.81327,0.0506 -1.81327,-0.15748 z"
   id="path58962"
   transform="matrix(26.458636,0,0,26.458636,-3780.8544,-2.1866781e-4)" /><path
   style="fill:#ff5001;fill-opacity:1;stroke:#000000;stroke-width:0.426651"
   d="m 581.12046,273.1636 c 0.16543,-3.8132 0.38367,-7.07708 0.48498,-7.25307 0.22579,-0.39225 5.13393,-0.40905 11.54676,-0.0395 l 4.79983,0.27657 v 6.33459 c 0,5.74367 -0.0697,6.33577 -0.74664,6.34726 -0.41065,0.007 -3.53054,0.28926 -6.93309,0.6273 -3.40254,0.33804 -6.92133,0.62033 -7.81953,0.6273 l -1.63309,0.0127 z"
   id="path59001"
   transform="matrix(26.458636,0,0,26.458636,-3780.8544,-2.1866781e-4)" /><path
   style="fill:#ff5001;fill-opacity:1;stroke:#000000;stroke-width:0.426651"
   d="m 582.90954,240.31144 c 0.10385,-1.70127 0.60299,-10.86895 1.10922,-20.37261 l 0.9204,-17.27938 h 5.54647 5.54647 l 0.71484,15.7861 c 0.93918,20.74039 0.94695,21.97255 0.13846,21.97255 -0.44697,0 -0.63997,0.45036 -0.63997,1.49328 v 1.49328 h -6.76235 -6.76235 z"
   id="path59040"
   transform="matrix(26.458636,0,0,26.458636,-3780.8544,-2.1866781e-4)" /><path
   style="fill:#ff5001;fill-opacity:1;stroke:#000000;stroke-width:0.426651"
   d="m 578.9963,312.62886 c 0.16229,-2.28792 0.33783,-4.21181 0.39009,-4.27532 0.0523,-0.0635 5.64286,-1.26494 12.42356,-2.66985 12.82871,-2.65801 17.21967,-3.79393 19.84713,-5.13436 2.49075,-1.27069 4.14212,-3.22025 4.88121,-5.76263 0.51498,-1.77148 0.86741,-2.31712 1.49663,-2.31712 0.79465,0 0.82303,-0.44137 0.82303,-12.79954 v -12.79955 h 3.57625 3.57625 l 0.275,18.666 c 0.15125,10.26631 0.31787,21.11419 0.37028,24.10641 l 0.0953,5.44042 -2.55991,0.003 c -1.40795,0.002 -11.1996,0.38266 -21.75923,0.84694 -10.55962,0.46429 -20.21886,0.84675 -21.46498,0.84992 l -2.26566,0.006 z"
   id="path59079"
   transform="matrix(26.458636,0,0,26.458636,-3780.8544,-2.1866781e-4)" /><path
   style="fill:#ff5001;fill-opacity:1;stroke:#000000;stroke-width:0.426651"
   d="m 507.78008,205.57964 c -0.15299,-2.50042 -0.27816,-5.94886 -0.27816,-7.6632 v -3.11699 l 2.02659,-0.60641 c 1.11463,-0.33353 7.27342,-2.27789 13.6862,-4.3208 6.41278,-2.04292 11.71895,-3.6494 11.79149,-3.56997 0.0942,0.10317 -2.93027,22.81619 -3.15816,23.71691 -0.0148,0.0587 -5.37362,0.10667 -11.90839,0.10667 h -11.8814 z"
   id="path59118"
   transform="matrix(26.458636,0,0,26.458636,-3780.8544,-2.1866781e-4)" /><path
   style="fill:#ff5001;fill-opacity:1;stroke:#000000;stroke-width:0.426651"
   d="m 333.00168,208.87307 -3.62633,-0.2405 -0.35109,-2.55991 c -0.47389,-3.45538 -0.0258,-16.41277 0.75936,-21.95843 0.34994,-2.47168 0.74292,-5.36606 0.87328,-6.43195 l 0.23702,-1.93799 6.67813,-0.93513 c 3.67297,-0.51433 6.76993,-0.84333 6.88214,-0.73113 0.1122,0.11221 -0.11819,7.64489 -0.51199,16.7393 -0.3938,9.09441 -0.71264,16.96727 -0.70855,17.49525 0.007,0.92035 -0.12899,0.95668 -3.29909,0.88048 -1.81861,-0.0437 -4.9384,-0.18771 -6.93288,-0.31999 z"
   id="path59157"
   transform="matrix(26.458636,0,0,26.458636,-3780.8544,-2.1866781e-4)" /><path
   style="fill:#ffd49d;fill-opacity:1;stroke:#000000;stroke-width:0.426651"
   d="m 244.89794,197.10198 c -0.93863,-0.57804 -1.8809,-1.11013 -2.09393,-1.18242 -0.21303,-0.0723 0.13095,-1.0158 0.7644,-2.0967 1.10723,-1.88936 1.27052,-1.99165 4.22719,-2.64823 13.55971,-3.01116 18.03736,-3.93869 18.22159,-3.77455 0.50296,0.44809 -5.5879,5.58006 -8.33111,7.01953 -3.00489,1.57679 -9.09115,3.77165 -10.38935,3.74668 -0.3807,-0.007 -1.46015,-0.48626 -2.39879,-1.06431 z"
   id="path59196"
   transform="matrix(26.458636,0,0,26.458636,-3780.8544,-2.1866781e-4)" /><path
   style="fill:#ffd49d;fill-opacity:1;stroke:#000000;stroke-width:0.426651"
   d="m 250.90406,170.15594 c -0.16968,-10.91273 -0.22815,-19.92168 -0.12994,-20.01989 0.2851,-0.2851 7.22976,1.82893 9.96905,3.03468 1.37543,0.60543 3.50875,1.709 4.74071,2.45238 1.97056,1.18906 2.23992,1.51952 2.23992,2.748 0,2.03324 1.85854,3.95701 4.11519,4.25963 1.63562,0.21934 1.85218,0.40783 2.8799,2.50671 1.43034,2.92113 1.41729,3.31156 -0.0995,2.97842 l -1.21078,-0.26593 0.20119,4.52357 c 0.18574,4.17633 0.13901,4.53984 -0.60879,4.73539 -0.48601,0.1271 -1.52992,1.61025 -2.60999,3.70817 -2.99785,5.82308 -2.65992,5.59712 -10.98694,7.34625 -3.98919,0.83794 -7.46423,1.59338 -7.7223,1.67874 -0.33378,0.1104 -0.55828,-5.57222 -0.77773,-19.68612 z"
   id="path61768"
   transform="matrix(26.458636,0,0,26.458636,-3780.8544,-2.1866781e-4)" /><path
   style="fill:#ffd49d;fill-opacity:1;stroke:#000000;stroke-width:0.426651"
   d="m 340.6812,275.25428 c 0,-0.55141 0.3907,-9.61077 0.86822,-20.13193 l 0.86823,-19.12937 2.48417,-2.24804 c 3.51211,-3.17828 4.49605,-5.54609 4.49605,-10.81955 0,-4.76861 -0.90167,-7.28611 -3.95002,-11.02866 l -1.86734,-2.29259 0.918,-22.03169 c 1.13466,-27.23125 1.62667,-36.79089 1.90803,-37.07225 0.52269,-0.52269 107.609,-2.53321 108.11859,-2.02991 0.21222,0.20961 13.69956,124.78169 13.54076,125.06556 -0.0161,0.0288 -2.43552,0.1851 -5.37655,0.34745 l -5.34731,0.29518 -1.61969,-18.48013 c -0.89083,-10.16407 -1.73032,-19.60844 -1.86553,-20.98747 l -0.24584,-2.50734 -6.01335,0.28798 c -3.30734,0.1584 -25.76349,1.13354 -49.90254,2.167 -24.13905,1.03345 -43.98329,1.9731 -44.09829,2.08811 -0.15701,0.15701 -4.32276,37.48905 -4.3731,39.19021 -0.005,0.17599 -1.9294,0.31998 -4.27598,0.31998 -4.19379,0 -4.26651,-0.0171 -4.26651,-1.00254 z m 111.35603,-48.60426 c 0,-1.17567 -1.72602,-6.67492 -2.95416,-9.4122 -3.89686,-8.68536 -10.64003,-15.11473 -19.07149,-18.18396 -17.2986,-6.29705 -38.49636,-5.34858 -54.34496,2.43162 -3.42379,1.68076 -4.64949,2.58894 -7.89316,5.84837 -2.11199,2.12224 -4.48603,4.96043 -5.27566,6.30709 -1.55941,2.65945 -3.65316,8.41852 -4.11095,11.30756 l -0.28677,1.80979 24.67603,0.11368 c 13.57183,0.0625 34.70768,0.16009 46.96858,0.21681 17.79188,0.0823 22.29254,-0.006 22.29254,-0.43876 z m -69.94162,-34.2709 c 10.37195,-3.04652 16.72829,-12.94169 14.98289,-23.32444 -2.75745,-16.40298 -22.64084,-23.02899 -34.67122,-11.55394 -6.28603,5.99585 -8.09833,15.37203 -4.56406,23.61281 1.59501,3.71907 6.4161,8.54133 10.14367,10.14613 4.33127,1.86472 10.0316,2.317 14.10872,1.11944 z m 56.69721,-1.22724 c 4.33462,-1.5421 9.19191,-5.82991 11.28637,-9.96313 4.73196,-9.33808 1.78285,-21.06854 -6.70028,-26.65121 -16.96825,-11.16663 -37.99135,5.28923 -31.2321,24.44698 2.44725,6.93625 9.4519,12.4197 16.81474,13.16309 3.32368,0.33558 7.18982,-0.056 9.83127,-0.99573 z"
   id="path61807"
   transform="matrix(26.458636,0,0,26.458636,-3780.8544,-2.1866781e-4)" /><path
   style="fill:#43af9b;fill-opacity:1;stroke:#000000;stroke-width:0.853303"
   d="m 364.85559,384.93449 c -12.59652,-1.73913 -13.18445,-1.90724 -13.78716,-3.94229 -0.34626,-1.16913 -1.25069,-11.14938 -2.00985,-22.17832 -0.75916,-11.02894 -1.58008,-21.30057 -1.82428,-22.82585 -0.34003,-2.12391 -0.13525,-2.77323 0.87463,-2.77323 0.74975,0 1.31862,-0.73625 1.31862,-1.70661 0,-0.93863 -0.52574,-1.70661 -1.1683,-1.70661 -1.21782,0 -2.21876,-4.15013 -2.23552,-9.26893 l -0.009,-2.86916 21.11925,0.62023 c 11.61558,0.34113 21.23196,0.72101 21.36972,0.84417 0.21765,0.19458 -7.56091,57.57456 -8.82127,65.07176 -0.25642,1.52527 -0.73681,2.72333 -1.06753,2.66233 -0.33072,-0.061 -6.52223,-0.92836 -13.75892,-1.92749 z"
   id="path92553"
   transform="matrix(26.458636,0,0,26.458636,-3780.8544,-2.1866781e-4)" /><path
   style="fill:#43af9b;fill-opacity:1;stroke:#000000;stroke-width:0.853303"
   d="m 507.79006,89.984611 c -1.78808,-15.547079 -1.97702,-14.906266 5.045,-17.111051 1.87727,-0.589427 3.69417,-1.213993 4.03756,-1.387924 0.34339,-0.173931 -2.63464,-6.825692 -6.61784,-14.78169 l -7.24219,-14.465451 h 11.95099 c 10.05423,0 11.95098,0.203143 11.95098,1.279955 0,1.238736 0.56378,1.416474 5.11982,1.614081 1.91955,0.08326 2.19975,0.56268 2.79705,4.785691 0.36508,2.581241 1.335,15.732772 2.15537,29.225625 l 1.49158,24.532463 h -14.55681 -14.55681 z"
   id="path92592"
   transform="matrix(26.458636,0,0,26.458636,-3780.8544,-2.1866781e-4)" /><path
   style="fill:#43af9b;fill-opacity:1;stroke:#000000;stroke-width:0.853303"
   d="m 733.12682,211.4058 c -14.04794,-22.3079 -25.34704,-41.46025 -24.76228,-41.9729 0.40161,-0.35209 8.15411,-4.92373 17.22778,-10.1592 14.20415,-8.19573 17.02146,-9.51904 20.26595,-9.51904 3.42739,0 3.76836,-0.18864 3.76836,-2.08487 0,-1.87534 2.69383,-4.74155 4.45638,-4.74155 1.16105,0 0.71308,7.66848 -0.59583,10.19963 -1.53055,2.95976 -5.7333,5.66333 -10.047,6.4631 -2.63901,0.48927 -3.19989,0.95053 -3.19989,2.63155 0,2.38425 1.3563,2.54392 6.38828,0.75205 1.87094,-0.66623 3.65763,-0.93737 3.97041,-0.60252 0.31278,0.33485 2.9538,8.08633 5.86892,17.22553 2.91512,9.1392 5.7847,17.01092 6.37684,17.49271 1.33089,1.08287 3.95186,8.82095 3.15101,9.30295 -0.63491,0.38212 -29.59864,8.21245 -30.37717,8.21245 -0.26218,0 -1.38347,-1.43995 -2.49176,-3.19989 z"
   id="path92631"
   transform="matrix(26.458636,0,0,26.458636,-3780.8544,-2.1866781e-4)" /><path
   style="fill:#43af9b;fill-opacity:1;stroke:#000000;stroke-width:0.106663"
   d="m 733.3175,252.07344 c 0.91666,-1.8346 1.67332,-3.34293 1.68148,-3.35185 0.008,-0.009 1.0468,-0.14244 2.30809,-0.29669 1.26129,-0.15426 2.39237,-0.30164 2.51351,-0.32752 0.21035,-0.0449 0.23854,0.0779 0.62605,2.72831 0.22319,1.52644 0.37545,2.80569 0.33837,2.84277 -0.0371,0.0371 -1.99875,0.41782 -4.35925,0.84608 -2.36051,0.42826 -4.40052,0.80473 -4.53337,0.83659 -0.20814,0.0499 -0.0111,-0.40324 1.42512,-3.27769 z"
   id="path92670"
   transform="matrix(26.458636,0,0,26.458636,-3780.8544,-2.1866781e-4)" /><path
   style="fill:#43af9b;fill-opacity:1;stroke:#000000;stroke-width:0.426651"
   d="m 380.78643,427.85971 c -1.05596,-0.0748 -2.90461,-0.24413 -4.1081,-0.37635 l -2.18818,-0.24039 -0.41295,-2.08849 c -0.46785,-2.3662 -0.29071,-2.5562 2.38328,-2.5562 1.37504,0 1.92993,0.35572 4.32595,2.77323 1.51173,1.52528 2.56214,2.73969 2.33426,2.6987 -0.22788,-0.041 -1.27829,-0.13572 -2.33426,-0.2105 z"
   id="path92863"
   transform="matrix(26.458636,0,0,26.458636,-3780.8544,-2.1866781e-4)" /><path
   style="fill:#43af9b;fill-opacity:1;stroke:#000000;stroke-width:0.106663"
   d="m 229.87062,292.32923 c -0.21481,-0.34757 -2.48632,-5.3533 -2.43009,-5.35519 0.0393,-10e-4 1.05533,-0.14287 2.25795,-0.31453 l 2.18659,-0.31212 0.63998,0.6659 c 1.8219,1.89569 3.57859,3.91411 3.44813,3.96186 -0.12672,0.0464 -5.95419,1.4411 -6.02125,1.4411 -0.0151,0 -0.0517,-0.0392 -0.0813,-0.087 z"
   id="path93019"
   transform="matrix(26.458636,0,0,26.458636,-3780.8544,-2.1866781e-4)" /><path
   style="fill:#43af9b;fill-opacity:1;stroke:#000000;stroke-width:0.213326"
   d="m 399.66576,223.55687 c 0,-0.71686 0.66726,-1.98527 1.42041,-2.70009 2.57376,-2.44275 6.7386,-1.03698 7.55065,2.54859 l 0.15702,0.69331 h -4.56404 -4.56404 z"
   id="path93175"
   transform="matrix(26.458636,0,0,26.458636,-3780.8544,-2.1866781e-4)" /><path
   style="fill:#43af9b;fill-opacity:1;stroke:#000000;stroke-width:0.213326"
   d="m 429.4128,176.55134 c -1.18485,-0.53818 -2.35046,-1.9561 -2.65641,-3.23142 -0.82131,-3.4236 2.88653,-6.56769 6.14171,-5.20793 1.74394,0.72849 2.81971,2.35193 2.81971,4.2552 0,3.28501 -3.36629,5.51895 -6.30501,4.18415 z"
   id="path93214"
   transform="matrix(26.458636,0,0,26.458636,-3780.8544,-2.1866781e-4)" /></g>
</svg>
