<?xml version="1.0" encoding="UTF-8" standalone="no"?>
<!-- Created with Inkscape (http://www.inkscape.org/) -->

<svg
   width="8.46665mm"
   height="8.4666557mm"
   viewBox="0 0 8.4666498 8.4666556"
   version="1.1"
   id="svg207504"
   sodipodi:docname="favicon-32x32.svg"
   inkscape:version="1.1.2 (b8e25be8, 2022-02-05)"
   xmlns:inkscape="http://www.inkscape.org/namespaces/inkscape"
   xmlns:sodipodi="http://sodipodi.sourceforge.net/DTD/sodipodi-0.dtd"
   xmlns="http://www.w3.org/2000/svg"
   xmlns:svg="http://www.w3.org/2000/svg">
  <sodipodi:namedview
     id="namedview207506"
     pagecolor="#ffffff"
     bordercolor="#666666"
     borderopacity="1.0"
     inkscape:pageshadow="2"
     inkscape:pageopacity="0.0"
     inkscape:pagecheckerboard="0"
     inkscape:document-units="mm"
     showgrid="false"
     inkscape:zoom="3.6203867"
     inkscape:cx="64.772086"
     inkscape:cy="13.396359"
     inkscape:window-width="1312"
     inkscape:window-height="1035"
     inkscape:window-x="431"
     inkscape:window-y="35"
     inkscape:window-maximized="0"
     inkscape:current-layer="layer1" />
  <defs
     id="defs207501" />
  <g
     inkscape:label="Layer 1"
     inkscape:groupmode="layer"
     id="layer1"
     transform="translate(-144.8015,-32.663645)">
    <path
       id="Rectangle-4"
       style="display:inline;fill:#e5261f;fill-rule:evenodd;stroke:none;stroke-width:0.264583"
       d="m 145.59525,32.663645 h 6.87916 c 0.43973,0 0.79374,0.354012 0.79374,0.793749 v 6.879158 c 0,0.439737 -0.35401,0.793749 -0.79374,0.793749 h -6.87916 c -0.43974,0 -0.79375,-0.354012 -0.79375,-0.793749 v -6.879158 c 0,-0.439737 0.35401,-0.793749 0.79375,-0.793749 z" />
    <path
       d="m 148.64861,39.695708 q -0.46806,0 -0.83471,-0.08883 -0.36665,-0.08075 -0.63969,-0.218026 -0.0702,-0.04037 -0.11701,-0.0969 -0.0468,-0.05653 -0.0702,-0.145351 -0.078,-0.290701 -0.11702,-0.532953 -0.0312,-0.242251 -0.0312,-0.419902 0,-0.08883 0.0312,-0.161501 0.039,-0.07268 0.11702,-0.07268 0.0936,0 0.14042,0.07268 0.0468,0.07267 0.078,0.161501 0.20282,0.541028 0.49926,0.799429 0.30424,0.258402 0.81131,0.258402 0.31204,0 0.56167,-0.169576 0.25744,-0.169576 0.44466,-0.452203 0.18723,-0.290701 0.29644,-0.646004 0.11702,-0.363377 0.14822,-0.742904 0.0156,-0.05653 -0.0156,-0.07267 -0.0312,-0.01615 -0.0702,0.02422 -0.11702,0.104976 -0.26524,0.193801 -0.14042,0.08075 -0.23403,0.08075 -0.14822,0 -0.24963,-0.04845 -0.10141,-0.05653 -0.22623,-0.11305 -0.11702,-0.0646 -0.25743,-0.121126 -0.13262,-0.05653 -0.25744,-0.05653 -0.24183,0 -0.40565,0.08075 -0.16382,0.07268 -0.26524,0.153426 -0.10141,0.07268 -0.14822,0.07268 -0.0546,0 -0.11701,-0.0646 -0.0546,-0.0646 -0.0546,-0.121125 0,-0.02423 0.10141,-0.153426 0.10142,-0.137276 0.26524,-0.290702 0.17162,-0.161501 0.35885,-0.282627 0.19502,-0.121125 0.38225,-0.121125 0.14822,0 0.28083,0.04845 0.13262,0.04038 0.25744,0.104975 0.13262,0.07268 0.23403,0.104976 0.10141,0.0323 0.18722,0.0323 0.0858,0 0.17163,-0.01615 0.0858,-0.01615 0.17942,-0.04845 0.039,-0.01615 0.0936,-0.08075 0.0546,-0.0646 0.0468,-0.153426 -0.039,-0.452203 -0.21063,-0.84788 -0.16382,-0.395677 -0.45246,-0.646003 -0.28864,-0.250327 -0.70989,-0.250327 -0.33545,0 -0.61628,0.145351 -0.28084,0.137276 -0.47587,0.395677 -0.19502,0.258402 -0.28083,0.613704 -0.0156,0.07267 -0.0702,0.153426 -0.0546,0.07268 -0.11702,0.07268 -0.078,0 -0.0936,-0.07268 -0.0156,-0.08075 -0.0156,-0.153426 0,-0.177651 0.0234,-0.508728 0.0312,-0.339152 0.078,-0.629854 0.0156,-0.08882 0.0546,-0.153426 0.0468,-0.07267 0.14822,-0.08075 0.10141,-0.01615 0.24963,-0.05653 0.14822,-0.04037 0.28864,-0.0646 0.20282,-0.04037 0.44466,-0.0646 0.24963,-0.02423 0.53827,-0.02423 0.58507,0 1.07654,0.209951 0.49146,0.209951 0.85031,0.573328 0.36665,0.363377 0.56167,0.83173 0.20283,0.468353 0.20283,0.993231 0,0.532953 -0.20283,1.049756 -0.20282,0.508728 -0.56947,0.920555 -0.36665,0.411828 -0.88152,0.654079 -0.50706,0.242251 -1.13115,0.242251 z"
       style="font-size:29.9976px;line-height:1.25;font-family:'EB Garamond';-inkscape-font-specification:'EB Garamond';display:inline;fill:#ffffff;fill-rule:evenodd;stroke:none;stroke-width:0.198421"
       id="path212243" />
  </g>
</svg>
