<?xml version="1.0" encoding="UTF-8"?>
<svg width="700pt" height="700pt" version="1.1" viewBox="0 0 700 700" xmlns="http://www.w3.org/2000/svg">
 <path d="m350 34.301c-50.742-0.046875-100.25 15.629-141.71 44.879-41.465 29.246-72.848 70.625-89.832 118.44-16.98 47.816-18.727 99.719-4.9961 148.57 13.73 48.848 42.262 92.242 81.668 124.21 1.6016 2.9219 4.3164 5.0664 7.5234 5.9531 42.41 32.098 94.164 49.43 147.35 49.348 65.164 0 127.66-25.887 173.73-71.965 46.078-46.074 71.965-108.57 71.965-173.73s-25.887-127.66-71.965-173.73c-46.074-46.078-108.57-71.965-173.73-71.965zm0 86.277v-0.003906c22.766 0.023437 44.59 9.0898 60.672 25.203 16.078 16.117 25.102 37.957 25.078 60.723s-9.0898 44.59-25.203 60.672-37.957 25.102-60.723 25.078-44.59-9.0898-60.668-25.203c-16.082-16.113-25.105-37.957-25.082-60.723 0.046875-22.758 9.1211-44.566 25.23-60.645 16.109-16.074 37.938-25.105 60.695-25.105zm0 378.88v-0.003906c-46.211 0.125-91.258-14.465-128.62-41.648-7.5273-5.5742-14.715-11.594-21.523-18.023 10.023-31.812 30.094-59.516 57.195-78.953 27.105-19.438 59.781-29.559 93.129-28.848 33.309-0.76172 65.965 9.3008 93.066 28.672 27.105 19.375 47.195 47.016 57.258 78.777-6.7852 6.582-14.035 12.664-21.699 18.199-37.379 27.316-82.508 41.969-128.8 41.824z"/>
</svg>
